# Blender 4.2.2 LTS
# www.blender.org
mtllib Axe.mtl
o Cube.001
v 0.425938 -0.052535 -0.110064
v 0.315107 -0.062512 0.111897
v 0.241432 0.056089 -0.067027
v 1.373095 0.008997 0.031673
v -0.328682 0.065297 -0.059177
v -0.171712 -0.055936 -0.071972
v -0.327862 0.054761 0.080197
v -0.321015 -0.040860 0.088834
v 1.183941 0.050536 0.086045
v 0.956930 0.061911 0.074871
v 0.960586 -0.081549 0.070657
v 1.275984 -0.080159 0.051241
v 0.956694 0.060192 -0.063120
v 1.233833 0.015840 -0.030312
v 1.292732 -0.077823 -0.032081
v 0.959089 -0.076764 -0.063745
v 0.335745 0.044463 0.086316
v -0.371877 0.042975 -0.065124
v 1.336029 -0.427568 0.023642
v 0.949007 -0.453645 0.014226
v 0.882140 -0.326520 0.052861
v 0.882140 -0.326520 -0.041152
v 1.386832 -0.326520 -0.041152
v 1.386832 -0.326520 0.052861
v 0.941463 -0.125297 -0.080138
v 1.327509 -0.125297 0.091848
v 0.941463 -0.125297 0.091848
v 1.327509 -0.125297 -0.080138
v 1.026392 -0.000234 -0.081844
v 1.138589 -0.047735 0.098092
vn 0.2607 -0.0727 0.9627
vn -0.0364 -0.9980 -0.0525
vn -0.9553 -0.0420 0.2927
vn 0.1471 0.9634 -0.2242
vn 0.0249 0.1948 -0.9805
vn 0.6843 -0.7196 0.1174
vn -0.0180 0.1677 0.9857
vn 0.0490 0.1674 -0.9847
vn 0.0159 0.9974 0.0704
vn 0.8934 -0.4492 -0.0000
vn 0.1193 0.9858 -0.1179
vn 0.1655 0.0447 -0.9852
vn 0.0958 -0.1893 0.9772
vn 0.4026 0.2697 -0.8747
vn -0.8850 -0.4655 -0.0000
vn 0.0229 -0.4646 -0.8852
vn -0.4655 0.8823 0.0694
vn -0.0018 -0.2852 0.9585
vn -0.0000 -0.1902 0.9817
vn -0.0000 -0.1902 -0.9817
vn 0.9592 0.2828 -0.0000
vn -0.9592 0.2828 -0.0000
vn -0.4286 -0.8454 -0.3187
vn -0.0159 0.9991 0.0391
vn 0.0153 0.0662 0.9977
vn -0.0377 0.1826 -0.9825
vn -0.0148 -0.9999 0.0033
vn -0.9288 0.3704 0.0103
vn 0.7327 0.6784 0.0543
vn 0.0372 0.5616 -0.8266
vn 0.0215 0.5760 0.8172
vt 0.397449 0.787498
vt 0.422094 0.627158
vt 0.474187 0.863289
vt 0.808132 0.307122
vt 0.713028 0.236964
vt 0.740274 0.052368
vt 0.837954 -0.000000
vt 0.485710 0.698943
vt 0.657884 0.677673
vt 0.517860 0.899026
vt 0.311789 0.802737
vt 0.803860 0.542266
vt 0.833683 0.348356
vt 0.922928 0.307122
vt 0.924084 0.446414
vt 0.911638 0.554657
vt 0.306598 0.633067
vt 0.128847 0.909558
vt 0.144730 0.718530
vt 0.238561 0.762707
vt 0.227910 0.934665
vt 0.718643 0.554657
vt 0.713028 0.514158
vt 0.750018 0.336964
vt 0.791177 0.677673
vt 0.891637 0.687490
vt 0.891720 0.881667
vt 0.805409 0.891320
vt 0.926379 0.892289
vt 0.915541 0.892464
vt 0.919868 0.866541
vt 0.459187 0.886510
vt 0.267772 0.886510
vt 0.240017 0.777102
vt 0.262965 0.639268
vt 0.050401 0.674715
vt 0.018798 0.735657
vt 0.033090 0.933773
vt -0.000000 0.911622
vt 0.002969 0.672640
vt 0.881899 0.902104
vt 0.903394 0.919365
vt 0.870167 0.923380
vt 0.979395 0.904283
vt 0.992440 0.928013
vt 0.954323 0.937525
vt 0.951165 0.919444
vt 0.477071 0.892995
vt 0.838725 0.879371
vt 0.849817 0.871552
vt 0.848669 0.913246
vt 0.835002 0.912300
vt 0.842456 0.978669
vt 0.832002 0.977945
vt 0.985396 0.961039
vt 0.957565 0.962532
vt 0.947277 0.948019
vt 0.911531 0.922785
vt 0.907056 0.939074
vt 0.867647 0.953920
vt 0.697121 0.899026
vt 0.697121 0.695741
vt 0.697121 0.886423
vt 0.914996 0.288764
vt 0.914996 0.064453
vt 0.894949 0.966306
vt 0.875595 0.969975
vt 0.934282 0.955790
vt 0.917187 0.929851
vt 1.000000 0.987280
vt 0.945047 0.991674
vt 0.841039 0.992529
vt 0.832534 0.992156
s 0
usemtl Material
f 4/1/1 9/3/1 12/2/1
f 2/4/2 1/7/2 16/6/2 11/5/2
f 7/8/3 18/10/3 8/9/3
f 4/1/4 14/11/4 9/3/4
f 3/12/5 13/16/5 29/15/5 16/14/5 1/13/5
f 15/17/6 4/1/6 12/2/6
f 17/18/7 7/21/7 8/20/7 2/19/7
f 5/22/8 6/24/8 18/23/8
f 17/25/9 3/28/9 5/27/9 7/26/9
f 24/29/10 19/31/10 23/30/10
f 10/32/11 9/3/11 14/11/11 13/33/11
f 15/17/12 16/35/12 29/34/12 13/33/12 14/11/12
f 11/36/13 12/40/13 9/39/13 10/38/13 30/37/13
f 14/11/14 4/1/14 15/17/14
f 20/41/15 21/43/15 22/42/15
f 19/44/16 20/47/16 22/46/16 23/45/16
f 7/8/17 5/48/17 18/10/17
f 19/49/18 24/52/18 21/51/18 20/50/18
f 27/53/19 21/51/19 24/52/19 26/54/19
f 28/55/20 23/45/20 22/46/20 25/56/20
f 26/57/21 24/29/21 23/30/21 28/58/21
f 25/59/22 22/42/22 21/43/22 27/60/22
f 6/61/23 8/9/23 18/10/23
f 10/62/24 13/63/24 3/28/24 17/25/24
f 10/38/25 17/18/25 2/19/25 11/36/25 30/37/25
f 5/22/26 3/12/26 1/13/26 6/24/26
f 8/64/27 6/65/27 1/7/27 2/4/27
f 16/66/28 25/59/28 27/60/28 11/67/28
f 12/68/29 26/57/29 28/58/29 15/69/29
f 15/70/30 28/55/30 25/56/30 16/71/30
f 11/72/31 27/53/31 26/54/31 12/73/31
