# Blender 4.2.2 LTS
# www.blender.org
mtllib bench.mtl
o CubeMain.001
v 0.044448 0.297376 2.709188
v 0.006454 -0.480213 1.463313
v 0.006455 -0.480213 -1.960858
v -0.500619 0.297376 2.678812
v 0.354399 -0.480213 1.664199
v 0.064889 0.480213 2.697797
v 0.354399 -0.480213 -1.759972
v 0.354399 -0.480213 2.065970
v -0.452607 0.480213 2.667421
v 0.044448 0.297376 -2.697798
v 0.006454 -0.480213 2.266856
v 0.354399 -0.480213 -1.358200
v 0.007613 0.323330 2.217038
v -0.341490 -0.480213 2.065970
v -0.427098 0.297376 -2.709188
v 0.089021 0.480213 -2.492759
v 0.006455 -0.480213 -1.157314
v -0.341490 -0.480213 1.664199
v -0.331980 0.480213 -2.587684
v -0.341490 -0.480213 -1.358200
v 0.500619 0.297376 2.709188
v -0.044448 0.297376 2.678812
v -0.341490 -0.480213 -1.759972
v 0.452304 0.480213 2.682610
v -0.166284 0.480213 2.663624
v 0.500619 0.297376 -2.697798
v 0.006098 0.297376 -2.591481
v 0.470912 0.480213 -2.637045
v -0.032799 0.480213 -2.424412
v 0.050775 0.323330 -1.221286
v 0.044448 0.297376 -1.215472
v 0.050775 0.323330 -2.033440
v 0.044448 0.297376 -2.027848
v 0.214230 0.297376 -1.690223
v 0.299464 0.297376 -1.377259
v 0.299464 0.297376 -1.390236
v 0.225469 0.297376 -1.683734
v 0.098388 0.297376 -2.056154
v -0.014314 0.323330 -2.000185
v -0.013297 0.317948 -2.000215
v -0.018372 0.323330 -1.845516
v -0.007414 0.297376 -1.182570
v -0.024819 0.323330 -1.173328
v 0.000477 0.297376 -2.005383
v -0.291011 0.297376 -1.356196
v -0.295523 0.297376 -1.841171
v -0.302250 0.297376 -1.362685
v -0.295523 0.297376 -1.854148
v -0.076509 0.297376 -1.139376
v 0.044448 0.297376 2.204791
v 0.047349 0.323330 2.205618
v 0.047349 0.323330 1.407437
v 0.044448 0.297376 1.406531
v 0.233289 0.297376 1.622955
v 0.312917 0.297376 2.114656
v 0.312917 0.297376 2.127633
v 0.244528 0.297376 1.629443
v 0.115205 0.297376 1.343351
v 0.103967 0.297376 1.349839
v -0.042794 0.323330 1.954407
v -0.043293 0.315497 2.173044
v -0.048400 0.323330 2.168085
v -0.039638 0.297376 2.177384
v -0.041882 0.300770 2.175210
v -0.038372 0.305409 1.486553
v -0.032953 0.297376 1.480255
v -0.040129 0.323330 1.490761
v -0.276437 0.297376 1.970435
v -0.287675 0.297376 1.963947
v -0.224891 0.297376 1.676054
v -0.224891 0.297376 1.663077
vn -0.9843 0.1762 -0.0023
vn -0.1375 0.5860 -0.7985
vn 0.9780 0.2085 0.0017
vn 0.0179 0.1046 0.9944
vn -0.0000 -1.0000 -0.0000
vn -0.0000 1.0000 -0.0000
vn -0.9293 0.3689 -0.0170
vn 0.2960 0.5633 -0.7714
vn 0.9184 0.3953 0.0167
vn 0.0051 0.0735 0.9973
vn 0.7699 0.0163 -0.6379
vn 0.9875 0.1188 -0.1032
vn 0.5179 0.0463 0.8542
vn -0.5944 -0.0218 0.8039
vn -0.9985 0.0544 -0.0075
vn -0.4762 -0.0643 -0.8770
vn 0.7127 -0.0645 -0.6985
vn 0.9925 0.0966 -0.0754
vn 0.4076 0.0042 0.9132
vn -0.5756 0.1000 0.8116
vn -0.9906 0.1042 -0.0885
vn -0.6040 0.0240 -0.7966
vt 0.380285 0.650610
vt 0.380289 0.645706
vt 0.382074 0.645815
vt 0.382074 0.696283
vt 0.380246 0.698272
vt 0.380251 0.691759
vt 0.380510 0.691814
vt 0.380517 0.683918
vt 0.380258 0.683861
vt 0.380279 0.658370
vt 0.380532 0.658361
vt 0.380539 0.650601
vt 0.036511 0.916183
vt 0.036945 0.914189
vt 0.040659 0.915592
vt 0.040948 0.916183
vt 0.403903 0.684776
vt 0.402135 0.684569
vt 0.402141 0.646251
vt 0.403903 0.645706
vt 0.060694 0.906793
vt 0.058903 0.906374
vt 0.058912 0.902684
vt 0.060694 0.902490
vt 0.385823 0.658990
vt 0.385932 0.658927
vt 0.386511 0.658376
vt 0.386511 0.683877
vt 0.384031 0.685450
vt 0.384031 0.685577
vt 0.384750 0.688431
vt 0.384860 0.688494
vt 0.385986 0.692053
vt 0.386511 0.691778
vt 0.386511 0.698294
vt 0.382074 0.698294
vt 0.382074 0.645706
vt 0.386511 0.645706
vt 0.386511 0.650612
vt 0.383900 0.651362
vt 0.383900 0.651488
vt 0.384565 0.656208
vt 0.384674 0.656271
vt 0.390659 0.697592
vt 0.386945 0.696189
vt 0.386710 0.645706
vt 0.390478 0.645854
vt 0.142329 0.817706
vt 0.144162 0.817825
vt 0.144246 0.868948
vt 0.142329 0.870108
vt 0.052135 0.905129
vt 0.050332 0.903666
vt 0.050246 0.900539
vt 0.052009 0.901460
vt 0.402030 0.654283
vt 0.402106 0.654292
vt 0.402043 0.673367
vt 0.401796 0.673418
vt 0.401780 0.678233
vt 0.401775 0.679325
vt 0.401827 0.679317
vt 0.402023 0.679261
vt 0.402009 0.683460
vt 0.400246 0.682539
vt 0.400393 0.646642
vt 0.402135 0.645706
vt 0.402123 0.649298
vt 0.402091 0.649329
vt 0.401948 0.649356
vt 0.401873 0.649427
vt 0.401867 0.650935
vt 0.401856 0.654267
vt 0.060687 0.911095
vt 0.058903 0.909956
vt 0.058905 0.907246
vt 0.060687 0.906793
vt 0.393991 0.689816
vt 0.393989 0.689690
vt 0.393991 0.685036
vt 0.393881 0.684974
vt 0.391766 0.682894
vt 0.391100 0.683323
vt 0.390995 0.657424
vt 0.392837 0.655621
vt 0.392836 0.655494
vt 0.393408 0.652686
vt 0.393298 0.652625
vt 0.390967 0.650644
vt 0.390948 0.645767
vt 0.395384 0.645706
vt 0.395384 0.698114
vt 0.391156 0.697027
vt 0.391132 0.691326
vt 0.398329 0.695309
vt 0.395384 0.696830
vt 0.398167 0.645807
vt 0.412005 0.684412
vt 0.411805 0.676883
vt 0.415522 0.676898
vt 0.415522 0.684490
vt 0.412125 0.684413
vt 0.153403 0.856348
vt 0.153309 0.856345
vt 0.152903 0.848786
vt 0.155805 0.848883
vt 0.156004 0.856412
vt 0.411005 0.676530
vt 0.411703 0.668966
vt 0.415463 0.668966
vt 0.415117 0.676540
vt 0.412326 0.676533
vt 0.412404 0.676786
vt 0.411577 0.676784
vt 0.411759 0.676531
vt 0.409500 0.676705
vt 0.409410 0.676712
vt 0.408903 0.669173
vt 0.065857 0.871580
vt 0.066588 0.872054
vt 0.066512 0.879952
vt 0.065882 0.879623
vt 0.065857 0.878118
vt 0.123666 0.861849
vt 0.123666 0.861975
vt 0.116145 0.861079
vt 0.116148 0.857173
vt 0.123658 0.857195
vt 0.380349 0.691473
vt 0.380398 0.691472
vt 0.380344 0.692049
vt 0.372743 0.691130
vt 0.372145 0.689079
vt 0.379666 0.689975
vt 0.380175 0.691528
vt 0.408903 0.686730
vt 0.408903 0.690638
vt 0.405519 0.692592
vt 0.402135 0.690638
vt 0.402135 0.686730
vt 0.405519 0.684776
vt 0.155923 0.825579
vt 0.159640 0.825521
vt 0.159857 0.833118
vt 0.157068 0.833116
vt 0.156948 0.833118
vt 0.409020 0.653538
vt 0.411923 0.653579
vt 0.412948 0.661118
vt 0.408997 0.661084
vt 0.408903 0.661083
vt 0.155393 0.840942
vt 0.155711 0.833118
vt 0.159461 0.833395
vt 0.158494 0.840874
vt 0.155783 0.840714
vt 0.155794 0.840966
vt 0.409218 0.668747
vt 0.408903 0.661118
vt 0.411711 0.661118
vt 0.411393 0.668942
vt 0.410980 0.668953
vt 0.411021 0.668876
vt 0.411037 0.668732
vt 0.411055 0.668699
vt 0.409309 0.668747
vt 0.065857 0.864182
vt 0.066402 0.863706
vt 0.066788 0.863817
vt 0.066788 0.871580
vt 0.065937 0.870770
vt 0.065911 0.866260
vt 0.372172 0.655790
vt 0.372175 0.651884
vt 0.379710 0.652858
vt 0.379816 0.655675
vt 0.379816 0.655801
vt 0.380382 0.657527
vt 0.380381 0.658938
vt 0.380400 0.659004
vt 0.372771 0.657840
vt 0.380146 0.657632
vt 0.380213 0.657569
vt 0.412287 0.653521
vt 0.408903 0.651567
vt 0.408903 0.647660
vt 0.412287 0.645706
vt 0.415671 0.647660
vt 0.415671 0.651567
s 0
usemtl Material
f 50/1/1 1/2/1 6/3/1 16/4/1 10/5/1 33/6/1 32/7/1 30/8/1 31/9/1 53/10/1 52/11/1 51/12/1
f 10/13/2 16/14/2 28/15/2 26/16/2
f 26/17/3 28/18/3 24/19/3 21/20/3
f 21/21/4 24/22/4 6/23/4 1/24/4
f 58/25/5 59/26/5 53/27/5 31/28/5 35/29/5 36/30/5 37/31/5 34/32/5 38/33/5 33/34/5 10/35/5 26/36/5 21/37/5 1/38/5 50/39/5 56/40/5 55/41/5 57/42/5 54/43/5
f 28/44/6 16/45/6 6/46/6 24/47/6
f 4/48/7 9/49/7 19/50/7 15/51/7
f 15/52/8 19/53/8 29/54/8 27/55/8
f 65/56/9 66/57/9 42/58/9 43/59/9 41/60/9 39/61/9 40/62/9 44/63/9 27/64/9 29/65/9 25/66/9 22/67/9 63/68/9 64/69/9 61/70/9 62/71/9 60/72/9 67/73/9
f 22/74/10 25/75/10 9/76/10 4/77/10
f 48/78/5 46/79/5 47/80/5 45/81/5 49/82/5 42/83/5 66/84/5 71/85/5 70/86/5 69/87/5 68/88/5 63/89/5 22/90/5 4/91/5 15/92/5 27/93/5 44/94/5
f 29/95/6 19/96/6 9/91/6 25/97/6
f 37/98/11 7/99/11 3/100/11 38/101/11 34/102/11
f 36/103/12 35/104/12 12/105/12 7/106/12 37/107/12
f 49/108/13 17/109/13 12/110/13 35/111/13 31/112/13 30/113/13 43/114/13 42/115/13
f 45/116/14 47/117/14 20/118/14 17/109/14 49/108/14
f 43/119/6 30/120/6 32/121/6 39/122/6 41/123/6
f 46/124/15 48/125/15 23/126/15 20/127/15 47/128/15
f 40/129/16 39/130/16 32/7/16 33/6/16 38/131/16 3/132/16 23/133/16 48/134/16 44/135/16
f 20/136/5 23/137/5 3/138/5 7/139/5 12/140/5 17/141/5
f 5/142/17 2/143/17 58/144/17 54/145/17 57/146/17
f 8/147/18 5/148/18 57/149/18 55/150/18 56/151/18
f 13/152/19 11/153/19 8/154/19 56/155/19 50/156/19 51/157/19
f 69/158/20 14/159/20 11/160/20 13/161/20 62/162/20 61/163/20 64/164/20 63/165/20 68/166/20
f 62/167/6 13/168/6 51/169/6 52/170/6 67/171/6 60/172/6
f 18/173/21 14/174/21 69/175/21 70/176/21 71/177/21
f 67/178/22 52/11/22 53/10/22 59/179/22 58/180/22 2/181/22 18/173/22 71/177/22 66/182/22 65/183/22
f 18/184/5 2/185/5 5/186/5 8/187/5 11/188/5 14/189/5
