# Blender 4.2.3 LTS
# www.blender.org
mtllib Box.mtl
o Cube.002
v -1.088123 -1.088123 1.088123
v -1.088123 1.088123 1.088123
v -1.088123 -1.088123 -1.088123
v -1.088123 1.088123 -1.088123
v 1.088123 -1.088123 1.088123
v 1.088123 1.088123 1.088123
v 1.088123 -1.088123 -1.088123
v 1.088123 1.088123 -1.088123
v -1.088123 -1.088123 0.955960
v -1.088123 -1.088123 -0.955960
v -1.088123 1.088123 -0.955960
v -1.088123 1.088123 0.955960
v 1.088123 -1.088123 -0.955960
v 1.088123 -1.088123 0.955960
v 1.088123 1.088123 0.955960
v 1.088123 1.088123 -0.955960
v 1.088123 0.956620 1.088123
v 1.088123 -0.956620 1.088123
v 1.088123 -0.956620 -1.088123
v 1.088123 0.956620 -1.088123
v -1.088123 0.956620 -1.088123
v -1.088123 -0.956620 -1.088123
v -1.088123 -0.956620 1.088123
v -1.088123 0.956620 1.088123
v 1.088123 -0.900453 0.899832
v 1.088123 0.900453 0.899831
v 1.088123 -0.900453 -0.899831
v 1.088123 0.900453 -0.899832
v -1.088123 0.910630 -0.910002
v -1.088123 -0.910630 -0.910001
v -1.088123 -0.910630 0.910002
v -1.088123 0.910630 0.910001
v -0.919232 -1.088123 -0.895985
v -0.919232 -1.088123 0.895985
v 0.919232 -1.088123 -0.895985
v 0.919232 -1.088123 0.895985
v -0.933659 1.088123 -0.910047
v 0.933659 1.088123 -0.910047
v 0.933659 1.088123 0.910047
v -0.933659 1.088123 0.910047
v 0.980763 1.088123 1.088123
v -0.980763 1.088123 1.088123
v -0.980763 -1.088123 1.088123
v 0.980763 -1.088123 1.088123
v 0.980763 1.088123 -1.088123
v -0.980763 1.088123 -1.088123
v 0.980763 -1.088123 -1.088123
v -0.980763 -1.088123 -1.088123
v -0.927696 0.904859 1.088123
v 0.927696 0.904859 1.088123
v 0.927696 -0.904859 1.088123
v -0.927696 -0.904859 1.088123
v -0.930197 0.907299 -1.088123
v 0.930197 0.907299 -1.088123
v 0.930197 -0.907299 -1.088123
v -0.930197 -0.907299 -1.088123
v -1.000000 0.879147 -0.878541
v -1.000000 0.879147 0.878541
v -1.000000 -0.879147 0.878541
v -1.000000 -0.879147 -0.878541
v -0.901335 -0.879147 -1.000000
v -0.901335 0.879147 -1.000000
v 0.901335 -0.879147 -1.000000
v 0.901335 0.879147 -1.000000
v 1.000000 0.879147 0.878541
v 1.000000 0.879147 -0.878541
v 1.000000 -0.879147 0.878541
v 1.000000 -0.879147 -0.878541
v 0.901335 -0.879147 1.000000
v 0.901335 0.879147 1.000000
v -0.901335 -0.879147 1.000000
v -0.901335 0.879147 1.000000
v 0.901335 -1.000000 0.878541
v 0.901335 -1.000000 -0.878541
v -0.901335 -1.000000 0.878541
v -0.901335 -1.000000 -0.878541
v -0.901335 1.000000 0.878541
v -0.901335 1.000000 -0.878541
v 0.901335 1.000000 0.878541
v 0.901335 1.000000 -0.878541
v -0.300445 1.000000 -0.878541
v 0.300445 1.000000 -0.878541
v -0.300445 1.000000 0.878541
v 0.300445 1.000000 0.878541
v -0.242498 1.060922 -0.769729
v 0.242499 1.060922 -0.769729
v -0.307246 1.060922 0.752727
v 0.293644 1.060922 0.752727
v 0.901335 0.943360 0.878541
v 0.901335 0.943360 -0.878541
v 0.300445 0.943360 -0.878541
v 0.300445 0.943360 0.878541
v -1.000000 0.293049 0.878541
v -1.000000 -0.293049 0.878541
v -1.000000 0.293049 -0.878541
v -1.000000 -0.293049 -0.878541
v -0.901335 -0.293049 -1.000000
v -0.901335 0.293049 -1.000000
v 0.901335 -0.293049 -1.000000
v 0.901335 0.293049 -1.000000
v 1.000000 -0.879147 0.292847
v 1.000000 -0.879147 -0.292847
v 1.000000 0.879147 0.292847
v 1.000000 0.879147 -0.292847
v 0.300445 -0.879147 1.000000
v -0.300445 -0.879147 1.000000
v 0.300445 0.879147 1.000000
v -0.300445 0.879147 1.000000
v 0.901335 -1.000000 0.292847
v 0.901335 -1.000000 -0.292847
v -0.901335 -1.000000 0.292847
v -0.901335 -1.000000 -0.292847
v -0.901335 0.293049 -1.057308
v -0.901335 0.879147 -1.057308
v 0.901335 0.879147 -1.057308
v 0.901335 0.293049 -1.057308
v -0.901335 -0.879147 -0.939006
v 0.901335 -0.879147 -0.939006
v -0.901335 -0.293049 -0.939006
v 0.901335 -0.293049 -0.939006
v -1.058449 0.293049 0.878541
v -1.058449 -0.293049 0.878541
v -1.058449 0.293049 -0.878541
v -1.058449 -0.293049 -0.878541
v -0.945120 0.879147 -0.878541
v -0.945120 0.879147 0.878541
v -0.945120 0.293049 0.878541
v -0.945120 0.293049 -0.878541
v 0.901335 -0.879147 1.053186
v 0.901335 0.879147 1.053186
v 0.300445 -0.879147 1.053186
v 0.300445 0.879147 1.053186
v 0.300445 -0.879147 0.934456
v -0.300445 -0.879147 0.934456
v 0.300445 0.879147 0.934455
v -0.300445 0.879147 0.934455
v 1.072543 -0.879147 0.292847
v 1.072543 -0.879147 -0.292847
v 1.072543 0.879147 0.292847
v 1.072543 0.879147 -0.292847
v 0.933002 0.879147 0.878541
v 0.933002 -0.879147 0.878541
v 0.933002 -0.879147 0.292847
v 0.933002 0.879147 0.292847
v 0.901335 -0.949639 0.292847
v 0.901335 -0.949639 -0.292847
v -0.901335 -0.949639 0.292847
v -0.901335 -0.949639 -0.292847
v 0.901335 -1.053685 0.878541
v -0.901335 -1.053685 0.878541
v 0.901335 -1.053685 0.292847
v -0.901335 -1.053685 0.292847
v 0.183634 0.305084 1.000000
v 0.131082 0.179270 0.920374
v 0.217797 0.305084 1.053186
v -0.392255 -0.394444 1.000000
v -0.290716 -0.276376 0.934455
v 0.446662 1.000000 -0.112213
v 0.402457 1.060922 -0.214224
v 0.470464 0.943360 -0.068008
v -0.462194 1.000000 0.490063
v -0.417989 1.060922 0.432257
v 1.000000 0.010201 -0.493470
v 1.072543 0.108812 -0.428862
v 1.000000 -0.119013 0.320050
v 1.072543 -0.102012 0.153431
v 0.933002 -0.030603 0.411860
v -0.118333 0.048221 -1.000000
v -0.252989 0.191037 -1.057308
v 0.224425 -0.231842 -1.000000
v 0.146897 -0.362417 -0.939006
v -1.000000 0.539319 -0.048560
v -1.058449 0.483821 -0.163024
v -0.945120 0.594816 -0.107526
v -1.000000 -0.539319 0.013874
v -1.058449 -0.431792 0.104058
v 0.049892 -1.000000 -0.016964
v -0.241645 -0.949639 -0.181809
v 0.049892 -1.053685 0.036972
v 0.104890 -1.000000 -0.492637
vn -0.0000 -0.0000 1.0000
vn -1.0000 -0.0000 -0.0000
vn -0.0000 1.0000 -0.0000
vn 0.2846 -0.4303 -0.8566
vn 1.0000 -0.0000 -0.0000
vn -0.0000 -0.0000 -1.0000
vn -0.0000 -1.0000 -0.0000
vn -0.0000 -0.1942 -0.9810
vn -0.9581 -0.0000 0.2866
vn 0.9581 -0.0000 0.2866
vn 0.9503 -0.0000 -0.3113
vn -0.3364 -0.9417 -0.0000
vn 0.9388 0.3444 -0.0000
vn -0.0000 0.3367 0.9416
vn 0.2348 -0.0000 -0.9720
vn -0.0000 -0.9600 0.2801
vn -0.0000 -0.1942 0.9810
vn 0.2350 0.9720 -0.0000
vn -0.0000 0.9600 0.2801
vn 0.2348 -0.0000 0.9720
vn -0.3362 -0.0000 0.9418
vn -0.0000 -0.9526 -0.3043
vn -0.0000 0.3367 -0.9416
vn 0.9800 -0.1990 -0.0000
vn 0.2350 -0.9720 -0.0000
vn -0.3364 0.9417 -0.0000
vn -0.9503 -0.0000 -0.3113
vn -0.9388 0.3444 -0.0000
vn -0.9800 -0.1990 -0.0000
vn -0.3362 -0.0000 -0.9418
vn -0.0000 0.9526 -0.3043
vn -0.0000 0.9000 0.4358
vn -0.0000 0.8726 -0.4885
vn 0.7499 0.6384 -0.1737
vn -0.7192 0.6374 0.2764
vn 0.9528 0.2609 0.1555
vn -0.1502 -0.9393 -0.3084
vn 0.2869 0.1927 -0.9384
vn -0.5838 -0.7904 0.1857
vn -0.1721 -0.7101 -0.6827
vn 0.0039 -0.6839 -0.7296
vn -0.1870 0.9453 -0.2673
vn -0.3203 0.9107 0.2609
vn -0.9491 -0.0799 0.3048
vn 0.0138 -0.0000 0.9999
vn -0.9631 0.2145 0.1627
vn 0.7635 0.0576 0.6433
vn 0.7509 0.0481 0.6587
vn 0.5915 0.0616 0.8039
vn -0.0000 -0.8929 0.4502
vn -0.8993 -0.1121 0.4227
vn -0.9393 0.1632 0.3017
vn 0.8020 -0.0271 0.5968
vn 0.9724 0.1282 -0.1950
vn 0.8289 0.5489 0.1080
vn -0.7422 0.6630 -0.0974
vn 0.4875 -0.1541 -0.8594
vn 0.5286 -0.0768 0.8454
vn 0.7555 -0.0371 0.6541
vn 0.0909 -0.5698 -0.8168
vn -0.0026 -0.6819 -0.7315
vn -0.5464 0.7924 -0.2712
vn -0.5599 0.8089 0.1796
vn -0.7262 -0.6735 -0.1383
vn 0.3321 -0.4206 -0.8443
vn -0.2568 -0.4338 -0.8636
vt 0.864511 0.322444
vt 0.864511 0.299530
vt 0.850730 0.299530
vt 0.850730 0.322444
vt 0.874847 0.253698
vt 0.874847 0.276597
vt 0.106155 0.864847
vt 0.113022 0.864847
vt 0.119889 0.864847
vt 0.119889 0.869540
vt 0.106155 0.869540
vt 0.347715 0.493966
vt 0.347715 0.501007
vt 0.405612 0.694789
vt 0.405612 0.699483
vt 0.391887 0.699483
vt 0.391887 0.694789
vt 0.398749 0.694789
vt 0.576527 0.335756
vt 0.576527 0.331558
vt 0.651277 0.331558
vt 0.651277 0.335756
vt 0.651277 0.420840
vt 0.651277 0.415698
vt 0.656444 0.415698
vt 0.656444 0.420840
vt 0.661611 0.335756
vt 0.661611 0.330614
vt 0.736361 0.330614
vt 0.736361 0.335756
vt 0.736387 0.335756
vt 0.741528 0.335756
vt 0.741528 0.339953
vt 0.736387 0.339953
vt 0.571360 0.340897
vt 0.571360 0.335756
vt 0.576527 0.335756
vt 0.576527 0.340897
vt 0.741528 0.250672
vt 0.741528 0.255813
vt 0.736361 0.255813
vt 0.736361 0.250672
vt 0.576527 0.250672
vt 0.576527 0.254869
vt 0.571360 0.254869
vt 0.571360 0.250672
vt 0.576527 0.420840
vt 0.576527 0.425037
vt 0.571360 0.425037
vt 0.571360 0.420840
vt 0.821471 0.250672
vt 0.821471 0.254869
vt 0.746670 0.254869
vt 0.746670 0.250672
vt 0.576527 0.505924
vt 0.576527 0.501727
vt 0.651277 0.501727
vt 0.651277 0.505924
vt 0.656444 0.331558
vt 0.656444 0.335756
vt 0.656444 0.501727
vt 0.656444 0.505924
vt 0.651277 0.335756
vt 0.651277 0.340897
vt 0.736387 0.416642
vt 0.741528 0.416642
vt 0.741528 0.420840
vt 0.736387 0.420840
vt 0.571360 0.420840
vt 0.571360 0.415698
vt 0.576527 0.415698
vt 0.576527 0.420840
vt 0.661611 0.255813
vt 0.661611 0.250672
vt 0.741528 0.250672
vt 0.741528 0.254869
vt 0.661586 0.335756
vt 0.661586 0.339953
vt 0.656444 0.339953
vt 0.656444 0.340897
vt 0.656444 0.335756
vt 0.656444 0.330614
vt 0.741528 0.330614
vt 0.656444 0.255813
vt 0.821471 0.331558
vt 0.821471 0.335756
vt 0.746670 0.335756
vt 0.746670 0.331558
vt 0.661586 0.420840
vt 0.661586 0.416642
vt 0.656444 0.250672
vt 0.826612 0.331558
vt 0.826612 0.335756
vt 0.571360 0.505924
vt 0.571360 0.501727
vt 0.571360 0.335756
vt 0.571360 0.331558
vt 0.656444 0.416642
vt 0.656444 0.254869
vt 0.651277 0.254869
vt 0.651277 0.250672
vt 0.826612 0.250672
vt 0.826612 0.254869
vt 0.741528 0.331558
vt 0.741528 0.335756
vt 0.651277 0.425037
vt 0.656444 0.425037
vt 0.651277 0.420840
vt 0.656444 0.420840
vt 0.728586 0.494424
vt 0.725140 0.497529
vt 0.725140 0.420840
vt 0.728586 0.423945
vt 0.840394 0.325473
vt 0.840394 0.250672
vt 0.843839 0.253700
vt 0.843839 0.322444
vt 0.843839 0.325473
vt 0.843839 0.250672
vt 0.847284 0.253700
vt 0.847284 0.322444
vt 0.847284 0.253700
vt 0.850730 0.250672
vt 0.850730 0.325473
vt 0.847284 0.299530
vt 0.847284 0.276615
vt 0.871402 0.250672
vt 0.871402 0.325421
vt 0.867956 0.322395
vt 0.867956 0.253698
vt 0.874847 0.322395
vt 0.732031 0.420840
vt 0.732031 0.497529
vt 0.728586 0.470931
vt 0.728586 0.447438
vt 0.857620 0.322444
vt 0.854175 0.325473
vt 0.854175 0.250672
vt 0.857620 0.253700
vt 0.732031 0.497529
vt 0.732031 0.420840
vt 0.735476 0.423945
vt 0.735476 0.447438
vt 0.735476 0.470931
vt 0.735476 0.494424
vt 0.738922 0.494424
vt 0.735476 0.497529
vt 0.735476 0.420840
vt 0.738922 0.423945
vt 0.878292 0.250672
vt 0.878292 0.325421
vt 0.874847 0.299496
vt 0.830058 0.324255
vt 0.826612 0.327361
vt 0.830058 0.253777
vt 0.830058 0.277270
vt 0.830058 0.300763
vt 0.861066 0.250672
vt 0.861066 0.325473
vt 0.861066 0.325473
vt 0.861066 0.250672
vt 0.864511 0.253700
vt 0.864511 0.276615
vt 0.833503 0.250672
vt 0.833503 0.327361
vt 0.836948 0.250672
vt 0.836948 0.327361
vt 0.833503 0.324255
vt 0.833503 0.300763
vt 0.833503 0.277270
vt 0.833503 0.253777
vt 0.878292 0.253698
vt 0.881738 0.250672
vt 0.881738 0.325421
vt 0.878292 0.322395
vt 0.878292 0.299496
vt 0.878292 0.276597
vt 0.882366 0.548436
vt 0.878921 0.551463
vt 0.878921 0.476713
vt 0.882366 0.479740
vt 0.882366 0.502638
vt 0.882366 0.525537
vt 0.878968 0.410506
vt 0.878968 0.335756
vt 0.882413 0.338782
vt 0.882413 0.407479
vt 0.850730 0.253700
vt 0.854175 0.250672
vt 0.854175 0.325473
vt 0.850730 0.276615
vt 0.885183 0.250672
vt 0.885183 0.325421
vt 0.881738 0.322395
vt 0.881738 0.253698
vt 0.882366 0.551463
vt 0.882366 0.476713
vt 0.885811 0.479740
vt 0.885811 0.502638
vt 0.885811 0.525537
vt 0.885811 0.548436
vt 0.867956 0.250672
vt 0.867956 0.325473
vt 0.836948 0.253777
vt 0.840394 0.250672
vt 0.840394 0.327361
vt 0.836948 0.324255
vt 0.173144 0.940803
vt 0.173144 0.964296
vt 0.119879 0.874234
vt 0.119879 0.878928
vt 0.113017 0.878928
vt 0.106155 0.878928
vt 0.106155 0.874234
vt 0.113017 0.874234
vt 0.112674 0.831589
vt 0.112674 0.855082
vt 0.068570 0.928206
vt 0.075432 0.928206
vt 0.068570 0.932899
vt 0.061707 0.932899
vt 0.342116 0.488564
vt 0.342116 0.493258
vt 0.335253 0.493258
vt 0.328391 0.493258
vt 0.328391 0.488564
vt 0.061707 0.928206
vt 0.388613 0.688320
vt 0.384038 0.688320
vt 0.384038 0.681280
vt 0.384038 0.674239
vt 0.388613 0.674239
vt 0.347715 0.486926
vt 0.349500 0.479451
vt 0.349500 0.493185
vt 0.344925 0.493185
vt 0.344925 0.486318
vt 0.344925 0.479451
vt 0.065543 0.816498
vt 0.065543 0.823365
vt 0.115311 0.841379
vt 0.115311 0.848419
vt 0.115311 0.855459
vt 0.110733 0.855459
vt 0.110733 0.848419
vt 0.110733 0.841379
vt 0.119879 0.883275
vt 0.119879 0.878697
vt 0.126742 0.878697
vt 0.133604 0.878697
vt 0.133604 0.883275
vt 0.390250 0.681859
vt 0.383388 0.681859
vt 0.326251 0.476276
vt 0.326251 0.490357
vt 0.321673 0.490357
vt 0.321673 0.483317
vt 0.321673 0.476276
vt 0.350246 0.470618
vt 0.350246 0.463577
vt 0.383766 0.673114
vt 0.383766 0.680155
vt 0.383766 0.687195
vt 0.379188 0.687195
vt 0.379188 0.673114
vt 0.167879 0.880167
vt 0.167879 0.887208
vt 0.405612 0.694558
vt 0.405612 0.689980
vt 0.412474 0.689980
vt 0.419336 0.689980
vt 0.419336 0.694558
vt 0.412474 0.694558
vt 0.412474 0.658232
vt 0.419336 0.658232
vt 0.119879 0.874119
vt 0.119879 0.869540
vt 0.133604 0.869540
vt 0.133604 0.874119
vt 0.126742 0.874119
vt 0.405612 0.658232
vt 0.087106 0.836411
vt 0.100840 0.836411
vt 0.100840 0.841104
vt 0.093973 0.841104
vt 0.087106 0.841104
vt 0.084449 0.828405
vt 0.077581 0.828405
vt 0.391887 0.676015
vt 0.398754 0.676015
vt 0.405621 0.676015
vt 0.405621 0.680708
vt 0.398754 0.680708
vt 0.391887 0.680708
vt 0.091316 0.828405
vt 0.392404 0.664834
vt 0.385537 0.664834
vt 0.129039 0.841379
vt 0.129039 0.848246
vt 0.129039 0.855113
vt 0.124464 0.855113
vt 0.124464 0.848246
vt 0.124464 0.841379
vt 0.105415 0.829197
vt 0.105415 0.822330
vt 0.410196 0.657240
vt 0.410196 0.664107
vt 0.410196 0.670974
vt 0.405621 0.670974
vt 0.405621 0.657240
vt 0.105415 0.836064
vt 0.098305 0.872458
vt 0.093731 0.872458
vt 0.093731 0.865418
vt 0.093731 0.858378
vt 0.098305 0.858378
vt 0.050683 0.880601
vt 0.050683 0.887642
vt 0.050683 0.894682
vt 0.344540 0.488308
vt 0.339965 0.488308
vt 0.339965 0.474227
vt 0.344540 0.474227
vt 0.344540 0.481267
vt 0.399271 0.664834
vt 0.075432 0.932899
vt 0.065543 0.809631
vt 0.350246 0.477658
vt 0.167879 0.873127
vt 0.397113 0.681859
s 0
usemtl Material.002
f 57/1/1 95/2/1 128/2/1 125/1/1
f 99/3/2 63/4/2 118/4/2 120/3/2
f 67/5/3 101/6/3 143/6/3 142/5/3
f 106/7/1 156/8/1 108/9/1 72/10/1 71/11/1
f 177/12/4 109/13/4 151/13/4 179/12/4
f 81/14/3 78/15/3 77/16/3 83/17/3 161/18/3
f 12/19/3 40/20/3 37/21/3 11/22/3
f 10/23/2 30/24/2 22/25/2 3/26/2
f 15/27/5 26/28/5 28/29/5 16/30/5
f 21/31/6 4/32/6 46/33/6 53/34/6
f 24/35/2 2/36/2 12/37/2 32/38/2
f 7/39/5 19/40/5 27/41/5 13/42/5
f 15/43/3 39/44/3 41/45/3 6/46/3
f 9/47/7 34/48/7 43/49/7 1/50/7
f 17/51/1 50/52/1 51/53/1 18/54/1
f 14/55/7 36/56/7 35/57/7 13/58/7
f 46/59/3 4/60/3 11/22/3 37/21/3
f 47/61/7 7/62/7 13/58/7 35/57/7
f 11/63/2 29/64/2 32/38/2 12/37/2
f 54/65/6 45/66/6 8/67/6 20/68/6
f 1/69/2 23/70/2 31/71/2 9/72/2
f 30/24/2 10/23/2 9/72/2 31/71/2
f 25/73/5 14/74/5 13/42/5 27/41/5
f 5/75/1 18/54/1 51/53/1 44/76/1
f 3/60/6 22/77/6 56/78/6 48/79/6
f 29/64/2 11/63/2 4/60/2 21/80/2
f 26/28/5 15/27/5 6/81/5 17/82/5
f 20/83/5 8/32/5 16/30/5 28/29/5
f 26/28/5 17/82/5 18/84/5 25/73/5
f 49/85/1 24/86/1 23/87/1 52/88/1
f 24/35/2 32/38/2 31/71/2 23/70/2
f 20/83/5 28/29/5 27/41/5 19/40/5
f 29/64/2 21/80/2 22/25/2 30/24/2
f 54/65/6 20/68/6 19/89/6 55/90/6
f 21/31/6 53/34/6 56/78/6 22/77/6
f 14/74/5 25/73/5 18/84/5 5/91/5
f 49/85/1 42/92/1 2/93/1 24/86/1
f 36/56/7 14/55/7 5/94/7 44/95/7
f 40/20/3 12/19/3 2/96/3 42/97/3
f 47/98/6 55/90/6 19/89/6 7/26/6
f 8/91/3 45/99/3 38/100/3 16/101/3
f 17/51/1 6/102/1 41/103/1 50/52/1
f 43/104/1 52/88/1 23/87/1 1/105/1
f 39/44/3 15/43/3 16/101/3 38/100/3
f 46/59/3 37/21/3 38/100/3 45/99/3
f 42/92/1 49/85/1 50/52/1 41/103/1
f 55/90/6 47/98/6 48/79/6 56/78/6
f 45/66/6 54/65/6 53/34/6 46/33/6
f 52/88/1 43/104/1 44/76/1 51/53/1
f 40/20/3 42/97/3 41/45/3 39/44/3
f 47/61/7 35/57/7 33/106/7 48/107/7
f 34/48/7 9/47/7 10/108/7 33/106/7
f 36/56/7 44/95/7 43/49/7 34/48/7
f 3/109/7 48/107/7 33/106/7 10/108/7
f 73/110/8 36/111/8 34/112/8 75/113/8
f 51/114/9 50/115/9 70/116/9 69/117/9
f 49/118/10 52/119/10 71/120/10 72/121/10
f 61/122/11 56/123/11 53/124/11 62/121/11 98/125/11 97/126/11
f 32/127/12 29/128/12 57/129/12 58/130/12
f 78/131/13 37/128/13 40/127/13 77/5/13
f 80/113/14 38/132/14 37/133/14 78/110/14 81/134/14 82/135/14
f 65/136/15 26/137/15 25/138/15 67/139/15
f 50/140/16 49/141/16 72/142/16 108/143/16 107/144/16 70/145/16
f 76/146/17 33/147/17 35/148/17 74/149/17
f 67/5/18 25/150/18 27/151/18 68/131/18 102/152/18 101/6/18
f 71/153/19 52/154/19 51/102/19 69/155/19 105/156/19 106/157/19
f 27/158/20 28/159/20 66/136/20 68/139/20
f 29/160/21 30/161/21 60/162/21 96/163/21 95/2/21 57/1/21
f 53/164/22 54/165/22 64/153/22 62/155/22
f 40/166/23 39/167/23 79/168/23 84/169/23 83/170/23 77/171/23
f 75/172/24 34/173/24 33/174/24 76/175/24 112/176/24 111/177/24
f 66/178/25 28/179/25 26/180/25 65/181/25 103/182/25 104/183/25
f 30/184/26 31/185/26 59/186/26 60/187/26
f 64/188/27 54/189/27 55/190/27 63/4/27 99/3/27 100/191/27
f 39/192/28 38/193/28 80/194/28 79/195/28
f 35/196/29 36/197/29 73/198/29 109/199/29 110/200/29 74/201/29
f 31/202/30 32/203/30 58/1/30 93/2/30 94/163/30 59/162/30
f 63/204/31 55/205/31 56/206/31 61/207/31
f 84/169/6 79/168/6 89/168/6 92/169/6
f 83/208/32 84/209/32 88/209/32 87/208/32
f 86/210/3 85/211/3 162/212/3 87/213/3 88/214/3 159/215/3
f 82/216/33 81/217/33 85/217/33 86/216/33
f 158/218/34 82/219/34 86/219/34 159/218/34
f 161/220/35 83/221/35 87/221/35 162/220/35
f 90/222/3 91/223/3 160/224/3 92/225/3 89/226/3
f 80/113/1 82/135/1 91/135/1 90/113/1
f 158/218/36 84/227/36 92/227/36 160/218/36
f 79/195/2 80/194/2 90/194/2 89/195/2
f 74/228/7 110/229/7 180/230/7 112/231/7 76/232/7
f 177/12/37 111/233/37 147/233/37 178/12/37
f 69/117/5 70/116/5 130/116/5 129/117/5
f 107/144/7 108/143/7 136/143/7 135/144/7
f 68/234/5 66/235/5 104/236/5 163/237/5 102/238/5
f 163/239/38 104/240/38 140/240/38 164/239/38
f 64/188/5 100/191/5 116/191/5 115/188/5
f 98/241/6 168/242/6 100/243/6 99/244/6 170/245/6 97/246/6
f 59/247/2 94/248/2 175/249/2 96/250/2 60/251/2
f 175/252/39 94/253/39 122/253/39 176/252/39
f 114/254/6 115/255/6 116/256/6 169/257/6 113/258/6
f 168/259/40 98/260/40 113/260/40 169/259/40
f 98/125/2 62/121/2 114/121/2 113/125/2
f 62/155/3 64/153/3 115/153/3 114/155/3
f 119/261/6 171/262/6 120/263/6 118/264/6 117/265/6
f 61/122/5 97/126/5 119/126/5 117/122/5
f 63/204/3 61/207/3 117/207/3 118/204/3
f 170/266/41 99/267/41 120/267/41 171/266/41
f 122/268/2 121/269/2 173/270/2 123/271/2 124/272/2 176/273/2
f 172/274/42 95/275/42 123/275/42 173/274/42
f 95/2/6 96/163/6 124/163/6 123/2/6
f 94/163/1 93/2/1 121/2/1 122/163/1
f 127/276/2 126/277/2 125/278/2 128/279/2 174/280/2
f 58/130/7 57/129/7 125/129/7 126/130/7
f 93/2/6 58/1/6 126/1/6 127/2/6
f 172/274/43 93/281/43 127/281/43 174/274/43
f 129/282/1 130/283/1 132/284/1 155/285/1 131/286/1
f 153/287/44 105/288/44 131/288/44 155/287/44
f 70/145/3 107/144/3 132/144/3 130/145/3
f 105/156/7 69/155/7 129/155/7 131/156/7
f 133/289/45 154/290/45 135/291/45 136/292/45 157/293/45 134/294/45
f 106/157/3 105/156/3 133/156/3 134/157/3
f 153/287/46 107/295/46 135/295/46 154/287/46
f 156/296/47 106/297/47 134/297/47 157/296/47
f 138/298/5 164/299/5 140/300/5 139/301/5 166/302/5 137/303/5
f 104/183/3 103/182/3 139/182/3 140/183/3
f 101/6/7 102/152/7 138/152/7 137/6/7
f 165/304/48 101/305/48 137/305/48 166/304/48
f 143/306/5 167/307/5 144/308/5 141/309/5 142/310/5
f 65/136/6 67/139/6 142/139/6 141/136/6
f 165/304/49 103/311/49 144/311/49 167/304/49
f 103/182/7 65/181/7 141/181/7 144/182/7
f 146/312/7 145/313/7 178/314/7 147/315/7 148/316/7
f 111/177/5 112/176/5 148/176/5 147/177/5
f 110/200/2 109/199/2 145/199/2 146/200/2
f 112/317/50 180/318/50 110/319/50 146/319/50 148/317/50
f 151/320/7 149/321/7 150/322/7 152/323/7 179/324/7
f 75/172/2 111/177/2 152/177/2 150/172/2
f 73/110/1 75/113/1 150/113/1 149/110/1
f 109/199/5 73/198/5 149/198/5 151/199/5
f 105/288/51 153/287/51 154/287/51 133/288/51
f 107/295/52 153/287/52 155/287/52 132/295/52
f 108/325/53 156/296/53 157/296/53 136/325/53
f 82/219/54 158/218/54 160/218/54 91/219/54
f 84/227/55 158/218/55 159/218/55 88/227/55
f 81/326/56 161/220/56 162/220/56 85/326/56
f 102/327/57 163/239/57 164/239/57 138/327/57
f 101/305/58 165/304/58 167/304/58 143/305/58
f 103/311/59 165/304/59 166/304/59 139/311/59
f 100/328/60 168/259/60 169/259/60 116/328/60
f 97/329/61 170/266/61 171/266/61 119/329/61
f 95/275/62 172/274/62 174/274/62 128/275/62
f 93/281/63 172/274/63 173/274/63 121/281/63
f 96/330/64 175/252/64 176/252/64 124/330/64
f 109/13/65 177/12/65 178/12/65 145/13/65
f 111/233/66 177/12/66 179/12/66 152/233/66
