# Blender 4.2.2 LTS
# www.blender.org
mtllib CheatCap1337.mtl
o Cube.002
v 0.056533 -0.004002 1.142529
v -0.142046 0.552783 1.142529
v 0.056533 -0.004002 -1.142529
v -0.142046 0.552783 -1.142529
v 0.056533 -0.004002 -1.003758
v 0.056533 -0.004002 1.003758
v -0.142046 0.552783 1.003758
v -0.142046 0.552783 -1.003758
v -0.142046 0.487032 1.142529
v 0.056533 0.061750 1.142529
v 0.056533 0.061749 -1.142529
v -0.142046 0.487031 -1.142529
v 0.056533 0.061750 1.003758
v -0.142046 0.487032 1.003758
v 0.056533 0.061749 -1.003758
v -0.142046 0.487032 -1.003758
v -0.013251 -0.004002 -1.003758
v -0.013251 -0.004002 1.003758
v -0.211830 0.552783 -1.003758
v -0.211830 0.552783 1.003758
v -0.211830 0.552783 1.142529
v -0.013251 -0.004002 1.142529
v -0.211830 0.552783 -1.142529
v -0.013251 -0.004002 -1.142529
v -0.211830 0.487032 1.142529
v -0.013251 0.061750 1.142529
v -0.211830 0.487031 -1.142529
v -0.013251 0.061749 -1.142529
v -0.064879 0.100486 -1.050000
v -0.263458 0.448295 -1.050000
v -0.199326 0.448295 0.922468
v -0.199326 0.448295 -0.922468
v -0.000747 0.100486 0.922468
v -0.000747 0.100486 -0.922468
v -0.064879 0.100486 1.050000
v -0.263458 0.448295 1.050000
v -0.064879 0.040060 0.922468
v -0.064879 0.040059 -0.922468
v -0.263458 0.508722 0.922468
v -0.263458 0.508722 -0.922468
v -0.650747 0.659752 -1.050000
v -0.650747 0.100486 -1.050000
v -0.650747 0.100486 1.050000
v -0.650747 0.659753 1.050000
v -0.650747 0.040059 -0.922468
v -0.650747 0.040060 0.922468
v -0.650747 0.720179 -0.922468
v -0.650747 0.720179 0.922468
v -0.650747 0.769441 -1.142529
v -0.650747 0.769441 -1.003758
v -0.650747 0.769441 1.142529
v -0.650747 0.703689 1.142529
v -0.650747 0.061749 -1.142529
v -0.650747 -0.004002 -1.142529
v -0.650747 0.703689 -1.142529
v -0.650747 0.061750 1.142529
v -0.650747 -0.004002 1.142529
v -0.650747 0.769441 1.003758
v -0.650747 -0.004002 -1.003758
v -0.650747 -0.004002 1.003758
v -1.358027 -0.004002 1.142529
v -1.159448 0.552783 1.142529
v -1.358027 -0.004002 -1.142529
v -1.159448 0.552783 -1.142529
v -1.358027 -0.004002 -1.003758
v -1.358027 -0.004002 1.003758
v -1.159448 0.552783 1.003758
v -1.159448 0.552783 -1.003758
v -1.159448 0.487032 1.142529
v -1.358027 0.061750 1.142529
v -1.358027 0.061749 -1.142529
v -1.159448 0.487031 -1.142529
v -1.358027 0.061750 1.003758
v -1.159448 0.487032 1.003758
v -1.358027 0.061749 -1.003758
v -1.159448 0.487032 -1.003758
v -1.288243 -0.004002 -1.003758
v -1.288243 -0.004002 1.003758
v -1.089664 0.552783 -1.003758
v -1.089664 0.552783 1.003758
v -1.089664 0.552783 1.142529
v -1.288243 -0.004002 1.142529
v -1.089664 0.552783 -1.142529
v -1.288243 -0.004002 -1.142529
v -1.089664 0.487032 1.142529
v -1.288243 0.061750 1.142529
v -1.089664 0.487031 -1.142529
v -1.288243 0.061749 -1.142529
v -1.236615 0.100486 -1.050000
v -1.038036 0.448295 -1.050000
v -1.102168 0.448295 0.922468
v -1.102168 0.448295 -0.922468
v -1.300747 0.100486 0.922468
v -1.300747 0.100486 -0.922468
v -1.236615 0.100486 1.050000
v -1.038036 0.448295 1.050000
v -1.236615 0.040060 0.922468
v -1.236615 0.040059 -0.922468
v -1.038036 0.508722 0.922468
v -1.038036 0.508722 -0.922468
vn -0.0000 -0.0000 -1.0000
vn 0.8684 0.4958 -0.0000
vn 1.0000 -0.0000 -0.0000
vn -0.0000 1.0000 -0.0000
vn -0.0000 -0.0000 1.0000
vn -0.0000 -1.0000 -0.0000
vn 0.9061 0.4231 -0.0000
vn 0.4426 0.8967 -0.0000
vn -0.7968 -0.4093 0.4446
vn 0.7537 0.3872 -0.5311
vn -0.0000 -0.8792 0.4765
vn 0.5602 0.8284 -0.0000
vn -0.0000 0.9224 0.3862
vn 0.7537 0.3872 0.5311
vn -0.4073 -0.7861 -0.4648
vn 0.3847 0.7425 -0.5484
vn 0.5602 -0.8284 -0.0000
vn -0.7968 -0.4093 -0.4446
vn -0.6492 0.7606 -0.0000
vn -0.6492 -0.7606 -0.0000
vn 0.4792 0.8777 -0.0000
vn 0.3847 0.7425 0.5484
vn -0.0000 -0.8792 -0.4765
vn -0.4073 -0.7861 0.4648
vn -0.0000 0.9224 -0.3862
vn -0.8684 0.4958 -0.0000
vn -1.0000 -0.0000 -0.0000
vn -0.9061 0.4231 -0.0000
vn -0.4426 0.8967 -0.0000
vn 0.7968 -0.4093 0.4446
vn -0.7537 0.3872 -0.5311
vn -0.5602 0.8284 -0.0000
vn -0.7537 0.3872 0.5311
vn 0.4073 -0.7861 -0.4648
vn -0.3847 0.7425 -0.5484
vn -0.5602 -0.8284 -0.0000
vn 0.7968 -0.4093 -0.4446
vn 0.6492 0.7606 -0.0000
vn 0.6492 -0.7606 -0.0000
vn -0.4792 0.8777 -0.0000
vn -0.3847 0.7425 0.5484
vn 0.4073 -0.7861 0.4648
vt 0.759774 0.405513
vt 0.759774 0.494712
vt 0.541159 0.494711
vt 0.541159 0.382646
vt 0.978238 0.270580
vt 0.978237 0.489194
vt 0.759774 0.489194
vt 0.759774 0.270580
vt 0.287012 0.270580
vt 0.287012 0.254230
vt 0.524727 0.254230
vt 0.524727 0.270580
vt 0.541159 0.000000
vt 0.541159 0.016350
vt 0.524727 0.016350
vt 0.524727 0.000000
vt 0.016432 0.000000
vt 0.016432 0.013348
vt 0.000000 0.013348
vt 0.000000 0.000000
vt 0.795389 0.000000
vt 0.795389 0.013348
vt 0.557510 0.013348
vt 0.557510 0.000000
vt 0.016432 0.811739
vt 0.016432 0.798391
vt 0.254147 0.798391
vt 0.254147 0.811739
vt 0.270580 0.798391
vt 0.270580 0.811739
vt 0.524809 0.527811
vt 0.541159 0.527811
vt 0.541159 0.541159
vt 0.524809 0.541159
vt 0.287012 0.016350
vt 0.287012 0.000000
vt 0.541160 0.000000
vt 0.541160 0.013348
vt 0.270580 0.270580
vt 0.270580 0.254230
vt 0.541159 0.254230
vt 0.541159 0.270580
vt 0.270580 0.016350
vt 0.286930 0.541159
vt 0.286930 0.527811
vt 0.270580 0.000000
vt -0.000000 0.811739
vt -0.000000 0.798391
vt 0.270580 0.527811
vt 0.270580 0.541159
vt 0.270580 0.000000
vt 0.270580 0.013348
vt 0.254147 0.013348
vt 0.254147 0.000000
vt 0.811739 0.000000
vt 0.811739 0.013348
vt 0.270580 0.112794
vt 0.254147 0.112794
vt 0.811739 0.112794
vt 0.795389 0.112794
vt 0.557510 0.135290
vt 0.541160 0.135290
vt 0.016432 0.112794
vt 0.000000 0.112794
vt 0.855566 0.237879
vt 0.855566 -0.000000
vt 0.866522 0.009632
vt 0.866522 0.228247
vt 0.910349 0.228247
vt 0.899392 0.237879
vt 0.899392 0.000000
vt 0.910349 0.009632
vt 0.532870 0.663101
vt 0.521913 0.663101
vt 0.521913 0.541159
vt 0.532870 0.551035
vt 0.965132 0.009626
vt 0.976089 0.000000
vt 0.976089 0.237715
vt 0.965132 0.228089
vt 0.822696 0.121941
vt 0.811739 0.121941
vt 0.811739 -0.000000
vt 0.822696 0.009876
vt 0.921306 0.000000
vt 0.921306 0.237879
vt 0.833652 0.144437
vt 0.833652 0.243883
vt 0.822696 0.234007
vt 0.822696 0.144809
vt 0.844609 0.144437
vt 0.844609 0.243883
vt 0.833652 0.234007
vt 0.833652 0.144809
vt 0.989043 0.946933
vt 0.978087 0.956558
vt 0.978087 0.718843
vt 0.989043 0.728469
vt 0.888436 0.009632
vt 0.899392 0.000000
vt 0.899392 0.237879
vt 0.888436 0.228247
vt 0.998002 0.000000
vt 0.998002 0.237715
vt 0.987045 0.228089
vt 0.987045 0.009626
vt 0.989043 0.956558
vt 0.989043 0.718843
vt 1.000000 0.728469
vt 1.000000 0.946933
vt 0.000000 0.676449
vt 0.016432 0.676449
vt 0.254147 0.676449
vt 0.270580 0.676449
vt 0.270580 0.405870
vt 0.286930 0.405870
vt 0.524809 0.428366
vt 0.541159 0.428366
vt 0.759623 0.718843
vt 0.759623 0.808041
vt 0.541159 0.808041
vt 0.541159 0.718843
vt 0.500000 0.551035
vt 0.510957 0.541159
vt 0.510957 0.640605
vt 0.500000 0.640233
vt 0.500000 0.775167
vt 0.489043 0.785042
vt 0.489043 0.663101
vt 0.500000 0.663101
vt 0.489043 0.765291
vt 0.270580 0.765291
vt 0.270580 0.653225
vt 0.489043 0.653225
vt 0.510957 0.785042
vt 0.510957 0.685597
vt 0.521913 0.685969
vt 0.521913 0.775167
vt 0.541159 0.494712
vt 0.759774 0.494712
vt 0.759774 0.583910
vt 0.541159 0.606777
vt 0.844609 0.009876
vt 0.855566 0.000000
vt 0.855566 0.121941
vt 0.844609 0.121941
s 0
usemtl Material.002
f 41/1/1 30/2/1 29/3/1 42/4/1
f 34/5/2 32/6/2 31/7/2 33/8/2
f 7/9/3 14/10/3 16/11/3 8/12/3
f 3/13/3 11/14/3 15/15/3 5/16/3
f 7/17/4 20/18/4 21/19/4 2/20/4
f 9/21/5 25/22/5 26/23/5 10/24/5
f 6/25/6 18/26/6 17/27/6 5/28/6
f 24/29/6 3/30/6 5/28/6 17/27/6
f 27/31/1 23/32/1 4/33/1 12/34/1
f 13/35/3 6/36/3 5/16/3 15/15/3
f 1/37/5 10/24/5 26/23/5 22/38/5
f 14/10/3 7/9/3 2/39/3 9/40/3
f 12/41/3 4/42/3 8/12/3 16/11/3
f 14/10/7 9/40/7 10/43/7 13/35/7
f 12/41/7 16/11/7 15/15/7 11/14/7
f 27/31/1 12/34/1 11/44/1 28/45/1
f 6/36/3 13/35/3 10/43/3 1/46/3
f 18/26/6 6/25/6 1/47/6 22/48/6
f 24/49/1 28/45/1 11/44/1 3/50/1
f 4/51/4 23/52/4 19/53/4 8/54/4
f 9/21/5 2/55/5 21/56/5 25/22/5
f 20/18/4 7/17/4 8/54/4 19/53/4
f 49/57/8 50/58/8 19/53/8 23/52/8
f 51/59/5 52/60/5 25/22/5 21/56/5
f 56/61/5 57/62/5 22/38/5 26/23/5
f 58/63/8 51/64/8 21/19/8 20/18/8
f 26/65/9 25/66/9 36/67/9 35/68/9
f 31/69/10 14/70/10 13/71/10 33/72/10
f 45/73/11 59/74/11 17/75/11 38/76/11
f 33/77/12 13/78/12 15/79/12 34/80/12
f 43/81/13 56/82/13 26/83/13 35/84/13
f 15/85/14 16/86/14 32/69/14 34/72/14
f 55/87/15 27/88/15 30/89/15 41/90/15
f 58/91/16 20/92/16 39/93/16 48/94/16
f 32/95/17 16/96/17 14/97/17 31/98/17
f 30/99/18 27/100/18 28/101/18 29/102/18
f 20/103/19 19/104/19 40/105/19 39/106/19
f 17/107/20 18/108/20 37/109/20 38/110/20
f 18/26/6 22/48/6 57/111/6 60/112/6
f 24/29/6 17/27/6 59/113/6 54/114/6
f 28/45/1 24/49/1 54/115/1 53/116/1
f 23/32/1 27/31/1 55/117/1 49/118/1
f 40/119/21 47/120/21 48/121/21 39/122/21
f 40/123/22 19/124/22 50/125/22 47/126/22
f 37/127/23 18/128/23 60/129/23 46/130/23
f 38/131/6 37/132/6 46/133/6 45/134/6
f 25/135/24 52/136/24 44/137/24 36/138/24
f 35/139/5 36/140/5 44/141/5 43/142/5
f 29/143/25 28/144/25 53/145/25 42/146/25
f 41/1/1 42/4/1 89/3/1 90/2/1
f 94/5/26 93/8/26 91/7/26 92/6/26
f 67/9/27 68/12/27 76/11/27 74/10/27
f 63/13/27 65/16/27 75/15/27 71/14/27
f 67/17/4 62/20/4 81/19/4 80/18/4
f 69/21/5 70/24/5 86/23/5 85/22/5
f 66/25/6 65/28/6 77/27/6 78/26/6
f 84/29/6 77/27/6 65/28/6 63/30/6
f 87/31/1 72/34/1 64/33/1 83/32/1
f 73/35/27 75/15/27 65/16/27 66/36/27
f 61/37/5 82/38/5 86/23/5 70/24/5
f 74/10/27 69/40/27 62/39/27 67/9/27
f 72/41/27 76/11/27 68/12/27 64/42/27
f 74/10/28 73/35/28 70/43/28 69/40/28
f 72/41/28 71/14/28 75/15/28 76/11/28
f 87/31/1 88/45/1 71/44/1 72/34/1
f 66/36/27 61/46/27 70/43/27 73/35/27
f 78/26/6 82/48/6 61/47/6 66/25/6
f 84/49/1 63/50/1 71/44/1 88/45/1
f 64/51/4 68/54/4 79/53/4 83/52/4
f 69/21/5 85/22/5 81/56/5 62/55/5
f 80/18/4 79/53/4 68/54/4 67/17/4
f 49/57/29 83/52/29 79/53/29 50/58/29
f 51/59/5 81/56/5 85/22/5 52/60/5
f 56/61/5 86/23/5 82/38/5 57/62/5
f 58/63/29 80/18/29 81/19/29 51/64/29
f 86/65/30 95/68/30 96/67/30 85/66/30
f 91/69/31 93/72/31 73/71/31 74/70/31
f 45/73/11 98/76/11 77/75/11 59/74/11
f 93/77/32 94/80/32 75/79/32 73/78/32
f 43/81/13 95/84/13 86/83/13 56/82/13
f 75/85/33 94/72/33 92/69/33 76/86/33
f 55/87/34 41/90/34 90/89/34 87/88/34
f 58/91/35 48/94/35 99/93/35 80/92/35
f 92/95/36 91/98/36 74/97/36 76/96/36
f 90/99/37 89/102/37 88/101/37 87/100/37
f 80/103/38 99/106/38 100/105/38 79/104/38
f 77/107/39 98/110/39 97/109/39 78/108/39
f 78/26/6 60/112/6 57/111/6 82/48/6
f 84/29/6 54/114/6 59/113/6 77/27/6
f 88/45/1 53/116/1 54/115/1 84/49/1
f 83/32/1 49/118/1 55/117/1 87/31/1
f 100/119/40 99/122/40 48/121/40 47/120/40
f 100/123/41 47/126/41 50/125/41 79/124/41
f 97/127/23 46/130/23 60/129/23 78/128/23
f 98/131/6 45/134/6 46/133/6 97/132/6
f 85/135/42 96/138/42 44/137/42 52/136/42
f 95/139/5 43/142/5 44/141/5 96/140/5
f 89/143/25 42/146/25 53/145/25 88/144/25
