# Blender 4.2.2 LTS
# www.blender.org
mtllib Grass.mtl
o Cylinder.006
v 0.014371 0.023362 -0.287855
v -0.014801 0.023362 -0.512829
v 0.191692 0.023362 -0.429353
v -0.108945 1.326423 -0.285294
v -0.127319 0.904497 -0.327968
v -0.064750 0.435954 -0.302334
v -0.086545 0.435954 -0.470415
v -0.140736 0.904497 -0.431441
v 0.067728 0.435954 -0.408049
v -0.045764 0.904497 -0.393048
v -0.452951 0.022904 -0.121619
v -0.341587 0.022904 0.076024
v -0.564314 0.022904 0.076024
v -0.378976 2.046144 0.242684
v -0.357240 1.391026 0.036136
v -0.375471 0.663529 -0.056395
v -0.292270 0.663529 0.091267
v -0.306021 1.391026 0.127038
v -0.458672 0.663529 0.091267
v -0.408460 1.391026 0.127038
v -0.359488 0.023362 -0.211515
v -0.132685 0.023362 -0.216505
v -0.237726 0.023362 -0.020103
v -0.348870 1.326423 -0.334400
v -0.304479 0.904497 -0.348114
v -0.336645 0.435954 -0.288639
v -0.167198 0.435954 -0.292367
v -0.200165 0.904497 -0.350409
v -0.245676 0.435954 -0.145633
v -0.248477 0.904497 -0.260077
v -0.215230 0.036101 0.143779
v -0.058895 0.036101 -0.020610
v 0.006369 0.036101 0.192341
v -0.294908 1.623219 0.049626
v -0.273343 1.109317 0.008472
v -0.253832 0.538635 0.073212
v -0.137032 0.538635 -0.049605
v -0.201439 1.109317 -0.067136
v -0.088272 0.538635 0.109493
v -0.171422 1.109317 0.030807
v -0.201853 0.022904 0.323575
v 0.016836 0.022904 0.383904
v -0.140166 0.022904 0.541884
v 0.103224 2.046144 0.084902
v -0.033429 1.391026 0.235630
v -0.095504 0.663529 0.287249
v 0.067881 0.663529 0.332322
v 0.067153 1.391026 0.263377
v -0.049417 0.663529 0.450351
v -0.005057 1.391026 0.336038
v 0.461212 0.022904 0.113572
v 0.497852 0.022904 -0.110308
v 0.671690 0.022904 0.028933
v 0.191338 2.046144 -0.164284
v 0.355791 1.391026 -0.044502
v 0.413742 0.663529 0.011708
v 0.441116 0.663529 -0.155555
v 0.372643 1.391026 -0.147472
v 0.570993 0.663529 -0.051526
v 0.452597 1.391026 -0.083430
v 0.283872 0.036101 0.146065
v 0.103734 0.036101 0.008171
v 0.308502 0.036101 -0.079452
v 0.198762 1.623219 0.235338
v 0.155541 1.109317 0.218290
v 0.217828 0.538635 0.191979
v 0.083245 0.538635 0.088957
v 0.072690 1.109317 0.154868
v 0.236229 0.538635 0.023493
v 0.166869 1.109317 0.114567
v 0.086385 0.022904 -0.222753
v 0.271010 0.022904 -0.354578
v 0.294786 0.022904 -0.133123
v 0.440710 2.046144 -0.335193
v 0.233022 1.391026 -0.334756
v 0.142966 0.663529 -0.306752
v 0.280902 0.663529 -0.405240
v 0.317937 1.391026 -0.395387
v 0.298665 0.663529 -0.239789
v 0.328872 1.391026 -0.293532
v 0.031058 0.031118 -0.011634
v 0.009388 0.031118 -0.178750
v 0.162776 0.031118 -0.116742
v -0.060544 0.999063 -0.009732
v -0.074193 0.685646 -0.041431
v -0.027716 0.337602 -0.022389
v -0.043905 0.337602 -0.147244
v -0.084160 0.685646 -0.118293
v 0.070692 0.337602 -0.100917
v -0.013612 0.685646 -0.089774
vn 0.6171 0.1455 0.7733
vn 0.3597 0.2811 -0.8897
vn -0.9750 -0.1825 0.1264
vn -0.0000 -1.0000 -0.0000
vn 0.3701 0.1584 -0.9154
vn 0.6202 -0.1056 0.7773
vn 0.6188 0.1251 0.7755
vn 0.3721 0.1196 -0.9205
vn -0.9840 -0.1244 0.1276
vn -0.9912 0.0302 0.1285
vn -0.8609 0.1535 -0.4851
vn -0.0000 -0.1738 0.9848
vn 0.8699 -0.0553 -0.4901
vn -0.0000 -0.0238 0.9997
vn -0.8644 0.1249 -0.4871
vn -0.8681 0.0840 -0.4892
vn -0.0000 -0.0491 0.9988
vn 0.8705 0.0406 -0.4905
vn 0.8569 0.1807 -0.4828
vn -0.8348 0.1455 0.5310
vn 0.8463 0.2811 0.4526
vn -0.0216 -0.1825 -0.9830
vn 0.8707 0.1584 0.4657
vn -0.8390 -0.1056 0.5337
vn -0.8371 0.1251 0.5325
vn 0.8755 0.1196 0.4682
vn -0.0218 -0.1244 -0.9920
vn -0.0220 0.0302 -0.9993
vn -0.2125 0.1199 0.9698
vn 0.9296 0.2338 -0.2849
vn -0.7164 -0.1507 -0.6813
vn 0.9479 0.1306 -0.2905
vn -0.2133 -0.0869 0.9731
vn -0.2129 0.1029 0.9716
vn 0.9515 0.0984 -0.2916
vn -0.7208 -0.1024 -0.6855
vn -0.7244 0.0248 -0.6889
vn -0.9479 0.1725 0.2678
vn 0.7011 0.1512 0.6968
vn 0.2646 -0.0983 -0.9593
vn 0.7093 0.0002 0.7049
vn -0.9306 0.2546 0.2630
vn -0.9574 0.1009 0.2705
vn 0.7077 0.0674 0.7033
vn 0.2648 -0.0907 -0.9600
vn 0.2563 -0.2672 -0.9289
vn 0.3675 0.1725 0.9139
vn 0.6180 0.1512 -0.7715
vn -0.9821 -0.0983 -0.1607
vn 0.6252 0.0002 -0.7805
vn 0.3608 0.2546 0.8972
vn 0.3712 0.1009 0.9231
vn 0.6237 0.0674 -0.7787
vn -0.9828 -0.0907 -0.1608
vn -0.9510 -0.2672 -0.1556
vn 0.9869 0.1199 0.1078
vn -0.3825 0.2338 -0.8939
vn -0.6009 -0.1507 0.7850
vn -0.3900 0.1306 -0.9115
vn 0.9903 -0.0869 0.1082
vn 0.9888 0.1029 0.1080
vn -0.3915 0.0984 -0.9149
vn -0.6046 -0.1024 0.7899
vn -0.6077 0.0248 0.7938
vn -0.3904 0.1535 0.9078
vn 0.9791 -0.1738 -0.1051
vn -0.5802 -0.0553 -0.8126
vn 0.9940 -0.0238 -0.1067
vn -0.3920 0.1249 0.9114
vn -0.3937 0.0840 0.9154
vn 0.9931 -0.0491 -0.1066
vn -0.5806 0.0406 -0.8132
vn -0.5715 0.1807 -0.8004
vt 0.333333 0.500000
vt 0.333333 0.660156
vt -0.000000 0.660156
vt -0.000000 0.500000
vt 0.000000 0.000000
vt 0.333333 0.842031
vt 0.666667 0.842031
vt 1.000000 0.500000
vt 1.000000 0.660156
vt 0.666667 0.660156
vt 0.666667 0.500000
vt 0.750000 0.490000
vt 0.957846 0.130000
vt 0.542154 0.130000
vt 0.333333 0.660156
vt -0.000000 0.842031
vt 0.333333 0.842031
vt 1.000000 0.842031
vt 0.666667 0.842031
s 0
f 3/1/1 9/2/1 6/3/1 1/4/1
f 4/5/2 10/6/2 8/7/2
f 1/8/3 6/9/3 7/10/3 2/11/3
f 1/12/4 2/13/4 3/14/4
f 2/11/5 7/10/5 9/15/5 3/1/5
f 5/16/6 10/6/6 4/5/6
f 10/6/7 5/16/7 6/3/7 9/2/7
f 8/7/8 10/17/8 9/15/8 7/10/8
f 5/18/9 8/19/9 7/10/9 6/9/9
f 8/19/10 5/18/10 4/5/10
f 13/1/11 19/2/11 16/3/11 11/4/11
f 14/5/12 20/6/12 18/7/12
f 11/8/13 16/9/13 17/10/13 12/11/13
f 11/12/4 12/13/4 13/14/4
f 12/11/14 17/10/14 19/15/14 13/1/14
f 15/16/15 20/6/15 14/5/15
f 20/6/16 15/16/16 16/3/16 19/2/16
f 18/7/17 20/17/17 19/15/17 17/10/17
f 15/18/18 18/19/18 17/10/18 16/9/18
f 18/19/19 15/18/19 14/5/19
f 23/1/20 29/2/20 26/3/20 21/4/20
f 24/5/21 30/6/21 28/7/21
f 21/8/22 26/9/22 27/10/22 22/11/22
f 21/12/4 22/13/4 23/14/4
f 22/11/23 27/10/23 29/15/23 23/1/23
f 25/16/24 30/6/24 24/5/24
f 30/6/25 25/16/25 26/3/25 29/2/25
f 28/7/26 30/17/26 29/15/26 27/10/26
f 25/18/27 28/19/27 27/10/27 26/9/27
f 28/19/28 25/18/28 24/5/28
f 33/1/29 39/2/29 36/3/29 31/4/29
f 34/5/30 40/6/30 38/7/30
f 31/8/31 36/9/31 37/10/31 32/11/31
f 31/12/4 32/13/4 33/14/4
f 32/11/32 37/10/32 39/15/32 33/1/32
f 35/16/33 40/6/33 34/5/33
f 40/6/34 35/16/34 36/3/34 39/2/34
f 38/7/35 40/17/35 39/15/35 37/10/35
f 35/18/36 38/19/36 37/10/36 36/9/36
f 38/19/37 35/18/37 34/5/37
f 43/1/38 49/2/38 46/3/38 41/4/38
f 44/5/39 50/6/39 48/7/39
f 41/8/40 46/9/40 47/10/40 42/11/40
f 41/12/4 42/13/4 43/14/4
f 42/11/41 47/10/41 49/15/41 43/1/41
f 45/16/42 50/6/42 44/5/42
f 50/6/43 45/16/43 46/3/43 49/2/43
f 48/7/44 50/17/44 49/15/44 47/10/44
f 45/18/45 48/19/45 47/10/45 46/9/45
f 48/19/46 45/18/46 44/5/46
f 53/1/47 59/2/47 56/3/47 51/4/47
f 54/5/48 60/6/48 58/7/48
f 51/8/49 56/9/49 57/10/49 52/11/49
f 51/12/4 52/13/4 53/14/4
f 52/11/50 57/10/50 59/15/50 53/1/50
f 55/16/51 60/6/51 54/5/51
f 60/6/52 55/16/52 56/3/52 59/2/52
f 58/7/53 60/17/53 59/15/53 57/10/53
f 55/18/54 58/19/54 57/10/54 56/9/54
f 58/19/55 55/18/55 54/5/55
f 63/1/56 69/2/56 66/3/56 61/4/56
f 64/5/57 70/6/57 68/7/57
f 61/8/58 66/9/58 67/10/58 62/11/58
f 61/12/4 62/13/4 63/14/4
f 62/11/59 67/10/59 69/15/59 63/1/59
f 65/16/60 70/6/60 64/5/60
f 70/6/61 65/16/61 66/3/61 69/2/61
f 68/7/62 70/17/62 69/15/62 67/10/62
f 65/18/63 68/19/63 67/10/63 66/9/63
f 68/19/64 65/18/64 64/5/64
f 73/1/65 79/2/65 76/3/65 71/4/65
f 74/5/66 80/6/66 78/7/66
f 71/8/67 76/9/67 77/10/67 72/11/67
f 71/12/4 72/13/4 73/14/4
f 72/11/68 77/10/68 79/15/68 73/1/68
f 75/16/69 80/6/69 74/5/69
f 80/6/70 75/16/70 76/3/70 79/2/70
f 78/7/71 80/17/71 79/15/71 77/10/71
f 75/18/72 78/19/72 77/10/72 76/9/72
f 78/19/73 75/18/73 74/5/73
f 83/1/1 89/2/1 86/3/1 81/4/1
f 84/5/2 90/6/2 88/7/2
f 81/8/3 86/9/3 87/10/3 82/11/3
f 81/12/4 82/13/4 83/14/4
f 82/11/5 87/10/5 89/15/5 83/1/5
f 85/16/6 90/6/6 84/5/6
f 90/6/7 85/16/7 86/3/7 89/2/7
f 88/7/8 90/17/8 89/15/8 87/10/8
f 85/18/9 88/19/9 87/10/9 86/9/9
f 88/19/10 85/18/10 84/5/10
