# Blender 4.2.2 LTS
# www.blender.org
mtllib Ground.mtl
o Cube
v -1.000000 0.061215 1.000000
v -1.000000 0.061215 -1.000000
v 1.000000 0.061215 1.000000
v 1.000000 0.061215 -1.000000
v 0.000000 0.114387 -1.000000
v 0.500000 0.140974 -1.000000
v -0.500000 0.137418 -1.000000
v -1.000000 0.114387 0.000000
v -1.000000 0.140974 -0.500000
v -1.000000 0.137418 0.500000
v 0.000000 0.114387 1.000000
v -0.500000 0.140974 1.000000
v 0.500000 0.137418 1.000000
v 1.000000 0.114387 0.000000
v 1.000000 0.140974 0.500000
v 1.000000 0.137418 -0.500000
v 0.395571 0.184196 -0.036457
v 0.727816 0.152034 0.559993
v 0.658220 0.211678 -0.438815
v 0.033026 0.157632 0.168288
v 0.109269 0.236726 0.671131
v -0.112645 0.151510 -0.429240
v -0.435384 0.193791 -0.075634
v -0.596388 0.168576 0.589581
v -0.635781 0.177173 -0.616396
vn 0.1212 0.9843 0.1282
vn 0.0912 0.9956 -0.0226
vn 0.1523 0.9833 0.0994
vn 0.1664 0.9731 -0.1595
vn -0.1332 0.9830 0.1262
vn -0.1132 0.9935 -0.0138
vn -0.1169 0.9926 0.0320
vn -0.1479 0.9768 -0.1548
vn 0.0593 0.9961 -0.0648
vn 0.0815 0.9957 -0.0447
vn -0.0142 0.9988 -0.0471
vn -0.0471 0.9791 0.1978
vn 0.0743 0.9757 0.2064
vn 0.0405 0.9975 -0.0577
vn -0.0739 0.9972 0.0127
vn -0.0685 0.9934 -0.0919
vt 0.715934 0.468510
vt 0.763864 0.300063
vt 0.856401 0.314896
vt 0.856401 0.453318
vt 0.856401 0.591740
vt 0.709120 0.592495
vt 0.484393 0.700594
vt 0.644314 0.995398
vt 0.484393 0.975382
vt 0.492069 0.940113
vt 0.535075 0.445364
vt 0.615951 0.177778
vt 0.709120 0.394921
vt 0.669099 0.465881
vt 0.141313 0.395561
vt 0.104826 0.262113
vt 0.385513 0.209948
vt 0.175666 0.406639
vt 0.709120 0.298173
vt 0.709120 0.000000
vt 0.898013 0.091992
vt 0.846894 0.300064
vt 0.731320 0.698902
vt 0.855336 0.592495
vt 0.855336 0.870450
vt 0.709120 0.788766
vt 1.000000 0.044655
vt 1.000000 0.208444
vt 0.898013 0.112313
vt 0.978953 0.000000
vt 0.423895 0.913636
vt 0.263729 0.920577
vt 0.484393 0.465881
vt 0.484393 0.842061
vt 0.271468 0.650374
vt 0.289216 0.510516
vt 0.000000 0.661519
vt 0.068373 0.465881
vt 0.263729 0.472618
vt 0.160543 0.635513
vt 0.068339 0.128665
vt 0.401051 -0.000000
vt 0.017242 0.000000
vt 0.000000 0.006047
vt 0.263729 0.893628
vt 0.188098 0.941479
vt 0.616249 0.465881
vt 0.647471 0.715664
vt 0.401051 0.424848
vt 0.401051 -0.000000
s 0
usemtl Material
f 18/1/1 13/2/1 3/3/1 15/4/1
f 18/1/2 15/4/2 14/5/2 17/6/2
f 19/7/3 17/8/3 14/9/3 16/10/3
f 6/11/4 19/12/4 16/13/4 4/14/4
f 1/15/5 12/16/5 24/17/5 10/18/5
f 10/19/6 24/20/6 23/21/6 8/22/6
f 8/23/7 23/24/7 25/25/7 9/26/7
f 9/27/8 25/28/8 7/29/8 2/30/8
f 7/31/9 25/32/9 22/33/9 5/34/9
f 23/35/10 20/36/10 22/33/10 25/32/10
f 23/37/11 24/38/11 21/39/11 20/40/11
f 12/16/12 11/41/12 21/42/12 24/17/12
f 11/41/13 13/43/13 18/44/13 21/42/13
f 18/45/14 17/46/14 20/40/14 21/39/14
f 19/7/15 22/47/15 20/48/15 17/8/15
f 5/49/16 22/50/16 19/12/16 6/11/16
