# Blender 4.2.2 LTS
# www.blender.org
mtllib Head.mtl
o Plane
v 0.245162 0.009971 0.948964
v 0.159596 1.293331 0.271572
v 0.453208 -0.225042 0.608064
v 0.299631 1.085716 0.043427
v 0.431601 1.647017 0.336557
v 1.584126 0.946555 -0.414307
v 1.374653 1.608699 -0.229206
v 1.399927 -0.362420 -0.131139
v 0.688628 -1.055347 0.422847
v 0.990575 -1.217546 0.121052
v 0.436343 -1.303761 0.627415
v 0.402956 -1.966512 0.469452
v 0.119897 -1.387284 0.739941
v 0.173328 -1.905447 0.739064
v 0.622344 2.758577 -0.116336
v 0.231502 -0.383949 0.743584
v 1.828683 0.891879 -1.644997
v 1.592105 2.613208 -1.779834
v 1.599980 -0.879206 -1.209689
v 1.305654 -1.611443 -0.498218
v 0.654470 -2.050973 -0.371603
v 0.633576 3.438415 -1.626783
v 1.394859 -1.610305 -0.912646
v 1.490132 -1.232453 -1.456377
v 1.629712 -0.348498 -1.984563
v 1.334042 2.494535 -3.532488
v 0.633280 2.918291 -3.728305
v 1.560105 -0.223120 -2.882343
v 1.473000 1.043449 -3.768281
v 0.844727 1.148215 -4.300970
v 0.726495 -0.128815 -3.608654
v 0.000000 0.008637 1.058719
v -0.245162 0.009971 0.948964
v 0.000000 1.293331 0.271572
v -0.159596 1.293331 0.271572
v -0.453208 -0.225042 0.608064
v -0.299631 1.085716 0.043427
v 0.000000 1.647017 0.429501
v -0.431601 1.647017 0.336557
v -1.584126 0.946555 -0.414307
v -1.374653 1.608699 -0.229206
v -1.399927 -0.362420 -0.131139
v -0.688628 -1.055347 0.422847
v -0.990575 -1.217546 0.121052
v -0.436343 -1.303761 0.627415
v -0.402956 -1.966512 0.469452
v -0.119897 -1.387284 0.739941
v -0.173328 -1.905447 0.739064
v 0.000000 2.884698 -0.116336
v -0.622344 2.758577 -0.116336
v 0.000000 -0.253018 0.951603
v -0.231502 -0.383949 0.743584
v 0.000000 -0.378516 0.695748
v 0.000000 -2.135305 0.376480
v -1.828683 0.891879 -1.644997
v -1.592105 2.613208 -1.779834
v -1.599980 -0.879206 -1.209689
v -1.305654 -1.611443 -0.498218
v -0.654470 -2.050973 -0.371603
v 0.000000 3.522483 -1.564324
v -0.633576 3.438415 -1.626783
v -1.394859 -1.610305 -0.912646
v -1.490132 -1.232453 -1.456377
v -1.629712 -0.348498 -1.984563
v -1.334042 2.494535 -3.532488
v 0.000000 -2.261219 -0.506770
v 0.000000 2.952861 -3.809308
v -0.633280 2.918291 -3.728305
v -1.560105 -0.223120 -2.882343
v -1.473000 1.043449 -3.768281
v 0.000000 1.210508 -4.351522
v -0.844727 1.148215 -4.300970
v 0.000000 -0.040596 -3.687529
v -0.726495 -0.128815 -3.608654
v 0.004396 -1.610305 -2.288413
v 1.390136 2.549390 -0.993930
v 0.821065 2.680144 -0.230031
v 1.324041 1.998991 -0.338116
v -1.324041 1.998991 -0.338116
v -0.821065 2.680144 -0.230031
v -1.390136 2.549390 -0.993930
vn 0.2269 0.4882 0.8427
vn 0.9004 0.2526 0.3543
vn 0.1456 -0.3479 0.9262
vn 0.3836 -0.3325 0.8616
vn 0.4811 0.2648 0.8357
vn 0.6350 -0.0349 0.7717
vn 0.6787 -0.1763 0.7129
vn 0.5732 -0.0997 0.8133
vn 0.1262 0.3794 0.9166
vn 0.5703 -0.3952 0.7201
vn 0.3844 -0.3498 0.8544
vn 0.6088 0.7382 0.2904
vn 0.5192 0.2598 0.8142
vn 0.9747 -0.0821 0.2080
vn 0.9110 -0.1781 0.3719
vn 0.7016 -0.5504 0.4525
vn -0.3218 -0.9108 0.2587
vn 0.1706 0.8999 0.4014
vn -0.9571 0.1793 0.2277
vn 0.9806 0.1228 -0.1527
vn 0.9838 -0.1634 -0.0741
vn 0.9678 -0.2333 0.0941
vn 0.2775 -0.9511 0.1356
vn 0.5714 -0.8117 0.1208
vn 0.0940 0.9657 -0.2421
vn 0.5954 0.7852 -0.1701
vn 0.9864 -0.0758 -0.1458
vn 0.9806 0.1192 -0.1558
vn 0.1043 0.3066 -0.9461
vn 0.5415 0.2596 -0.7996
vn 0.0272 -0.4736 -0.8803
vn 0.5486 -0.4457 -0.7074
vn -0.1114 -0.8922 0.4376
vn -0.2269 0.4882 0.8427
vn -0.9004 0.2526 0.3543
vn -0.1456 -0.3479 0.9262
vn -0.3836 -0.3325 0.8616
vn -0.4811 0.2648 0.8357
vn -0.6350 -0.0349 0.7717
vn -0.6787 -0.1763 0.7129
vn -0.5732 -0.0997 0.8133
vn -0.0000 0.0438 0.9990
vn -0.1262 0.3794 0.9166
vn -0.5703 -0.3952 0.7201
vn -0.3844 -0.3498 0.8544
vn -0.6088 0.7382 0.2904
vn -0.0000 -0.0017 1.0000
vn -0.1196 -0.0169 0.9927
vn 0.5798 0.0056 0.8147
vn 0.1196 -0.0169 0.9927
vn 0.3218 -0.9108 0.2587
vn -0.5798 0.0056 0.8147
vn -0.5192 0.2598 0.8142
vn -0.9747 -0.0821 0.2080
vn -0.9110 -0.1781 0.3719
vn -0.7016 -0.5504 0.4525
vn -0.0000 -0.8446 0.5354
vn -0.1706 0.8999 0.4014
vn -0.9806 0.1228 -0.1527
vn -0.9838 -0.1634 -0.0741
vn -0.9678 -0.2333 0.0941
vn -0.2775 -0.9511 0.1356
vn 0.5236 -0.7557 -0.3934
vn -0.5714 -0.8117 0.1208
vn -0.0003 -0.6654 -0.7465
vn -0.0940 0.9657 -0.2421
vn -0.5954 0.7852 -0.1701
vn 0.3245 -0.8919 -0.3151
vn -0.9864 -0.0758 -0.1458
vn -0.9806 0.1192 -0.1558
vn -0.1043 0.3066 -0.9461
vn -0.5415 0.2596 -0.7996
vn -0.0272 -0.4736 -0.8803
vn -0.5486 -0.4457 -0.7074
vn -0.4968 -0.6137 -0.6136
vn -0.3240 -0.8916 -0.3163
vn 0.4989 -0.6132 -0.6125
vn 0.1114 -0.8922 0.4376
vn 0.0003 -0.6654 -0.7465
vn -0.5221 -0.7570 -0.3928
vn 0.7431 0.4738 0.4725
vn -0.7431 0.4738 0.4725
vn 0.9571 0.1793 0.2277
s 0
f 32//1 1//1 2//1 34//1
f 2//2 1//2 3//2 4//2
f 34//3 2//3 5//3 38//3
f 6//4 7//4 5//4 2//4 4//4
f 8//5 6//5 4//5 3//5
f 8//6 3//6 9//6 10//6
f 10//7 9//7 11//7 12//7
f 12//8 11//8 13//8 14//8
f 38//9 5//9 15//9 49//9
f 3//10 1//10 51//10 16//10
f 1//11 32//11 51//11
f 15//12 77//12 76//12 18//12 22//12
f 7//13 78//13 77//13 15//13 5//13
f 8//14 19//14 17//14 6//14
f 20//15 19//15 8//15 10//15
f 21//16 20//16 10//16 12//16
f 46//17 59//17 54//17 48//17
f 22//18 60//18 49//18 15//18
f 55//19 40//19 41//19 79//19 81//19 56//19
f 18//20 17//20 26//20
f 25//21 17//21 19//21 24//21
f 23//22 24//22 19//22 20//22
f 21//23 54//23 66//23
f 21//24 23//24 20//24
f 60//25 22//25 27//25 67//25
f 22//26 18//26 26//26 27//26
f 29//27 17//27 25//27 28//27
f 26//28 17//28 29//28
f 27//29 30//29 71//29 67//29
f 27//30 26//30 29//30 30//30
f 71//31 30//31 31//31 73//31
f 28//32 31//32 30//32 29//32
f 16//33 51//33 53//33
f 32//34 34//34 35//34 33//34
f 35//35 37//35 36//35 33//35
f 34//36 38//36 39//36 35//36
f 40//37 37//37 35//37 39//37 41//37
f 42//38 36//38 37//38 40//38
f 42//39 44//39 43//39 36//39
f 44//40 46//40 45//40 43//40
f 46//41 48//41 47//41 45//41
f 53//42 47//42 13//42
f 38//43 49//43 50//43 39//43
f 36//44 52//44 51//44 33//44
f 33//45 51//45 32//45
f 50//46 61//46 56//46 81//46 80//46
f 14//47 13//47 47//47 48//47
f 52//48 45//48 47//48 53//48
f 3//49 16//49 11//49 9//49
f 13//50 11//50 16//50 53//50
f 14//51 54//51 21//51 12//51
f 45//52 52//52 36//52 43//52
f 41//53 39//53 50//53 80//53 79//53
f 42//54 40//54 55//54 57//54
f 58//55 44//55 42//55 57//55
f 59//56 46//56 44//56 58//56
f 48//57 54//57 14//57
f 61//58 50//58 49//58 60//58
f 56//59 65//59 55//59
f 64//60 63//60 57//60 55//60
f 62//61 58//61 57//61 63//61
f 59//62 66//62 54//62
f 25//63 75//63 31//63 28//63
f 59//64 58//64 62//64
f 74//65 73//65 75//65
f 60//66 67//66 68//66 61//66
f 61//67 68//67 65//67 56//67
f 66//68 75//68 23//68 21//68
f 70//69 69//69 64//69 55//69
f 65//70 70//70 55//70
f 68//71 67//71 71//71 72//71
f 68//72 72//72 70//72 65//72
f 71//73 73//73 74//73 72//73
f 69//74 70//74 72//74 74//74
f 64//75 75//75 62//75 63//75
f 75//76 66//76 59//76 62//76
f 25//77 24//77 23//77 75//77
f 52//78 53//78 51//78
f 73//79 31//79 75//79
f 75//80 64//80 69//80 74//80
f 76//81 77//81 78//81
f 79//82 80//82 81//82
f 17//83 18//83 76//83 78//83 7//83 6//83
