# Blender 4.2.2 LTS
# www.blender.org
mtllib KnightLeg3.mtl
o Cube.007
v 0.325331 -0.562371 -0.252294
v -0.091435 -0.562371 0.705268
v -0.325331 -0.562371 -0.252294
v -0.193002 -0.562371 -0.693450
v 0.336598 -0.562371 0.188863
v 0.091435 -0.562371 0.705268
v -0.336598 -0.562371 0.188863
v 0.193002 -0.562371 -0.693450
v 0.325331 -0.562371 -0.252294
v -0.091435 -0.562371 0.705268
v -0.325331 -0.562371 -0.252294
v -0.193002 -0.562371 -0.693450
v 0.336598 -0.562371 0.188863
v 0.091435 -0.562371 0.705268
v -0.336598 -0.562371 0.188863
v 0.193002 -0.562371 -0.693450
v 0.219767 -0.129253 -0.323868
v -0.091435 -0.426169 0.612179
v -0.219767 -0.129253 -0.323868
v -0.130376 -0.279274 -0.661601
v 0.282217 -0.264885 0.188863
v 0.091435 -0.426169 0.612179
v -0.282217 -0.264885 0.188863
v 0.130376 -0.279274 -0.661601
v -0.000000 -0.426169 0.705268
v 0.000000 -0.183408 0.193905
v 0.000000 -0.129253 -0.323868
vn -0.0000 1.0000 -0.0000
vn -0.0000 -1.0000 -0.0000
vn 0.9768 0.2094 -0.0457
vn -0.8742 0.2042 0.4406
vn -0.9311 0.2018 -0.3039
vn -0.9768 0.2094 -0.0457
vn 0.8742 0.2042 0.4406
vn -0.0000 0.1118 -0.9937
vn 0.9311 0.2018 -0.3039
vn -0.0000 0.3234 0.9463
vn 0.2986 0.8523 0.4294
vn 0.1596 0.9725 0.1694
vn -0.0000 0.9139 -0.4060
vn -0.2986 0.8523 0.4294
vn -0.1596 0.9725 0.1694
vt 0.625000 0.500000
vt 0.625000 0.562500
vt 0.875000 0.562500
vt 0.875000 0.500000
vt 0.625000 0.625000
vt 0.875000 0.625000
vt 0.625000 0.750000
vt 0.875000 0.750000
vt 0.750000 0.750000
vt 0.750000 0.625000
vt 0.750000 0.562500
s 0
f 8/1/1 16/1/1 9/2/1 1/2/1
f 8/1/2 1/2/2 3/3/2 4/4/2
f 1/2/2 5/5/2 7/6/2 3/3/2
f 4/4/1 12/4/1 16/1/1 8/1/1
f 5/5/1 13/5/1 14/7/1 6/7/1
f 5/5/2 6/7/2 2/8/2 7/6/2
f 2/8/1 10/8/1 15/6/1 7/6/1
f 7/6/1 15/6/1 11/3/1 3/3/1
f 3/3/1 11/3/1 12/4/1 4/4/1
f 1/2/1 9/2/1 13/5/1 5/5/1
f 9/2/3 17/2/3 21/5/3 13/5/3
f 10/8/4 18/8/4 23/6/4 15/6/4
f 11/3/5 19/3/5 20/4/5 12/4/5
f 15/6/6 23/6/6 19/3/6 11/3/6
f 13/5/7 21/5/7 22/7/7 14/7/7
f 12/4/8 20/4/8 24/1/8 16/1/8
f 16/1/9 24/1/9 17/2/9 9/2/9
f 18/8/10 10/8/10 14/7/10 22/7/10 25/9/10
f 25/9/11 22/7/11 21/5/11 26/10/11
f 26/10/12 21/5/12 17/2/12 27/11/12
f 24/1/13 20/4/13 19/3/13 27/11/13 17/2/13
f 18/8/14 25/9/14 26/10/14 23/6/14
f 23/6/15 26/10/15 27/11/15 19/3/15
