# Blender 4.2.2 LTS
# www.blender.org
mtllib KnightHand1.mtl
o Cube.014
v 0.107378 -0.273282 0.271393
v 0.106391 0.269503 0.271393
v 0.107378 -0.273282 -0.271393
v 0.106391 0.269503 -0.271393
v 2.184145 -0.200842 0.202730
v 2.183408 0.204618 0.202730
v 2.184145 -0.200842 -0.202730
v 2.183408 0.204618 -0.202730
v 1.492756 -0.388196 -0.388827
v 0.800297 -0.300628 -0.300000
v 0.799206 0.299370 -0.300000
v 1.491341 0.389456 -0.388827
v 0.800297 -0.300628 0.300000
v 1.492756 -0.388196 0.388827
v 1.491341 0.389456 0.388827
v 0.799206 0.299370 0.300000
vn -1.0000 -0.0018 -0.0000
vn 0.2598 0.0005 -0.9657
vn 1.0000 0.0018 -0.0000
vn -0.0413 -0.0001 0.9991
vn 0.2615 -0.9652 -0.0000
vn -0.0431 0.9991 -0.0000
vn 0.2580 0.9661 -0.0000
vn -0.1291 0.9916 -0.0000
vn -0.0394 -0.9992 -0.0000
vn -0.1255 -0.9921 -0.0000
vn 0.2598 0.0005 0.9657
vn -0.1273 -0.0002 0.9919
vn -0.0413 -0.0001 -0.9991
vn -0.1273 -0.0002 -0.9919
vt 0.375000 0.000000
vt 0.625000 0.000000
vt 0.625000 0.250000
vt 0.375000 0.250000
vt 0.375000 0.416735
vt 0.625000 0.416735
vt 0.625000 0.500000
vt 0.375000 0.500000
vt 0.625000 0.750000
vt 0.375000 0.750000
vt 0.375000 0.916598
vt 0.625000 0.916598
vt 0.625000 1.000000
vt 0.375000 1.000000
vt 0.291735 0.500000
vt 0.291735 0.750000
vt 0.791598 0.500000
vt 0.875000 0.500000
vt 0.875000 0.750000
vt 0.791598 0.750000
vt 0.708265 0.500000
vt 0.708265 0.750000
vt 0.125000 0.500000
vt 0.208402 0.500000
vt 0.208402 0.750000
vt 0.125000 0.750000
vt 0.625000 0.833265
vt 0.375000 0.833265
vt 0.625000 0.333402
vt 0.375000 0.333402
s 0
f 1/1/1 2/2/1 4/3/1 3/4/1
f 9/5/2 12/6/2 8/7/2 7/8/2
f 7/8/3 8/7/3 6/9/3 5/10/3
f 13/11/4 16/12/4 2/13/4 1/14/4
f 9/15/5 7/8/5 5/10/5 14/16/5
f 11/17/6 4/18/6 2/19/6 16/20/6
f 8/7/7 12/21/7 15/22/7 6/9/7
f 12/21/8 11/17/8 16/20/8 15/22/8
f 3/23/9 10/24/9 13/25/9 1/26/9
f 10/24/10 9/15/10 14/16/10 13/25/10
f 5/10/11 6/9/11 15/27/11 14/28/11
f 14/28/12 15/27/12 16/12/12 13/11/12
f 3/4/13 4/3/13 11/29/13 10/30/13
f 10/30/14 11/29/14 12/6/14 9/5/14
