# Blender 4.2.2 LTS
# www.blender.org
mtllib KnightLeg2.mtl
o Cube.007
v -0.195453 -2.568456 0.195453
v -0.300000 -0.126210 0.300000
v -0.195453 -2.568456 -0.195453
v -0.300000 -0.126210 -0.300000
v 0.195453 -2.568456 0.195453
v 0.300000 -0.126210 0.300000
v 0.195453 -2.568456 -0.195453
v 0.300000 -0.126210 -0.300000
v -0.395039 -0.526141 0.395039
v -0.395039 -0.526141 -0.395039
v 0.395039 -0.526141 -0.395039
v 0.395039 -0.526141 0.395039
vn -0.9729 0.2312 -0.0000
vn -0.0000 0.2312 -0.9729
vn 0.9729 0.2312 -0.0000
vn -0.0000 0.2312 0.9729
vn -0.0000 -1.0000 -0.0000
vn -0.0000 1.0000 -0.0000
vn -0.0000 -0.0973 0.9953
vn 0.9953 -0.0973 -0.0000
vn -0.0000 -0.0973 -0.9953
vn -0.9953 -0.0973 -0.0000
vt 0.584061 0.000000
vt 0.625000 0.000000
vt 0.625000 0.250000
vt 0.584061 0.250000
vt 0.625000 0.500000
vt 0.584061 0.500000
vt 0.625000 0.750000
vt 0.584061 0.750000
vt 0.625000 1.000000
vt 0.584061 1.000000
vt 0.125000 0.500000
vt 0.375000 0.500000
vt 0.375000 0.750000
vt 0.125000 0.750000
vt 0.875000 0.500000
vt 0.875000 0.750000
vt 0.375000 1.000000
vt 0.375000 0.250000
vt 0.375000 0.000000
s 0
f 9/1/1 2/2/1 4/3/1 10/4/1
f 10/4/2 4/3/2 8/5/2 11/6/2
f 11/6/3 8/5/3 6/7/3 12/8/3
f 12/8/4 6/7/4 2/9/4 9/10/4
f 3/11/5 7/12/5 5/13/5 1/14/5
f 8/5/6 4/15/6 2/16/6 6/7/6
f 5/13/7 12/8/7 9/10/7 1/17/7
f 7/12/8 11/6/8 12/8/8 5/13/8
f 3/18/9 10/4/9 11/6/9 7/12/9
f 1/19/10 9/1/10 10/4/10 3/18/10
