# Blender 4.2.3 LTS
# www.blender.org
mtllib Patisson1.mtl
o Cube.002
v 0.070937 0.063036 0.248575
v 0.070937 0.204006 0.248575
v 0.070937 0.063036 0.107606
v 0.070937 0.204006 0.107606
v 0.070937 0.133521 0.074620
v 0.070937 0.133521 0.281561
v -0.077511 0.036561 0.275050
v -0.077511 0.230481 0.275050
v -0.077511 0.036561 0.081130
v -0.077511 0.230481 0.081130
v -0.077511 0.133521 0.035755
v -0.077511 0.133521 0.320426
v -0.225958 0.063036 0.248575
v -0.225958 0.204006 0.248575
v -0.225958 0.063036 0.107606
v -0.225958 0.204006 0.107606
v -0.225958 0.133521 0.074620
v -0.225958 0.133521 0.281561
v -0.325020 0.000810 -0.086580
v -0.072928 0.612352 -0.130063
v -0.153144 0.000810 0.230350
v -0.294445 0.612352 -0.130063
v -0.512541 0.000810 0.230350
v -0.501321 1.706318 -0.558920
v -0.175864 0.612352 -0.327586
v 0.072726 0.004891 0.055322
v 0.469369 0.616433 0.392673
v 0.284028 0.004891 0.421306
v 0.247853 0.616433 0.392673
v -0.138575 0.004891 0.421306
v 0.071438 1.710399 0.713305
v 0.358611 0.616433 0.200834
v -0.281662 0.007904 0.392685
v -0.453812 0.619446 0.456873
v -0.126943 0.007904 0.660667
v -0.675328 0.619446 0.456873
v -0.436382 0.007904 0.660667
v -0.397803 1.713413 0.843135
v -0.564570 0.619446 0.265034
v -0.266264 1.014525 -0.872734
v -0.405098 0.889711 -0.504721
v -0.178369 0.614790 -0.230074
v -0.035519 0.896367 -0.597447
v -0.076130 0.964424 -0.801868
v 0.111312 1.417805 0.123216
v 0.007283 1.370470 0.340214
v 0.189974 1.254368 0.560984
v 0.225010 1.373224 0.388994
v 0.218976 1.397081 0.233346
v 0.379465 0.667325 0.308652
v 0.363179 0.688952 0.390244
v 0.357617 0.589374 0.678096
v 0.644763 0.745145 0.717304
v 0.675328 0.667325 0.418405
v -0.655297 0.672417 0.519115
v -0.642570 0.694044 0.798521
v -0.336905 0.594466 0.872734
v -0.382720 0.694044 0.551878
v -0.530872 0.672417 0.404679
v -0.108204 0.136395 0.530940
v -0.194093 0.248163 0.532810
v -0.056513 0.178198 0.406629
v -0.142402 0.289965 0.408500
v -0.087363 0.243863 0.378477
v -0.163243 0.182498 0.560962
v -0.206153 0.028519 0.483958
v -0.324303 0.182268 0.486531
v -0.135046 0.086023 0.312955
v -0.253197 0.239772 0.315527
v -0.177483 0.176353 0.274228
v -0.281866 0.091938 0.525257
v -0.316947 -0.021674 0.390985
v -0.402836 0.090093 0.392856
v -0.265257 0.020128 0.266675
v -0.351146 0.131896 0.268545
v -0.296106 0.085793 0.238523
v -0.371987 0.024428 0.421008
vn 1.0000 -0.0000 -0.0000
vn 0.2307 -0.4124 -0.8813
vn 0.2307 0.4124 0.8813
vn 0.2307 -0.4124 0.8813
vn 0.1756 -0.9845 -0.0000
vn 0.2307 0.4124 -0.8813
vn 0.1756 0.9845 -0.0000
vn -1.0000 -0.0000 -0.0000
vn -0.2307 -0.4124 -0.8813
vn -0.2307 0.4124 0.8813
vn -0.2307 -0.4124 0.8813
vn -0.1756 -0.9845 -0.0000
vn -0.2307 0.4124 -0.8813
vn -0.1756 0.9845 -0.0000
vn -0.8594 0.0066 -0.5113
vn 0.8748 0.1639 -0.4559
vn -0.0000 0.5077 0.8615
vn -0.0000 0.3650 0.9310
vn -0.0000 -1.0000 -0.0000
vn 0.8198 -0.3691 -0.4379
vn -0.8057 -0.3420 -0.4837
vn -0.7671 0.4640 -0.4429
vn 0.7863 0.4191 -0.4540
vn -0.0000 0.0468 0.9989
vn -0.0000 -0.2813 0.9596
vn 0.8327 -0.2749 -0.4807
vn -0.8660 0.0069 -0.5000
vn -0.7730 -0.4508 -0.4463
vn 0.8586 0.1311 -0.4957
vn -0.0000 0.3162 0.9487
vn -0.0000 -0.3329 0.9429
vn 0.8304 0.2841 -0.4794
vn -0.8051 0.3684 -0.4648
vn 0.0859 0.9396 0.3313
vn 0.1462 0.7569 0.6370
vn -0.0332 0.9833 0.1791
vn -0.1326 0.8278 0.5451
vn 0.0887 0.9663 -0.2416
vn -0.4871 0.8282 0.2771
vn -0.0700 0.9948 -0.0745
vn 0.2428 0.9358 0.2558
vn 0.7031 0.5324 0.4714
vn 0.7367 0.0572 -0.6738
vn -0.4122 0.1885 0.8914
vn 0.0904 -0.4655 0.8804
vn 0.7233 -0.6871 0.0697
vn 0.2341 0.7112 -0.6629
vn -0.4764 0.8740 0.0958
vn -0.7031 -0.5324 -0.4714
vn 0.4122 -0.1885 -0.8914
vn -0.7367 -0.0572 0.6738
vn -0.2341 -0.7112 0.6629
vn 0.4764 -0.8740 -0.0958
vn -0.0904 0.4655 -0.8804
vn -0.7233 0.6871 -0.0697
vt 0.936325 0.593086
vt 0.933361 0.593657
vt 0.931594 0.598340
vt 0.933731 0.599959
vt 0.938461 0.594706
vt 0.936694 0.599388
vt 0.962395 0.616665
vt 0.963027 0.610832
vt 0.958849 0.610765
vt 0.959358 0.616616
vt 0.931445 0.601865
vt 0.934384 0.604094
vt 0.938461 0.603308
vt 0.965497 0.593616
vt 0.966615 0.587872
vt 0.959057 0.587872
vt 0.960003 0.593616
vt 0.956060 0.610832
vt 0.957331 0.616665
vt 0.951402 0.593499
vt 0.950310 0.597466
vt 0.957884 0.597466
vt 0.956907 0.593499
vt 0.958415 0.593950
vt 0.960336 0.600550
vt 0.962691 0.599098
vt 0.961382 0.594602
vt 0.956060 0.595403
vt 0.957369 0.599899
vt 0.962567 0.605077
vt 0.959530 0.605028
vt 0.960142 0.605028
vt 0.963381 0.603030
vt 0.956060 0.604132
vt 0.965532 0.582033
vt 0.960039 0.582033
vt 0.957503 0.605077
vt 0.951308 0.602693
vt 0.956814 0.602693
vt 0.621475 0.583210
vt 0.620854 0.653014
vt 0.586435 0.670095
vt 0.600261 0.593738
vt 0.668069 0.463455
vt 0.646602 0.453392
vt 0.661925 0.329904
vt 0.488583 0.530906
vt 0.450103 0.530873
vt 0.441920 0.455452
vt 0.465637 0.455472
vt 0.488583 0.329904
vt 0.360422 0.559178
vt 0.388288 0.583231
vt 0.360422 0.595707
vt 0.668069 0.527942
vt 0.633240 0.511616
vt 0.586435 0.492353
vt 0.441920 0.445288
vt 0.435223 0.518106
vt 0.390173 0.514647
vt 0.418306 0.443475
vt 0.575924 0.451841
vt 0.553398 0.459237
vt 0.543461 0.329904
vt 0.543461 0.487823
vt 0.498831 0.480380
vt 0.488583 0.416361
vt 0.511977 0.420263
vt 0.561012 0.525740
vt 0.579362 0.564943
vt 0.543461 0.564943
vt 0.586435 0.511630
vt 0.543461 0.525740
vt 0.390173 0.329904
vt 0.525048 0.616479
vt 0.521593 0.667546
vt 0.488583 0.665336
vt 0.501418 0.614896
vt 0.352613 0.448272
vt 0.328907 0.448605
vt 0.390173 0.329904
vt 0.619142 0.487075
vt 0.609825 0.418861
vt 0.633240 0.415082
vt 0.586435 0.329904
vt 0.441920 0.605424
vt 0.465913 0.626134
vt 0.441920 0.636875
vt 0.390173 0.515888
vt 0.357057 0.516353
vt 0.488583 0.487823
vt 0.453777 0.531457
vt 0.475817 0.530906
vt 0.475817 0.573617
vt 0.441920 0.550939
vt 0.390173 0.518106
vt 0.425962 0.534880
vt 0.390173 0.563653
vt 0.360422 0.532918
vt 0.361815 0.516353
vt 0.385226 0.527579
vt 0.370537 0.546361
vt 0.385226 0.559178
vt 0.390173 0.571549
vt 0.422969 0.563653
vt 0.423815 0.572383
vt 0.390173 0.603172
vt 0.420277 0.603661
vt 0.342103 0.516353
vt 0.357134 0.526453
vt 0.360422 0.556008
vt 0.328907 0.534106
vt 0.328907 0.569507
vt 0.957789 0.573785
vt 0.956060 0.575385
vt 0.956060 0.580826
vt 0.957789 0.581773
vt 0.959517 0.574731
vt 0.959517 0.580173
vt 0.940535 0.581951
vt 0.940788 0.585679
vt 0.944897 0.584906
vt 0.943522 0.581390
vt 0.909109 0.592561
vt 0.909109 0.597192
vt 0.913244 0.596600
vt 0.912115 0.592130
vt 0.962301 0.583828
vt 0.964679 0.581627
vt 0.964679 0.574142
vt 0.910627 0.580534
vt 0.909109 0.586332
vt 0.910881 0.586332
vt 0.911915 0.580534
vt 0.918455 0.586332
vt 0.917421 0.580534
vt 0.945294 0.590335
vt 0.942693 0.595426
vt 0.945680 0.594864
vt 0.947452 0.591396
vt 0.942307 0.590897
vt 0.940535 0.594364
vt 0.910369 0.602876
vt 0.913375 0.602446
vt 0.915534 0.603184
vt 0.916214 0.597615
vt 0.921826 0.597593
vt 0.921826 0.592268
vt 0.916617 0.591967
vt 0.916617 0.599292
vt 0.947865 0.586366
vt 0.911915 0.592130
vt 0.917421 0.592130
s 0
usemtl Material
f 5/1/1 4/2/1 2/3/1 6/4/1
f 3/5/1 5/1/1 6/4/1 1/6/1
f 3/7/2 9/8/2 11/9/2 5/10/2
f 2/3/3 8/11/3 12/12/3 6/4/3
f 6/4/4 12/12/4 7/13/4 1/6/4
f 1/14/5 7/15/5 9/16/5 3/17/5
f 5/10/6 11/9/6 10/18/6 4/19/6
f 4/20/7 10/21/7 8/22/7 2/23/7
f 17/24/8 18/25/8 14/26/8 16/27/8
f 15/28/8 13/29/8 18/25/8 17/24/8
f 15/30/9 17/31/9 11/9/9 9/8/9
f 14/26/10 18/25/10 12/32/10 8/33/10
f 18/25/11 13/29/11 7/34/11 12/32/11
f 13/35/12 15/36/12 9/16/12 7/15/12
f 17/31/13 16/37/13 10/18/13 11/9/13
f 16/38/14 14/39/14 8/22/14 10/21/14
f 25/40/15 19/41/15 23/42/15 22/43/15
f 20/44/16 25/45/16 24/46/16
f 23/47/17 21/48/17 20/49/17 22/50/17
f 22/50/18 20/49/18 24/51/18
f 19/52/19 21/53/19 23/54/19
f 21/55/20 19/56/20 25/45/20 20/44/20
f 24/57/21 25/40/21 22/43/21
f 32/58/22 26/59/22 30/60/22 29/61/22
f 27/62/23 32/63/23 31/64/23
f 30/65/24 28/66/24 27/67/24 29/68/24
f 29/68/25 27/67/25 31/64/25
f 26/69/19 28/70/19 30/71/19
f 28/72/26 26/73/26 32/63/26 27/62/26
f 31/74/27 32/58/27 29/61/27
f 39/75/28 33/76/28 37/77/28 36/78/28
f 34/79/29 39/80/29 38/81/29
f 37/82/30 35/57/30 34/83/30 36/84/30
f 36/84/31 34/83/31 38/85/31
f 33/86/19 35/87/19 37/88/19
f 35/89/32 33/90/32 39/80/32 34/79/32
f 38/91/33 39/75/33 36/78/33
f 44/92/34 40/93/34 41/94/34 43/95/34
f 43/96/35 41/97/35 42/98/35
f 49/99/36 45/100/36 46/101/36 48/102/36
f 48/102/37 46/101/37 47/103/37
f 54/104/38 50/105/38 51/106/38 53/107/38
f 53/107/39 51/106/39 52/108/39
f 59/109/40 55/110/40 56/111/40 58/112/40
f 58/112/41 56/111/41 57/113/41
f 64/114/42 63/115/42 61/116/42 65/117/42
f 62/118/42 64/114/42 65/117/42 60/119/42
f 62/120/43 68/121/43 70/122/43 64/123/43
f 61/124/44 67/125/44 71/126/44 65/127/44
f 65/117/45 71/128/45 66/129/45 60/119/45
f 60/119/46 66/129/46 68/130/46 62/118/46
f 64/131/47 70/132/47 69/133/47 63/134/47
f 63/134/48 69/133/48 67/135/48 61/136/48
f 76/137/49 77/138/49 73/139/49 75/140/49
f 74/141/49 72/142/49 77/138/49 76/137/49
f 74/141/50 76/137/50 70/122/50 68/121/50
f 73/143/51 77/144/51 71/126/51 67/125/51
f 77/144/52 72/145/52 66/146/52 71/126/52
f 72/147/53 74/148/53 68/149/53 66/150/53
f 76/137/54 75/140/54 69/151/54 70/122/54
f 75/152/55 73/153/55 67/135/55 69/133/55
