# Blender 4.2.3 LTS
# www.blender.org
mtllib Patisson2.mtl
o Cube.006
v 0.171714 0.038327 0.009422
v 0.171714 0.211057 0.009422
v 0.171714 0.038327 -0.163308
v 0.171714 0.211057 -0.163308
v 0.171714 0.124692 -0.203725
v 0.171714 0.124692 0.049840
v -0.010179 0.005886 0.041863
v -0.010179 0.243497 0.041863
v -0.010179 0.005886 -0.195748
v -0.010179 0.243497 -0.195748
v -0.010179 0.124692 -0.251346
v -0.010179 0.124692 0.097461
v -0.192072 0.038327 0.009422
v -0.192072 0.211057 0.009422
v -0.192072 0.038327 -0.163308
v -0.192072 0.211057 -0.163308
v -0.192072 0.124692 -0.203725
v -0.192072 0.124692 0.049840
v -0.232629 -0.003684 -0.166306
v -0.175804 0.898379 -0.197010
v -0.095131 -0.003684 -0.005397
v -0.318195 0.898379 -0.223385
v -0.251439 -0.003684 -0.023860
v -0.740097 2.512048 -0.814515
v -0.286563 0.898379 -0.388849
v -0.531045 1.705213 -0.369033
v -0.420287 1.705213 -0.369033
v -0.475666 1.705213 -0.464953
v 0.122916 0.002336 -0.174742
v 0.424608 0.904399 0.009633
v 0.334217 0.002336 0.191242
v 0.203092 0.904399 0.009633
v 0.025028 0.002336 0.143767
v 0.531815 2.518068 0.695930
v 0.313850 0.904399 -0.182206
v 0.273136 1.711233 0.483813
v 0.383894 1.711233 0.483813
v 0.328515 1.711233 0.387894
v -0.231473 0.006781 0.162621
v -0.237459 0.908843 0.271647
v -0.113679 0.006781 0.362027
v -0.458975 0.908843 0.271647
v -0.386192 0.006781 0.430603
v -0.049996 2.522512 0.769528
v -0.348217 0.908843 0.079808
v -0.370325 1.715678 0.543903
v -0.259567 1.715678 0.543903
v -0.314946 1.715678 0.447984
v -0.047788 0.128213 0.355403
v -0.153028 0.265162 0.357695
v 0.015549 0.179434 0.203086
v -0.089691 0.316383 0.205377
v -0.022251 0.259893 0.168591
v -0.115228 0.184703 0.392190
v -0.167805 -0.003968 0.297836
v -0.312575 0.184421 0.300989
v -0.080678 0.066492 0.088306
v -0.225448 0.254881 0.091458
v -0.132676 0.177173 0.040854
v -0.260577 0.073740 0.348441
v -0.303562 -0.065469 0.183917
v -0.408802 0.071479 0.186209
v -0.240225 -0.014249 0.031600
v -0.345465 0.122700 0.033891
v -0.278025 0.066211 -0.002895
v -0.371002 -0.008980 0.220704
v 0.102779 0.004417 0.313429
v 0.070277 0.438480 0.196932
v -0.076589 0.004417 0.201070
v 0.214033 0.438480 0.179464
v 0.078076 0.004417 0.171886
v 0.189656 1.214960 0.625505
v 0.233392 0.438480 0.346809
v 0.366104 0.826720 0.296448
v 0.260427 0.826720 0.329610
v 0.341985 0.826720 0.404548
v 0.037871 0.004417 -0.289140
v 0.013438 0.438480 -0.267577
v 0.063749 0.004417 -0.189565
v -0.074937 0.438480 -0.320025
v -0.028955 0.004417 -0.161943
v -0.494350 1.214960 -0.536252
v -0.013335 0.438480 -0.422478
v -0.307460 0.826720 -0.480373
v -0.203510 0.826720 -0.442139
v -0.222374 0.826720 -0.551279
v -0.253716 0.004417 0.045339
v -0.312367 0.438480 -0.007355
v -0.180354 0.004417 0.117470
v -0.383158 0.438480 -0.007072
v -0.243863 0.004417 0.144839
v -0.738374 1.214960 0.372371
v -0.383013 0.438480 -0.089422
v -0.685747 0.826720 0.077732
v -0.603737 0.826720 0.062203
v -0.658191 0.826720 -0.001056
v -0.127113 0.275127 -0.080648
v -0.068733 0.304419 0.026784
v -0.025312 0.310244 -0.145543
v 0.033068 0.339536 -0.038111
v 0.027698 0.333107 -0.107012
v -0.121743 0.281556 -0.011747
v -0.204715 0.386362 -0.096441
v -0.124407 0.426656 0.051344
v -0.064677 0.434669 -0.185712
v 0.015632 0.474964 -0.037926
v 0.008246 0.466120 -0.132707
v -0.197329 0.395205 -0.001660
v -0.222151 0.521790 -0.096257
v -0.163771 0.551081 0.011176
v -0.120351 0.556907 -0.161151
v -0.061970 0.586199 -0.053719
v -0.067340 0.579770 -0.122620
v -0.216782 0.528218 -0.027356
v 0.503927 0.676335 -0.541459
v 0.302064 0.707698 -0.333012
v 0.321705 0.563294 0.071854
v 0.579021 0.707698 -0.145787
v 0.740097 0.789033 -0.524801
v -0.405225 1.022014 0.242162
v -0.605496 1.044060 0.482008
v -0.576275 0.942553 0.814515
v -0.377917 1.044060 0.681021
v -0.245059 1.022014 0.305737
v 0.109794 1.260341 0.185324
v -0.044594 1.291703 0.279829
v -0.043943 1.423961 0.548600
v 0.121588 1.291703 0.524025
v 0.343977 1.260341 0.155495
v -0.375189 0.906947 -0.601471
v -0.583862 0.926391 -0.450259
v -0.503549 0.836863 -0.201447
v -0.335225 0.926391 -0.189119
v -0.291541 0.906947 -0.505672
v -0.112428 0.946712 -0.771656
v -0.261201 0.866022 -0.618031
v -0.209800 0.759596 -0.467345
v -0.057083 0.866022 -0.480045
v 0.060166 0.946712 -0.793640
v 0.486142 1.795410 0.205268
v 0.314807 1.826772 0.233606
v 0.321456 1.682369 0.405263
v 0.541394 1.826772 0.532255
v 0.681212 1.728972 0.368122
vn 1.0000 -0.0000 -0.0000
vn 0.2307 -0.4124 -0.8813
vn 0.2307 0.4124 0.8813
vn 0.2307 -0.4124 0.8813
vn 0.1756 -0.9845 -0.0000
vn 0.2307 0.4124 -0.8813
vn 0.1756 0.9845 -0.0000
vn -1.0000 -0.0000 -0.0000
vn -0.2307 -0.4124 -0.8813
vn -0.2307 0.4124 0.8813
vn -0.2307 -0.4124 0.8813
vn -0.1756 -0.9845 -0.0000
vn -0.2307 0.4124 -0.8813
vn -0.1756 0.9845 -0.0000
vn -0.9816 -0.1033 -0.1608
vn 0.8641 0.0671 -0.4989
vn -0.1455 0.1983 0.9693
vn -0.0000 0.4834 0.8754
vn -0.0000 -1.0000 -0.0000
vn 0.8157 -0.0709 -0.5741
vn -0.9137 -0.2694 -0.3042
vn -0.7745 -0.4475 -0.4471
vn -0.1022 0.1642 0.9811
vn 0.8557 0.1540 -0.4940
vn -0.9141 0.1576 -0.3737
vn 0.8657 -0.0273 -0.4998
vn -0.0876 0.1844 0.9789
vn -0.0000 -0.2543 0.9671
vn 0.8512 -0.1842 -0.4914
vn -0.8125 0.3462 -0.4691
vn -0.8015 0.3786 -0.4628
vn -0.0000 -0.5067 0.8621
vn 0.8205 0.3198 -0.4737
vn -0.8554 -0.1560 -0.4939
vn 0.8629 -0.0848 -0.4982
vn 0.1359 0.1501 0.9793
vn -0.0000 -0.2693 0.9631
vn 0.8616 0.0665 -0.5033
vn -0.8374 0.2551 -0.4835
vn -0.7796 0.4354 -0.4501
vn -0.0000 -0.3197 0.9475
vn 0.8504 0.1890 -0.4910
vn 0.7031 0.5324 0.4714
vn 0.7367 0.0572 -0.6738
vn -0.4122 0.1885 0.8914
vn 0.0904 -0.4655 0.8804
vn 0.7233 -0.6871 0.0697
vn 0.2341 0.7112 -0.6629
vn -0.4764 0.8740 0.0958
vn -0.7031 -0.5324 -0.4714
vn 0.4122 -0.1885 -0.8914
vn -0.7367 -0.0572 0.6738
vn -0.2341 -0.7112 0.6629
vn 0.4764 -0.8740 -0.0958
vn -0.0904 0.4655 -0.8804
vn -0.7233 0.6871 -0.0697
vn 0.9489 -0.2850 -0.1354
vn -0.5583 -0.5649 0.6076
vn -0.1542 0.0542 -0.9866
vn -0.2484 0.5581 -0.7917
vn -0.5996 0.1653 0.7831
vn 0.9468 -0.3215 0.0164
vn 0.9448 0.2507 0.2108
vn -0.1845 0.3736 -0.9090
vn -0.6745 0.0795 0.7340
vn -0.8444 -0.2530 -0.4722
vn 0.8084 0.5717 -0.1397
vn -0.1316 0.2465 0.9602
vn -0.3450 -0.0311 0.9381
vn 0.9772 0.0650 -0.2022
vn -0.6328 -0.5593 -0.5355
vn -0.5905 -0.3862 -0.7086
vn -0.4222 0.1418 0.8954
vn 0.8904 0.4284 -0.1539
vn -0.9587 -0.2797 0.0512
vn 0.5964 0.6170 -0.5134
vn 0.1888 0.3513 0.9170
vn 0.1510 -0.5845 0.7972
vn 0.7307 0.0159 -0.6825
vn -0.8091 -0.5710 -0.1391
vn -0.9369 0.1217 -0.3277
vn 0.1022 -0.1182 0.9877
vn 0.6251 0.5655 -0.5381
vn 0.3589 -0.9315 0.0589
vn 0.6049 -0.0649 -0.7937
vn -0.4392 -0.3650 0.8209
vn -0.8223 -0.5572 0.1161
vn -0.3941 -0.3929 -0.8308
vn 0.9879 0.1273 -0.0889
vn 0.5201 0.0658 0.8515
vn -0.3589 0.9315 -0.0589
vn 0.4392 0.3650 -0.8209
vn -0.6049 0.0649 0.7937
vn -0.9879 -0.1273 0.0889
vn -0.5201 -0.0658 -0.8515
vn 0.8223 0.5572 -0.1161
vn 0.3941 0.3929 0.8308
vn -0.1992 0.9791 -0.0398
vn -0.2277 0.9136 0.3369
vn 0.0354 0.9980 -0.0523
vn -0.2648 0.9156 0.3028
vn 0.0502 0.9943 -0.0938
vn 0.5454 0.7515 -0.3711
vn 0.0564 0.9970 -0.0525
vn -0.4488 0.7849 0.4273
vn -0.0865 0.9558 0.2809
vn -0.4158 0.6700 0.6150
vn 0.3035 0.9422 -0.1417
vn -0.6582 0.5633 0.4994
vt 0.947086 0.588679
vt 0.945657 0.589348
vt 0.945657 0.592204
vt 0.947086 0.592872
vt 0.948514 0.589348
vt 0.948514 0.592204
vt 0.969335 0.598514
vt 0.968799 0.595506
vt 0.967880 0.595506
vt 0.968667 0.598514
vt 0.931614 0.593361
vt 0.932150 0.596369
vt 0.933070 0.596369
vt 0.932282 0.593361
vt 0.565083 0.420816
vt 0.570943 0.398430
vt 0.564101 0.398430
vt 0.560108 0.420816
vt 0.972192 0.598514
vt 0.972728 0.595506
vt 0.928089 0.593361
vt 0.927302 0.596369
vt 0.928221 0.596369
vt 0.928757 0.593361
vt 0.965825 0.594932
vt 0.965825 0.590739
vt 0.964397 0.591408
vt 0.964397 0.594264
vt 0.967254 0.594264
vt 0.967254 0.591408
vt 0.969335 0.592498
vt 0.968667 0.592498
vt 0.931614 0.599377
vt 0.932282 0.599377
vt 0.565083 0.376044
vt 0.560108 0.376044
vt 0.972192 0.592498
vt 0.928089 0.599377
vt 0.928757 0.599377
vt 0.518565 0.285524
vt 0.517177 0.308171
vt 0.502097 0.324880
vt 0.509270 0.295823
vt 0.526865 0.290336
vt 0.522715 0.284778
vt 0.526865 0.267489
vt 0.297809 0.482282
vt 0.275301 0.482206
vt 0.270367 0.455694
vt 0.284240 0.455741
vt 0.291025 0.437544
vt 0.284088 0.437521
vt 0.297809 0.419347
vt 0.432799 0.349926
vt 0.450562 0.363749
vt 0.432799 0.368250
vt 0.439114 0.328133
vt 0.450062 0.336653
vt 0.510331 0.276507
vt 0.505684 0.281656
vt 0.502097 0.267489
vt 0.526865 0.313182
vt 0.518565 0.302067
vt 0.564802 0.480534
vt 0.563742 0.505075
vt 0.537276 0.505075
vt 0.550929 0.480534
vt 0.542940 0.468150
vt 0.546408 0.473061
vt 0.528015 0.465588
vt 0.685447 0.401819
vt 0.660524 0.392911
vt 0.654389 0.375590
vt 0.667452 0.380259
vt 0.676450 0.371499
vt 0.669918 0.369164
vt 0.685447 0.362739
vt 0.525018 0.338113
vt 0.502097 0.351346
vt 0.502097 0.324880
vt 0.515905 0.356017
vt 0.503891 0.362954
vt 0.539472 0.473061
vt 0.557866 0.470713
vt 0.380066 0.310115
vt 0.382001 0.334070
vt 0.362622 0.334070
vt 0.366193 0.310115
vt 0.316313 0.447504
vt 0.312245 0.453123
vt 0.312245 0.430543
vt 0.311008 0.443274
vt 0.297809 0.457463
vt 0.297809 0.429505
vt 0.307258 0.419347
vt 0.583368 0.440956
vt 0.577156 0.437870
vt 0.583368 0.421421
vt 0.372312 0.347621
vt 0.347344 0.457706
vt 0.335979 0.473402
vt 0.312245 0.475702
vt 0.320381 0.464466
vt 0.582285 0.398733
vt 0.582285 0.421421
vt 0.570943 0.413432
vt 0.576614 0.394738
vt 0.582285 0.376044
vt 0.583368 0.460491
vt 0.570943 0.454319
vt 0.945657 0.593541
vt 0.945657 0.596397
vt 0.947086 0.597065
vt 0.948514 0.593541
vt 0.948514 0.596397
vt 0.950131 0.600154
vt 0.949595 0.597147
vt 0.948676 0.597147
vt 0.949463 0.600154
vt 0.972728 0.601522
vt 0.973647 0.601522
vt 0.972860 0.598514
vt 0.953656 0.600154
vt 0.954443 0.597147
vt 0.953524 0.597147
vt 0.952988 0.600154
vt 0.967880 0.601522
vt 0.968799 0.601522
vt 0.955872 0.598332
vt 0.955872 0.594139
vt 0.954443 0.594807
vt 0.954443 0.597663
vt 0.957300 0.597663
vt 0.957300 0.594807
vt 0.950131 0.594139
vt 0.949463 0.594139
vt 0.972192 0.604529
vt 0.972860 0.604529
vt 0.953656 0.594139
vt 0.952988 0.594139
vt 0.968667 0.604529
vt 0.969335 0.604529
vt 0.973647 0.595506
vt 0.972860 0.592498
vt 0.307972 0.320938
vt 0.311130 0.323023
vt 0.311905 0.329159
vt 0.305281 0.324637
vt 0.305281 0.332087
s 0
usemtl Material
f 5/1/1 4/2/1 2/3/1 6/4/1
f 3/5/1 5/1/1 6/4/1 1/6/1
f 3/7/2 9/8/2 11/9/2 5/10/2
f 2/11/3 8/12/3 12/13/3 6/14/3
f 6/15/4 12/16/4 7/17/4 1/18/4
f 1/19/5 7/20/5 9/8/5 3/7/5
f 5/21/6 11/22/6 10/23/6 4/24/6
f 4/24/7 10/23/7 8/12/7 2/11/7
f 17/25/8 18/26/8 14/27/8 16/28/8
f 15/29/8 13/30/8 18/26/8 17/25/8
f 15/31/9 17/32/9 11/9/9 9/8/9
f 14/33/10 18/34/10 12/13/10 8/12/10
f 18/35/11 13/36/11 7/17/11 12/16/11
f 13/37/12 15/31/12 9/8/12 7/20/12
f 17/38/13 16/39/13 10/23/13 11/22/13
f 16/39/14 14/33/14 8/12/14 10/23/14
f 25/40/15 19/41/15 23/42/15 22/43/15
f 27/44/16 28/45/16 24/46/16
f 23/47/17 21/48/17 20/49/17 22/50/17
f 26/51/18 27/52/18 24/53/18
f 19/54/19 21/55/19 23/56/19
f 21/55/20 19/54/20 25/57/20 20/58/20
f 28/59/21 25/40/21 22/43/21 26/60/21
f 24/61/22 28/59/22 26/60/22
f 22/50/23 20/49/23 27/52/23 26/51/23
f 20/62/24 25/63/24 28/45/24 27/44/24
f 35/64/25 29/65/25 33/66/25 32/67/25
f 37/68/26 38/69/26 34/70/26
f 33/71/27 31/72/27 30/73/27 32/74/27
f 36/75/28 37/76/28 34/77/28
f 29/78/19 31/79/19 33/80/19
f 31/79/29 29/78/29 35/81/29 30/82/29
f 38/69/30 35/64/30 32/67/30 36/83/30
f 34/70/31 38/69/31 36/83/31
f 32/74/32 30/73/32 37/76/32 36/75/32
f 30/84/33 35/64/33 38/69/33 37/68/33
f 45/85/34 39/86/34 43/87/34 42/88/34
f 47/89/35 48/90/35 44/91/35
f 43/92/36 41/93/36 40/94/36 42/95/36
f 46/96/37 47/97/37 44/98/37
f 39/86/19 41/99/19 43/87/19
f 41/100/38 39/101/38 45/102/38 40/103/38
f 48/104/39 45/105/39 42/106/39 46/107/39
f 44/108/40 48/104/40 46/107/40
f 42/109/41 40/110/41 47/97/41 46/96/41
f 40/103/42 45/102/42 48/90/42 47/89/42
f 53/4/43 52/111/43 50/112/43 54/113/43
f 51/114/43 53/4/43 54/113/43 49/115/43
f 51/116/44 57/117/44 59/118/44 53/119/44
f 50/19/45 56/120/45 60/121/45 54/122/45
f 54/123/46 60/124/46 55/125/46 49/126/46
f 49/126/47 55/125/47 57/117/47 51/116/47
f 53/10/48 59/127/48 58/128/48 52/7/48
f 52/7/49 58/128/49 56/120/49 50/19/49
f 65/129/50 66/130/50 62/131/50 64/132/50
f 63/133/50 61/134/50 66/130/50 65/129/50
f 63/135/51 65/136/51 59/118/51 57/117/51
f 62/137/52 66/138/52 60/121/52 56/120/52
f 66/139/53 61/140/53 55/125/53 60/124/53
f 61/140/54 63/135/54 57/117/54 55/125/54
f 65/141/55 64/142/55 58/128/55 59/127/55
f 64/142/56 62/137/56 56/120/56 58/128/56
f 73/40/57 67/41/57 71/42/57 70/43/57
f 75/44/58 76/45/58 72/46/58
f 71/47/59 69/48/59 68/49/59 70/50/59
f 74/51/60 75/52/60 72/53/60
f 67/54/19 69/55/19 71/56/19
f 69/55/61 67/54/61 73/57/61 68/58/61
f 76/59/62 73/40/62 70/43/62 74/60/62
f 72/61/63 76/59/63 74/60/63
f 70/50/64 68/49/64 75/52/64 74/51/64
f 68/62/65 73/63/65 76/45/65 75/44/65
f 83/40/66 77/41/66 81/42/66 80/43/66
f 85/44/67 86/45/67 82/46/67
f 81/47/68 79/48/68 78/49/68 80/50/68
f 84/51/69 85/52/69 82/53/69
f 77/54/19 79/55/19 81/56/19
f 79/55/70 77/54/70 83/57/70 78/58/70
f 86/59/71 83/40/71 80/43/71 84/60/71
f 82/61/72 86/59/72 84/60/72
f 80/50/73 78/49/73 85/52/73 84/51/73
f 78/62/74 83/63/74 86/45/74 85/44/74
f 93/40/75 87/41/75 91/42/75 90/43/75
f 95/44/76 96/45/76 92/46/76
f 91/47/77 89/48/77 88/49/77 90/50/77
f 94/51/78 95/52/78 92/53/78
f 87/54/19 89/55/19 91/56/19
f 89/55/79 87/54/79 93/57/79 88/58/79
f 96/59/80 93/40/80 90/43/80 94/60/80
f 92/61/81 96/59/81 94/60/81
f 90/50/82 88/49/82 95/52/82 94/51/82
f 88/62/83 93/63/83 96/45/83 95/44/83
f 101/1/84 100/2/84 98/3/84 102/4/84
f 99/5/84 101/1/84 102/4/84 97/6/84
f 99/7/85 105/8/85 107/9/85 101/10/85
f 98/11/86 104/12/86 108/13/86 102/14/86
f 102/122/87 108/143/87 103/20/87 97/19/87
f 97/19/88 103/20/88 105/8/88 99/7/88
f 101/21/89 107/22/89 106/23/89 100/24/89
f 100/24/90 106/23/90 104/12/90 98/11/90
f 113/25/91 114/26/91 110/27/91 112/28/91
f 111/29/91 109/30/91 114/26/91 113/25/91
f 111/31/92 113/32/92 107/9/92 105/8/92
f 110/33/93 114/34/93 108/13/93 104/12/93
f 114/144/94 109/37/94 103/20/94 108/143/94
f 109/37/95 111/31/95 105/8/95 103/20/95
f 113/38/96 112/39/96 106/23/96 107/22/96
f 112/39/97 110/33/97 104/12/97 106/23/97
f 119/145/98 115/146/98 116/147/98 118/148/98
f 118/148/99 116/147/99 117/149/99
f 124/145/100 120/146/100 121/147/100 123/148/100
f 123/148/101 121/147/101 122/149/101
f 129/145/102 125/146/102 126/147/102 128/148/102
f 128/148/103 126/147/103 127/149/103
f 134/145/104 130/146/104 131/147/104 133/148/104
f 133/148/105 131/147/105 132/149/105
f 139/145/106 135/146/106 136/147/106 138/148/106
f 138/148/107 136/147/107 137/149/107
f 144/145/108 140/146/108 141/147/108 143/148/108
f 143/148/109 141/147/109 142/149/109
