# Blender 4.2.2 LTS
# www.blender.org
mtllib RoadSide.mtl
o Cube
v -1.000000 0.005116 1.000000
v -1.000000 0.005116 -1.000000
v 1.000000 0.061215 1.000000
v 1.000000 0.061215 -1.000000
v 0.000000 -0.013748 -1.000000
v 0.500000 0.061215 -1.000000
v -0.500000 0.013506 -1.000000
v -1.000000 0.005116 0.000000
v -1.000000 0.005116 -0.500000
v -1.000000 0.005116 0.500000
v 0.000000 -0.013748 1.000000
v -0.500000 0.013407 1.000000
v 0.500000 0.061215 1.000000
v 1.000000 0.114332 0.000000
v 1.000000 0.139974 0.500000
v 1.000000 0.139974 -0.500000
v 0.504954 0.042910 -0.036457
v 0.500514 0.100276 0.405330
v 0.630038 0.086078 -0.473191
v 0.018516 0.007204 0.133911
v -0.111013 -0.024350 0.504493
v -0.036888 0.035826 -0.504495
v -0.510659 0.013506 0.000000
v -0.506650 0.037231 0.585831
v -0.542350 -0.011822 -0.494038
vn -0.0496 0.9930 0.1069
vn -0.0992 0.9912 -0.0878
vn -0.1438 0.9882 0.0534
vn -0.0644 0.9937 -0.0921
vn -0.0429 0.9987 0.0263
vn -0.0393 0.9990 -0.0217
vn 0.0092 0.9996 -0.0258
vn 0.0088 0.9996 0.0255
vn -0.0205 0.9995 -0.0258
vn -0.0406 0.9992 0.0060
vn 0.0722 0.9972 0.0176
vn 0.0987 0.9951 0.0017
vn -0.1728 0.9840 0.0432
vn -0.1580 0.9858 -0.0574
vn -0.0667 0.9958 0.0622
vn -0.1048 0.9925 -0.0627
vt 0.240932 0.257717
vt 0.027225 0.430735
vt 0.000000 0.359945
vt 0.213061 0.000000
vt 0.350290 0.127840
vt 0.336731 0.532212
vt 0.497410 0.319827
vt 0.524770 0.016066
vt 0.661754 0.470805
vt 0.623417 0.392078
vt 0.889862 0.639790
vt 0.781571 0.666603
vt 0.670437 0.525369
vt 0.889862 0.483729
vt 0.782582 0.353775
vt 0.889862 0.327668
vt 0.827814 1.000000
vt 0.771585 0.984825
vt 0.670438 0.836288
vt 0.827814 0.841026
vt 0.769588 0.666603
vt 0.827814 0.682052
vt 0.617521 0.936967
vt 0.496634 0.943559
vt 0.506980 0.649544
vt 0.623417 0.883898
vt 0.359309 0.812797
vt 0.284177 0.765171
vt 0.670437 0.070298
vt 0.862751 -0.000000
vt 0.793277 0.327668
vt 0.681202 0.199392
vt 0.983839 0.122458
vt 0.946621 0.327668
vt 0.000000 0.851765
vt 0.152797 0.924980
s 0
usemtl Material
f 18/1/1 13/2/1 3/3/1 15/4/1
f 18/1/2 15/4/2 14/5/2 17/6/2
f 19/7/3 17/6/3 14/5/3 16/8/3
f 6/9/4 19/7/4 16/8/4 4/10/4
f 1/11/5 12/12/5 24/13/5 10/14/5
f 10/14/6 24/13/6 23/15/6 8/16/6
f 8/17/7 23/18/7 25/19/7 9/20/7
f 9/20/8 25/19/8 7/21/8 2/22/8
f 7/23/9 25/24/9 22/25/9 5/26/9
f 23/27/10 20/28/10 22/25/10 25/24/10
f 23/29/11 24/30/11 21/31/11 20/32/11
f 12/33/12 11/34/12 21/31/12 24/30/12
f 11/35/13 13/2/13 18/1/13 21/36/13
f 18/1/14 17/6/14 20/28/14 21/36/14
f 19/7/15 22/25/15 20/28/15 17/6/15
f 5/26/16 22/25/16 19/7/16 6/9/16
