# Blender 4.2.2 LTS
# www.blender.org
mtllib RoadSideToSolo.mtl
o Cube
v -1.000000 0.005116 1.000000
v -1.000000 0.005116 -1.000000
v 1.000000 0.061215 1.000000
v 1.000000 0.061215 -1.000000
v 0.000000 -0.013748 -1.000000
v 0.500000 0.061215 -1.000000
v -0.500000 0.013506 -1.000000
v -1.000000 0.005116 0.000000
v -1.000000 0.005116 -0.500000
v -1.000000 0.005116 0.500000
v 0.000000 -0.013748 1.000000
v -0.500000 0.013407 1.000000
v 0.500000 0.061215 1.000000
v 1.000000 -0.004952 0.000000
v 1.000000 0.028704 0.500000
v 1.000000 0.028704 -0.500000
v 0.503779 0.002886 -0.017647
v 0.498376 0.056744 0.425867
v 0.550980 0.080121 -0.476902
v 0.018516 0.007204 0.133911
v -0.111013 -0.024350 0.504493
v 0.079594 0.009087 -0.551523
v -0.510659 0.013506 0.000000
v -0.506650 0.037231 0.585831
v -0.542350 -0.011822 -0.494038
vn 0.0305 0.9989 -0.0344
vn 0.0442 0.9948 -0.0920
vn 0.0628 0.9911 0.1177
vn 0.0544 0.9985 0.0106
vn -0.0429 0.9987 0.0263
vn -0.0393 0.9990 -0.0217
vn 0.0092 0.9996 -0.0258
vn 0.0088 0.9996 0.0255
vn 0.0058 1.0000 0.0024
vn -0.0113 0.9997 -0.0202
vn 0.0722 0.9972 0.0176
vn 0.0987 0.9951 0.0017
vn -0.1392 0.9903 0.0007
vn -0.0783 0.9961 -0.0403
vn -0.0644 0.9959 0.0627
vn -0.1469 0.9889 -0.0227
vt 0.877800 0.317368
vt 1.000000 0.428537
vt 0.922435 0.482302
vt 0.745105 0.462613
vt 0.565840 0.474290
vt 0.724636 0.289668
vt 0.752205 0.066712
vt 0.551059 0.248345
vt 0.611906 -0.000000
vt 0.534342 0.053765
vt 0.541905 0.572662
vt 0.644369 0.591934
vt 0.743691 0.701062
vt 0.541905 0.715848
vt 0.643345 0.877788
vt 0.541905 0.859034
vt 0.523006 0.886138
vt 0.480827 0.865069
vt 0.394655 0.731527
vt 0.515447 0.741600
vt 0.478832 0.575732
vt 0.514187 0.592022
vt 0.354284 0.692700
vt 0.289923 0.594081
vt 0.113325 0.253654
vt 0.158540 0.242267
vt 0.171396 0.440818
vt 0.000000 0.401589
vt 0.000000 0.636716
vt 0.168438 0.592821
vt 0.120193 0.866559
vt 0.011968 0.761254
vt 0.286143 0.676230
vt 0.258312 0.866558
vt 0.071949 0.000000
vt 0.454932 0.000000
vt 0.433126 0.165723
vt 0.009989 0.139978
vt 0.313196 0.284724
vt 0.534342 0.419338
vt 0.062354 0.572662
vt 0.445336 0.572662
s 0
usemtl Material.001
f 18/1/1 13/2/1 3/3/1 15/4/1
f 18/1/2 15/4/2 14/5/2 17/6/2
f 19/7/3 17/6/3 14/5/3 16/8/3
f 6/9/4 19/7/4 16/8/4 4/10/4
f 1/11/5 12/12/5 24/13/5 10/14/5
f 10/14/6 24/13/6 23/15/6 8/16/6
f 8/17/7 23/18/7 25/19/7 9/20/7
f 9/20/8 25/19/8 7/21/8 2/22/8
f 7/21/9 25/19/9 22/23/9 5/24/9
f 23/25/10 20/26/10 22/27/10 25/28/10
f 23/29/11 24/30/11 21/31/11 20/32/11
f 12/33/12 11/34/12 21/31/12 24/30/12
f 11/35/13 13/36/13 18/37/13 21/38/13
f 18/37/14 17/39/14 20/26/14 21/38/14
f 19/40/15 22/27/15 20/26/15 17/39/15
f 5/41/16 22/27/16 19/40/16 6/42/16
