# Blender 4.2.3 LTS
# www.blender.org
mtllib SnakeHead.mtl
o Cylinder.003
v 0.000000 -0.279084 -0.081069
v -0.000000 -0.279084 -1.025747
v 0.244576 -0.137879 -0.081069
v 0.244576 -0.137878 -1.025747
v 0.244576 0.144533 -0.081069
v 0.244576 0.144533 -1.025747
v 0.000000 0.285739 -0.081068
v -0.000000 0.285739 -1.025747
v -0.244576 0.144533 -0.081069
v -0.244576 0.144533 -1.025747
v -0.244576 -0.137879 -0.081069
v -0.244576 -0.137878 -1.025747
v -0.000000 -0.185665 -1.139592
v 0.163672 -0.091169 -1.139592
v 0.163672 0.097824 -1.139592
v -0.000000 0.192320 -1.139592
v -0.163672 0.097824 -1.139592
v -0.163672 -0.091169 -1.139592
v -0.340206 -0.147804 0.408786
v -0.340206 0.147804 0.408786
v 0.000000 0.295609 0.408786
v 0.340206 0.147804 0.408786
v 0.340206 -0.147804 0.408786
v 0.000000 -0.295609 0.408786
v -0.340206 -0.147804 0.762167
v -0.340206 0.147804 0.762167
v 0.000000 0.295609 0.762167
v 0.340206 0.147804 0.762167
v 0.340206 -0.147804 0.762167
v 0.000000 -0.295609 0.762167
v -0.131325 -0.057055 1.139592
v -0.131325 0.057055 1.139592
v 0.000000 0.114109 1.139592
v 0.131325 0.057055 1.139592
v 0.131325 -0.057055 1.139592
v 0.000000 -0.114110 1.139592
vn 0.5000 -0.8660 -0.0000
vn 1.0000 -0.0000 -0.0000
vn 0.5000 0.8660 -0.0000
vn -0.5000 0.8660 -0.0000
vn -0.4076 0.7059 -0.5793
vn -1.0000 -0.0000 -0.0000
vn -0.5000 -0.8660 -0.0000
vn 0.9815 -0.0000 -0.1916
vn -0.0000 -0.0000 -1.0000
vn 0.8151 -0.0000 -0.5793
vn -0.8151 -0.0000 -0.5793
vn 0.4076 -0.7059 -0.5793
vn 0.4076 0.7059 -0.5793
vn -0.4076 -0.7059 -0.5793
vn -0.4424 0.8951 -0.0552
vn 0.4421 -0.8945 -0.0673
vn -0.4421 -0.8945 -0.0673
vn -0.9815 -0.0000 -0.1916
vn 0.4424 0.8951 -0.0552
vn -0.3985 0.9172 -0.0000
vn 0.3985 -0.9172 -0.0000
vn 0.3985 0.9172 -0.0000
vn -0.3985 -0.9172 -0.0000
vn -0.3646 -0.8392 0.4036
vn 0.8749 -0.0000 0.4842
vn 0.3646 0.8392 0.4036
vn -0.3646 0.8392 0.4036
vn 0.3646 -0.8392 0.4036
vn -0.8749 -0.0000 0.4842
vn -0.0000 -0.0000 1.0000
vt 0.557888 0.051793
vt 0.533602 0.050817
vt 0.532410 0.036120
vt 0.556696 0.037095
vt 0.580421 0.111206
vt 0.580421 0.086822
vt 0.607010 0.086822
vt 0.607010 0.111206
vt 0.556728 0.135799
vt 0.532410 0.134993
vt 0.533394 0.108469
vt 0.557712 0.109275
vt 0.532410 0.093790
vt 0.556728 0.094596
vt 0.481357 0.112269
vt 0.504384 0.098974
vt 0.504384 0.107770
vt 0.488974 0.116666
vt 0.580014 0.053513
vt 0.580014 0.029129
vt 0.606603 0.029129
vt 0.606603 0.053513
vt 0.556696 0.078309
vt 0.532410 0.077333
vt 0.607318 0.123850
vt 0.579487 0.123850
vt 0.519794 0.134460
vt 0.504384 0.143357
vt 0.488974 0.134460
vt 0.519794 0.116666
vt 0.527411 0.112269
vt 0.527411 0.138858
vt 0.481357 0.138858
vt 0.504384 0.152152
vt 0.569360 0.086822
vt 0.570390 0.109279
vt 0.569373 0.029129
vt 0.570621 0.051608
vt 0.569373 0.086457
vt 0.607538 0.066157
vt 0.579706 0.066157
vt 0.569360 0.144136
vt 0.578456 0.087123
vt 0.579487 0.109581
vt 0.578458 0.029494
vt 0.579706 0.051973
vt 0.578456 0.144437
vt 0.578458 0.086822
vt 0.607318 0.132972
vt 0.579487 0.132972
vt 0.607538 0.075279
vt 0.579706 0.075279
vt 0.506884 0.098974
vt 0.481357 0.075142
vt 0.497030 0.068332
vt 0.506884 0.077532
vt 0.481357 0.040219
vt 0.506884 0.029129
vt 0.506884 0.050571
vt 0.497030 0.054852
vt 0.532410 0.052961
vt 0.516737 0.059770
vt 0.532410 0.087884
vt 0.516737 0.073251
s 0
usemtl Material.001
f 1/1/1 2/2/1 4/3/1 3/4/1
f 3/5/2 4/6/2 6/7/2 5/8/2
f 5/9/3 6/10/3 8/11/3 7/12/3
f 7/12/4 8/11/4 10/13/4 9/14/4
f 10/15/5 8/16/5 16/17/5 17/18/5
f 9/19/6 10/20/6 12/21/6 11/22/6
f 11/23/7 12/24/7 2/2/7 1/1/7
f 3/5/8 5/8/8 22/25/8 23/26/8
f 14/27/9 13/28/9 18/29/9 17/18/9 16/17/9 15/30/9
f 6/31/10 4/32/10 14/27/10 15/30/10
f 12/33/11 10/15/11 17/18/11 18/29/11
f 4/32/12 2/34/12 13/28/12 14/27/12
f 8/16/13 6/31/13 15/30/13 16/17/13
f 2/34/14 12/33/14 18/29/14 13/28/14
f 7/12/15 9/14/15 20/35/15 21/36/15
f 1/1/16 3/4/16 23/37/16 24/38/16
f 11/23/17 1/1/17 24/38/17 19/39/17
f 9/19/18 11/22/18 19/40/18 20/41/18
f 5/9/19 7/12/19 21/36/19 22/42/19
f 21/36/20 20/35/20 26/43/20 27/44/20
f 24/38/21 23/37/21 29/45/21 30/46/21
f 22/42/22 21/36/22 27/44/22 28/47/22
f 19/39/23 24/38/23 30/46/23 25/48/23
f 23/26/2 22/25/2 28/49/2 29/50/2
f 20/41/6 19/40/6 25/51/6 26/52/6
f 25/53/24 30/54/24 36/55/24 31/56/24
f 29/57/25 28/58/25 34/59/25 35/60/25
f 28/58/26 27/61/26 33/62/26 34/59/26
f 27/61/27 26/63/27 32/64/27 33/62/27
f 30/54/28 29/57/28 35/60/28 36/55/28
f 26/63/29 25/53/29 31/56/29 32/64/29
f 36/55/30 35/60/30 34/59/30 31/56/30
f 32/64/30 31/56/30 34/59/30 33/62/30
