# Blender 4.2.2 LTS
# www.blender.org
mtllib Stone.mtl
o Cube
v -0.709989 0.019987 0.961632
v -0.400975 0.688828 0.647016
v -0.709989 0.019987 -0.986923
v -0.307867 0.721148 -0.672076
v 0.699996 0.019987 0.961632
v 0.510436 0.690824 0.416533
v 0.699996 0.019987 -0.986923
v 0.408689 0.690824 -0.629254
v -0.709989 0.019987 -0.012646
v -0.595003 0.261560 0.962293
v -0.571303 0.690824 -0.012646
v -0.648092 0.444607 -0.604975
v -0.004996 0.019987 -0.986923
v -0.004996 0.690824 -0.795264
v 0.502891 0.503117 -0.832936
v 0.699996 0.019987 -0.012646
v 0.561310 0.599766 -0.012645
v 0.620274 0.279294 0.813828
v -0.004996 0.019987 0.961632
v 0.217243 0.690824 0.769973
v 0.168195 0.829949 -0.299530
v -0.004996 0.019987 -0.012646
v 0.260061 0.409001 0.902978
v 0.673502 0.372756 -0.483899
v 0.210767 0.453450 -0.948763
v -0.672777 0.372756 0.589809
vn -0.8508 0.5151 -0.1038
vn 0.2151 0.7154 -0.6648
vn 0.9450 0.3219 0.0574
vn -0.0914 0.5460 0.8328
vn -0.0000 -1.0000 -0.0000
vn -0.0919 0.9915 0.0926
vn 0.3205 0.9467 0.0308
vn 0.3439 0.9284 -0.1409
vn -0.1436 0.9842 -0.1039
vn 0.0310 0.0730 0.9969
vn 0.1131 0.2720 0.9556
vn 0.5311 0.5854 0.6125
vn 0.9790 0.2015 0.0312
vn 0.9700 0.2202 -0.1034
vn 0.7900 0.5998 -0.1269
vn 0.1031 0.2021 -0.9739
vn -0.1909 0.4808 -0.8558
vn -0.3584 0.2385 -0.9026
vn -0.9908 0.1349 -0.0068
vn -0.9813 0.1788 0.0714
vn -0.7562 0.6054 0.2482
vt 0.554020 0.310902
vt 0.419763 0.189784
vt 0.389049 0.063704
vt 0.524498 0.072869
vt 0.510195 0.521347
vt 0.407155 0.581075
vt 0.399233 0.468243
vt 0.484641 0.441472
vt 0.832568 0.674485
vt 0.733624 0.580934
vt 0.693546 0.495616
vt 0.866713 0.417039
vt 0.130906 0.656546
vt 0.011151 0.644814
vt 0.008090 0.474501
vt 0.193235 0.420605
vt 0.194524 0.194524
vt 0.194524 0.389049
vt 0.000000 0.389049
vt 0.000000 0.194524
vt 0.909699 0.102211
vt 0.823106 0.302942
vt 0.699432 0.238514
vt 0.699432 0.068722
vt 0.867037 0.005216
vt 0.780791 -0.000000
vt 0.983446 0.057147
vt 1.000000 0.173054
vt 0.963947 0.248721
vt 0.194524 0.000000
vt 0.000000 0.000000
vt 0.389049 0.000000
vt 0.389049 0.194524
vt 0.389049 0.389049
vt 0.292269 0.583562
vt 0.292269 0.389049
vt 0.292269 0.778076
vt 0.181279 0.756208
vt 0.000000 0.726447
vt 0.976523 0.582056
vt 0.976523 0.387817
vt 0.976523 0.776294
vt 0.768708 0.745842
vt 0.686799 0.705587
vt 0.686799 0.582199
vt 0.686799 0.387817
vt 0.686799 0.776582
vt 0.497356 0.760735
vt 0.389049 0.665381
vt 0.698572 0.193909
vt 0.699432 -0.000000
vt 0.697712 0.387817
vt 0.592582 0.387817
vt 0.407599 0.324641
s 0
usemtl Material
f 26/1/1 11/2/1 4/3/1 12/4/1
f 25/5/2 14/6/2 8/7/2 15/8/2
f 24/9/3 17/10/3 6/11/3 18/12/3
f 23/13/4 20/14/4 2/15/4 10/16/4
f 22/17/5 16/18/5 5/19/5 19/20/5
f 21/21/6 11/22/6 2/23/6 20/24/6
f 17/25/7 21/21/7 20/24/7 6/26/7
f 8/27/8 14/28/8 21/21/8 17/25/8
f 14/28/9 4/29/9 11/22/9 21/21/9
f 9/30/5 22/17/5 19/20/5 1/31/5
f 3/32/5 13/33/5 22/17/5 9/30/5
f 13/33/5 7/34/5 16/18/5 22/17/5
f 19/35/10 23/13/10 10/16/10 1/36/10
f 5/37/11 18/38/11 23/13/11 19/35/11
f 18/38/12 6/39/12 20/14/12 23/13/12
f 16/40/13 24/9/13 18/12/13 5/41/13
f 7/42/14 15/43/14 24/9/14 16/40/14
f 15/43/15 8/44/15 17/10/15 24/9/15
f 13/45/16 25/5/16 15/8/16 7/46/16
f 3/47/17 12/48/17 25/5/17 13/45/17
f 12/48/18 4/49/18 14/6/18 25/5/18
f 9/50/19 26/1/19 12/4/19 3/51/19
f 1/52/20 10/53/20 26/1/20 9/50/20
f 10/53/21 2/54/21 11/2/21 26/1/21
