# Blender 4.2.2 LTS
# www.blender.org
mtllib Stump.mtl
o Cylinder
v -0.003798 -0.966256 -1.004599
v 0.813986 -0.792993 -0.607328
v 1.016706 -0.966256 0.252104
v 0.473821 -0.832371 0.919158
v -0.389426 -0.643357 0.896370
v -0.941948 -0.848122 0.183795
v -0.776274 -0.871749 -0.578726
v 0.026586 1.033744 -0.855736
v 0.178306 0.866052 -0.950534
v 0.562802 1.055621 -0.539564
v 0.756625 0.931526 -0.529831
v 0.845274 1.033744 0.170867
v 0.981566 0.913805 0.072897
v 0.237800 1.006398 0.740588
v 0.460470 0.968029 0.812813
v -0.337764 1.006626 0.740588
v -0.270874 0.864517 0.859167
v -0.693657 1.072028 0.170867
v -0.902948 0.981201 0.135111
v -0.629951 0.982677 -0.539564
v -0.753316 0.905219 -0.543879
v 0.079759 -1.072028 -1.116553
v 0.935861 -1.072028 -0.815538
v 1.150915 -1.072028 0.176597
v 0.535411 -1.072028 1.116553
v -0.592381 -1.072028 1.036795
v -1.150915 -1.072028 0.252558
v -0.814324 -1.072028 -0.690203
v 0.697370 0.735607 0.622075
v -0.663846 0.896369 0.606152
v -0.387129 0.701564 -0.866512
vn -0.1596 0.0450 -0.9862
vn 0.8781 0.0616 0.4744
vn 0.0171 0.0428 0.9989
vn -0.8890 0.0311 0.4569
vn -0.9765 0.0160 -0.2147
vn 0.5036 0.0143 -0.8638
vn 0.9602 0.0168 -0.2787
vn 0.6960 0.5552 0.4554
vn 0.3845 0.6472 -0.6582
vn 0.5508 0.8131 -0.1883
vn 0.7435 0.4194 0.5209
vn -0.0303 0.7028 0.7108
vn -0.4644 0.4282 0.7752
vn -0.4282 0.8873 -0.1713
vn -0.3358 0.5764 -0.7450
vn -0.0073 0.9999 0.0078
vn 0.2166 0.6901 -0.6905
vn -0.8255 0.5059 -0.2502
vn -0.0031 0.4516 0.8922
vn 0.7835 0.6097 -0.1197
vn -0.3679 0.5120 -0.7762
vn -0.6920 0.5762 0.4348
vn 0.5397 0.7411 0.3994
vn -0.3486 0.4606 -0.8163
vn -0.4266 0.8282 0.3634
vn -0.5521 -0.0159 -0.8336
vn 0.7441 0.0204 0.6677
vn -0.7149 0.0044 0.6992
vt 0.402177 0.669360
vt 0.398217 0.644496
vt 0.404847 0.642107
vt 0.376106 0.700921
vt 0.374294 0.673024
vt 0.383402 0.675870
vt 0.366461 0.665840
vt 0.366939 0.639231
vt 0.373945 0.641899
vt 0.375430 0.664270
vt 0.388867 0.666668
vt 0.380677 0.641501
vt 0.388174 0.639672
vt 0.394027 0.639231
vt 0.395436 0.665270
vt 0.415429 0.641088
vt 0.415656 0.666760
vt 0.422837 0.641245
vt 0.424708 0.669177
vt 0.388874 0.698835
vt 0.390740 0.702769
vt 0.374035 0.702635
vt 0.167795 0.747444
vt 0.157213 0.748462
vt 0.155966 0.745938
vt 0.165226 0.745586
vt 0.143106 0.783516
vt 0.150650 0.777889
vt 0.152615 0.779259
vt 0.143519 0.785749
vt 0.135768 0.782226
vt 0.126660 0.779380
vt 0.129023 0.777487
vt 0.151823 0.803574
vt 0.143106 0.796908
vt 0.146222 0.797812
vt 0.153098 0.802539
vt 0.133042 0.747857
vt 0.126311 0.748255
vt 0.128212 0.746033
vt 0.168894 0.790140
vt 0.164878 0.799709
vt 0.161772 0.798358
vt 0.167117 0.789116
vt 0.167858 0.783307
vt 0.161677 0.779769
vt 0.415674 0.670962
vt 0.402416 0.670962
vt 0.416529 0.695443
vt 0.421380 0.684891
vt 0.423480 0.684092
vt 0.419101 0.698325
vt 0.376174 0.671131
vt 0.363805 0.669657
vt 0.367391 0.696682
vt 0.363805 0.700712
vt 0.416529 0.673100
vt 0.416908 0.671131
vt 0.390355 0.670391
vt 0.140125 0.778616
vt 0.141153 0.777487
vt 0.161218 0.777487
vt 0.158472 0.803645
vt 0.395436 0.667812
vt 0.395920 0.641374
vt 0.387759 0.672260
s 0
usemtl Material
f 1/1/1 31/2/1 9/3/1
f 3/4/2 13/5/2 29/6/2
f 4/7/3 15/8/3 17/9/3 5/10/3
f 6/11/4 30/12/4 19/13/4
f 6/11/5 19/13/5 21/14/5 7/15/5
f 1/1/6 9/3/6 11/16/6 2/17/6
f 2/17/7 11/16/7 13/18/7 3/19/7
f 3/4/8 4/20/8 25/21/8 24/22/8
f 11/23/9 9/24/9 8/25/9 10/26/9
f 13/27/10 11/28/10 10/29/10 12/30/10
f 29/31/11 13/32/11 12/33/11
f 17/34/12 15/35/12 14/36/12 16/37/12
f 30/38/13 17/39/13 16/40/13
f 21/41/14 19/42/14 18/43/14 20/44/14
f 31/45/15 21/41/15 20/44/15
f 10/29/16 8/46/16 20/44/16 18/43/16 16/37/16 14/36/16 12/30/16
f 1/1/17 2/17/17 23/47/17 22/48/17
f 6/49/18 7/50/18 28/51/18 27/52/18
f 4/7/19 5/10/19 26/53/19 25/54/19
f 2/55/20 3/4/20 24/22/20 23/56/20
f 7/50/21 1/57/21 22/58/21 28/51/21
f 5/10/22 6/11/22 27/59/22 26/53/22
f 15/60/23 29/31/23 12/33/23 14/61/23
f 9/62/24 31/45/24 20/44/24 8/46/24
f 19/42/25 30/63/25 16/37/25 18/43/25
f 7/64/26 21/65/26 31/2/26 1/1/26
f 4/20/27 3/4/27 29/6/27 15/66/27
f 5/10/28 17/9/28 30/12/28 6/11/28
