# Blender 4.2.3 LTS
# www.blender.org
mtllib Worktable.mtl
o Cube.017
v 1.363163 1.975272 0.065634
v -1.444964 1.949549 0.042787
v 1.457235 1.974515 -0.419755
v -1.322262 1.991160 -0.409431
v 1.270190 2.029285 0.035153
v -1.343811 2.029285 0.035153
v 1.339721 2.029285 -0.376021
v -1.249739 2.029285 -0.386060
v 1.363163 1.876904 0.073868
v -1.444964 1.876904 0.063829
v 1.457235 1.876904 -0.419755
v -1.322262 1.876904 -0.432303
v -0.949475 0.005880 0.552131
v -0.949475 1.899861 0.552131
v -0.867977 0.005880 0.611342
v -0.867977 1.899861 0.611342
v -0.899106 0.005880 0.707149
v -0.899106 1.899861 0.707149
v -0.999843 0.005880 0.707149
v -0.999843 1.899861 0.707149
v -1.030973 0.005880 0.611342
v -1.030973 1.899861 0.611342
v 1.119604 0.005880 0.221517
v 1.119604 1.899861 0.221517
v 1.201102 0.005880 0.280728
v 1.201102 1.899861 0.280728
v 1.169973 0.005880 0.376535
v 1.169973 1.899861 0.376535
v 1.069235 0.005880 0.376535
v 1.069235 1.899861 0.376535
v 1.038106 0.005880 0.280728
v 1.038106 1.899861 0.280728
v 1.334533 1.856195 0.476796
v -1.391793 1.856195 0.416610
v 1.440875 1.856195 0.068578
v -1.371343 1.856195 0.105934
v 1.141304 2.029285 0.420298
v 1.334533 1.966039 0.460151
v -1.391793 1.995545 0.406018
v -1.231285 2.029285 0.335208
v 1.313087 2.029285 0.133377
v 1.440875 1.981927 0.074631
v -1.214924 2.029285 0.133377
v -1.371343 1.940316 0.108204
v -1.165645 0.005880 -0.794925
v -1.165645 1.899861 -0.794925
v -1.084147 0.005880 -0.735713
v -1.084147 1.899861 -0.735713
v -1.115276 0.005880 -0.639906
v -1.115277 1.899861 -0.639906
v -1.216014 0.005880 -0.639906
v -1.216014 1.899861 -0.639906
v -1.247143 0.005880 -0.735713
v -1.247143 1.899861 -0.735713
v 1.119604 0.005880 -0.794925
v 1.119604 1.899861 -0.794925
v 1.201102 0.005880 -0.735713
v 1.201102 1.899861 -0.735713
v 1.169973 0.005880 -0.639906
v 1.169973 1.899861 -0.639906
v 1.069236 0.005880 -0.639906
v 1.069236 1.899861 -0.639906
v 1.038106 0.005880 -0.735713
v 1.038106 1.899861 -0.735713
v 1.416335 1.856195 -0.471907
v -1.457234 1.856195 -0.438701
v 1.444965 1.856195 -0.861446
v -1.420423 1.856195 -0.857296
v 1.104609 2.029285 -0.540575
v 1.416335 2.000032 -0.471907
v -1.420423 1.983430 -0.463606
v -1.268210 2.029285 -0.509445
v 1.358194 2.029285 -0.815607
v 1.444965 2.000032 -0.861446
v -0.977815 2.029285 -0.772025
v -1.391793 1.987581 -0.828241
v -0.286145 1.856195 0.861446
v -1.335485 1.856195 0.801261
v -0.179803 1.856195 0.453229
v -1.315035 1.856195 0.490585
v -0.479374 2.029285 0.804949
v -0.286145 1.966039 0.844802
v -1.335485 1.995545 0.790669
v -1.174977 2.029285 0.719859
v -0.307591 2.029285 0.518028
v -0.179803 1.981927 0.459281
v -1.158616 2.029285 0.518028
v -1.315035 1.940316 0.492854
vn 0.0007 0.1073 -0.9942
vn 0.0018 0.5861 -0.8102
vn -0.0000 1.0000 -0.0000
vn -0.0054 0.2744 0.9616
vn 0.4617 0.8831 0.0835
vn -0.5528 0.8276 -0.0978
vn -0.0000 -1.0000 -0.0000
vn -0.0065 0.1687 0.9856
vn -0.9681 0.0025 -0.2504
vn 0.9820 0.0079 0.1887
vn 0.5878 -0.0000 -0.8090
vn 0.9511 -0.0000 0.3090
vn -0.0000 -0.0000 1.0000
vn -0.9511 -0.0000 0.3090
vn -0.5878 -0.0000 -0.8090
vn -0.0202 0.1086 0.9939
vn -0.9978 -0.0025 -0.0668
vn -0.0129 0.0396 -0.9991
vn -0.0094 0.5256 -0.8507
vn 0.3300 0.9306 0.1585
vn -0.3742 0.9183 -0.1291
vn -0.0137 0.7500 0.6613
vn 0.9658 0.0116 0.2590
vn 0.0070 0.0905 0.9959
vn -0.9661 0.2457 -0.0794
vn -0.0067 0.1057 -0.9944
vn -0.0102 0.8360 -0.5487
vn 0.1416 0.9881 0.0601
vn -0.1512 0.9860 -0.0704
vn 0.0015 0.8371 0.5470
vn 0.9973 -0.0000 0.0733
vn -0.0525 0.1085 0.9927
vn -0.0319 0.0396 -0.9987
vn -0.0254 0.5279 -0.8489
vn -0.0405 0.7455 0.6653
vt 0.393458 0.665022
vt 0.392921 0.670197
vt 0.389970 0.670153
vt 0.389967 0.664988
vt 0.132587 0.828937
vt 0.133124 0.823762
vt 0.134314 0.823896
vt 0.134314 0.828709
vt 0.395315 0.664388
vt 0.395315 0.659553
vt 0.399725 0.659473
vt 0.399619 0.664351
vt 0.389967 0.664802
vt 0.389979 0.659935
vt 0.392411 0.659737
vt 0.391646 0.664988
vt 0.132615 0.834140
vt 0.134300 0.834598
vt 0.134299 0.838896
vt 0.132639 0.839214
vt 0.134297 0.833653
vt 0.133125 0.833889
vt 0.131853 0.829154
vt 0.134298 0.829244
vt 0.389995 0.659692
vt 0.389967 0.654449
vt 0.395162 0.654547
vt 0.395162 0.659737
vt 0.394643 0.659739
vt 0.394643 0.664975
vt 0.129633 0.834131
vt 0.129633 0.828937
vt 0.129633 0.839291
vt 0.388344 0.690836
vt 0.388344 0.632973
vt 0.388966 0.632980
vt 0.388966 0.690843
vt 0.389967 0.632976
vt 0.389967 0.690839
vt 0.402098 0.632975
vt 0.402098 0.690495
vt 0.401911 0.690493
vt 0.401911 0.632973
vt 0.402474 0.647385
vt 0.402626 0.646766
vt 0.402778 0.647385
vt 0.402720 0.648387
vt 0.402532 0.648387
vt 0.381849 0.632979
vt 0.381849 0.690857
vt 0.380853 0.690851
vt 0.380853 0.632973
vt 0.380224 0.690856
vt 0.380224 0.632978
vt 0.402626 0.648387
vt 0.402778 0.649007
vt 0.402720 0.650009
vt 0.402532 0.650009
vt 0.402474 0.649007
vt 0.385097 0.690836
vt 0.385097 0.632973
vt 0.385719 0.632980
vt 0.385719 0.690843
vt 0.386720 0.632976
vt 0.386720 0.690839
vt 0.402286 0.632975
vt 0.402286 0.690495
vt 0.402098 0.690493
vt 0.402098 0.632973
vt 0.402474 0.644144
vt 0.402590 0.643517
vt 0.402777 0.644126
vt 0.402777 0.645130
vt 0.402590 0.645141
vt 0.380224 0.632979
vt 0.380224 0.690857
vt 0.379228 0.690851
vt 0.379228 0.632973
vt 0.378600 0.690856
vt 0.378600 0.632978
vt 0.402661 0.641892
vt 0.402474 0.641282
vt 0.402474 0.640278
vt 0.402661 0.640267
vt 0.402777 0.641265
vt 0.395315 0.654147
vt 0.395708 0.649034
vt 0.398957 0.648921
vt 0.399591 0.654147
vt 0.395090 0.652442
vt 0.389967 0.653331
vt 0.390002 0.649085
vt 0.395123 0.649085
vt 0.135012 0.831002
vt 0.134981 0.828432
vt 0.138227 0.828432
vt 0.138128 0.832690
vt 0.395315 0.684813
vt 0.395817 0.680120
vt 0.397919 0.680314
vt 0.398334 0.684813
vt 0.389967 0.643751
vt 0.395231 0.643754
vt 0.395231 0.646301
vt 0.389969 0.647562
vt 0.394958 0.649034
vt 0.390252 0.649085
vt 0.139085 0.804305
vt 0.135058 0.803820
vt 0.135673 0.802362
vt 0.138668 0.802352
vt 0.395346 0.672262
vt 0.398462 0.673950
vt 0.397706 0.674995
vt 0.395596 0.674995
vt 0.394688 0.654408
vt 0.390206 0.654449
vt 0.134981 0.807661
vt 0.139248 0.807661
vt 0.386720 0.690836
vt 0.386720 0.632973
vt 0.387343 0.632980
vt 0.387343 0.690843
vt 0.388344 0.632976
vt 0.388344 0.690839
vt 0.401911 0.632975
vt 0.401911 0.690495
vt 0.401723 0.690493
vt 0.401723 0.632973
vt 0.402777 0.646156
vt 0.402590 0.646766
vt 0.402474 0.646138
vt 0.402777 0.645152
vt 0.378600 0.632979
vt 0.378600 0.690857
vt 0.377604 0.690851
vt 0.377604 0.632973
vt 0.376975 0.690856
vt 0.376975 0.632978
vt 0.402777 0.642519
vt 0.402661 0.643517
vt 0.402474 0.643506
vt 0.402474 0.642502
vt 0.383473 0.690836
vt 0.383473 0.632973
vt 0.384096 0.632980
vt 0.384096 0.690843
vt 0.385097 0.632976
vt 0.385097 0.690839
vt 0.402474 0.632975
vt 0.402474 0.690495
vt 0.402286 0.690493
vt 0.402286 0.632973
vt 0.402474 0.650629
vt 0.402626 0.650009
vt 0.402778 0.650629
vt 0.402720 0.651631
vt 0.402532 0.651631
vt 0.383473 0.632979
vt 0.383473 0.690857
vt 0.382477 0.690851
vt 0.382477 0.632973
vt 0.381849 0.690856
vt 0.381849 0.632978
vt 0.402626 0.651631
vt 0.402778 0.652251
vt 0.402720 0.653253
vt 0.402532 0.653253
vt 0.402474 0.652251
vt 0.390271 0.685918
vt 0.389967 0.680551
vt 0.394346 0.680655
vt 0.394346 0.686005
vt 0.130614 0.797112
vt 0.131087 0.791827
vt 0.134981 0.791713
vt 0.134981 0.797040
vt 0.135291 0.795731
vt 0.139356 0.791713
vt 0.139101 0.795604
vt 0.395315 0.680120
vt 0.395450 0.675738
vt 0.398150 0.674995
vt 0.398150 0.679437
vt 0.129633 0.797167
vt 0.134971 0.797112
vt 0.134940 0.801131
vt 0.129633 0.801516
vt 0.394547 0.643751
vt 0.390164 0.643732
vt 0.389967 0.642776
vt 0.395274 0.642391
vt 0.139055 0.813811
vt 0.134981 0.813819
vt 0.135458 0.812916
vt 0.138325 0.812887
vt 0.395625 0.636991
vt 0.399435 0.636864
vt 0.398941 0.638279
vt 0.396164 0.638303
vt 0.391420 0.633087
vt 0.390947 0.638372
vt 0.389967 0.637757
vt 0.389972 0.633361
vt 0.134981 0.818213
vt 0.139055 0.818206
vt 0.402474 0.632973
vt 0.404460 0.633511
vt 0.404572 0.636760
vt 0.402474 0.637248
vt 0.141383 0.795070
vt 0.139391 0.796021
vt 0.139391 0.791776
vt 0.141389 0.791713
vt 0.135012 0.825699
vt 0.134981 0.823128
vt 0.138227 0.823128
vt 0.138128 0.827386
vt 0.404053 0.640267
vt 0.402474 0.640099
vt 0.402667 0.637996
vt 0.404053 0.637248
vt 0.397458 0.684850
vt 0.397458 0.687396
vt 0.395317 0.688623
vt 0.397184 0.690130
vt 0.395600 0.690147
vt 0.139085 0.798996
vt 0.135058 0.798511
vt 0.135673 0.797053
vt 0.138668 0.797043
vt 0.395346 0.666958
vt 0.398462 0.668646
vt 0.397706 0.669691
vt 0.395596 0.669692
vt 0.399725 0.637281
vt 0.401717 0.636330
vt 0.401331 0.638299
vt 0.399973 0.638398
vt 0.134981 0.802352
vt 0.139248 0.802352
s 0
usemtl Material.002
f 4/1/1 3/2/1 11/3/1 12/4/1
f 3/5/2 4/6/2 8/7/2 7/8/2
f 7/9/3 8/10/3 6/11/3 5/12/3
f 5/13/4 6/14/4 2/15/4 1/16/4
f 3/17/5 7/18/5 5/19/5 1/20/5
f 8/21/6 4/22/6 2/23/6 6/24/6
f 9/25/7 10/26/7 12/27/7 11/28/7
f 1/16/8 2/15/8 10/29/8 9/30/8
f 2/23/9 4/22/9 12/31/9 10/32/9
f 3/17/10 1/20/10 9/33/10 11/31/10
f 13/34/11 14/35/11 16/36/11 15/37/11
f 15/37/12 16/36/12 18/38/12 17/39/12
f 17/40/13 18/41/13 20/42/13 19/43/13
f 16/44/3 14/45/3 22/46/3 20/47/3 18/48/3
f 19/49/14 20/50/14 22/51/14 21/52/14
f 21/52/15 22/51/15 14/53/15 13/54/15
f 13/55/7 15/56/7 17/57/7 19/58/7 21/59/7
f 23/60/11 24/61/11 26/62/11 25/63/11
f 25/63/12 26/62/12 28/64/12 27/65/12
f 27/66/13 28/67/13 30/68/13 29/69/13
f 26/70/3 24/71/3 32/72/3 30/73/3 28/74/3
f 29/75/14 30/76/14 32/77/14 31/78/14
f 31/78/15 32/77/15 24/79/15 23/80/15
f 23/81/7 25/82/7 27/83/7 29/84/7 31/85/7
f 33/86/7 34/87/7 36/88/7 35/89/7
f 38/90/16 39/91/16 34/92/16 33/93/16
f 44/94/17 36/95/17 34/96/17 39/97/17
f 41/98/3 43/99/3 40/100/3 37/101/3
f 35/102/18 36/103/18 44/104/18 42/105/18
f 43/106/19 41/107/19 42/105/19 44/104/19
f 38/108/20 42/109/20 41/110/20 37/111/20
f 44/112/21 39/113/21 40/114/21 43/115/21
f 39/91/22 38/90/22 37/116/22 40/117/22
f 35/118/23 42/109/23 38/108/23 33/119/23
f 45/120/11 46/121/11 48/122/11 47/123/11
f 47/123/12 48/122/12 50/124/12 49/125/12
f 49/126/13 50/127/13 52/128/13 51/129/13
f 48/130/3 46/131/3 54/132/3 52/74/3 50/133/3
f 51/134/14 52/135/14 54/136/14 53/137/14
f 53/137/15 54/136/15 46/138/15 45/139/15
f 45/81/7 47/140/7 49/141/7 51/142/7 53/143/7
f 55/144/11 56/145/11 58/146/11 57/147/11
f 57/147/12 58/146/12 60/148/12 59/149/12
f 59/150/13 60/151/13 62/152/13 61/153/13
f 58/154/3 56/155/3 64/156/3 62/157/3 60/158/3
f 61/159/14 62/160/14 64/161/14 63/162/14
f 63/162/15 64/161/15 56/163/15 55/164/15
f 55/165/7 57/166/7 59/167/7 61/168/7 63/169/7
f 65/170/7 66/171/7 68/172/7 67/173/7
f 70/174/24 71/175/24 66/176/24 65/177/24
f 76/178/25 68/176/25 66/179/25 71/180/25
f 73/181/3 75/182/3 72/183/3 69/184/3
f 67/185/26 68/186/26 76/187/26 74/188/26
f 75/189/27 73/190/27 74/191/27 76/192/27
f 70/193/28 74/194/28 73/195/28 69/196/28
f 76/197/29 71/198/29 72/199/29 75/200/29
f 71/201/30 70/202/30 69/203/30 72/204/30
f 67/205/31 74/194/31 70/193/31 65/206/31
f 77/207/7 78/208/7 80/209/7 79/210/7
f 82/211/32 83/212/32 78/213/32 77/214/32
f 88/215/17 80/216/17 78/217/17 83/218/17
f 85/219/3 87/220/3 84/221/3 81/222/3
f 79/98/33 80/223/33 88/224/33 86/225/33
f 87/226/34 85/227/34 86/225/34 88/224/34
f 82/228/20 86/229/20 85/230/20 81/231/20
f 88/232/21 83/233/21 84/234/21 87/235/21
f 83/236/35 82/237/35 81/238/35 84/239/35
f 79/240/23 86/229/23 82/228/23 77/241/23
