# MagicaVoxel @ Ephtracy

# group
o 

# material
mtllib Axe.mtl
usemtl palette

# normals
vn -1 0 0
vn 1 0 0
vn 0 0 1
vn 0 0 -1
vn 0 -1 0
vn 0 1 0

# texcoords
vt 0.939453 0.5
vt 0.943359 0.5
vt 0.970703 0.5
vt 0.978516 0.5

# verts
v -1.7 -0.3 0
v -1.7 -0.3 -0.1
v -1.7 -0.2 0
v -1.7 -0.2 -0.1
v -1.7 0 0.1
v -1.7 0 0
v -1.7 0.1 0.1
v -1.7 0.1 0
v -1.6 -0.4 0.1
v -1.6 -0.4 -0.1
v -1.6 -0.3 0.1
v -1.6 -0.3 0
v -1.6 -0.3 -0.1
v -1.6 -0.2 0.1
v -1.6 -0.2 0
v -1.6 -0.2 -0.1
v -1.6 -0.1 0.1
v -1.6 -0.1 0
v -1.6 -0.1 -0.1
v -1.6 0 0.1
v -1.6 0 0
v -1.6 0 -0.1
v -1.5 -0.2 0.1
v -1.5 -0.2 0
v -1.5 -0.1 0.1
v -1.5 -0.1 0
v -1.5 0 0
v -1.5 0 -0.1
v -1.5 0.1 0
v -1.5 0.1 -0.1
v -1.5 0.2 0
v -1.5 0.2 -0.1
v -1.4 0.1 0.1
v -1.4 0.1 0
v -1.4 0.2 0.1
v -1.4 0.2 0
v -1.3 -0.2 0
v -1.3 -0.2 -0.1
v -1.3 -0.1 0
v -1.3 -0.1 -0.1
v -1.2 -0.4 0
v -1.2 -0.4 -0.1
v -1.2 -0.3 0
v -1.2 -0.3 -0.1
v -1.2 -0.2 0
v -1.2 -0.2 -0.1
v -0.8 0 0.1
v -0.8 0 0
v -0.8 0.1 0.1
v -0.8 0.1 0
v -0.5 -0.1 0.1
v -0.5 -0.1 0
v -0.5 0 0.1
v -0.5 0 0
v 0 0 0
v 0 0 -0.1
v 0 0.1 0
v 0 0.1 -0.1
v -1.5 -0.3 0
v -1.5 -0.3 -0.1
v -1.5 -0.2 0
v -1.5 -0.2 -0.1
v -1.4 -0.2 0
v -1.4 -0.2 -0.1
v -1.4 -0.1 0
v -1.4 -0.1 -0.1
v -1.4 0.1 0
v -1.4 0.1 -0.1
v -1.4 0.2 0
v -1.4 0.2 -0.1
v -1.3 -0.4 0
v -1.3 -0.4 -0.1
v -1.3 -0.3 0
v -1.3 -0.3 -0.1
v -1.3 0 0.1
v -1.3 0 0
v -1.3 0.1 0.1
v -1.3 0.1 0
v -1.3 0.2 0.1
v -1.3 0.2 0
v -1.1 -0.4 0.1
v -1.1 -0.4 -0.1
v -1.1 -0.3 0.1
v -1.1 -0.3 0
v -1.1 -0.3 -0.1
v -1.1 -0.2 0
v -1.1 -0.1 0.1
v -1.1 -0.1 0
v -1.1 -0.1 -0.1
v -1.1 0 0
v -1.1 0 -0.1
v -1 -0.3 0
v -1 -0.3 -0.1
v -1 -0.2 0
v -1 -0.2 -0.1
v -1 -0.1 0.1
v -1 -0.1 0
v -1 -0.1 -0.1
v -1 0 0.1
v -1 0 0
v -0.6 0 0
v -0.6 0 -0.1
v -0.6 0.1 0
v -0.6 0.1 -0.1
v 0.3 -0.1 0.1
v 0.3 -0.1 0
v 0.3 0 0.1
v 0.3 0 0
v 0.3 0 -0.1
v 0.3 0.1 0.1
v 0.3 0.1 -0.1
v -1.7 0 0.1
v -1.7 0.1 0.1
v -1.6 -0.4 0.1
v -1.6 -0.3 0.1
v -1.6 -0.2 0.1
v -1.6 -0.1 0.1
v -1.6 0 0.1
v -1.5 -0.4 0.1
v -1.5 -0.3 0.1
v -1.5 -0.2 0.1
v -1.5 -0.1 0.1
v -1.5 0 0.1
v -1.5 0.1 0.1
v -1.4 -0.2 0.1
v -1.4 -0.1 0.1
v -1.4 0 0.1
v -1.4 0.1 0.1
v -1.4 0.2 0.1
v -1.3 -0.4 0.1
v -1.3 -0.2 0.1
v -1.3 -0.1 0.1
v -1.3 0 0.1
v -1.3 0.1 0.1
v -1.3 0.2 0.1
v -1.2 -0.3 0.1
v -1.2 -0.2 0.1
v -1.1 -0.4 0.1
v -1.1 -0.3 0.1
v -1.1 -0.1 0.1
v -1.1 0 0.1
v -1 -0.1 0.1
v -1 0 0.1
v -0.8 0 0.1
v -0.8 0.1 0.1
v -0.5 -0.1 0.1
v -0.5 0 0.1
v -0.5 0.1 0.1
v 0 0 0.1
v 0 0.1 0.1
v 0.2 -0.1 0.1
v 0.2 0 0.1
v 0.3 -0.1 0.1
v 0.3 0 0.1
v 0.3 0.1 0.1
v -1.7 -0.3 0
v -1.7 -0.2 0
v -1.6 -0.3 0
v -1.6 -0.2 0
v -1.6 -0.1 0
v -1.5 -0.2 0
v -1.5 -0.1 0
v -1.5 0.1 0
v -1.5 0.2 0
v -1.4 0.1 0
v -1.4 0.2 0
v -1.3 0 0
v -1.3 0.1 0
v -1.2 0 0
v -1.2 0.1 0
v -1.1 -0.3 0
v -1.1 -0.2 0
v -1.1 -0.1 0
v -1.1 0 0
v -1.1 0.1 0
v -1 -0.3 0
v -1 -0.2 0
v -1 -0.1 0
v -1 0 0
v -0.8 0 0
v -0.8 0.1 0
v -1.7 0 0
v -1.7 0.1 0
v -1.6 0 0
v -1.5 -0.3 0
v -1.5 -0.2 0
v -1.5 0 0
v -1.5 0.1 0
v -1.4 -0.2 0
v -1.4 -0.1 0
v -1.4 0.1 0
v -1.4 0.2 0
v -1.3 -0.4 0
v -1.3 -0.3 0
v -1.3 -0.2 0
v -1.3 -0.1 0
v -1.3 0.1 0
v -1.3 0.2 0
v -1.2 -0.4 0
v -1.2 -0.3 0
v -1.2 -0.2 0
v -1.1 -0.1 0
v -1.1 0 0
v -1 -0.1 0
v -1 0 0
v -0.6 0 0
v -0.6 0.1 0
v -0.5 -0.1 0
v -0.5 0 0
v -0.5 0.1 0
v 0 0 0
v 0 0.1 0
v 0.0999999 0 0
v 0.2 -0.1 0
v 0.2 0 0
v 0.3 -0.1 0
v 0.3 0 0
v -1.7 -0.3 -0.1
v -1.7 -0.2 -0.1
v -1.6 -0.4 -0.1
v -1.6 -0.3 -0.1
v -1.6 -0.2 -0.1
v -1.6 -0.1 -0.1
v -1.6 0 -0.1
v -1.5 -0.3 -0.1
v -1.5 -0.2 -0.1
v -1.5 -0.1 -0.1
v -1.5 0 -0.1
v -1.5 0.1 -0.1
v -1.5 0.2 -0.1
v -1.4 -0.2 -0.1
v -1.4 -0.1 -0.1
v -1.4 0 -0.1
v -1.4 0.1 -0.1
v -1.4 0.2 -0.1
v -1.3 -0.4 -0.1
v -1.3 -0.3 -0.1
v -1.3 -0.2 -0.1
v -1.3 -0.1 -0.1
v -1.3 0 -0.1
v -1.3 0.1 -0.1
v -1.2 -0.4 -0.1
v -1.2 -0.3 -0.1
v -1.2 -0.2 -0.1
v -1.2 0 -0.1
v -1.2 0.1 -0.1
v -1.1 -0.4 -0.1
v -1.1 -0.3 -0.1
v -1.1 -0.2 -0.1
v -1.1 -0.1 -0.1
v -1.1 0 -0.1
v -1.1 0.1 -0.1
v -1 -0.3 -0.1
v -1 -0.2 -0.1
v -1 -0.1 -0.1
v -0.8 0 -0.1
v -0.8 0.1 -0.1
v -0.6 0 -0.1
v -0.6 0.1 -0.1
v 0 0 -0.1
v 0 0.1 -0.1
v 0.0999999 0 -0.1
v 0.0999999 0.1 -0.1
v 0.2 0 -0.1
v 0.2 0.1 -0.1
v 0.3 0 -0.1
v 0.3 0.1 -0.1
v -1.6 -0.4 0.1
v -1.5 -0.4 0.1
v -1.3 -0.4 0.1
v -1.1 -0.4 0.1
v -1.5 -0.4 0
v -1.3 -0.4 0
v -1.2 -0.4 0
v -1.6 -0.4 -0.1
v -1.3 -0.4 -0.1
v -1.2 -0.4 -0.1
v -1.1 -0.4 -0.1
v -1.7 -0.3 0
v -1.6 -0.3 0
v -1.1 -0.3 0
v -1 -0.3 0
v -1.7 -0.3 -0.1
v -1.6 -0.3 -0.1
v -1.1 -0.3 -0.1
v -1 -0.3 -0.1
v -1.5 -0.2 0
v -1.4 -0.2 0
v -1.3 -0.2 0
v -1.2 -0.2 0
v -1.5 -0.2 -0.1
v -1.4 -0.2 -0.1
v -1.3 -0.2 -0.1
v -1.2 -0.2 -0.1
v -1.6 -0.1 0.1
v -1.5 -0.1 0.1
v -1.1 -0.1 0.1
v -1 -0.1 0.1
v -0.5 -0.1 0.1
v 0.2 -0.1 0.1
v 0.3 -0.1 0.1
v -1.6 -0.1 0
v -1.5 -0.1 0
v -1.4 -0.1 0
v -1.3 -0.1 0
v -1.1 -0.1 0
v -1 -0.1 0
v -0.5 -0.1 0
v 0.2 -0.1 0
v 0.3 -0.1 0
v -1.4 -0.1 -0.1
v -1.3 -0.1 -0.1
v -1.7 0 0.1
v -1.6 0 0.1
v -0.8 0 0.1
v -0.5 0 0.1
v -1.7 0 0
v -1.6 0 0
v -1.1 0 0
v -1 0 0
v -0.8 0 0
v -0.6 0 0
v -0.5 0 0
v 0 0 0
v 0.0999999 0 0
v 0.2 0 0
v 0.3 0 0
v -1.1 0 -0.1
v -0.8 0 -0.1
v -0.6 0 -0.1
v 0 0 -0.1
v 0.0999999 0 -0.1
v 0.2 0 -0.1
v 0.3 0 -0.1
v -1.5 -0.3 0
v -1.3 -0.3 0
v -1.5 -0.3 -0.1
v -1.3 -0.3 -0.1
v -1.6 -0.2 0.1
v -1.5 -0.2 0.1
v -1.7 -0.2 0
v -1.6 -0.2 0
v -1.5 -0.2 0
v -1.7 -0.2 -0.1
v -1.6 -0.2 -0.1
v -1.1 -0.1 0
v -1 -0.1 0
v -1.1 -0.1 -0.1
v -1 -0.1 -0.1
v -1.3 0 0.1
v -1.1 0 0.1
v -1 0 0.1
v -1.6 0 0
v -1.5 0 0
v -1.3 0 0
v -1.2 0 0
v -1.1 0 0
v -1 0 0
v -1.6 0 -0.1
v -1.5 0 -0.1
v -1.7 0.1 0.1
v -1.5 0.1 0.1
v -1.4 0.1 0.1
v -0.8 0.1 0.1
v -0.5 0.1 0.1
v 0 0.1 0.1
v 0.3 0.1 0.1
v -1.7 0.1 0
v -1.5 0.1 0
v -1.4 0.1 0
v -1.3 0.1 0
v -1.2 0.1 0
v -1.1 0.1 0
v -0.8 0.1 0
v -0.6 0.1 0
v -0.5 0.1 0
v 0 0.1 0
v 0.0999999 0.1 0
v 0.2 0.1 0
v -1.4 0.1 -0.1
v -1.3 0.1 -0.1
v -1.2 0.1 -0.1
v -1.1 0.1 -0.1
v -0.8 0.1 -0.1
v -0.6 0.1 -0.1
v 0 0.1 -0.1
v 0.0999999 0.1 -0.1
v 0.2 0.1 -0.1
v 0.3 0.1 -0.1
v -1.4 0.2 0.1
v -1.3 0.2 0.1
v -1.5 0.2 0
v -1.4 0.2 0
v -1.3 0.2 0
v -1.5 0.2 -0.1
v -1.4 0.2 -0.1

# faces
f 3/3/1 2/3/1 1/3/1
f 4/3/1 2/3/1 3/3/1
f 7/2/1 6/2/1 5/2/1
f 8/2/1 6/2/1 7/2/1
f 11/3/1 10/3/1 9/3/1
f 12/3/1 10/3/1 11/3/1
f 13/3/1 10/3/1 12/3/1
f 14/4/1 12/4/1 11/4/1
f 15/4/1 12/4/1 14/4/1
f 18/3/1 16/3/1 15/3/1
f 19/3/1 16/3/1 18/3/1
f 20/4/1 18/4/1 17/4/1
f 20/4/1 19/4/1 18/4/1
f 21/4/1 19/4/1 20/4/1
f 22/4/1 19/4/1 21/4/1
f 25/4/1 24/4/1 23/4/1
f 26/4/1 24/4/1 25/4/1
f 29/4/1 28/4/1 27/4/1
f 30/4/1 28/4/1 29/4/1
f 31/3/1 30/3/1 29/3/1
f 32/3/1 30/3/1 31/3/1
f 35/4/1 34/4/1 33/4/1
f 36/4/1 34/4/1 35/4/1
f 39/4/1 38/4/1 37/4/1
f 40/4/1 38/4/1 39/4/1
f 43/3/1 42/3/1 41/3/1
f 44/3/1 42/3/1 43/3/1
f 45/4/1 44/4/1 43/4/1
f 46/4/1 44/4/1 45/4/1
f 49/1/1 48/1/1 47/1/1
f 50/1/1 48/1/1 49/1/1
f 53/1/1 52/1/1 51/1/1
f 54/1/1 52/1/1 53/1/1
f 57/1/1 56/1/1 55/1/1
f 58/1/1 56/1/1 57/1/1
f 59/4/2 60/4/2 61/4/2
f 61/4/2 60/4/2 62/4/2
f 63/4/2 64/4/2 65/4/2
f 65/4/2 64/4/2 66/4/2
f 67/3/2 68/3/2 69/3/2
f 69/3/2 68/3/2 70/3/2
f 71/3/2 72/3/2 73/3/2
f 73/3/2 72/3/2 74/3/2
f 75/3/2 76/3/2 77/3/2
f 77/3/2 76/3/2 78/3/2
f 77/4/2 78/4/2 79/4/2
f 79/4/2 78/4/2 80/4/2
f 81/3/2 82/3/2 83/3/2
f 83/3/2 82/3/2 84/3/2
f 84/3/2 82/3/2 85/3/2
f 83/4/2 84/4/2 86/4/2
f 83/4/2 86/4/2 87/4/2
f 87/4/2 86/4/2 88/4/2
f 88/4/2 89/4/2 90/4/2
f 90/4/2 89/4/2 91/4/2
f 92/3/2 93/3/2 94/3/2
f 94/3/2 93/3/2 95/3/2
f 94/4/2 95/4/2 97/4/2
f 97/4/2 95/4/2 98/4/2
f 96/2/2 97/2/2 99/2/2
f 99/2/2 97/2/2 100/2/2
f 101/2/2 102/2/2 103/2/2
f 103/2/2 102/2/2 104/2/2
f 105/2/2 106/2/2 107/2/2
f 107/2/2 106/2/2 108/2/2
f 107/1/2 108/1/2 110/1/2
f 108/1/2 109/1/2 110/1/2
f 110/1/2 109/1/2 111/1/2
f 118/2/3 113/2/3 112/2/3
f 119/3/3 115/3/3 114/3/3
f 120/4/3 116/4/3 115/4/3
f 120/3/3 115/3/3 119/3/3
f 121/4/3 116/4/3 120/4/3
f 122/4/3 118/4/3 117/4/3
f 123/2/3 113/2/3 118/2/3
f 123/4/3 118/4/3 122/4/3
f 124/2/3 113/2/3 123/2/3
f 125/4/3 121/4/3 120/4/3
f 125/4/3 122/4/3 121/4/3
f 125/4/3 120/4/3 119/4/3
f 126/3/3 123/3/3 122/3/3
f 126/4/3 122/4/3 125/4/3
f 127/4/3 124/4/3 123/4/3
f 127/3/3 123/3/3 126/3/3
f 128/4/3 124/4/3 127/4/3
f 130/4/3 125/4/3 119/4/3
f 131/3/3 126/3/3 125/3/3
f 131/4/3 125/4/3 130/4/3
f 132/4/3 127/4/3 126/4/3
f 132/3/3 126/3/3 131/3/3
f 133/3/3 128/3/3 127/3/3
f 133/4/3 127/4/3 132/4/3
f 134/4/3 129/4/3 128/4/3
f 134/3/3 128/3/3 133/3/3
f 135/4/3 129/4/3 134/4/3
f 136/3/3 131/3/3 130/3/3
f 137/4/3 132/4/3 131/4/3
f 137/3/3 131/3/3 136/3/3
f 138/3/3 136/3/3 130/3/3
f 139/4/3 137/4/3 136/4/3
f 139/3/3 136/3/3 138/3/3
f 140/4/3 132/4/3 137/4/3
f 140/4/3 137/4/3 139/4/3
f 140/3/3 133/3/3 132/3/3
f 141/3/3 133/3/3 140/3/3
f 142/2/3 141/2/3 140/2/3
f 143/2/3 141/2/3 142/2/3
f 147/1/3 145/1/3 144/1/3
f 148/1/3 145/1/3 147/1/3
f 149/1/3 147/1/3 146/1/3
f 149/2/3 148/2/3 147/2/3
f 150/2/3 148/2/3 149/2/3
f 151/1/3 149/1/3 146/1/3
f 151/1/3 150/1/3 149/1/3
f 152/1/3 150/1/3 151/1/3
f 153/2/3 152/2/3 151/2/3
f 154/1/3 150/1/3 152/1/3
f 154/2/3 152/2/3 153/2/3
f 155/1/3 150/1/3 154/1/3
f 158/3/3 157/3/3 156/3/3
f 159/3/3 157/3/3 158/3/3
f 161/3/3 160/3/3 159/3/3
f 162/3/3 160/3/3 161/3/3
f 165/3/3 164/3/3 163/3/3
f 166/3/3 164/3/3 165/3/3
f 169/3/3 168/3/3 167/3/3
f 170/3/3 168/3/3 169/3/3
f 174/2/3 170/2/3 169/2/3
f 175/2/3 170/2/3 174/2/3
f 176/3/3 172/3/3 171/3/3
f 177/4/3 173/4/3 172/4/3
f 177/3/3 172/3/3 176/3/3
f 178/4/3 173/4/3 177/4/3
f 179/1/3 175/1/3 174/1/3
f 180/1/3 175/1/3 179/1/3
f 181/1/3 175/1/3 180/1/3
f 182/2/4 183/2/4 184/2/4
f 184/2/4 183/2/4 187/2/4
f 187/2/4 183/2/4 188/2/4
f 185/4/4 186/4/4 189/4/4
f 185/4/4 189/4/4 194/4/4
f 189/3/4 190/3/4 195/3/4
f 194/4/4 189/4/4 195/4/4
f 195/3/4 190/3/4 196/3/4
f 191/4/4 192/4/4 197/4/4
f 197/4/4 192/4/4 198/4/4
f 193/3/4 194/3/4 199/3/4
f 194/3/4 195/3/4 199/3/4
f 199/3/4 195/3/4 200/3/4
f 200/3/4 195/3/4 201/3/4
f 202/2/4 203/2/4 204/2/4
f 204/2/4 203/2/4 205/2/4
f 206/1/4 207/1/4 209/1/4
f 209/1/4 207/1/4 210/1/4
f 208/1/4 209/1/4 211/1/4
f 209/2/4 210/2/4 211/2/4
f 211/2/4 210/2/4 212/2/4
f 208/1/4 211/1/4 213/1/4
f 208/1/4 213/1/4 214/1/4
f 214/1/4 213/1/4 215/1/4
f 214/2/4 215/2/4 216/2/4
f 216/2/4 215/2/4 217/2/4
f 218/3/4 219/3/4 221/3/4
f 221/3/4 219/3/4 222/3/4
f 220/3/4 221/3/4 225/3/4
f 221/4/4 222/4/4 225/4/4
f 222/3/4 223/3/4 226/3/4
f 225/4/4 222/4/4 226/4/4
f 223/4/4 224/4/4 227/4/4
f 226/3/4 223/3/4 227/3/4
f 227/4/4 224/4/4 228/4/4
f 226/4/4 227/4/4 231/4/4
f 228/4/4 229/4/4 231/4/4
f 227/4/4 228/4/4 231/4/4
f 231/4/4 229/4/4 232/4/4
f 232/4/4 229/4/4 233/4/4
f 229/3/4 230/3/4 234/3/4
f 233/4/4 229/4/4 234/4/4
f 234/3/4 230/3/4 235/3/4
f 220/3/4 225/3/4 236/3/4
f 236/3/4 225/3/4 237/3/4
f 232/3/4 233/3/4 239/3/4
f 233/4/4 234/4/4 240/4/4
f 239/3/4 233/3/4 240/3/4
f 240/4/4 234/4/4 241/4/4
f 238/4/4 239/4/4 244/4/4
f 239/4/4 240/4/4 244/4/4
f 240/3/4 241/3/4 245/3/4
f 244/4/4 240/4/4 245/4/4
f 245/3/4 241/3/4 246/3/4
f 242/3/4 243/3/4 247/3/4
f 243/4/4 244/4/4 248/4/4
f 247/3/4 243/3/4 248/3/4
f 244/4/4 245/4/4 248/4/4
f 248/4/4 245/4/4 249/4/4
f 249/4/4 245/4/4 250/4/4
f 245/2/4 246/2/4 251/2/4
f 250/4/4 245/4/4 251/4/4
f 251/2/4 246/2/4 252/2/4
f 248/3/4 249/3/4 253/3/4
f 249/4/4 250/4/4 254/4/4
f 253/3/4 249/3/4 254/3/4
f 254/4/4 250/4/4 255/4/4
f 251/1/4 252/1/4 256/1/4
f 256/1/4 252/1/4 257/1/4
f 256/2/4 257/2/4 258/2/4
f 258/2/4 257/2/4 259/2/4
f 260/1/4 261/1/4 262/1/4
f 262/1/4 261/1/4 263/1/4
f 262/2/4 263/2/4 264/2/4
f 264/2/4 263/2/4 265/2/4
f 264/1/4 265/1/4 266/1/4
f 266/1/4 265/1/4 267/1/4
f 272/3/5 269/3/5 268/3/5
f 272/4/5 270/4/5 269/4/5
f 273/3/5 271/3/5 270/3/5
f 273/4/5 270/4/5 272/4/5
f 274/3/5 271/3/5 273/3/5
f 275/3/5 272/3/5 268/3/5
f 275/3/5 273/3/5 272/3/5
f 276/3/5 273/3/5 275/3/5
f 277/3/5 271/3/5 274/3/5
f 278/3/5 271/3/5 277/3/5
f 283/3/5 280/3/5 279/3/5
f 284/3/5 280/3/5 283/3/5
f 285/3/5 282/3/5 281/3/5
f 286/3/5 282/3/5 285/3/5
f 291/4/5 288/4/5 287/4/5
f 292/4/5 288/4/5 291/4/5
f 293/4/5 290/4/5 289/4/5
f 294/4/5 290/4/5 293/4/5
f 302/4/5 296/4/5 295/4/5
f 303/4/5 296/4/5 302/4/5
f 306/2/5 298/2/5 297/2/5
f 307/2/5 298/2/5 306/2/5
f 308/1/5 300/1/5 299/1/5
f 309/2/5 301/2/5 300/2/5
f 309/1/5 300/1/5 308/1/5
f 310/2/5 301/2/5 309/2/5
f 311/3/5 305/3/5 304/3/5
f 312/3/5 305/3/5 311/3/5
f 317/2/5 314/2/5 313/2/5
f 318/2/5 314/2/5 317/2/5
f 321/1/5 316/1/5 315/1/5
f 322/1/5 316/1/5 321/1/5
f 323/1/5 316/1/5 322/1/5
f 328/1/5 320/1/5 319/1/5
f 328/1/5 321/1/5 320/1/5
f 329/2/5 322/2/5 321/2/5
f 329/1/5 321/1/5 328/1/5
f 330/2/5 322/2/5 329/2/5
f 331/1/5 325/1/5 324/1/5
f 332/2/5 326/2/5 325/2/5
f 332/1/5 325/1/5 331/1/5
f 333/1/5 327/1/5 326/1/5
f 333/2/5 326/2/5 332/2/5
f 334/1/5 327/1/5 333/1/5
f 335/3/6 336/3/6 337/3/6
f 337/3/6 336/3/6 338/3/6
f 339/4/6 340/4/6 342/4/6
f 342/4/6 340/4/6 343/4/6
f 341/3/6 342/3/6 344/3/6
f 344/3/6 342/3/6 345/3/6
f 346/4/6 347/4/6 348/4/6
f 348/4/6 347/4/6 349/4/6
f 350/3/6 351/3/6 355/3/6
f 355/3/6 351/3/6 356/3/6
f 351/2/6 352/2/6 357/2/6
f 356/3/6 351/3/6 357/3/6
f 357/2/6 352/2/6 358/2/6
f 353/4/6 354/4/6 359/4/6
f 359/4/6 354/4/6 360/4/6
f 361/2/6 362/2/6 368/2/6
f 362/4/6 363/4/6 369/4/6
f 368/2/6 362/2/6 369/2/6
f 369/4/6 363/4/6 370/4/6
f 364/1/6 365/1/6 374/1/6
f 374/1/6 365/1/6 375/1/6
f 365/2/6 366/2/6 376/2/6
f 375/1/6 365/1/6 376/1/6
f 366/1/6 367/1/6 377/1/6
f 376/2/6 366/2/6 377/2/6
f 377/1/6 367/1/6 378/1/6
f 378/1/6 367/1/6 379/1/6
f 370/4/6 371/4/6 380/4/6
f 371/3/6 372/3/6 381/3/6
f 380/4/6 371/4/6 381/4/6
f 372/2/6 373/2/6 382/2/6
f 381/3/6 372/3/6 382/3/6
f 373/1/6 374/1/6 383/1/6
f 382/2/6 373/2/6 383/2/6
f 374/2/6 375/2/6 384/2/6
f 383/1/6 374/1/6 384/1/6
f 384/2/6 375/2/6 385/2/6
f 377/1/6 378/1/6 386/1/6
f 378/2/6 379/2/6 387/2/6
f 386/1/6 378/1/6 387/1/6
f 379/1/6 367/1/6 388/1/6
f 387/2/6 379/2/6 388/2/6
f 388/1/6 367/1/6 389/1/6
f 390/4/6 391/4/6 393/4/6
f 393/4/6 391/4/6 394/4/6
f 392/3/6 393/3/6 395/3/6
f 395/3/6 393/3/6 396/3/6
