# Blender 4.2.3 LTS
# www.blender.org
mtllib KnightHead.mtl
o Cylinder.005
v 0.621755 -1.020356 -0.749547
v 0.747852 -1.020356 0.000000
v 0.621755 -1.020356 0.749547
v 0.706068 -0.881222 -0.000000
v 0.595044 -0.881222 -0.659958
v -0.001079 -0.881222 -0.774197
v 0.595044 -0.881222 0.659958
v 0.738124 -0.016324 -0.000000
v 0.616224 -0.016324 -0.724599
v -0.001422 -0.016324 -0.850028
v 0.616224 -0.016324 0.724599
v 0.738124 0.396770 -0.000000
v 0.579712 0.396770 -0.677134
v -0.001422 0.396770 -0.850028
v 0.594317 0.396770 0.666180
v 0.618335 0.664911 -0.000000
v 0.538812 0.664911 -0.566023
v -0.000567 0.664911 -0.647848
v 0.538812 0.664911 0.532567
v -0.000567 0.976837 0.000000
v 0.385411 0.881346 0.000000
v 0.419008 0.775172 0.320869
v 0.419008 0.779258 -0.357845
v -0.001374 -0.137555 0.839399
v 0.433718 0.015565 0.772526
v 0.287353 -0.138112 0.762818
v 0.287353 0.164294 0.768932
v -0.621755 -1.020356 -0.749547
v -0.747852 -1.020356 0.000000
v -0.621755 -1.020356 0.749547
v -0.706068 -0.881222 -0.000000
v -0.595044 -0.881222 -0.659958
v 0.001079 -0.881222 0.774197
v -0.595044 -0.881222 0.659958
v -0.738124 -0.016324 -0.000000
v -0.616224 -0.016324 -0.724599
v -0.616224 -0.016324 0.724599
v -0.738124 0.396770 -0.000000
v -0.579712 0.396770 -0.677134
v 0.001422 0.396770 0.850028
v -0.594317 0.396770 0.666180
v -0.618335 0.664911 -0.000000
v -0.538812 0.664911 -0.566023
v 0.000567 0.664911 0.614392
v -0.538812 0.664911 0.532567
v -0.385411 0.881346 0.000000
v 0.000567 0.822917 0.361781
v -0.419008 0.775172 0.320869
v 0.000567 0.827004 -0.398758
v -0.419008 0.779258 -0.357845
v 0.001422 0.162907 0.850028
v -0.433718 0.015565 0.772526
v -0.287353 -0.138112 0.762818
v -0.287353 0.164294 0.768932
vn 0.9455 0.2840 -0.1591
vn 0.9455 0.2840 0.1591
vn 0.1931 -0.0817 -0.9778
vn 0.9855 -0.0365 0.1658
vn 0.9855 -0.0365 -0.1658
vn 0.2410 0.0663 -0.9683
vn 0.9815 0.0393 0.1875
vn 0.9791 0.0545 -0.1958
vn 0.1912 0.5057 -0.8412
vn 0.9229 0.3445 0.1719
vn 0.9318 0.3161 -0.1783
vn 0.6310 0.7650 0.1291
vn 0.6423 0.7577 -0.1157
vn 0.2885 0.0210 0.9572
vn -0.9455 0.2840 -0.1591
vn -0.9455 0.2840 0.1591
vn -0.9855 -0.0365 0.1658
vn -0.9855 -0.0365 -0.1658
vn -0.1816 0.9218 0.3426
vn -0.9815 0.0393 0.1875
vn -0.2609 0.0871 0.9614
vn -0.9791 0.0545 -0.1958
vn 0.1816 0.9220 0.3420
vn -0.9229 0.3445 0.1719
vn -0.1873 0.5699 0.8001
vn -0.9318 0.3161 -0.1783
vn -0.1045 0.8726 0.4772
vn -0.6310 0.7650 0.1291
vn -0.6423 0.7577 -0.1157
vn 0.1878 0.5703 0.7997
vn 0.1048 0.8726 0.4771
vn 0.2243 0.1730 0.9590
vn -0.1820 0.9353 -0.3036
vn 0.1820 0.9354 -0.3031
vn 0.1063 0.8629 -0.4941
vn -0.1063 0.8631 -0.4937
vn -0.1918 0.5061 -0.8408
vn -0.2420 0.0663 -0.9680
vn -0.1938 -0.0818 -0.9776
vn 0.1565 0.5558 -0.8165
vn -0.1570 0.5558 -0.8164
vn -0.1501 -0.0965 0.9840
vn -0.2109 -0.0669 0.9752
vn 0.2108 -0.0663 0.9753
vn 0.1501 -0.0965 0.9840
vn 0.1570 0.5558 0.8164
vn -0.1565 0.5558 0.8165
vt 0.111720 0.229349
vt 0.118201 0.219891
vt 0.168031 0.219956
vt 0.168314 0.229423
vt 0.217737 0.216940
vt 0.224768 0.225997
vt 0.158547 0.329853
vt 0.158524 0.273571
vt 0.205117 0.273658
vt 0.203517 0.329932
vt 0.166430 0.165155
vt 0.221006 0.161843
vt 0.111720 0.165083
vt 0.158524 0.246715
vt 0.202361 0.246835
vt 0.165658 0.138768
vt 0.215815 0.135283
vt 0.114506 0.138084
vt 0.158581 0.229423
vt 0.199271 0.229480
vt 0.165089 0.119978
vt 0.205207 0.117683
vt 0.122361 0.120140
vt 0.224768 0.260595
vt 0.240436 0.256610
vt 0.236882 0.281644
vt 0.227568 0.298760
vt 0.137779 0.110707
vt 0.164555 0.102920
vt 0.400172 0.217499
vt 0.400280 0.262712
vt 0.385076 0.262717
vt 0.385119 0.240933
vt 0.226520 0.216018
vt 0.224768 0.159451
vt 0.234240 0.159454
vt 0.235782 0.209260
vt 0.226520 0.102920
vt 0.235782 0.109680
vt 0.290758 0.104780
vt 0.289065 0.159429
vt 0.290758 0.214114
vt 0.268490 0.255585
vt 0.297976 0.258604
vt 0.299438 0.283811
vt 0.267497 0.284630
vt 0.317460 0.109181
vt 0.315463 0.159420
vt 0.373350 0.308937
vt 0.375452 0.295310
vt 0.385119 0.284262
vt 0.400172 0.307114
vt 0.317663 0.210528
vt 0.335366 0.119263
vt 0.334262 0.159431
vt 0.313497 0.316897
vt 0.267944 0.328460
vt 0.267265 0.305984
vt 0.308010 0.301547
vt 0.335366 0.202145
vt 0.317083 0.263793
vt 0.314480 0.223243
vt 0.303402 0.235348
vt 0.224768 0.313823
vt 0.373350 0.216018
vt 0.375452 0.229911
vt 0.271944 0.230335
vt 0.240847 0.233181
vt 0.274783 0.216018
vt 0.234038 0.220456
vt 0.114889 0.246835
vt 0.117970 0.229480
vt 0.112136 0.273658
vt 0.113732 0.329932
vt 0.205536 0.338915
vt 0.111720 0.338915
vt 0.317083 0.307176
vt 0.365455 0.284251
vt 0.317150 0.262551
vt 0.365536 0.262904
vt 0.317083 0.217451
vt 0.365455 0.240922
vt 0.224145 0.229423
vt 0.221175 0.274050
vt 0.214772 0.229423
vt 0.214772 0.274131
vt 0.205536 0.277249
vt 0.205536 0.229423
s 0
usemtl Material
f 1/1/1 5/2/1 4/3/1 2/4/1
f 2/4/2 4/3/2 7/5/2 3/6/2
f 6/7/3 10/8/3 9/9/3 5/10/3
f 4/3/4 8/11/4 11/12/4 7/5/4
f 5/2/5 9/13/5 8/11/5 4/3/5
f 10/8/6 14/14/6 13/15/6 9/9/6
f 8/11/7 12/16/7 15/17/7 11/12/7
f 9/13/8 13/18/8 12/16/8 8/11/8
f 14/14/9 18/19/9 17/20/9 13/15/9
f 12/16/10 16/21/10 19/22/10 15/17/10
f 13/18/11 17/23/11 16/21/11 12/16/11
f 16/24/12 21/25/12 22/26/12 19/27/12
f 17/23/13 23/28/13 21/29/13 16/21/13
f 15/30/14 40/31/14 51/32/14 27/33/14
f 28/34/15 29/35/15 31/36/15 32/37/15
f 29/35/16 30/38/16 34/39/16 31/36/16
f 31/36/17 34/39/17 37/40/17 35/41/17
f 32/37/18 31/36/18 35/41/18 36/42/18
f 20/43/19 46/44/19 48/45/19 47/46/19
f 35/41/20 37/40/20 41/47/20 38/48/20
f 37/49/21 52/50/21 54/51/21 51/32/21 40/31/21 41/52/21
f 36/42/22 35/41/22 38/48/22 39/53/22
f 20/43/23 47/46/23 22/26/23 21/25/23
f 38/48/24 41/47/24 45/54/24 42/55/24
f 41/56/25 40/57/25 44/58/25 45/59/25
f 39/53/26 38/48/26 42/55/26 43/60/26
f 47/46/27 48/45/27 45/59/27 44/58/27
f 42/61/28 45/59/28 48/45/28 46/44/28
f 43/62/29 42/61/29 46/44/29 50/63/29
f 19/27/30 44/58/30 40/57/30 15/64/30
f 19/27/31 22/26/31 47/46/31 44/58/31
f 11/65/32 15/30/32 27/33/32 25/66/32
f 20/43/33 49/67/33 50/63/33 46/44/33
f 23/68/34 49/67/34 20/43/34 21/25/34
f 18/69/35 49/67/35 23/68/35 17/70/35
f 50/63/36 49/67/36 18/69/36 43/62/36
f 18/19/37 14/14/37 39/71/37 43/72/37
f 14/14/38 10/8/38 36/73/38 39/71/38
f 10/8/39 6/7/39 32/74/39 36/73/39
f 5/10/40 1/75/40 6/7/40
f 32/74/41 6/7/41 28/76/41
f 34/77/42 53/78/42 52/50/42 37/49/42
f 33/79/43 24/80/43 53/78/43 34/77/43
f 24/80/44 33/79/44 7/81/44 26/82/44
f 7/81/45 11/65/45 25/66/45 26/82/45
f 7/83/46 33/84/46 3/85/46
f 34/86/47 30/87/47 33/88/47
