# Blender 4.2.3 LTS
# www.blender.org
mtllib GroundG.mtl
o Plane.005
v -1.000000 -0.095500 1.000000
v 1.000000 -0.095500 1.000000
v -1.000000 -0.095500 -1.000000
v 1.000000 -0.095500 -1.000000
v -1.000000 -0.095500 0.000000
v 0.000000 -0.095500 1.000000
v 1.000000 -0.095500 0.000000
v 0.000000 -0.095500 -1.000000
v -0.032055 -0.145397 -0.109078
v -1.000000 -0.095500 0.500000
v 0.500000 -0.095500 1.000000
v 1.000000 -0.095500 -0.500000
v -0.500000 -0.095500 -1.000000
v -1.000000 -0.095500 -0.500000
v -0.500000 -0.095500 1.000000
v 1.000000 -0.095500 0.500000
v 0.500000 -0.095500 -1.000000
v -0.290125 -0.058454 -0.721723
v -0.003694 -0.043101 0.701028
v -0.506334 -0.095500 -0.077895
v 0.374630 -0.041765 0.457570
v 0.677826 -0.058454 0.784959
v -0.810872 -0.145397 0.738080
v -0.785142 -0.145397 -0.565179
v 0.494781 -0.030250 -0.949896
v -0.093072 -0.095500 0.249116
v -0.389287 -0.095500 -0.325378
v -0.729434 -0.095500 0.199128
v -0.385159 -0.095500 0.932221
v -0.450934 -0.030250 0.315962
v 1.000000 -0.095500 -0.250000
v 0.723360 -0.068632 0.016118
v 0.011773 -0.036008 -0.514100
v 0.684912 -0.062875 -0.746575
v 0.401768 -0.046563 -0.139700
vn 0.1048 0.9899 -0.0958
vn -0.0962 0.9936 -0.0597
vn 0.1769 0.9800 -0.0912
vn 0.0885 0.9961 -0.0063
vn -0.0325 0.9971 -0.0692
vn 0.0006 0.9852 0.1716
vn 0.0686 0.9953 0.0686
vn 0.0399 0.9986 0.0359
vn 0.1093 0.9880 -0.1093
vn -0.0346 0.9968 0.0720
vn 0.0764 0.9942 0.0764
vn 0.0568 0.9962 -0.0664
vn -0.0621 0.9970 0.0468
vn -0.0852 0.9269 -0.3654
vn -0.2550 0.9607 0.1093
vn 0.0875 0.9961 0.0099
vn -0.2037 0.9701 -0.1321
vn -0.2011 0.9750 0.0945
vn 0.0210 0.9997 0.0090
vn 0.0487 0.9985 0.0257
vn 0.0501 0.9987 -0.0057
vn 0.0845 0.9963 -0.0128
vt 0.581591 0.542838
vt 0.627254 0.539288
vt 0.672918 0.535738
vt 0.672918 0.553964
vt 0.601585 0.553965
vt 0.437133 0.542773
vt 0.504259 0.536982
vt 0.530252 0.553967
vt 0.458919 0.553968
vt 0.469982 0.516318
vt 0.535143 0.517630
vt 0.567543 0.525793
vt 0.496655 0.523331
vt 0.616983 0.506584
vt 0.672918 0.499285
vt 0.672918 0.517511
vt 0.627259 0.517794
vt 0.581600 0.518077
vt 0.520427 0.509466
vt 0.530252 0.481061
vt 0.601585 0.481059
vt 0.672918 0.481058
vt 0.387586 0.499290
vt 0.438262 0.490360
vt 0.432014 0.505614
vt 0.433331 0.520881
vt 0.387586 0.517517
vt 0.387586 0.481064
vt 0.458919 0.481062
vt 0.470503 0.499913
vt 0.387586 0.535743
vt 0.387586 0.553970
vt 0.581595 0.530458
vt 0.647184 0.534593
vt 0.672918 0.526624
s 0
usemtl Material.001
f 25/1/1 34/2/1 12/3/1 4/4/1 17/5/1
f 24/6/2 18/7/2 8/8/2 13/9/2
f 30/10/3 26/11/3 9/12/3 27/13/3
f 22/14/4 16/15/4 7/16/4 32/17/4 21/18/4
f 19/19/5 22/14/5 21/18/5 9/12/5 26/11/5
f 6/20/6 11/21/6 22/14/6 19/19/6
f 11/21/7 2/22/7 16/15/7 22/14/7
f 10/23/8 23/24/8 28/25/8 20/26/8 5/27/8
f 1/28/9 15/29/9 23/24/9 10/23/9
f 15/29/10 6/20/10 19/19/10 29/30/10 23/24/10
f 14/31/11 24/6/11 13/9/11 3/32/11
f 5/27/12 20/26/12 24/6/12 14/31/12
f 20/26/13 27/13/13 9/12/13 18/7/13 24/6/13
f 18/7/14 25/1/14 17/5/14 8/8/14
f 9/12/15 21/18/15 33/33/15 25/1/15 18/7/15
f 35/34/16 31/35/16 12/3/16 34/2/16
f 28/25/17 30/10/17 27/13/17 20/26/17
f 23/24/18 29/30/18 30/10/18 28/25/18
f 29/30/19 19/19/19 26/11/19 30/10/19
f 33/33/20 35/34/20 34/2/20 25/1/20
f 21/18/21 32/17/21 35/34/21 33/33/21
f 32/17/22 7/16/22 31/35/22 35/34/22
