# Blender 4.2.3 LTS
# www.blender.org
mtllib RoadSideToSolo.mtl
o Plane.002
v -1.000000 0.000000 1.000000
v 1.000000 -0.095440 1.000000
v -1.000000 0.000000 -1.000000
v 1.000000 -0.095440 -1.000000
v -0.220626 -0.071729 1.000000
v -0.543710 0.000000 1.000000
v -0.543710 0.000000 -1.000000
v -0.220626 -0.071729 -1.000000
v -1.000000 -0.059131 -0.413254
v -1.000000 -0.084805 0.000000
v -1.000000 -0.059131 0.413254
v 1.000000 -0.095440 0.500000
v 1.000000 -0.095440 0.000000
v 1.000000 -0.095440 -0.500000
v 0.100632 -0.051804 0.875643
v 0.686741 -0.087669 0.261939
v 0.193250 -0.045827 -0.878200
v -0.473845 0.047819 -0.284684
v -0.827568 -0.017932 -0.042642
v -0.606578 0.027895 0.691770
v 0.652704 -0.066748 -0.496687
v -0.550006 0.014944 -0.126626
v -0.236245 -0.052801 0.412948
v -0.268821 0.000996 -0.680886
v -0.049661 -0.008687 -0.374342
v -0.275231 -0.011955 0.636515
v -1.000000 0.000000 0.758716
v -0.770105 0.006781 0.851574
v -0.752853 0.015160 -0.831502
v -1.000000 0.000000 -0.758704
v 0.805426 -0.077208 -0.220766
v 0.085237 -0.070235 0.490379
v 0.111968 -0.037718 -0.485057
v -0.164493 -0.030744 0.062383
v 0.229921 -0.014503 0.134056
vn -0.1611 0.9837 0.0796
vn 0.0700 0.9891 -0.1295
vn 0.0500 0.9960 -0.0747
vn 0.0411 0.9978 0.0530
vn 0.0352 0.9993 -0.0137
vn 0.0770 0.9970 -0.0055
vn 0.0924 0.9888 0.1174
vn 0.1291 0.9851 -0.1137
vn 0.1417 0.9888 0.0470
vn -0.0133 0.9996 0.0251
vn -0.2584 0.9660 -0.0104
vn -0.1722 0.9849 0.0159
vn 0.0301 0.9940 0.1055
vn 0.0229 0.9997 -0.0012
vn 0.0842 0.9963 -0.0149
vn 0.0647 0.9955 -0.0692
vn -0.0878 0.9908 -0.1030
vn -0.0268 0.9984 -0.0506
vn -0.3484 0.9355 0.0581
vn -0.0199 0.9944 0.1033
vn 0.1251 0.9852 0.1170
vn 0.0703 0.9969 -0.0355
vt 0.753831 0.866734
vt 0.764136 0.913624
vt 0.716448 0.918655
vt 0.723025 0.866734
vt 0.782073 0.932748
vt 0.751998 0.906637
vt 0.752033 0.875056
vt 0.770016 0.873158
vt 0.808755 0.869071
vt 0.795414 0.900910
vt 0.206634 0.453720
vt 0.251341 0.678045
vt 0.133304 0.678045
vt 0.133238 0.389998
vt 0.605384 0.389998
vt 0.605451 0.678045
vt 0.487414 0.678045
vt 0.525750 0.482741
vt 0.369377 0.678045
vt 0.434906 0.541642
vt 0.271611 0.540293
vt 0.353259 0.540968
vt 0.945464 0.906637
vt 0.912834 0.944640
vt 0.917223 0.919569
vt 0.891042 0.867450
vt 0.932261 0.873207
vt 0.945500 0.875056
vt 0.339409 0.516370
vt 0.317617 0.514869
vt 0.286485 0.476468
vt 0.313229 0.464251
vt 0.277145 0.505034
vt 0.223950 0.462787
vt 0.237291 0.430949
vt 0.265063 0.436247
vt 0.733879 0.030216
vt 0.733917 0.134092
vt 0.702717 0.129735
vt 0.678872 0.030216
vt 0.740533 0.468339
vt 0.726216 0.554291
vt 0.663188 0.583085
vt 0.626544 0.468339
vt 0.597736 0.570598
vt 0.532284 0.558111
vt 0.512555 0.468339
vt 0.323966 0.479946
vt 0.300556 0.492490
vt 0.292835 0.441545
vt 0.389703 0.494738
vt 0.320313 0.509707
vt 0.369014 0.479121
vt 0.426146 0.448508
vt 0.239193 0.376020
vt 0.459092 0.479769
vt 0.483279 0.417896
vt 0.536462 0.421558
vt 0.903717 0.866734
vt 0.916172 0.918715
vt 0.865432 0.911629
vt 0.872910 0.866734
vt 0.332933 0.030216
vt 0.320341 0.129620
vt 0.277961 0.134092
vt 0.277923 0.030216
s 0
usemtl Material
f 9/1/1 18/2/1 29/3/1 30/4/1
f 17/5/2 8/6/2 7/7/2 29/8/2 18/9/2 24/10/2
f 17/11/3 14/12/3 4/13/3 8/14/3
f 5/15/4 2/16/4 12/17/4 15/18/4
f 15/18/5 12/17/5 13/19/5 16/20/5
f 16/20/6 13/19/6 14/12/6 17/11/6 21/21/6 31/22/6
f 5/23/7 15/24/7 26/25/7 20/26/7 28/27/7 6/28/7
f 26/29/8 23/30/8 19/31/8 20/32/8
f 25/33/9 24/34/9 18/35/9 22/36/9
f 1/37/10 6/38/10 28/39/10 27/40/10
f 11/41/11 20/42/11 19/43/11 10/44/11
f 19/43/12 22/45/12 18/46/12 9/47/12
f 23/48/13 34/49/13 25/33/13 22/36/13 19/50/13
f 35/51/14 33/52/14 25/53/14 34/54/14
f 21/21/15 17/11/15 24/55/15 25/53/15 33/52/15
f 15/18/16 16/20/16 32/56/16 23/57/16 26/58/16
f 27/59/17 28/60/17 20/61/17 11/62/17
f 30/63/18 29/64/18 7/65/18 3/66/18
f 10/44/19 19/43/19 9/47/19
f 32/56/20 35/51/20 34/54/20 23/57/20
f 16/20/21 31/22/21 35/51/21 32/56/21
f 31/22/22 21/21/22 33/52/22 35/51/22
