# Blender 4.2.3 LTS
# www.blender.org
mtllib SeedLoot.mtl
o Cylinder
v 0.476750 -0.008801 -0.267631
v 0.509962 0.163119 -0.111254
v 0.443014 -0.250693 -0.141280
v 0.509962 0.163119 0.087261
v 0.375542 -0.240426 0.168625
v 0.509962 -0.008801 0.186519
v 0.443014 -0.008801 0.252439
v 0.509962 -0.180720 0.087261
v 0.450348 0.250693 0.161291
v 0.509962 -0.180720 -0.111254
v 0.382876 0.231625 -0.189684
v 0.509962 -0.008801 -0.210512
v 0.077034 -0.008801 -0.252020
v 0.181936 -0.226642 -0.122776
v 0.189883 -0.177696 0.157666
v 0.170908 -0.008801 0.267631
v 0.188219 0.215801 0.087749
v 0.066512 0.205192 -0.149309
v -0.307122 -0.008801 -0.170324
v -0.276320 -0.116701 -0.110962
v -0.213248 -0.116701 0.106038
v -0.252851 -0.008801 0.165400
v -0.288054 0.099099 0.051767
v -0.417131 0.099099 -0.078693
v -0.509962 -0.008042 -0.011911
vn 0.5554 -0.8267 0.0904
vn 0.6844 0.4138 -0.6003
vn 0.6146 -0.4088 0.6746
vn 0.7431 -0.3660 -0.5602
vn 0.6393 0.7618 -0.1049
vn 1.0000 -0.0000 -0.0000
vn 0.7897 0.2365 0.5662
vn -0.1262 0.4895 0.8628
vn -0.1888 -0.9788 0.0791
vn -0.1045 0.9944 -0.0166
vn -0.0627 -0.4924 -0.8681
vn -0.0506 -0.4300 0.9014
vn -0.0859 0.3510 -0.9324
vn -0.2074 0.4475 -0.8699
vn -0.1970 0.6428 0.7402
vn -0.1987 -0.9722 0.1240
vn -0.2202 0.9678 0.1223
vn -0.1922 -0.5414 0.8185
vn -0.1624 -0.5442 -0.8231
vn -0.4676 0.5641 0.6805
vn -0.4892 0.7255 0.4840
vn -0.6149 0.0419 -0.7875
vn -0.5269 -0.5202 -0.6722
vn -0.3802 -0.9183 0.1105
vn -0.4747 -0.5516 0.6859
vt 0.946861 0.188274
vt 0.945233 0.186445
vt 0.937265 0.186710
vt 0.934543 0.191424
vt 0.949971 0.245440
vt 0.947037 0.242427
vt 0.940321 0.246807
vt 0.940446 0.249110
vt 0.930149 0.232024
vt 0.932735 0.235175
vt 0.939451 0.230795
vt 0.939307 0.228137
vt 0.933170 0.243181
vt 0.930414 0.244545
vt 0.906992 0.189548
vt 0.904453 0.187424
vt 0.896506 0.186445
vt 0.892615 0.190613
vt 0.946602 0.234421
vt 0.949971 0.231244
vt 0.927150 0.572564
vt 0.922884 0.582794
vt 0.930285 0.585892
vt 0.931096 0.575068
vt 0.954702 0.574440
vt 0.955351 0.582321
vt 0.966811 0.581740
vt 0.967020 0.571290
vt 0.892615 0.203490
vt 0.902725 0.199778
vt 0.910938 0.189854
vt 0.910938 0.198655
vt 0.919407 0.199481
vt 0.920879 0.186445
vt 0.950308 0.574371
vt 0.950349 0.584992
vt 0.941038 0.569461
vt 0.939566 0.582497
vt 0.948060 0.586095
vt 0.950308 0.575168
vt 0.938104 0.596685
vt 0.941976 0.602803
vt 0.919110 0.602226
vt 0.923982 0.602129
vt 0.958158 0.598602
vt 0.967020 0.600770
vt 0.912774 0.586506
vt 0.913215 0.606682
vt 0.930190 0.201976
vt 0.935307 0.218348
vt 0.937999 0.215586
vt 0.935192 0.199305
vt 0.931096 0.581671
vt 0.933835 0.596829
vt 0.898952 0.219210
vt 0.895384 0.228391
vt 0.903823 0.219113
vt 0.893056 0.223666
vt 0.937280 0.607046
vt 0.913676 0.213813
vt 0.917121 0.224030
vt 0.917945 0.213669
vt 0.963195 0.611153
vt 0.955465 0.601364
s 0
usemtl Material
f 3/1/1 10/2/1 8/3/1 5/4/1
f 11/5/2 2/6/2 12/7/2 1/8/2
f 5/9/3 8/10/3 6/11/3 7/12/3
f 1/8/4 12/7/4 10/13/4 3/14/4
f 9/15/5 4/16/5 2/17/5 11/18/5
f 12/7/6 2/6/6 4/19/6 6/11/6 8/10/6 10/13/6
f 7/12/7 6/11/7 4/19/7 9/20/7
f 9/21/8 17/22/8 16/23/8 7/24/8
f 5/25/9 15/26/9 14/27/9 3/28/9
f 11/18/10 18/29/10 17/30/10 9/15/10
f 3/31/11 14/32/11 13/33/11 1/34/11
f 7/35/12 16/36/12 15/26/12 5/25/12
f 1/37/13 13/38/13 18/39/13 11/40/13
f 13/38/14 19/41/14 24/42/14 18/39/14
f 17/22/15 23/43/15 22/44/15 16/23/15
f 15/26/16 21/45/16 20/46/16 14/27/16
f 18/47/17 24/48/17 23/43/17 17/22/17
f 16/49/18 22/50/18 21/51/18 15/52/18
f 14/53/19 20/54/19 19/41/19 13/38/19
f 23/55/20 25/56/20 22/57/20
f 24/58/21 25/56/21 23/55/21
f 19/41/22 25/59/22 24/42/22
f 20/60/23 25/61/23 19/62/23
f 21/45/24 25/63/24 20/46/24
f 22/64/25 25/63/25 21/45/25
