# Blender 4.2.3 LTS
# www.blender.org
mtllib DefaultHand2.mtl
o Cylinder.010
v -0.230704 1.018546 -0.133197
v -0.230704 1.018546 0.133197
v -0.000000 1.018546 0.266394
v 0.230704 1.018546 0.133197
v 0.230704 1.018546 -0.133197
v -0.000000 1.018546 -0.266394
v -0.150524 -1.018546 -0.081771
v -0.150524 -1.018546 0.081771
v 0.001322 -1.018546 0.163542
v 0.153167 -1.018546 0.081771
v 0.153167 -1.018546 -0.081771
v 0.001322 -1.018546 -0.163542
v -0.230704 1.018546 -0.133197
v -0.230704 1.018546 0.133197
v -0.000000 1.018546 0.266394
v 0.230704 1.018546 0.133197
v 0.230704 1.018546 -0.133197
v -0.000000 1.018546 -0.266394
vn -0.0000 -1.0000 -0.0000
vn -0.0000 1.0000 -0.0000
vn 0.4895 -0.0421 0.8710
vn -0.4894 -0.0428 0.8710
vn -0.9992 -0.0393 -0.0000
vn -0.4894 -0.0428 -0.8710
vn 0.4895 -0.0421 -0.8710
vn 0.9993 -0.0380 -0.0000
vt 0.301958 0.979980
vt 0.297618 0.982317
vt 0.293279 0.979980
vt 0.293279 0.975306
vt 0.297618 0.972969
vt 0.301958 0.975306
vt 0.293279 0.984389
vt 0.293279 0.976776
vt 0.286685 0.972969
vt 0.280091 0.976776
vt 0.280091 0.984389
vt 0.286685 0.988196
vt 0.264863 0.984411
vt 0.264863 0.976797
vt 0.271457 0.972990
vt 0.278051 0.976797
vt 0.278051 0.984411
vt 0.271457 0.988217
vt 0.278051 0.972990
vt 0.291512 0.949164
vt 0.295319 0.949788
vt 0.292379 0.972969
vt 0.290042 0.972558
vt 0.267803 0.972990
vt 0.264863 0.949809
vt 0.268670 0.949164
vt 0.270140 0.972565
vt 0.276284 0.949164
vt 0.274814 0.972565
vt 0.280091 0.949809
vt 0.277151 0.972990
vt 0.283031 0.972969
vt 0.280091 0.949788
vt 0.283898 0.949164
vt 0.285368 0.972558
s 0
usemtl Material
f 7/1/1 12/2/1 11/3/1 10/4/1 9/5/1 8/6/1
f 1/7/2 2/8/2 3/9/2 4/10/2 5/11/2 6/12/2
f 13/13/2 14/14/2 15/15/2 16/16/2 17/17/2 18/18/2
f 4/19/2 16/19/2 17/19/2 5/19/2
f 2/19/2 14/19/2 15/19/2 3/19/2
f 5/19/2 17/19/2 18/19/2 6/19/2
f 3/19/2 15/19/2 16/19/2 4/19/2
f 6/19/2 18/19/2 13/19/2 1/19/2
f 1/19/2 13/19/2 14/19/2 2/19/2
f 16/20/3 15/21/3 9/22/3 10/23/3
f 9/24/4 15/25/4 14/26/4 8/27/4
f 8/27/5 14/26/5 13/28/5 7/29/5
f 7/29/6 13/28/6 18/30/6 12/31/6
f 12/32/7 18/33/7 17/34/7 11/35/7
f 11/35/8 17/34/8 16/20/8 10/23/8
