# Blender 4.2.3 LTS
# www.blender.org
mtllib DefaultLeg2.mtl
o Cylinder.013
v 0.000000 1.152542 -0.450000
v 0.389711 1.152542 -0.225000
v 0.389711 1.152542 0.225000
v 0.000000 1.152542 0.450000
v -0.389711 1.152542 0.225000
v -0.389711 1.152542 -0.225000
v -0.389711 -0.219943 -0.225000
v -0.389711 -0.219943 0.225000
v 0.000000 -0.219943 0.450000
v 0.389711 -0.219943 0.225000
v 0.389711 -0.219943 -0.225000
v 0.000000 -0.219943 -0.450000
v -0.290481 -1.152542 -0.167709
v -0.290481 -1.152542 0.167709
v -0.000000 -1.152542 0.335418
v 0.290480 -1.152542 0.167709
v 0.290480 -1.152542 -0.167709
v -0.000000 -1.152542 -0.335418
vn -0.0000 1.0000 -0.0000
vn 1.0000 -0.0000 -0.0000
vn 0.5000 -0.0000 0.8660
vn -1.0000 -0.0000 -0.0000
vn -0.5000 -0.0000 0.8660
vn -0.5000 -0.0000 -0.8660
vn 0.9944 -0.1058 -0.0000
vn 0.5000 -0.0000 -0.8660
vn -0.0000 -1.0000 -0.0000
vn 0.4972 -0.1058 -0.8612
vn 0.4972 -0.1058 0.8612
vn -0.4972 -0.1058 0.8612
vn -0.9944 -0.1058 -0.0000
vn -0.4972 -0.1058 -0.8612
vt 0.287498 0.974869
vt 0.285131 0.973503
vt 0.285131 0.970770
vt 0.287498 0.969404
vt 0.289864 0.970770
vt 0.289864 0.973503
vt 0.286015 0.963395
vt 0.287779 0.962376
vt 0.286015 0.965431
vt 0.289543 0.963395
vt 0.289543 0.965431
vt 0.287779 0.966450
s 0
usemtl Material
f 2/1/1 1/2/1 6/3/1 5/4/1 4/5/1 3/6/1
f 3/6/2 10/6/2 11/1/2 2/1/2
f 4/5/3 9/5/3 10/6/3 3/6/3
f 6/3/4 7/3/4 8/4/4 5/4/4
f 5/4/5 8/4/5 9/5/5 4/5/5
f 1/2/6 12/2/6 7/3/6 6/3/6
f 17/7/7 11/1/7 10/6/7 16/8/7
f 2/1/8 11/1/8 12/2/8 1/2/8
f 18/9/9 17/7/9 16/8/9 15/10/9 14/11/9 13/12/9
f 18/9/10 12/2/10 11/1/10 17/7/10
f 10/6/11 9/5/11 15/10/11 16/8/11
f 15/10/12 9/5/12 8/4/12 14/11/12
f 8/4/13 7/3/13 13/12/13 14/11/13
f 13/12/14 7/3/14 12/2/14 18/9/14
