# Blender 4.2.3 LTS
# www.blender.org
mtllib DefaultHand3.mtl
o Cylinder.011
v 0.033719 0.400356 -0.146099
v 0.169370 0.400356 -0.073050
v 0.169370 0.400356 0.073050
v 0.033719 0.400356 0.146099
v -0.101932 0.400356 0.073050
v -0.101932 0.400356 -0.073050
v 0.035041 0.217081 -0.186855
v 0.244031 0.302651 -0.090285
v 0.244031 0.302651 0.090285
v 0.035041 0.217081 0.186855
v -0.153425 0.258874 0.105307
v -0.150231 0.257933 -0.106967
v 0.035041 0.010835 -0.117152
v 0.235274 0.010835 -0.061048
v 0.235274 0.010835 0.061048
v 0.035041 0.010835 0.117152
v -0.153984 0.067660 0.056206
v -0.150791 0.066719 -0.057867
v -0.192014 0.303592 -0.001660
v -0.153425 0.212276 0.056206
v -0.150231 0.211335 -0.057866
v -0.242537 0.011086 -0.030073
v -0.244031 0.011526 0.023292
v -0.240819 0.161790 -0.033214
v -0.242488 0.162282 0.026433
v -0.198451 -0.032493 0.045688
v -0.195775 -0.033282 -0.049908
v -0.230603 -0.198998 -0.017749
v -0.231423 -0.198756 0.011545
v -0.205649 -0.196924 -0.025377
v -0.206935 -0.196545 0.020579
v 0.135158 0.010835 -0.089100
v 0.135158 0.010835 0.089100
v -0.059471 0.039248 0.086679
v -0.057875 0.038777 -0.087509
v 0.152502 -0.289761 -0.036660
v 0.217925 -0.289761 -0.023673
v 0.217925 -0.289761 0.023673
v 0.152502 -0.289761 0.036660
v 0.113580 -0.363878 0.024820
v 0.056615 -0.363878 0.036666
v 0.056615 -0.363878 -0.036666
v 0.113580 -0.363878 -0.024820
v -0.031899 -0.388216 -0.023373
v 0.008474 -0.400356 -0.029885
v 0.008474 -0.400356 0.029650
v -0.032322 -0.388091 0.022778
v -0.078015 -0.302920 0.031390
v -0.133846 -0.286135 0.017247
v -0.132839 -0.286432 -0.018739
v -0.077431 -0.303092 -0.032389
vn -0.0000 1.0000 -0.0000
vn -0.3980 -0.2622 -0.8791
vn 0.3664 0.2821 -0.8867
vn -0.3885 0.2588 -0.8844
vn -0.3885 0.2588 0.8844
vn 0.7946 0.6072 -0.0000
vn -0.7902 0.3821 -0.4792
vn 0.3664 0.2821 0.8867
vn -0.4000 -0.2620 0.8783
vn 0.9996 -0.0300 -0.0000
vn -0.7994 0.3943 0.4532
vn 0.3774 -0.1868 0.9070
vn 0.3774 -0.1868 -0.9070
vn -0.7319 0.6814 -0.0000
vn -0.3379 0.0086 0.9412
vn -0.9841 -0.1287 0.1221
vn -0.9814 -0.1394 -0.1323
vn -0.9431 0.3311 -0.0291
vn -0.9995 0.0108 -0.0281
vn -0.2840 0.0084 -0.9588
vn -0.4601 0.3283 0.8249
vn 0.9980 -0.0560 0.0284
vn -0.4119 0.3307 -0.8491
vn 0.9125 -0.4082 0.0289
vn -0.4529 -0.0923 0.8868
vn -0.9979 -0.0583 -0.0275
vn -0.4030 -0.0920 -0.9106
vn 0.0860 -0.9962 0.0106
vn -0.3173 -0.1280 0.9396
vn 0.9983 -0.0576 -0.0000
vn -0.9983 -0.0575 -0.0000
vn -0.3051 -0.1691 -0.9372
vn -0.0000 -1.0000 -0.0000
vn 0.2381 -0.1435 0.9606
vn 0.2381 -0.1435 -0.9606
vn -0.9983 -0.0576 -0.0000
vn 0.2420 -0.1840 0.9527
vn 0.9983 -0.0575 -0.0000
vn 0.2420 -0.1840 -0.9527
vn -0.2879 -0.9577 -0.0000
vn -0.9980 -0.0621 -0.0090
vn 0.9979 -0.0645 -0.0000
vn -0.3092 -0.1692 0.9358
vn -0.2879 -0.9577 -0.0001
vn -0.9982 -0.0538 -0.0275
vn 0.9984 -0.0556 0.0093
vn -0.3129 -0.1269 -0.9413
vt 0.308029 0.960404
vt 0.308029 0.955707
vt 0.312097 0.953358
vt 0.316165 0.955707
vt 0.316165 0.960404
vt 0.312097 0.962753
vt 0.299882 0.966169
vt 0.299742 0.962268
vt 0.301906 0.961827
vt 0.304070 0.961386
vt 0.304314 0.965649
vt 0.304313 0.969322
vt 0.308029 0.967021
vt 0.307544 0.968985
vt 0.299751 0.968954
vt 0.296191 0.969416
vt 0.296075 0.965749
vt 0.299742 0.966014
vt 0.299674 0.968759
vt 0.308029 0.975517
vt 0.308324 0.974092
vt 0.312023 0.972965
vt 0.312412 0.974182
vt 0.304268 0.975585
vt 0.302285 0.974157
vt 0.304268 0.972876
vt 0.291720 0.969101
vt 0.291139 0.967158
vt 0.295763 0.961446
vt 0.297650 0.961770
vt 0.299536 0.962093
vt 0.308186 0.969091
vt 0.310688 0.968329
vt 0.299796 0.973255
vt 0.299742 0.975930
vt 0.291206 0.961375
vt 0.293485 0.961411
vt 0.306001 0.961302
vt 0.307933 0.961218
vt 0.314496 0.968263
vt 0.315389 0.966230
vt 0.316268 0.966929
vt 0.316268 0.969860
vt 0.314501 0.971059
vt 0.300838 0.969542
vt 0.300834 0.972289
vt 0.303229 0.972069
vt 0.303232 0.969322
vt 0.306672 0.976852
vt 0.307923 0.976722
vt 0.306997 0.979197
vt 0.307834 0.973872
vt 0.306715 0.973988
vt 0.314454 0.971402
vt 0.312412 0.970401
vt 0.312412 0.967443
vt 0.313537 0.966612
vt 0.314496 0.968571
vt 0.315071 0.972522
vt 0.301368 0.959328
vt 0.313186 0.973053
vt 0.291139 0.974943
vt 0.291406 0.972760
vt 0.293441 0.972760
vt 0.293567 0.974943
vt 0.306128 0.965239
vt 0.294665 0.968194
s 0
usemtl Material
f 1/1/1 6/6/1 5/5/1 4/4/1 3/3/1 2/2/1
f 12/7/2 7/11/2 13/10/2 35/9/2 18/8/2
f 1/12/3 2/14/3 8/13/3 7/11/3
f 6/15/4 1/12/4 7/11/4 12/7/4
f 4/16/5 5/19/5 11/18/5 10/17/5
f 2/20/6 3/23/6 9/22/6 8/21/6
f 6/24/7 12/26/7 19/25/7
f 3/27/8 4/16/8 10/17/8 9/28/8
f 10/17/9 11/18/9 17/31/9 34/30/9 16/29/9
f 8/21/10 9/22/10 15/33/10 14/32/10
f 11/34/11 5/35/11 19/25/11
f 9/28/12 10/17/12 16/29/12 33/37/12 15/36/12
f 7/11/13 8/13/13 14/39/13 32/38/13 13/10/13
f 5/35/14 6/24/14 19/25/14
f 17/40/15 20/44/15 25/43/15 23/42/15 26/41/15
f 19/25/16 20/46/16 17/45/16 11/34/16
f 12/26/17 18/48/17 21/47/17 19/25/17
f 25/49/18 19/51/18 24/50/18
f 22/52/19 23/53/19 25/49/19 24/50/19
f 21/54/20 18/58/20 27/57/20 22/56/20 24/55/20
f 25/43/21 20/44/21 19/59/21
f 27/57/22 26/41/22 31/60/22 30/60/22
f 21/54/23 24/55/23 19/61/23
f 18/62/24 17/65/24 26/64/24 27/63/24
f 26/41/25 23/42/25 29/60/25 31/60/25
f 29/60/26 23/42/26 22/52/26 28/60/26
f 30/60/27 28/60/27 22/52/27 27/57/27
f 31/60/28 29/60/28 28/60/28 30/60/28
f 17/31/29 49/31/29 48/30/29 34/30/29
f 15/33/30 38/33/30 37/32/30 14/32/30
f 13/10/31 42/10/31 41/29/31 16/29/31
f 13/10/32 45/10/32 44/9/32 35/9/32
f 36/66/33 37/32/33 38/36/33 39/37/33
f 33/37/34 39/37/34 38/36/34 15/36/34
f 14/39/35 37/39/35 36/38/35 32/38/35
f 32/66/36 36/66/36 39/37/36 33/37/36
f 42/10/33 43/66/33 40/37/33 41/29/33
f 16/29/37 41/29/37 40/37/37 33/37/37
f 33/37/38 40/37/38 43/66/38 32/66/38
f 32/38/39 43/38/39 42/10/39 13/10/39
f 46/29/40 47/67/40 44/9/40 45/10/40
f 35/9/41 44/9/41 47/67/41 34/67/41
f 16/29/42 46/29/42 45/10/42 13/10/42
f 34/30/43 47/30/43 46/29/43 16/29/43
f 48/67/44 49/65/44 50/8/44 51/9/44
f 18/62/45 50/62/45 49/65/45 17/65/45
f 34/67/46 48/67/46 51/9/46 35/9/46
f 35/9/47 51/9/47 50/8/47 18/8/47
