# Blender 4.2.3 LTS
# www.blender.org
mtllib AlchimistryTable.mtl
o Cube.021
v 1.363163 1.959991 0.257959
v -1.444964 1.934268 0.235113
v 1.457235 1.959235 -0.227430
v -1.322262 1.975880 -0.217106
v 1.270190 2.014004 0.227478
v -1.343811 2.014005 0.227478
v 1.339721 2.014004 -0.183696
v -1.249739 2.014005 -0.193735
v 1.363163 1.861623 0.266193
v -1.444964 1.861623 0.256154
v 1.457235 1.861623 -0.227429
v -1.322262 1.861623 -0.239978
v -1.165645 -0.009401 0.413842
v -1.165645 1.884580 0.413842
v -1.084147 -0.009401 0.473054
v -1.084147 1.884580 0.473054
v -1.115276 -0.009401 0.568861
v -1.115276 1.884580 0.568861
v -1.216014 -0.009401 0.568861
v -1.216013 1.884580 0.568861
v -1.247143 -0.009401 0.473054
v -1.247143 1.884580 0.473054
v 1.119605 -0.009401 0.413842
v 1.119605 1.884580 0.413842
v 1.201103 -0.009401 0.473054
v 1.201103 1.884580 0.473054
v 1.169973 -0.009401 0.568860
v 1.169973 1.884580 0.568860
v 1.069236 -0.009401 0.568860
v 1.069236 1.884580 0.568860
v 1.038107 -0.009401 0.473054
v 1.038107 1.884580 0.473054
v 1.334533 1.840914 0.669121
v -1.391793 1.840915 0.608936
v 1.440875 1.840914 0.260904
v -1.371342 1.840915 0.298260
v 1.141304 2.014004 0.612623
v 1.334533 1.950758 0.652477
v -1.391793 1.980265 0.598344
v -1.231284 2.014004 0.527534
v 1.313087 2.014004 0.325703
v 1.440875 1.966646 0.266956
v -1.214924 2.014005 0.325702
v -1.371342 1.925035 0.300529
v -1.165645 -0.009401 -0.602599
v -1.165645 1.884580 -0.602599
v -1.084147 -0.009401 -0.543388
v -1.084148 1.884580 -0.543388
v -1.115277 -0.009401 -0.447581
v -1.115277 1.884580 -0.447581
v -1.216014 -0.009401 -0.447581
v -1.216014 1.884580 -0.447581
v -1.247143 -0.009401 -0.543388
v -1.247144 1.884580 -0.543388
v 1.119604 -0.009401 -0.602599
v 1.119604 1.884580 -0.602599
v 1.201102 -0.009401 -0.543388
v 1.201102 1.884580 -0.543388
v 1.169973 -0.009401 -0.447581
v 1.169973 1.884580 -0.447581
v 1.069236 -0.009401 -0.447581
v 1.069236 1.884580 -0.447581
v 1.038106 -0.009401 -0.543388
v 1.038106 1.884580 -0.543388
v 1.416334 1.840914 -0.279581
v -1.457235 1.840915 -0.246376
v 1.444965 1.840914 -0.669121
v -1.420424 1.840915 -0.664971
v 1.104609 2.014004 -0.348250
v 1.416334 1.984752 -0.279581
v -1.420424 1.968149 -0.271280
v -1.268211 2.014005 -0.317120
v 1.358193 2.014004 -0.623282
v 1.444965 1.984752 -0.669121
v -0.977815 2.014005 -0.579700
v -1.391793 1.972300 -0.635916
v 0.926409 3.018118 -0.502341
v 0.926409 1.960852 -0.502341
v 0.975927 3.018118 -0.466365
v 0.975927 1.960852 -0.466365
v 0.957013 3.018118 -0.408153
v 0.957013 1.960852 -0.408153
v 0.895806 3.018118 -0.408153
v 0.895806 1.960852 -0.408153
v 0.876892 3.018118 -0.466365
v 0.876892 1.960852 -0.466365
vn 0.0007 0.1073 -0.9942
vn 0.0018 0.5861 -0.8102
vn -0.0000 1.0000 -0.0000
vn -0.0054 0.2744 0.9616
vn 0.4617 0.8831 0.0835
vn -0.5528 0.8276 -0.0978
vn -0.0000 -1.0000 -0.0000
vn -0.0065 0.1687 0.9856
vn -0.9681 0.0025 -0.2504
vn 0.9820 0.0079 0.1887
vn 0.5878 -0.0000 -0.8090
vn 0.9511 -0.0000 0.3090
vn -0.0000 -0.0000 1.0000
vn -0.9511 -0.0000 0.3090
vn -0.5878 -0.0000 -0.8090
vn -0.0202 0.1086 0.9939
vn -0.9978 -0.0025 -0.0668
vn -0.0129 0.0396 -0.9991
vn -0.0094 0.5256 -0.8507
vn 0.3300 0.9306 0.1585
vn -0.3742 0.9183 -0.1291
vn -0.0137 0.7500 0.6613
vn 0.9658 0.0116 0.2590
vn 0.0070 0.0905 0.9959
vn -0.9661 0.2457 -0.0794
vn -0.0067 0.1057 -0.9944
vn -0.0102 0.8360 -0.5487
vn 0.1416 0.9881 0.0601
vn -0.1512 0.9860 -0.0704
vn 0.0015 0.8371 0.5470
vn 0.9973 -0.0000 0.0733
vn -0.5878 -0.0000 0.8090
vn -0.9511 -0.0000 -0.3090
vn -0.0000 -0.0000 -1.0000
vn 0.9511 -0.0000 -0.3090
vn 0.5878 -0.0000 0.8090
vt 0.409858 0.639313
vt 0.409108 0.646578
vt 0.404967 0.646543
vt 0.404963 0.639284
vt 0.411524 0.639504
vt 0.411524 0.646267
vt 0.404963 0.705290
vt 0.404963 0.698515
vt 0.411142 0.698403
vt 0.410993 0.705239
vt 0.404963 0.639032
vt 0.404976 0.632197
vt 0.408387 0.631933
vt 0.407313 0.639284
vt 0.066265 0.838005
vt 0.068623 0.838646
vt 0.068622 0.844669
vt 0.066298 0.845115
vt 0.068621 0.837327
vt 0.066980 0.837660
vt 0.065196 0.831024
vt 0.068622 0.831148
vt 0.405002 0.631870
vt 0.404963 0.624523
vt 0.412242 0.624660
vt 0.412242 0.631933
vt 0.411517 0.631938
vt 0.411519 0.639284
vt 0.062085 0.837996
vt 0.062085 0.830716
vt 0.062085 0.845227
vt 0.389270 0.705638
vt 0.389270 0.624523
vt 0.390141 0.624532
vt 0.390141 0.705646
vt 0.391544 0.624527
vt 0.391544 0.705642
vt 0.417057 0.624524
vt 0.417057 0.705254
vt 0.416793 0.705253
vt 0.416793 0.624523
vt 0.417847 0.670242
vt 0.418060 0.669374
vt 0.418273 0.670242
vt 0.418192 0.671646
vt 0.417928 0.671646
vt 0.382443 0.624529
vt 0.382443 0.705655
vt 0.381044 0.705649
vt 0.381044 0.624523
vt 0.380167 0.705656
vt 0.380167 0.624530
vt 0.418110 0.678475
vt 0.417847 0.677621
vt 0.417847 0.676214
vt 0.418110 0.676199
vt 0.418272 0.677596
vt 0.386995 0.705638
vt 0.386995 0.624523
vt 0.387867 0.624532
vt 0.387867 0.705646
vt 0.389270 0.624527
vt 0.389270 0.705642
vt 0.417583 0.624524
vt 0.417583 0.705254
vt 0.417320 0.705253
vt 0.417320 0.624523
vt 0.417847 0.681619
vt 0.418060 0.680751
vt 0.418273 0.681619
vt 0.418192 0.683024
vt 0.417928 0.683024
vt 0.380167 0.624529
vt 0.380167 0.705655
vt 0.378768 0.705649
vt 0.378768 0.624523
vt 0.377891 0.705656
vt 0.377891 0.624530
vt 0.418110 0.680751
vt 0.417847 0.679897
vt 0.417847 0.678490
vt 0.418272 0.679872
vt 0.404963 0.690948
vt 0.405514 0.683784
vt 0.410065 0.683626
vt 0.410954 0.690948
vt 0.404633 0.697090
vt 0.397471 0.698338
vt 0.397538 0.692382
vt 0.404689 0.692382
vt 0.069402 0.812265
vt 0.069363 0.808662
vt 0.073915 0.808662
vt 0.073768 0.814631
vt 0.412242 0.645709
vt 0.412944 0.639134
vt 0.415891 0.639406
vt 0.416472 0.645709
vt 0.397471 0.684905
vt 0.404842 0.684948
vt 0.404842 0.688521
vt 0.397473 0.690251
vt 0.404445 0.692350
vt 0.397837 0.692382
vt 0.067832 0.863060
vt 0.062188 0.862380
vt 0.063049 0.860339
vt 0.067247 0.860328
vt 0.072713 0.816092
vt 0.069756 0.816092
vt 0.054593 0.882477
vt 0.061755 0.881229
vt 0.061206 0.883979
vt 0.054971 0.884030
vt 0.062085 0.867765
vt 0.068063 0.867765
vt 0.391544 0.705638
vt 0.391544 0.624523
vt 0.392415 0.624532
vt 0.392415 0.705646
vt 0.393818 0.624527
vt 0.393818 0.705642
vt 0.417320 0.624524
vt 0.417320 0.705254
vt 0.417057 0.705253
vt 0.417057 0.624523
vt 0.417847 0.672525
vt 0.418009 0.671646
vt 0.418272 0.672501
vt 0.418272 0.673907
vt 0.418009 0.673923
vt 0.386995 0.624529
vt 0.386995 0.705655
vt 0.385597 0.705649
vt 0.385597 0.624523
vt 0.384719 0.705656
vt 0.384719 0.624530
vt 0.418110 0.687572
vt 0.417847 0.686718
vt 0.417847 0.685311
vt 0.418110 0.685296
vt 0.418272 0.686693
vt 0.393818 0.705638
vt 0.393818 0.624523
vt 0.394689 0.624532
vt 0.394689 0.705646
vt 0.396092 0.624527
vt 0.396092 0.705642
vt 0.417847 0.624524
vt 0.417847 0.705254
vt 0.417583 0.705253
vt 0.417583 0.624523
vt 0.417847 0.683892
vt 0.418060 0.683024
vt 0.418273 0.683892
vt 0.418192 0.685296
vt 0.417928 0.685296
vt 0.384719 0.624529
vt 0.384719 0.705655
vt 0.383321 0.705649
vt 0.383321 0.624523
vt 0.382443 0.705656
vt 0.382443 0.624530
vt 0.417847 0.675345
vt 0.417847 0.673938
vt 0.418110 0.673923
vt 0.418272 0.675320
vt 0.405389 0.668608
vt 0.404963 0.661088
vt 0.411099 0.661234
vt 0.411099 0.668729
vt 0.055952 0.861515
vt 0.056622 0.854094
vt 0.062083 0.853954
vt 0.062083 0.861457
vt 0.062514 0.858499
vt 0.062085 0.852868
vt 0.068218 0.852868
vt 0.067856 0.858321
vt 0.412242 0.639134
vt 0.412431 0.632993
vt 0.416214 0.631954
vt 0.416214 0.638177
vt 0.054593 0.861545
vt 0.062085 0.861515
vt 0.062025 0.867150
vt 0.054593 0.867647
vt 0.403852 0.684905
vt 0.397723 0.684845
vt 0.397471 0.683508
vt 0.404904 0.683012
vt 0.410672 0.692236
vt 0.404963 0.692243
vt 0.405632 0.690980
vt 0.409652 0.690948
vt 0.405393 0.674360
vt 0.410735 0.674183
vt 0.410046 0.676162
vt 0.406164 0.676190
vt 0.399500 0.669955
vt 0.398831 0.677376
vt 0.397471 0.676550
vt 0.397477 0.670356
vt 0.062085 0.882542
vt 0.062085 0.876381
vt 0.067793 0.876374
vt 0.067793 0.882534
vt 0.594309 0.672985
vt 0.594309 0.627698
vt 0.594829 0.627704
vt 0.594829 0.672991
vt 0.595684 0.627704
vt 0.595684 0.672990
vt 0.614685 0.672549
vt 0.614685 0.627699
vt 0.614845 0.627698
vt 0.614845 0.672548
vt 0.417847 0.689487
vt 0.417946 0.688953
vt 0.418105 0.689472
vt 0.418105 0.690327
vt 0.417946 0.690336
vt 0.594309 0.627700
vt 0.594309 0.672979
vt 0.593455 0.672978
vt 0.593455 0.627698
vt 0.592930 0.672984
vt 0.592930 0.627704
vt 0.614814 0.690747
vt 0.614944 0.691274
vt 0.614894 0.692128
vt 0.614734 0.692128
vt 0.614685 0.691274
s 0
usemtl Material.002
f 4/1/1 3/2/1 11/3/1 12/4/1
f 3/2/2 4/1/2 8/5/2 7/6/2
f 7/7/3 8/8/3 6/9/3 5/10/3
f 5/11/4 6/12/4 2/13/4 1/14/4
f 3/15/5 7/16/5 5/17/5 1/18/5
f 8/19/6 4/20/6 2/21/6 6/22/6
f 9/23/7 10/24/7 12/25/7 11/26/7
f 1/14/8 2/13/8 10/27/8 9/28/8
f 2/21/9 4/20/9 12/29/9 10/30/9
f 3/15/10 1/18/10 9/31/10 11/29/10
f 13/32/11 14/33/11 16/34/11 15/35/11
f 15/35/12 16/34/12 18/36/12 17/37/12
f 17/38/13 18/39/13 20/40/13 19/41/13
f 16/42/3 14/43/3 22/44/3 20/45/3 18/46/3
f 19/47/14 20/48/14 22/49/14 21/50/14
f 21/50/15 22/49/15 14/51/15 13/52/15
f 13/53/7 15/54/7 17/55/7 19/56/7 21/57/7
f 23/58/11 24/59/11 26/60/11 25/61/11
f 25/61/12 26/60/12 28/62/12 27/63/12
f 27/64/13 28/65/13 30/66/13 29/67/13
f 26/68/3 24/69/3 32/70/3 30/71/3 28/72/3
f 29/73/14 30/74/14 32/75/14 31/76/14
f 31/76/15 32/75/15 24/77/15 23/78/15
f 23/79/7 25/80/7 27/81/7 29/53/7 31/82/7
f 33/83/7 34/84/7 36/85/7 35/86/7
f 38/87/16 39/88/16 34/89/16 33/90/16
f 44/91/17 36/92/17 34/93/17 39/94/17
f 41/95/3 43/96/3 40/97/3 37/98/3
f 35/99/18 36/100/18 44/101/18 42/102/18
f 43/103/19 41/104/19 42/102/19 44/101/19
f 38/105/20 42/106/20 41/107/20 37/108/20
f 44/91/21 39/94/21 40/109/21 43/110/21
f 39/111/22 38/112/22 37/113/22 40/114/22
f 35/115/23 42/106/23 38/105/23 33/116/23
f 45/117/11 46/118/11 48/119/11 47/120/11
f 47/120/12 48/119/12 50/121/12 49/122/12
f 49/123/13 50/124/13 52/125/13 51/126/13
f 48/127/3 46/128/3 54/129/3 52/130/3 50/131/3
f 51/132/14 52/133/14 54/134/14 53/135/14
f 53/135/15 54/134/15 46/136/15 45/137/15
f 45/138/7 47/139/7 49/140/7 51/141/7 53/142/7
f 55/143/11 56/144/11 58/145/11 57/146/11
f 57/146/12 58/145/12 60/147/12 59/148/12
f 59/149/13 60/150/13 62/151/13 61/152/13
f 58/153/3 56/154/3 64/155/3 62/156/3 60/157/3
f 61/158/14 62/159/14 64/160/14 63/161/14
f 63/161/15 64/160/15 56/162/15 55/163/15
f 55/56/7 57/164/7 59/165/7 61/166/7 63/167/7
f 65/168/7 66/169/7 68/170/7 67/171/7
f 70/172/24 71/173/24 66/174/24 65/175/24
f 76/176/25 68/177/25 66/178/25 71/179/25
f 73/180/3 75/181/3 72/182/3 69/183/3
f 67/184/26 68/185/26 76/186/26 74/187/26
f 75/188/27 73/189/27 74/190/27 76/191/27
f 70/192/28 74/193/28 73/194/28 69/195/28
f 76/196/29 71/197/29 72/198/29 75/199/29
f 71/200/30 70/201/30 69/202/30 72/203/30
f 67/204/31 74/205/31 70/206/31 65/207/31
f 77/208/32 78/209/32 80/210/32 79/211/32
f 79/211/33 80/210/33 82/212/33 81/213/33
f 81/214/34 82/215/34 84/216/34 83/217/34
f 80/218/3 78/219/3 86/220/3 84/221/3 82/222/3
f 83/223/35 84/224/35 86/225/35 85/226/35
f 85/226/36 86/225/36 78/227/36 77/228/36
f 77/229/7 79/230/7 81/231/7 83/232/7 85/233/7
