# Blender 4.2.3 LTS
# www.blender.org
mtllib Map.mtl
o Plane
v -1.000000 0.000000 1.000000
v 1.000000 0.000000 1.000000
v -1.000000 0.000000 -1.000000
v 1.000000 0.000000 -1.000000
v -1.000000 0.000000 -0.600000
v -1.000000 0.000000 -0.200000
v -1.000000 0.000000 0.200000
v -1.000000 0.000000 0.600000
v -0.600000 0.000000 1.000000
v -0.200000 0.000000 1.000000
v 0.200000 0.000000 1.000000
v 0.600000 0.000000 1.000000
v 1.000000 0.000000 0.600000
v 1.000000 0.000000 0.200000
v 1.000000 0.000000 -0.200000
v 1.000000 0.000000 -0.600000
v 0.600000 0.000000 -1.000000
v 0.200000 0.000000 -1.000000
v -0.200000 0.000000 -1.000000
v -0.600000 0.000000 -1.000000
v -0.742426 -0.031650 0.615825
v -0.438584 0.031650 0.269631
v -0.568350 -0.031650 -0.184175
v -0.758251 0.022155 -0.346798
v -0.111379 0.022155 0.549360
v -0.282291 0.000000 0.212660
v -0.291786 0.031650 -0.415222
v -0.434212 -0.031650 -0.894348
v 0.067069 0.031650 0.805727
v 0.200000 0.000000 0.200000
v 0.073399 -0.031650 -0.070234
v 0.130369 0.031650 -0.451244
v 0.457574 -0.031650 0.679126
v 0.413263 0.053805 0.155690
v 0.498719 0.000000 -0.342426
v 0.356293 0.022155 -0.669631
vn 0.0227 0.9995 -0.0227
vn -0.0247 0.9994 -0.0247
vn 0.1358 0.9873 0.0826
vn -0.0540 0.9982 -0.0251
vn -0.0070 0.9980 -0.0636
vn 0.0492 0.9976 -0.0492
vn -0.0085 0.9967 0.0811
vn 0.0064 0.9972 -0.0749
vn -0.0277 0.9941 0.1044
vn -0.0526 0.9986 -0.0080
vn -0.0192 0.9982 0.0564
vn -0.0850 0.9962 -0.0182
vn -0.0209 0.9998 -0.0040
vn -0.0548 0.9947 0.0868
vn 0.0068 0.9983 -0.0573
vn 0.0792 0.9968 -0.0120
vn -0.0000 1.0000 -0.0000
vn 0.0735 0.9965 -0.0393
vn 0.0298 0.9983 0.0499
vn -0.1801 0.9786 -0.0992
vn 0.0517 0.9922 0.1135
vn -0.0366 0.9987 -0.0366
vn 0.0223 0.9956 0.0911
vn 0.0586 0.9968 -0.0541
vn 0.0142 0.9995 0.0277
vt 0.800000 0.800000
vt 1.000000 0.800000
vt 1.000000 1.000000
vt 0.800000 1.000000
vt 0.000000 0.800000
vt 0.200000 0.800000
vt 0.200000 1.000000
vt 0.000000 1.000000
vt 0.400000 0.800000
vt 0.400000 1.000000
vt 0.600000 0.800000
vt 0.600000 1.000000
vt 0.000000 0.000000
vt 0.200000 0.000000
vt 0.200000 0.200000
vt 0.000000 0.200000
vt 0.200000 0.400000
vt 0.000000 0.400000
vt 0.200000 0.600000
vt 0.000000 0.600000
vt 0.400000 0.000000
vt 0.400000 0.200000
vt 0.400000 0.400000
vt 0.400000 0.600000
vt 0.600000 0.000000
vt 0.600000 0.200000
vt 0.600000 0.400000
vt 0.600000 0.600000
vt 0.800000 0.000000
vt 0.800000 0.200000
vt 0.800000 0.400000
vt 0.800000 0.600000
vt 1.000000 0.000000
vt 1.000000 0.200000
vt 1.000000 0.400000
vt 1.000000 0.600000
s 0
f 36/1/1 16/2/1 4/3/1 17/4/1
f 5/5/2 24/6/2 20/7/2 3/8/2
f 24/6/3 28/9/3 19/10/3 20/7/3
f 28/9/4 32/11/4 18/12/4 19/10/4
f 32/11/5 36/1/5 17/4/5 18/12/5
f 1/13/6 9/14/6 21/15/6 8/16/6
f 8/16/7 21/15/7 22/17/7 7/18/7
f 7/18/8 22/17/8 23/19/8 6/20/8
f 6/20/9 23/19/9 24/6/9 5/5/9
f 9/14/10 10/21/10 25/22/10 21/15/10
f 21/15/11 25/22/11 26/23/11 22/17/11
f 22/17/12 26/23/12 27/24/12 23/19/12
f 23/19/13 27/24/13 28/9/13 24/6/13
f 10/21/14 11/25/14 29/26/14 25/22/14
f 25/22/15 29/26/15 30/27/15 26/23/15
f 26/23/16 30/27/16 31/28/16 27/24/16
f 27/24/17 31/28/17 32/11/17 28/9/17
f 11/25/18 12/29/18 33/30/18 29/26/18
f 29/26/19 33/30/19 34/31/19 30/27/19
f 30/27/20 34/31/20 35/32/20 31/28/20
f 31/28/21 35/32/21 36/1/21 32/11/21
f 12/29/22 2/33/22 13/34/22 33/30/22
f 33/30/23 13/34/23 14/35/23 34/31/23
f 34/31/24 14/35/24 15/36/24 35/32/24
f 35/32/25 15/36/25 16/2/25 36/1/25
