# Blender 4.2.3 LTS
# www.blender.org
mtllib Table.mtl
o Cube.012
v 0.257959 1.964848 -1.363163
v 0.235113 1.939125 1.444964
v -0.227429 1.964091 -1.457235
v -0.217106 1.980736 1.322262
v 0.227479 2.018861 -1.270190
v 0.227479 2.018861 1.343811
v -0.183696 2.018861 -1.339721
v -0.193734 2.018861 1.249739
v 0.266193 1.866480 -1.363163
v 0.256154 1.866480 1.444964
v -0.227429 1.866480 -1.457235
v -0.239977 1.866480 1.322262
v 0.413843 -0.004544 1.165646
v 0.413843 1.889437 1.165646
v 0.473054 -0.004544 1.084148
v 0.473054 1.889437 1.084148
v 0.568861 -0.004544 1.115277
v 0.568861 1.889437 1.115277
v 0.568861 -0.004544 1.216015
v 0.568861 1.889437 1.216015
v 0.473054 -0.004544 1.247144
v 0.473054 1.889437 1.247144
v 0.413843 -0.004544 -1.119604
v 0.413843 1.889437 -1.119604
v 0.473054 -0.004544 -1.201102
v 0.473054 1.889437 -1.201102
v 0.568861 -0.004544 -1.169972
v 0.568861 1.889437 -1.169972
v 0.568861 -0.004544 -1.069235
v 0.568861 1.889437 -1.069235
v 0.473054 -0.004544 -1.038106
v 0.473054 1.889437 -1.038106
v 0.669122 1.845771 -1.334533
v 0.608936 1.845771 1.391793
v 0.260904 1.845771 -1.440875
v 0.298260 1.845771 1.371343
v 0.612624 2.018861 -1.141304
v 0.652477 1.955615 -1.334533
v 0.598344 1.985121 1.391793
v 0.527534 2.018861 1.231285
v 0.325703 2.018861 -1.313087
v 0.266956 1.971503 -1.440875
v 0.325703 2.018861 1.214925
v 0.300529 1.929892 1.371343
v -0.602599 -0.004544 1.165645
v -0.602599 1.889437 1.165645
v -0.543387 -0.004544 1.084147
v -0.543387 1.889437 1.084147
v -0.447580 -0.004544 1.115277
v -0.447580 1.889437 1.115277
v -0.447581 -0.004544 1.216014
v -0.447581 1.889437 1.216014
v -0.543387 -0.004544 1.247143
v -0.543387 1.889437 1.247143
v -0.602599 -0.004544 -1.119603
v -0.602599 1.889437 -1.119603
v -0.543387 -0.004544 -1.201101
v -0.543387 1.889437 -1.201101
v -0.447581 -0.004544 -1.169972
v -0.447581 1.889437 -1.169972
v -0.447581 -0.004544 -1.069235
v -0.447581 1.889437 -1.069235
v -0.543387 -0.004544 -1.038105
v -0.543387 1.889437 -1.038105
v -0.279581 1.845771 -1.416334
v -0.246376 1.845771 1.457235
v -0.669121 1.845771 -1.444965
v -0.664971 1.845771 1.420424
v -0.348249 2.018861 -1.104608
v -0.279581 1.989608 -1.416334
v -0.271280 1.973005 1.420424
v -0.317119 2.018861 1.268211
v -0.623281 2.018861 -1.358193
v -0.669121 1.989608 -1.444965
v -0.579699 2.018861 0.977816
v -0.635916 1.977156 1.391793
vn -0.9942 0.1073 -0.0007
vn -0.8102 0.5861 -0.0018
vn -0.0000 1.0000 -0.0000
vn 0.9616 0.2744 0.0054
vn 0.0835 0.8831 -0.4617
vn -0.0978 0.8276 0.5528
vn -0.0000 -1.0000 -0.0000
vn 0.9856 0.1687 0.0065
vn -0.2504 0.0025 0.9681
vn 0.1887 0.0079 -0.9820
vn -0.8090 -0.0000 -0.5878
vn 0.3090 -0.0000 -0.9511
vn 1.0000 -0.0000 -0.0000
vn 0.3090 -0.0000 0.9511
vn -0.8090 -0.0000 0.5878
vn 0.9939 0.1086 0.0202
vn -0.0668 -0.0025 0.9978
vn -0.9991 0.0396 0.0129
vn -0.8507 0.5256 0.0094
vn 0.1585 0.9306 -0.3300
vn -0.1291 0.9183 0.3742
vn 0.6613 0.7500 0.0137
vn 0.2590 0.0116 -0.9658
vn 0.9959 0.0905 -0.0070
vn -0.0794 0.2457 0.9661
vn -0.9944 0.1057 0.0067
vn -0.5487 0.8360 0.0102
vn 0.0601 0.9881 -0.1416
vn -0.0704 0.9860 0.1512
vn 0.5470 0.8371 -0.0015
vn 0.0733 -0.0000 -0.9973
vt 0.392729 0.670275
vt 0.392377 0.673658
vt 0.390455 0.673637
vt 0.390453 0.670257
vt 0.141567 0.791126
vt 0.141919 0.787743
vt 0.142696 0.787832
vt 0.142696 0.790982
vt 0.393943 0.666409
vt 0.393943 0.663253
vt 0.396821 0.663200
vt 0.396752 0.666385
vt 0.390453 0.670140
vt 0.390459 0.666955
vt 0.392048 0.666832
vt 0.391548 0.670257
vt 0.392400 0.677055
vt 0.393499 0.677352
vt 0.393498 0.680156
vt 0.392415 0.680364
vt 0.114115 0.832301
vt 0.113350 0.832455
vt 0.112519 0.829365
vt 0.114116 0.829424
vt 0.390471 0.666803
vt 0.390453 0.663381
vt 0.393844 0.663444
vt 0.393844 0.666832
vt 0.393506 0.666835
vt 0.393507 0.670257
vt 0.111070 0.832614
vt 0.111070 0.829223
vt 0.113017 0.832620
vt 0.113033 0.835929
vt 0.111070 0.835979
vt 0.388333 0.687148
vt 0.388333 0.649370
vt 0.388740 0.649375
vt 0.388740 0.687152
vt 0.389393 0.649372
vt 0.389393 0.687149
vt 0.397189 0.649371
vt 0.397189 0.686980
vt 0.397066 0.686979
vt 0.397066 0.649370
vt 0.397510 0.653212
vt 0.397387 0.653610
vt 0.397312 0.653201
vt 0.397387 0.652550
vt 0.397510 0.652557
vt 0.385153 0.649374
vt 0.385153 0.687159
vt 0.384503 0.687155
vt 0.384503 0.649370
vt 0.384092 0.687158
vt 0.384092 0.649374
vt 0.397434 0.654671
vt 0.397312 0.654273
vt 0.397312 0.653617
vt 0.397434 0.653610
vt 0.397510 0.654261
vt 0.386213 0.687148
vt 0.386213 0.649370
vt 0.386620 0.649375
vt 0.386620 0.687152
vt 0.387273 0.649372
vt 0.387273 0.687149
vt 0.397066 0.649371
vt 0.397066 0.686980
vt 0.396944 0.686979
vt 0.396944 0.649370
vt 0.397312 0.650835
vt 0.397411 0.650431
vt 0.397510 0.650835
vt 0.397472 0.651489
vt 0.397350 0.651489
vt 0.383032 0.649374
vt 0.383032 0.687159
vt 0.382382 0.687155
vt 0.382382 0.649370
vt 0.381972 0.687158
vt 0.381972 0.649374
vt 0.397434 0.650431
vt 0.397312 0.650033
vt 0.397312 0.649377
vt 0.397434 0.649370
vt 0.397510 0.650021
vt 0.393943 0.659724
vt 0.394199 0.656387
vt 0.396319 0.656313
vt 0.396733 0.659724
vt 0.393789 0.662075
vt 0.390453 0.662657
vt 0.390484 0.659882
vt 0.393815 0.659882
vt 0.114580 0.823652
vt 0.114560 0.821974
vt 0.116678 0.821974
vt 0.116613 0.824754
vt 0.393943 0.676278
vt 0.394270 0.673215
vt 0.395642 0.673342
vt 0.395913 0.676278
vt 0.390453 0.656402
vt 0.393887 0.656421
vt 0.393887 0.658080
vt 0.390454 0.658884
vt 0.393704 0.659862
vt 0.390626 0.659882
vt 0.117237 0.809687
vt 0.114611 0.809371
vt 0.115011 0.808419
vt 0.116962 0.808414
vt 0.116119 0.825436
vt 0.114743 0.825436
vt 0.139644 0.780124
vt 0.142980 0.779543
vt 0.142725 0.780825
vt 0.139820 0.780848
vt 0.114560 0.811878
vt 0.117342 0.811878
vt 0.389393 0.687148
vt 0.389393 0.649370
vt 0.389800 0.649375
vt 0.389800 0.687152
vt 0.390453 0.649372
vt 0.390453 0.687149
vt 0.396944 0.649371
vt 0.396944 0.686980
vt 0.396821 0.686979
vt 0.396821 0.649370
vt 0.397312 0.657194
vt 0.397411 0.656790
vt 0.397510 0.657194
vt 0.397472 0.657848
vt 0.397350 0.657848
vt 0.386213 0.649374
vt 0.386213 0.687159
vt 0.385563 0.687155
vt 0.385563 0.649370
vt 0.385153 0.687158
vt 0.385153 0.649374
vt 0.397510 0.655080
vt 0.397434 0.655731
vt 0.397312 0.655724
vt 0.397312 0.655068
vt 0.387273 0.687148
vt 0.387273 0.649370
vt 0.387680 0.649375
vt 0.387680 0.687152
vt 0.388333 0.649372
vt 0.388333 0.687149
vt 0.397312 0.649371
vt 0.397312 0.686980
vt 0.397189 0.686979
vt 0.397189 0.649370
vt 0.397312 0.656135
vt 0.397411 0.655731
vt 0.397510 0.656135
vt 0.397472 0.656790
vt 0.397350 0.656790
vt 0.384092 0.649374
vt 0.384092 0.687159
vt 0.383442 0.687155
vt 0.383442 0.649370
vt 0.383032 0.687158
vt 0.383032 0.649374
vt 0.397434 0.652550
vt 0.397312 0.652152
vt 0.397312 0.651496
vt 0.397434 0.651489
vt 0.397510 0.652140
vt 0.390651 0.683917
vt 0.390453 0.680414
vt 0.393311 0.680482
vt 0.393311 0.683974
vt 0.391086 0.652892
vt 0.391398 0.649435
vt 0.393942 0.649370
vt 0.393942 0.652866
vt 0.114762 0.807558
vt 0.114560 0.804936
vt 0.117415 0.804936
vt 0.117248 0.807476
vt 0.393943 0.673215
vt 0.394031 0.670355
vt 0.395793 0.669870
vt 0.395793 0.672769
vt 0.139644 0.770380
vt 0.143133 0.770360
vt 0.143107 0.772980
vt 0.139644 0.773212
vt 0.393428 0.656402
vt 0.390572 0.656372
vt 0.390453 0.655744
vt 0.393916 0.655513
vt 0.117218 0.815891
vt 0.114560 0.815897
vt 0.114870 0.815308
vt 0.116737 0.815289
vt 0.394145 0.651993
vt 0.396631 0.651911
vt 0.396308 0.652833
vt 0.394494 0.652848
vt 0.390453 0.652507
vt 0.390456 0.649622
vt 0.114560 0.818766
vt 0.117218 0.818760
s 0
usemtl Material.002
f 4/1/1 3/2/1 11/3/1 12/4/1
f 3/5/2 4/6/2 8/7/2 7/8/2
f 7/9/3 8/10/3 6/11/3 5/12/3
f 5/13/4 6/14/4 2/15/4 1/16/4
f 3/17/5 7/18/5 5/19/5 1/20/5
f 8/21/6 4/22/6 2/23/6 6/24/6
f 9/25/7 10/26/7 12/27/7 11/28/7
f 1/16/8 2/15/8 10/29/8 9/30/8
f 2/23/9 4/22/9 12/31/9 10/32/9
f 3/33/10 1/34/10 9/35/10 11/31/10
f 13/36/11 14/37/11 16/38/11 15/39/11
f 15/39/12 16/38/12 18/40/12 17/41/12
f 17/42/13 18/43/13 20/44/13 19/45/13
f 16/46/3 14/47/3 22/48/3 20/49/3 18/50/3
f 19/51/14 20/52/14 22/53/14 21/54/14
f 21/54/15 22/53/15 14/55/15 13/56/15
f 13/57/7 15/58/7 17/59/7 19/60/7 21/61/7
f 23/62/11 24/63/11 26/64/11 25/65/11
f 25/65/12 26/64/12 28/66/12 27/67/12
f 27/68/13 28/69/13 30/70/13 29/71/13
f 26/72/3 24/73/3 32/74/3 30/75/3 28/76/3
f 29/77/14 30/78/14 32/79/14 31/80/14
f 31/80/15 32/79/15 24/81/15 23/82/15
f 23/83/7 25/84/7 27/85/7 29/86/7 31/87/7
f 33/88/7 34/89/7 36/90/7 35/91/7
f 38/92/16 39/93/16 34/94/16 33/95/16
f 44/96/17 36/97/17 34/98/17 39/99/17
f 41/100/3 43/101/3 40/102/3 37/103/3
f 35/104/18 36/105/18 44/106/18 42/107/18
f 43/108/19 41/109/19 42/107/19 44/106/19
f 38/110/20 42/111/20 41/112/20 37/113/20
f 44/96/21 39/99/21 40/114/21 43/115/21
f 39/116/22 38/117/22 37/118/22 40/119/22
f 35/120/23 42/111/23 38/110/23 33/121/23
f 45/122/11 46/123/11 48/124/11 47/125/11
f 47/125/12 48/124/12 50/126/12 49/127/12
f 49/128/13 50/129/13 52/130/13 51/131/13
f 48/132/3 46/133/3 54/134/3 52/135/3 50/136/3
f 51/137/14 52/138/14 54/139/14 53/140/14
f 53/140/15 54/139/15 46/141/15 45/142/15
f 45/57/7 47/143/7 49/144/7 51/145/7 53/146/7
f 55/147/11 56/148/11 58/149/11 57/150/11
f 57/150/12 58/149/12 60/151/12 59/152/12
f 59/153/13 60/154/13 62/155/13 61/156/13
f 58/157/3 56/158/3 64/159/3 62/160/3 60/161/3
f 61/162/14 62/163/14 64/164/14 63/165/14
f 63/165/15 64/164/15 56/166/15 55/167/15
f 55/168/7 57/169/7 59/170/7 61/171/7 63/172/7
f 65/173/7 66/174/7 68/175/7 67/176/7
f 70/177/24 71/178/24 66/179/24 65/180/24
f 76/181/25 68/182/25 66/183/25 71/184/25
f 73/185/3 75/186/3 72/187/3 69/188/3
f 67/189/26 68/190/26 76/191/26 74/192/26
f 75/193/27 73/194/27 74/195/27 76/196/27
f 70/197/28 74/198/28 73/199/28 69/200/28
f 76/201/29 71/202/29 72/203/29 75/204/29
f 71/178/30 70/177/30 69/205/30 72/206/30
f 67/207/31 74/198/31 70/197/31 65/208/31
