# Blender 4.2.3 LTS
# www.blender.org
mtllib TradeTent.mtl
o Plane.001
v -2.518663 0.013098 -1.992088
v -2.518664 4.292433 1.836368
v 2.518664 0.013098 -1.992088
v 2.518663 4.292433 1.836368
v -2.518664 4.292433 -0.669786
v -2.518664 4.644848 1.646832
v 2.518663 4.644848 1.646831
v 2.518663 4.292433 -0.669787
v -2.428212 0.012964 -1.951780
v -2.428213 4.292200 1.754072
v 2.428213 0.012964 -1.951781
v 2.428212 4.292200 1.754072
v -2.428213 4.259495 -0.608859
v -2.428213 4.588905 1.598560
v 2.428212 4.588905 1.598559
v 2.428212 4.259495 -0.608859
v -1.783885 0.033231 1.864604
v -1.783885 4.228949 -0.557795
v -1.858569 0.097909 1.976630
v -1.858569 4.293626 -0.445769
v -2.007937 0.097909 1.976629
v -2.007937 4.293626 -0.445769
v -2.082621 0.033231 1.864604
v -2.082621 4.228949 -0.557795
v -2.007937 -0.031447 1.752578
v -2.007937 4.164270 -0.669821
v -1.858569 -0.031447 1.752578
v -1.858569 4.164270 -0.669820
v -1.783885 0.047058 -1.868427
v -1.783885 4.571733 1.612439
v -1.858569 -0.027138 -1.762465
v -1.858569 4.497537 1.718402
v -2.007937 -0.027138 -1.762465
v -2.007936 4.497537 1.718402
v -2.082621 0.047058 -1.868427
v -2.082620 4.571733 1.612439
v -2.007937 0.121254 -1.974390
v -2.007937 4.645929 1.506477
v -1.858569 0.121254 -1.974390
v -1.858569 4.645929 1.506477
v 2.130952 0.033231 1.864604
v 2.130952 4.228949 -0.557795
v 2.056269 0.097909 1.976629
v 2.056268 4.293626 -0.445769
v 1.906901 0.097909 1.976629
v 1.906901 4.293626 -0.445769
v 1.832217 0.033231 1.864604
v 1.832217 4.228949 -0.557795
v 1.906901 -0.031447 1.752578
v 1.906901 4.164270 -0.669821
v 2.056269 -0.031447 1.752578
v 2.056268 4.164270 -0.669821
v 2.130952 0.047058 -1.868428
v 2.130953 4.571733 1.612439
v 2.056268 -0.027138 -1.762465
v 2.056269 4.497537 1.718401
v 1.906900 -0.027138 -1.762465
v 1.906901 4.497537 1.718401
v 1.832216 0.047058 -1.868427
v 1.832217 4.571733 1.612439
v 1.906900 0.121254 -1.974390
v 1.906901 4.645929 1.506476
v 2.056268 0.121254 -1.974390
v 2.056268 4.645929 1.506476
v -1.739280 1.495290 0.397363
v -1.739279 1.495290 1.992088
v 1.779851 1.495291 0.397363
v 1.779851 1.495291 1.992087
v -1.739280 1.313202 0.397363
v -1.739279 1.313202 1.992088
v 1.779851 1.313203 0.397363
v 1.779851 1.313203 1.992087
v -1.339058 -0.045986 1.738678
v -0.968945 1.335294 1.738678
v -1.411197 -0.026656 1.868035
v -1.041084 1.354624 1.868035
v -1.555475 0.012003 1.868035
v -1.185362 1.393283 1.868035
v -1.627614 0.031332 1.738678
v -1.257501 1.412612 1.738678
v -1.555475 0.012003 1.609322
v -1.185362 1.393283 1.609322
v -1.411197 -0.026656 1.609322
v -1.041084 1.354624 1.609322
v 1.515863 -0.000359 1.738678
v 1.267545 1.407923 1.738678
v 1.442314 -0.013328 1.868035
v 1.193996 1.394954 1.868035
v 1.295215 -0.039265 1.868035
v 1.046897 1.369017 1.868035
v 1.221666 -0.052234 1.738678
v 0.973348 1.356048 1.738678
v 1.295215 -0.039265 1.609322
v 1.046897 1.369017 1.609322
v 1.442314 -0.013328 1.609322
v 1.193996 1.394954 1.609322
v -1.314630 -0.052531 0.646964
v -0.944517 1.328749 0.646963
v -1.386769 -0.033202 0.776320
v -1.016656 1.348078 0.776320
v -1.531047 0.005457 0.776320
v -1.160934 1.386737 0.776320
v -1.603186 0.024787 0.646964
v -1.233073 1.406067 0.646964
v -1.531047 0.005457 0.517607
v -1.160934 1.386737 0.517607
v -1.386769 -0.033202 0.517607
v -1.016656 1.348078 0.517607
v 1.540770 0.004033 0.646963
v 1.292452 1.412314 0.646963
v 1.467220 -0.008936 0.776320
v 1.218902 1.399346 0.776320
v 1.320122 -0.034873 0.776320
v 1.071804 1.373408 0.776320
v 1.246572 -0.047842 0.646963
v 0.998254 1.360440 0.646963
v 1.320122 -0.034873 0.517607
v 1.071804 1.373408 0.517607
v 1.467220 -0.008936 0.517607
v 1.218902 1.399346 0.517607
vn -0.0000 0.4737 0.8807
vn -0.0000 0.2952 -0.9554
vn -0.0000 0.9886 -0.1504
vn -0.0000 -0.4642 -0.8857
vn -0.0000 -0.3015 0.9535
vn -0.0000 -0.9890 0.1476
vn -0.0000 -1.0000 -0.0033
vn -0.6165 -0.3695 -0.6952
vn -0.0000 -1.0000 0.0028
vn 0.5073 -0.2571 0.8225
vn -0.5073 -0.2571 0.8225
vn -0.4445 -0.8858 0.1335
vn 0.6165 -0.3695 -0.6952
vn 0.4445 -0.8858 0.1335
vn 0.8660 0.2500 0.4330
vn -0.0000 0.5000 0.8660
vn -0.8660 0.2500 0.4330
vn -0.8660 -0.2500 -0.4330
vn -0.0000 0.8660 -0.5000
vn -0.0000 -0.5000 -0.8660
vn 0.8660 -0.2500 -0.4330
vn -0.0000 -0.8660 0.5000
vn 0.8658 -0.3051 0.3966
vn -0.0000 -0.6097 0.7926
vn -0.8658 -0.3051 0.3966
vn -0.8658 0.3051 -0.3966
vn -0.0000 0.8192 0.5736
vn -0.0000 0.6097 -0.7926
vn 0.8658 0.3051 -0.3966
vn -0.0000 -0.8192 -0.5736
vn -0.0000 1.0000 -0.0000
vn 1.0000 -0.0000 -0.0000
vn -0.0000 -1.0000 -0.0000
vn -1.0000 -0.0000 -0.0000
vn -0.0000 -0.0000 -1.0000
vn -0.0000 -0.0000 1.0000
vn 0.8365 -0.2241 0.5000
vn -0.8365 0.2241 0.5000
vn -0.8365 0.2241 -0.5000
vn 0.2588 0.9659 -0.0000
vn 0.8365 -0.2241 -0.5000
vn -0.2588 -0.9659 -0.0000
vn 0.8529 0.1504 0.5000
vn -0.8529 -0.1504 0.5000
vn -0.8529 -0.1504 -0.5000
vn -0.1736 0.9848 -0.0000
vn 0.8529 0.1504 -0.5000
vn 0.1736 -0.9848 -0.0000
vt 0.505724 0.814283
vt 0.505724 0.818451
vt 0.502185 0.818451
vt 0.502185 0.814283
vt 0.493987 0.869228
vt 0.493987 0.818517
vt 0.497526 0.818517
vt 0.497526 0.869228
vt 0.493987 0.814283
vt 0.497526 0.814283
vt 0.505597 0.818451
vt 0.505597 0.821961
vt 0.502185 0.821961
vt 0.501002 0.868565
vt 0.497590 0.868565
vt 0.497590 0.818243
vt 0.501002 0.818243
vt 0.497590 0.814283
vt 0.501002 0.814283
vt 0.153570 0.871500
vt 0.153570 0.867961
vt 0.153605 0.868024
vt 0.153605 0.871437
vt 0.508429 0.817982
vt 0.510373 0.814283
vt 0.510125 0.814899
vt 0.508491 0.818014
vt 0.505570 0.821961
vt 0.505570 0.825500
vt 0.505499 0.825437
vt 0.505499 0.822024
vt 0.497526 0.868565
vt 0.497526 0.817854
vt 0.501065 0.817854
vt 0.501065 0.868565
vt 0.510373 0.818909
vt 0.510158 0.819238
vt 0.504129 0.825659
vt 0.504067 0.825692
vt 0.502434 0.822577
vt 0.502185 0.826586
vt 0.502401 0.826917
vt 0.154621 0.910789
vt 0.154621 0.861044
vt 0.154750 0.860283
vt 0.154750 0.910028
vt 0.156062 0.909904
vt 0.156062 0.860283
vt 0.156167 0.860283
vt 0.156167 0.909904
vt 0.153724 0.910035
vt 0.153724 0.860283
vt 0.153853 0.861045
vt 0.153853 0.910797
vt 0.153980 0.861806
vt 0.153980 0.911558
vt 0.155747 0.860283
vt 0.155799 0.861052
vt 0.155747 0.861821
vt 0.155642 0.861821
vt 0.155590 0.861052
vt 0.155642 0.860283
vt 0.155642 0.911443
vt 0.155747 0.911443
vt 0.154493 0.911551
vt 0.154493 0.861806
vt 0.156009 0.910672
vt 0.156219 0.910672
vt 0.156167 0.911441
vt 0.156062 0.911441
vt 0.149764 0.914838
vt 0.149764 0.861155
vt 0.149905 0.862028
vt 0.149905 0.915711
vt 0.154802 0.915708
vt 0.154802 0.862035
vt 0.154907 0.862035
vt 0.154907 0.915708
vt 0.149065 0.915717
vt 0.149065 0.862028
vt 0.149206 0.861156
vt 0.149206 0.914845
vt 0.149345 0.860283
vt 0.149345 0.913972
vt 0.154750 0.861159
vt 0.154802 0.860283
vt 0.154907 0.860283
vt 0.154960 0.861159
vt 0.155222 0.913956
vt 0.155222 0.860283
vt 0.155327 0.860283
vt 0.155327 0.913956
vt 0.149625 0.913966
vt 0.149625 0.860283
vt 0.155380 0.914832
vt 0.155327 0.915707
vt 0.155222 0.915707
vt 0.155170 0.914832
vt 0.154365 0.910789
vt 0.154365 0.861044
vt 0.154493 0.860283
vt 0.154493 0.910028
vt 0.156272 0.909904
vt 0.156272 0.860283
vt 0.156377 0.860283
vt 0.156377 0.909904
vt 0.153980 0.910035
vt 0.153980 0.860283
vt 0.154109 0.861045
vt 0.154109 0.910797
vt 0.154237 0.861806
vt 0.154237 0.911558
vt 0.155957 0.860283
vt 0.156009 0.861052
vt 0.155957 0.861821
vt 0.155852 0.861821
vt 0.155852 0.860283
vt 0.155852 0.911443
vt 0.155957 0.911443
vt 0.154237 0.911551
vt 0.154237 0.861806
vt 0.156429 0.910672
vt 0.156377 0.911441
vt 0.156272 0.911441
vt 0.150044 0.914838
vt 0.150044 0.861155
vt 0.150185 0.862028
vt 0.150185 0.915711
vt 0.155012 0.915708
vt 0.155012 0.862035
vt 0.155117 0.862035
vt 0.155117 0.915708
vt 0.149345 0.915717
vt 0.149345 0.862028
vt 0.149486 0.861156
vt 0.149486 0.914845
vt 0.149625 0.913972
vt 0.155012 0.860283
vt 0.155117 0.860283
vt 0.155170 0.861159
vt 0.155432 0.913956
vt 0.155432 0.860283
vt 0.155537 0.860283
vt 0.155537 0.913956
vt 0.149905 0.913966
vt 0.149905 0.860283
vt 0.155590 0.914832
vt 0.155537 0.915707
vt 0.155432 0.915707
vt 0.152129 0.867961
vt 0.153499 0.867961
vt 0.153499 0.870433
vt 0.152129 0.870433
vt 0.156429 0.867711
vt 0.157800 0.867710
vt 0.157800 0.869867
vt 0.156429 0.869868
vt 0.152129 0.870433
vt 0.153499 0.872906
vt 0.152129 0.872906
vt 0.153711 0.875074
vt 0.152341 0.875074
vt 0.152341 0.872917
vt 0.153711 0.872917
vt 0.150185 0.872917
vt 0.152341 0.872917
vt 0.152341 0.875389
vt 0.150185 0.875389
vt 0.156429 0.865238
vt 0.158585 0.865238
vt 0.158585 0.867710
vt 0.156429 0.867710
vt 0.160038 0.882517
vt 0.160037 0.866150
vt 0.160149 0.865922
vt 0.160150 0.882289
vt 0.160591 0.882053
vt 0.160591 0.865694
vt 0.160700 0.865238
vt 0.160700 0.881597
vt 0.159481 0.881832
vt 0.159480 0.865466
vt 0.159591 0.865238
vt 0.159593 0.881604
vt 0.159702 0.865466
vt 0.159703 0.881832
vt 0.159927 0.865922
vt 0.159928 0.865466
vt 0.160040 0.865238
vt 0.160150 0.865466
vt 0.160374 0.881597
vt 0.160374 0.865238
vt 0.160482 0.865694
vt 0.160482 0.882053
vt 0.159928 0.882289
vt 0.159590 0.882519
vt 0.159480 0.882290
vt 0.159702 0.882290
vt 0.159143 0.881917
vt 0.159144 0.865238
vt 0.159256 0.865392
vt 0.159255 0.882072
vt 0.161021 0.881915
vt 0.161021 0.865238
vt 0.161128 0.865544
vt 0.161128 0.882221
vt 0.158585 0.882383
vt 0.158587 0.865700
vt 0.158698 0.865853
vt 0.158697 0.882537
vt 0.158809 0.865699
vt 0.158808 0.882383
vt 0.158585 0.865392
vt 0.158696 0.865238
vt 0.158808 0.865392
vt 0.160808 0.882221
vt 0.160808 0.865544
vt 0.160915 0.865238
vt 0.160915 0.881915
vt 0.159032 0.882072
vt 0.159034 0.865392
vt 0.159256 0.882381
vt 0.159145 0.882535
vt 0.159034 0.882381
vt 0.160262 0.882517
vt 0.160261 0.866150
vt 0.160373 0.865922
vt 0.160374 0.882289
vt 0.160700 0.882053
vt 0.160700 0.865694
vt 0.160808 0.865238
vt 0.160808 0.881597
vt 0.159704 0.881832
vt 0.159703 0.865466
vt 0.159815 0.865238
vt 0.159816 0.881604
vt 0.159925 0.865466
vt 0.159927 0.881832
vt 0.160150 0.865922
vt 0.160151 0.865466
vt 0.160263 0.865238
vt 0.160374 0.865466
vt 0.160482 0.881597
vt 0.160482 0.865238
vt 0.160591 0.882053
vt 0.160151 0.882289
vt 0.159814 0.882519
vt 0.159703 0.882290
vt 0.159925 0.882290
vt 0.159367 0.881917
vt 0.159368 0.865238
vt 0.159480 0.865392
vt 0.159478 0.882072
vt 0.161128 0.881915
vt 0.161128 0.865238
vt 0.161235 0.865544
vt 0.161235 0.882221
vt 0.158809 0.882383
vt 0.158810 0.865700
vt 0.158922 0.865853
vt 0.158921 0.882537
vt 0.159032 0.865699
vt 0.159031 0.882383
vt 0.158809 0.865392
vt 0.158919 0.865238
vt 0.159031 0.865392
vt 0.160915 0.882221
vt 0.160915 0.865544
vt 0.161021 0.881915
vt 0.159256 0.882072
vt 0.159257 0.865392
vt 0.159480 0.882381
vt 0.159369 0.882535
vt 0.159257 0.882381
s 0
usemtl Material.002
f 6/1/1 2/2/1 4/3/1 7/4/1
f 1/5/2 5/6/2 8/7/2 3/8/2
f 5/6/3 6/9/3 7/10/3 8/7/3
f 14/3/4 15/11/4 12/12/4 10/13/4
f 9/14/5 11/15/5 16/16/5 13/17/5
f 13/17/6 16/16/6 15/18/6 14/19/6
f 1/20/7 3/21/7 11/22/7 9/23/7
f 2/24/8 6/25/8 14/26/8 10/27/8
f 4/28/9 2/29/9 10/30/9 12/31/9
f 3/32/10 8/33/10 16/16/10 11/15/10
f 5/34/11 1/35/11 9/14/11 13/17/11
f 6/25/12 5/36/12 13/37/12 14/26/12
f 7/13/13 4/38/13 12/39/13 15/40/13
f 8/41/14 7/13/14 15/40/14 16/42/14
f 17/43/15 18/44/15 20/45/15 19/46/15
f 19/47/16 20/48/16 22/49/16 21/50/16
f 21/51/17 22/52/17 24/53/17 23/54/17
f 23/54/18 24/53/18 26/55/18 25/56/18
f 20/57/19 18/58/19 28/59/19 26/60/19 24/61/19 22/62/19
f 25/63/20 26/60/20 28/59/20 27/64/20
f 27/65/21 28/66/21 18/44/21 17/43/21
f 17/67/22 19/47/22 21/50/22 23/68/22 25/69/22 27/70/22
f 29/71/23 30/72/23 32/73/23 31/74/23
f 31/75/24 32/76/24 34/77/24 33/78/24
f 33/79/25 34/80/25 36/81/25 35/82/25
f 35/82/26 36/81/26 38/83/26 37/84/26
f 32/76/27 30/85/27 40/86/27 38/87/27 36/88/27 34/77/27
f 37/89/28 38/90/28 40/91/28 39/92/28
f 39/93/29 40/94/29 30/72/29 29/71/29
f 29/95/30 31/96/30 33/97/30 35/98/30 37/89/30 39/92/30
f 41/99/15 42/100/15 44/101/15 43/102/15
f 43/103/16 44/104/16 46/105/16 45/106/16
f 45/107/17 46/108/17 48/109/17 47/110/17
f 47/110/18 48/109/18 50/111/18 49/112/18
f 44/113/19 42/114/19 52/115/19 50/116/19 48/58/19 46/117/19
f 49/118/20 50/116/20 52/115/20 51/119/20
f 51/120/21 52/121/21 42/100/21 41/99/21
f 41/68/22 43/103/22 45/106/22 47/122/22 49/123/22 51/124/22
f 53/125/23 54/126/23 56/127/23 55/128/23
f 55/129/24 56/130/24 58/131/24 57/132/24
f 57/133/25 58/134/25 60/135/25 59/136/25
f 59/136/26 60/135/26 62/94/26 61/137/26
f 56/130/27 54/88/27 64/138/27 62/139/27 60/140/27 58/131/27
f 61/141/28 62/142/28 64/143/28 63/144/28
f 63/145/29 64/146/29 54/126/29 53/125/29
f 53/147/30 55/148/30 57/149/30 59/95/30 61/141/30 63/144/30
f 65/150/31 66/151/31 68/152/31 67/153/31
f 67/154/32 68/155/32 72/156/32 71/157/32
f 71/158/33 72/152/33 70/159/33 69/160/33
f 69/161/34 70/162/34 66/163/34 65/164/34
f 67/165/35 71/166/35 69/167/35 65/168/35
f 72/169/36 68/170/36 66/171/36 70/172/36
f 73/173/37 74/174/37 76/175/37 75/176/37
f 75/177/36 76/178/36 78/179/36 77/180/36
f 77/181/38 78/182/38 80/183/38 79/184/38
f 79/184/39 80/183/39 82/185/39 81/186/39
f 76/175/40 74/174/40 84/187/40 82/188/40 80/189/40 78/190/40
f 81/191/35 82/192/35 84/193/35 83/194/35
f 83/195/41 84/187/41 74/174/41 73/173/41
f 73/196/42 75/197/42 77/181/42 79/184/42 81/186/42 83/198/42
f 85/199/43 86/200/43 88/201/43 87/202/43
f 87/203/36 88/204/36 90/205/36 89/206/36
f 89/207/44 90/208/44 92/209/44 91/210/44
f 91/210/45 92/209/45 94/211/45 93/212/45
f 88/213/46 86/214/46 96/215/46 94/211/46 92/209/46 90/208/46
f 93/216/35 94/217/35 96/218/35 95/219/35
f 95/220/47 96/221/47 86/200/47 85/199/47
f 85/199/48 87/202/48 89/222/48 91/223/48 93/224/48 95/220/48
f 97/225/37 98/226/37 100/227/37 99/228/37
f 99/229/36 100/230/36 102/231/36 101/232/36
f 101/233/38 102/234/38 104/235/38 103/236/38
f 103/236/39 104/235/39 106/237/39 105/238/39
f 100/227/40 98/226/40 108/239/40 106/240/40 104/241/40 102/242/40
f 105/243/35 106/244/35 108/178/35 107/245/35
f 107/246/41 108/239/41 98/226/41 97/225/41
f 97/247/42 99/248/42 101/233/42 103/236/42 105/238/42 107/249/42
f 109/250/43 110/251/43 112/252/43 111/253/43
f 111/254/36 112/255/36 114/256/36 113/257/36
f 113/258/44 114/259/44 116/260/44 115/261/44
f 115/261/45 116/260/45 118/262/45 117/263/45
f 112/264/46 110/265/46 120/266/46 118/262/46 116/260/46 114/259/46
f 117/267/35 118/268/35 120/204/35 119/269/35
f 119/270/47 120/271/47 110/251/47 109/250/47
f 109/250/48 111/253/48 113/272/48 115/273/48 117/274/48 119/270/48
