# Blender 4.2.2 LTS
# www.blender.org
mtllib KnightLeg2.mtl
o Cylinder.004
v -0.000000 1.152542 -0.450000
v 0.389711 1.152542 -0.225000
v 0.389711 1.152542 0.225000
v -0.000000 1.152542 0.450000
v -0.389711 1.152542 0.225000
v -0.389711 1.152542 -0.225000
v -0.389711 0.896706 -0.225000
v -0.389711 0.896706 0.225000
v -0.000000 0.896706 0.450000
v 0.389711 0.896706 0.225000
v 0.389711 0.896706 -0.225000
v -0.000000 0.896706 -0.450000
v -0.467121 0.839300 -0.269692
v -0.467121 0.839300 0.269692
v 0.000000 0.839300 0.539385
v 0.467121 0.839300 0.269692
v 0.467121 0.839300 -0.269692
v 0.000000 0.839300 -0.539385
v -0.467121 0.252059 -0.269692
v -0.467121 0.252059 0.269692
v 0.000000 0.252059 0.539385
v 0.467121 0.252059 0.269692
v 0.467121 0.252059 -0.269692
v 0.000000 0.252059 -0.539385
v -0.501113 0.204851 -0.289318
v -0.501113 0.204851 0.289318
v -0.000000 0.204851 0.578636
v 0.501113 0.204851 0.289318
v 0.501113 0.204851 -0.289318
v -0.000000 0.204851 -0.578636
v -0.501113 0.143919 -0.289318
v -0.501113 0.143919 0.289318
v -0.000000 0.143919 0.578636
v 0.501113 0.143919 0.289318
v 0.501113 0.143919 -0.289318
v -0.000000 0.143919 -0.578636
v -0.462332 0.080036 -0.266928
v -0.462332 0.080036 0.266928
v -0.000000 0.080036 0.533855
v 0.462332 0.080036 0.266928
v 0.462332 0.080036 -0.266928
v -0.000000 0.080036 -0.533855
v -0.462332 -0.168626 -0.266928
v -0.462332 -0.168626 0.266928
v -0.000000 -0.168626 0.533855
v 0.462332 -0.168626 0.266928
v 0.462332 -0.168626 -0.266928
v -0.000000 -0.168626 -0.533855
v -0.385981 -0.276301 -0.222846
v -0.385981 -0.276301 0.222846
v -0.000000 -0.276301 0.445692
v 0.385980 -0.276301 0.222846
v 0.385980 -0.276301 -0.222846
v -0.000000 -0.276301 -0.445692
v -0.332242 -0.916731 -0.191820
v -0.332242 -0.916731 0.191820
v -0.000000 -0.916731 0.383639
v 0.332241 -0.916731 0.191820
v 0.332241 -0.916731 -0.191820
v -0.000000 -0.916731 -0.383639
v -0.290481 -1.152542 -0.167709
v -0.290481 -1.152542 0.167709
v -0.000000 -1.152542 0.335418
v 0.290480 -1.152542 0.167709
v 0.290480 -1.152542 -0.167709
v -0.000000 -1.152542 -0.335418
vn 0.5957 0.8032 -0.0000
vn -0.5000 -0.0000 0.8660
vn 0.5000 -0.0000 0.8660
vn -1.0000 -0.0000 -0.0000
vn -0.0000 1.0000 -0.0000
vn 0.2978 0.8032 0.5159
vn -0.2978 0.8032 0.5159
vn 0.2978 0.8032 -0.5159
vn 1.0000 -0.0000 -0.0000
vn 0.5000 -0.0000 -0.8660
vn -0.5000 -0.0000 -0.8660
vn -0.5957 0.8032 -0.0000
vn -0.2978 0.8032 -0.5159
vn 0.4058 0.5843 -0.7028
vn 0.4058 0.5843 0.7028
vn -0.4058 0.5843 -0.7028
vn -0.4058 0.5843 0.7028
vn -0.8115 0.5843 -0.0000
vn 0.8115 0.5843 -0.0000
vn 0.4274 -0.5189 -0.7403
vn 0.4274 -0.5189 0.7403
vn -0.4274 -0.5189 -0.7403
vn -0.4274 -0.5189 0.7403
vn -0.8548 -0.5189 -0.0000
vn 0.8548 -0.5189 -0.0000
vn 0.4079 -0.5784 0.7064
vn -0.4079 -0.5784 -0.7064
vn -0.4079 -0.5784 0.7064
vn -0.8157 -0.5784 -0.0000
vn 0.8157 -0.5784 -0.0000
vn 0.4079 -0.5784 -0.7064
vn 0.9965 -0.0836 -0.0000
vn 0.4982 -0.0836 -0.8630
vn 0.4982 -0.0836 0.8630
vn -0.4982 -0.0836 -0.8630
vn -0.4982 -0.0836 0.8630
vn -0.9965 -0.0836 -0.0000
vn -0.4923 -0.1744 -0.8528
vn -0.4923 -0.1744 0.8528
vn -0.9847 -0.1744 -0.0000
vn 0.9847 -0.1744 -0.0000
vn 0.4923 -0.1744 -0.8528
vn 0.4923 -0.1744 0.8528
vn -0.0000 -1.0000 -0.0000
vt 0.236797 0.207220
vt 0.242266 0.204062
vt 0.242266 0.242171
vt 0.236797 0.239013
vt 0.023012 0.979483
vt 0.023611 0.979483
vt 0.023361 0.980849
vt 0.022761 0.980849
vt 0.023361 0.983582
vt 0.022761 0.983582
vt 0.021027 0.976529
vt 0.021627 0.976529
vt 0.021627 0.979262
vt 0.021027 0.979262
vt 0.020395 0.984948
vt 0.018028 0.983582
vt 0.018028 0.980849
vt 0.020395 0.979483
vt 0.209263 0.191323
vt 0.209263 0.185008
vt 0.181729 0.207220
vt 0.176260 0.204062
vt 0.209263 0.261225
vt 0.209263 0.254910
vt 0.023611 0.984948
vt 0.023012 0.984948
vt 0.013956 0.985967
vt 0.014555 0.986003
vt 0.014388 0.988731
vt 0.013790 0.988694
vt 0.014555 0.990110
vt 0.013956 0.990073
vt 0.181729 0.239013
vt 0.176260 0.242171
vt 0.358926 0.160407
vt 0.374941 0.160407
vt 0.378432 0.179461
vt 0.362418 0.179461
vt 0.362947 0.248595
vt 0.378932 0.249571
vt 0.376609 0.287609
vt 0.360624 0.286633
vt 0.378932 0.306841
vt 0.362947 0.305865
vt 0.358926 0.122298
vt 0.374941 0.122298
vt 0.242266 0.260444
vt 0.258281 0.260444
vt 0.258281 0.298553
vt 0.242266 0.298553
vt 0.362418 0.103243
vt 0.378432 0.103243
vt 0.009783 0.979245
vt 0.009783 0.979483
vt 0.006740 0.977726
vt 0.006946 0.977607
vt 0.012620 0.974332
vt 0.012826 0.974212
vt 0.012826 0.977726
vt 0.012620 0.977607
vt 0.006740 0.974212
vt 0.006946 0.974332
vt 0.009783 0.972694
vt 0.009783 0.972456
vt 0.024713 0.979483
vt 0.024855 0.979483
vt 0.024533 0.981240
vt 0.024391 0.981240
vt 0.015138 0.985967
vt 0.015280 0.985967
vt 0.015280 0.989480
vt 0.015138 0.989480
vt 0.024391 0.984754
vt 0.024533 0.984754
vt 0.024855 0.986511
vt 0.024713 0.986511
vt 0.024975 0.979483
vt 0.025117 0.979488
vt 0.024998 0.983000
vt 0.024855 0.982995
vt 0.025260 0.984766
vt 0.025117 0.984762
vt 0.013061 0.974348
vt 0.013061 0.977590
vt 0.018912 0.974212
vt 0.018676 0.974348
vt 0.015869 0.972728
vt 0.015869 0.972456
vt 0.015869 0.979211
vt 0.015869 0.979483
vt 0.018912 0.977726
vt 0.018676 0.977590
vt 0.378432 0.122102
vt 0.385214 0.122102
vt 0.385214 0.159821
vt 0.378432 0.159821
vt 0.372555 0.222656
vt 0.379323 0.223069
vt 0.381623 0.242104
vt 0.374854 0.241690
vt 0.267183 0.260444
vt 0.273965 0.260444
vt 0.273965 0.298162
vt 0.267183 0.298162
vt 0.374854 0.185008
vt 0.381623 0.185421
vt 0.381888 0.103243
vt 0.388670 0.103243
vt 0.388670 0.178680
vt 0.381888 0.178680
vt 0.274931 0.185008
vt 0.274931 0.191237
vt 0.247661 0.206981
vt 0.242266 0.203867
vt 0.274931 0.260444
vt 0.274931 0.254215
vt 0.302202 0.238471
vt 0.307596 0.241585
vt 0.307596 0.203867
vt 0.302202 0.206981
vt 0.247661 0.238471
vt 0.242266 0.241585
vt 0.020330 0.987650
vt 0.021874 0.987555
vt 0.022016 0.988731
vt 0.020495 0.989016
vt 0.018912 0.976529
vt 0.020448 0.976718
vt 0.020448 0.979047
vt 0.018912 0.979236
vt 0.020495 0.984948
vt 0.022016 0.985230
vt 0.018276 0.984948
vt 0.019777 0.985325
vt 0.019564 0.986490
vt 0.018028 0.986302
vt 0.018028 0.989008
vt 0.019564 0.988820
vt 0.019777 0.989984
vt 0.018276 0.990361
vt 0.020330 0.985618
vt 0.020143 0.986636
vt 0.020143 0.988673
vt 0.020330 0.989691
vt 0.022462 0.987444
vt 0.022586 0.988472
vt 0.021027 0.976864
vt 0.021027 0.978901
vt 0.022586 0.985411
vt 0.018912 0.975511
vt 0.018912 0.973474
vt 0.020676 0.972456
vt 0.022440 0.973474
vt 0.022440 0.975511
vt 0.020676 0.976529
s 0
usemtl Material
f 10/1/1 16/2/1 17/3/1 11/4/1
f 5/5/2 8/6/2 9/7/2 4/8/2
f 4/8/3 9/7/3 10/9/3 3/10/3
f 6/11/4 7/12/4 8/13/4 5/14/4
f 2/15/5 1/16/5 6/17/5 5/18/5 4/8/5 3/10/5
f 9/19/6 15/20/6 16/2/6 10/1/6
f 8/21/7 14/22/7 15/20/7 9/19/7
f 11/4/8 17/3/8 18/23/8 12/24/8
f 3/10/9 10/9/9 11/25/9 2/26/9
f 2/27/10 11/28/10 12/29/10 1/30/10
f 1/30/11 12/29/11 7/31/11 6/32/11
f 7/33/12 13/34/12 14/22/12 8/21/12
f 12/24/13 18/23/13 13/34/13 7/33/13
f 14/35/2 20/36/2 21/37/2 15/38/2
f 15/39/3 21/40/3 22/41/3 16/42/3
f 16/42/9 22/41/9 23/43/9 17/44/9
f 13/45/4 19/46/4 20/36/4 14/35/4
f 17/47/10 23/48/10 24/49/10 18/50/10
f 18/51/11 24/52/11 19/46/11 13/45/11
f 23/53/14 29/54/14 30/55/14 24/56/14
f 21/57/15 27/58/15 28/59/15 22/60/15
f 24/56/16 30/55/16 25/61/16 19/62/16
f 20/63/17 26/64/17 27/58/17 21/57/17
f 19/62/18 25/61/18 26/64/18 20/63/18
f 22/60/19 28/59/19 29/54/19 23/53/19
f 26/65/2 32/66/2 33/67/2 27/68/2
f 25/69/4 31/70/4 32/71/4 26/72/4
f 28/73/9 34/74/9 35/75/9 29/76/9
f 29/77/10 35/78/10 36/79/10 30/80/10
f 27/68/3 33/67/3 34/74/3 28/73/3
f 30/80/11 36/79/11 31/81/11 25/82/11
f 35/58/20 41/83/20 42/84/20 36/59/20
f 33/85/21 39/86/21 40/87/21 34/88/21
f 36/59/22 42/84/22 37/89/22 31/90/22
f 32/91/23 38/92/23 39/86/23 33/85/23
f 31/90/24 37/89/24 38/92/24 32/91/24
f 34/88/25 40/87/25 41/83/25 35/58/25
f 37/93/4 43/94/4 44/95/4 38/96/4
f 40/97/9 46/98/9 47/99/9 41/100/9
f 41/101/10 47/102/10 48/103/10 42/104/10
f 39/105/3 45/106/3 46/98/3 40/97/3
f 42/107/11 48/108/11 43/94/11 37/93/11
f 38/96/2 44/95/2 45/109/2 39/110/2
f 45/111/26 51/112/26 52/113/26 46/114/26
f 48/115/27 54/116/27 49/117/27 43/118/27
f 44/119/28 50/120/28 51/112/28 45/111/28
f 43/118/29 49/117/29 50/120/29 44/119/29
f 46/114/30 52/113/30 53/121/30 47/122/30
f 47/122/31 53/121/31 54/116/31 48/115/31
f 52/123/32 58/124/32 59/125/32 53/126/32
f 53/127/33 59/128/33 60/129/33 54/130/33
f 51/131/34 57/132/34 58/124/34 52/123/34
f 54/133/35 60/134/35 55/135/35 49/136/35
f 50/137/36 56/138/36 57/139/36 51/140/36
f 49/136/37 55/135/37 56/138/37 50/137/37
f 60/134/38 66/141/38 61/142/38 55/135/38
f 56/138/39 62/143/39 63/144/39 57/139/39
f 55/135/40 61/142/40 62/143/40 56/138/40
f 58/124/41 64/145/41 65/146/41 59/125/41
f 59/128/42 65/147/42 66/148/42 60/129/42
f 57/132/43 63/149/43 64/145/43 58/124/43
f 66/150/44 65/151/44 64/152/44 63/153/44 62/154/44 61/155/44
