# MagicaVoxel @ Ephtracy

# group
o 

# material
mtllib Hand.mtl
usemtl palette

# normals
vn -1 0 0
vn 1 0 0
vn 0 0 1
vn 0 0 -1
vn 0 -1 0
vn 0 1 0

# texcoords
vt 0.970703 0.5
vt 0.974609 0.5
vt 0.978516 0.5
vt 0.982422 0.5
vt 0.986328 0.5

# verts
v -0.1 -0.9 0.1
v -0.1 -0.9 0
v -0.1 -0.8 0.1
v -0.1 -0.8 0
v -0.1 -0.8 -0.1
v -0.1 -0.7 0
v -0.1 -0.7 -0.1
v -0.1 -0.6 0.1
v -0.1 -0.6 0
v -0.1 -0.6 -0.1
v -0.1 -0.6 -0.2
v -0.1 -0.5 0
v -0.1 -0.5 -0.1
v -0.1 -0.4 0.1
v -0.1 -0.4 0
v -0.1 -0.4 -0.1
v -0.1 -0.2 0.1
v -0.1 -0.2 0
v -0.1 -0.2 -0.1
v -0.1 -0.2 -0.2
v -0.1 -0.1 0.1
v -0.1 -0.1 0
v -0.1 -0.1 -0.1
v -0.1 0 0.1
v -0.1 0 0
v -0.1 0 -0.1
v -0.1 0.1 0
v -0.1 0.1 -0.1
v 0 -0.9 0
v 0 -0.9 -0.1
v 0 -0.8 0
v 0 -0.8 -0.1
v 0 -0.8 -0.2
v 0 -0.7 -0.1
v 0 -0.7 -0.2
v 0 -0.6 -0.1
v 0 -0.6 -0.2
v 0 -0.2 -0.1
v 0 -0.2 -0.2
v 0 -0.1 -0.1
v 0 -0.1 -0.2
v 0 0 0.1
v 0 0 0
v 0 0 -0.1
v 0 0 -0.2
v 0 0 -0.3
v 0 0.1 0.1
v 0 0.1 0
v 0 0.1 -0.1
v 0 0.1 -0.2
v 0 0.2 0.1
v 0 0.2 0
v 0 0.2 -0.1
v 0 0.2 -0.2
v 0 0.2 -0.3
v 0.1 -0.9 0
v 0.1 -0.9 -0.1
v 0.1 -0.8 0
v 0.1 -0.8 -0.1
v 0.1 -0.8 -0.2
v 0.1 -0.7 -0.1
v 0.1 -0.7 -0.2
v 0.1 -0.6 -0.1
v 0.1 -0.6 -0.2
v 0.1 -0.2 -0.1
v 0.1 -0.2 -0.2
v 0.1 -0.1 -0.1
v 0.1 -0.1 -0.2
v 0.1 0 0.1
v 0.1 0 0
v 0.1 0 -0.1
v 0.1 0 -0.2
v 0.1 0 -0.3
v 0.1 0.1 0.1
v 0.1 0.1 0
v 0.1 0.1 -0.1
v 0.1 0.1 -0.2
v 0.1 0.2 0.1
v 0.1 0.2 0
v 0.1 0.2 -0.1
v 0.1 0.2 -0.2
v 0.1 0.2 -0.3
v 0.2 -0.9 0.1
v 0.2 -0.9 0
v 0.2 -0.8 0.1
v 0.2 -0.8 0
v 0.2 -0.8 -0.1
v 0.2 -0.7 0.1
v 0.2 -0.7 0
v 0.2 -0.7 -0.1
v 0.2 -0.6 0.1
v 0.2 -0.6 0
v 0.2 -0.6 -0.1
v 0.2 -0.6 -0.2
v 0.2 -0.5 0
v 0.2 -0.5 -0.1
v 0.2 -0.4 0
v 0.2 -0.4 -0.1
v 0.2 -0.3 0.1
v 0.2 -0.3 0
v 0.2 -0.2 0.1
v 0.2 -0.2 0
v 0.2 -0.2 -0.1
v 0.2 -0.2 -0.2
v 0.2 -0.1 0.1
v 0.2 -0.1 0
v 0.2 -0.1 -0.1
v 0.2 0 0.1
v 0.2 0 0
v 0.2 0 -0.1
v 0.2 0.1 0
v 0.2 0.1 -0.1
v -0.1 -0.9 0.1
v -0.1 -0.8 0.1
v -0.1 -0.6 0.1
v -0.1 -0.4 0.1
v -0.1 -0.2 0.1
v -0.1 -0.1 0.1
v -0.1 0 0.1
v 0 -0.9 0.1
v 0 -0.8 0.1
v 0 -0.6 0.1
v 0 -0.4 0.1
v 0 -0.2 0.1
v 0 -0.1 0.1
v 0 0 0.1
v 0 0.1 0.1
v 0 0.2 0.1
v 0.1 -0.9 0.1
v 0.1 -0.8 0.1
v 0.1 -0.7 0.1
v 0.1 -0.6 0.1
v 0.1 -0.3 0.1
v 0.1 -0.2 0.1
v 0.1 -0.1 0.1
v 0.1 0 0.1
v 0.1 0.1 0.1
v 0.1 0.2 0.1
v 0.2 -0.9 0.1
v 0.2 -0.8 0.1
v 0.2 -0.7 0.1
v 0.2 -0.6 0.1
v 0.2 -0.3 0.1
v 0.2 -0.2 0.1
v 0.2 -0.1 0.1
v 0.2 0 0.1
v -0.1 0 0
v -0.1 0.1 0
v 0 0 0
v 0 0.1 0
v 0.1 0 0
v 0.1 0.1 0
v 0.2 0 0
v 0.2 0.1 0
v 0 0.1 -0.2
v 0 0.2 -0.2
v 0.1 0.1 -0.2
v 0.1 0.2 -0.2
v -0.1 -0.9 0
v -0.1 -0.8 0
v 0 -0.9 0
v 0 -0.8 0
v 0.1 -0.9 0
v 0.1 -0.8 0
v 0.2 -0.9 0
v 0.2 -0.8 0
v -0.1 -0.8 -0.1
v -0.1 -0.7 -0.1
v -0.1 -0.6 -0.1
v -0.1 -0.2 -0.1
v -0.1 -0.1 -0.1
v -0.1 0 -0.1
v -0.1 0.1 -0.1
v 0 -0.9 -0.1
v 0 -0.8 -0.1
v 0 -0.7 -0.1
v 0 -0.6 -0.1
v 0 -0.2 -0.1
v 0 -0.1 -0.1
v 0 0 -0.1
v 0 0.1 -0.1
v 0 0.2 -0.1
v 0.1 -0.9 -0.1
v 0.1 -0.8 -0.1
v 0.1 -0.7 -0.1
v 0.1 -0.6 -0.1
v 0.1 -0.2 -0.1
v 0.1 -0.1 -0.1
v 0.1 0 -0.1
v 0.1 0.1 -0.1
v 0.1 0.2 -0.1
v 0.2 -0.8 -0.1
v 0.2 -0.7 -0.1
v 0.2 -0.6 -0.1
v 0.2 -0.2 -0.1
v 0.2 -0.1 -0.1
v 0.2 0 -0.1
v 0.2 0.1 -0.1
v -0.1 -0.6 -0.2
v -0.1 -0.2 -0.2
v 0 -0.8 -0.2
v 0 -0.7 -0.2
v 0 -0.6 -0.2
v 0 -0.2 -0.2
v 0 -0.1 -0.2
v 0 0 -0.2
v 0.1 -0.8 -0.2
v 0.1 -0.7 -0.2
v 0.1 -0.6 -0.2
v 0.1 -0.2 -0.2
v 0.1 -0.1 -0.2
v 0.1 0 -0.2
v 0.2 -0.6 -0.2
v 0.2 -0.2 -0.2
v 0 0 -0.3
v 0 0.2 -0.3
v 0.1 0 -0.3
v 0.1 0.2 -0.3
v -0.1 -0.9 0.1
v 0 -0.9 0.1
v 0.1 -0.9 0.1
v 0.2 -0.9 0.1
v -0.1 -0.9 0
v 0 -0.9 0
v 0.1 -0.9 0
v 0.2 -0.9 0
v 0 -0.9 -0.1
v 0.1 -0.9 -0.1
v -0.1 -0.8 0
v 0 -0.8 0
v 0.1 -0.8 0
v 0.2 -0.8 0
v -0.1 -0.8 -0.1
v 0 -0.8 -0.1
v 0.1 -0.8 -0.1
v 0.2 -0.8 -0.1
v 0 -0.8 -0.2
v 0.1 -0.8 -0.2
v -0.1 -0.6 -0.1
v 0 -0.6 -0.1
v 0.1 -0.6 -0.1
v 0.2 -0.6 -0.1
v -0.1 -0.6 -0.2
v 0 -0.6 -0.2
v 0.1 -0.6 -0.2
v 0.2 -0.6 -0.2
v 0 0 -0.2
v 0.1 0 -0.2
v 0 0 -0.3
v 0.1 0 -0.3
v -0.1 -0.2 -0.1
v 0 -0.2 -0.1
v 0.1 -0.2 -0.1
v 0.2 -0.2 -0.1
v -0.1 -0.2 -0.2
v 0 -0.2 -0.2
v 0.1 -0.2 -0.2
v 0.2 -0.2 -0.2
v -0.1 0 0.1
v 0 0 0.1
v 0.1 0 0.1
v 0.2 0 0.1
v -0.1 0 0
v 0 0 0
v 0.1 0 0
v 0.2 0 0
v -0.1 0.1 0
v 0 0.1 0
v 0.1 0.1 0
v 0.2 0.1 0
v -0.1 0.1 -0.1
v 0 0.1 -0.1
v 0.1 0.1 -0.1
v 0.2 0.1 -0.1
v 0 0.1 -0.2
v 0.1 0.1 -0.2
v 0 0.2 0.1
v 0.1 0.2 0.1
v 0 0.2 0
v 0.1 0.2 0
v 0 0.2 -0.1
v 0.1 0.2 -0.1
v 0 0.2 -0.2
v 0.1 0.2 -0.2
v 0 0.2 -0.3
v 0.1 0.2 -0.3

# faces
f 3/1/1 2/1/1 1/1/1
f 4/1/1 2/1/1 3/1/1
f 6/4/1 4/4/1 3/4/1
f 6/1/1 5/1/1 4/1/1
f 7/1/1 5/1/1 6/1/1
f 8/4/1 6/4/1 3/4/1
f 9/2/1 7/2/1 6/2/1
f 9/4/1 6/4/1 8/4/1
f 10/2/1 7/2/1 9/2/1
f 12/3/1 10/3/1 9/3/1
f 12/3/1 9/3/1 8/3/1
f 13/1/1 11/1/1 10/1/1
f 13/3/1 10/3/1 12/3/1
f 14/3/1 12/3/1 8/3/1
f 15/4/1 13/4/1 12/4/1
f 15/3/1 12/3/1 14/3/1
f 16/1/1 11/1/1 13/1/1
f 16/4/1 13/4/1 15/4/1
f 17/4/1 15/4/1 14/4/1
f 18/2/1 16/2/1 15/2/1
f 18/4/1 15/4/1 17/4/1
f 19/1/1 11/1/1 16/1/1
f 19/2/1 16/2/1 18/2/1
f 20/1/1 11/1/1 19/1/1
f 21/1/1 18/1/1 17/1/1
f 21/1/1 19/1/1 18/1/1
f 22/1/1 19/1/1 21/1/1
f 23/1/1 19/1/1 22/1/1
f 24/3/1 22/3/1 21/3/1
f 25/2/1 23/2/1 22/2/1
f 25/3/1 22/3/1 24/3/1
f 26/2/1 23/2/1 25/2/1
f 27/1/1 26/1/1 25/1/1
f 28/1/1 26/1/1 27/1/1
f 31/2/1 30/2/1 29/2/1
f 32/2/1 30/2/1 31/2/1
f 34/2/1 33/2/1 32/2/1
f 35/2/1 33/2/1 34/2/1
f 36/1/1 35/1/1 34/1/1
f 37/1/1 35/1/1 36/1/1
f 40/2/1 39/2/1 38/2/1
f 41/2/1 39/2/1 40/2/1
f 44/1/1 41/1/1 40/1/1
f 45/1/1 41/1/1 44/1/1
f 47/4/1 43/4/1 42/4/1
f 48/4/1 43/4/1 47/4/1
f 49/2/1 45/2/1 44/2/1
f 50/1/1 46/1/1 45/1/1
f 50/2/1 45/2/1 49/2/1
f 51/1/1 48/1/1 47/1/1
f 52/2/1 49/2/1 48/2/1
f 52/1/1 48/1/1 51/1/1
f 53/2/1 49/2/1 52/2/1
f 54/1/1 46/1/1 50/1/1
f 55/1/1 46/1/1 54/1/1
f 56/2/2 57/2/2 58/2/2
f 58/2/2 57/2/2 59/2/2
f 59/2/2 60/2/2 61/2/2
f 61/2/2 60/2/2 62/2/2
f 61/1/2 62/1/2 63/1/2
f 63/1/2 62/1/2 64/1/2
f 65/2/2 66/2/2 67/2/2
f 67/2/2 66/2/2 68/2/2
f 67/1/2 68/1/2 71/1/2
f 71/1/2 68/1/2 72/1/2
f 69/4/2 70/4/2 74/4/2
f 74/4/2 70/4/2 75/4/2
f 71/2/2 72/2/2 76/2/2
f 72/1/2 73/1/2 77/1/2
f 76/2/2 72/2/2 77/2/2
f 74/1/2 75/1/2 78/1/2
f 75/2/2 76/2/2 79/2/2
f 78/1/2 75/1/2 79/1/2
f 79/2/2 76/2/2 80/2/2
f 77/1/2 73/1/2 81/1/2
f 81/1/2 73/1/2 82/1/2
f 83/1/2 84/1/2 85/1/2
f 85/1/2 84/1/2 86/1/2
f 85/4/2 86/4/2 88/4/2
f 86/1/2 87/1/2 89/1/2
f 88/4/2 86/4/2 89/4/2
f 89/1/2 87/1/2 90/1/2
f 88/3/2 89/3/2 91/3/2
f 89/2/2 90/2/2 92/2/2
f 91/3/2 89/3/2 92/3/2
f 92/2/2 90/2/2 93/2/2
f 92/3/2 93/3/2 95/3/2
f 91/4/2 92/4/2 95/4/2
f 93/1/2 94/1/2 96/1/2
f 95/3/2 93/3/2 96/3/2
f 91/4/2 95/4/2 97/4/2
f 95/4/2 96/4/2 97/4/2
f 96/1/2 94/1/2 98/1/2
f 97/4/2 96/4/2 98/4/2
f 91/4/2 97/4/2 99/4/2
f 97/2/2 98/2/2 100/2/2
f 99/4/2 97/4/2 100/4/2
f 99/3/2 100/3/2 101/3/2
f 100/2/2 98/2/2 102/2/2
f 101/3/2 100/3/2 102/3/2
f 98/1/2 94/1/2 103/1/2
f 102/2/2 98/2/2 103/2/2
f 103/1/2 94/1/2 104/1/2
f 101/1/2 102/1/2 105/1/2
f 102/1/2 103/1/2 105/1/2
f 105/1/2 103/1/2 106/1/2
f 106/1/2 103/1/2 107/1/2
f 105/3/2 106/3/2 108/3/2
f 106/2/2 107/2/2 109/2/2
f 108/3/2 106/3/2 109/3/2
f 109/2/2 107/2/2 110/2/2
f 109/1/2 110/1/2 111/1/2
f 111/1/2 110/1/2 112/1/2
f 120/1/3 114/1/3 113/1/3
f 121/4/3 115/4/3 114/4/3
f 121/1/3 114/1/3 120/1/3
f 122/3/3 116/3/3 115/3/3
f 122/4/3 115/4/3 121/4/3
f 123/4/3 117/4/3 116/4/3
f 123/3/3 116/3/3 122/3/3
f 124/1/3 118/1/3 117/1/3
f 124/4/3 117/4/3 123/4/3
f 125/3/3 119/3/3 118/3/3
f 125/1/3 118/1/3 124/1/3
f 126/3/3 119/3/3 125/3/3
f 129/3/3 124/3/3 123/3/3
f 129/3/3 121/3/3 120/3/3
f 129/3/3 122/3/3 121/3/3
f 129/3/3 126/3/3 125/3/3
f 129/3/3 125/3/3 124/3/3
f 129/3/3 123/3/3 122/3/3
f 130/3/3 126/3/3 129/3/3
f 131/3/3 126/3/3 130/3/3
f 132/3/3 126/3/3 131/3/3
f 133/3/3 126/3/3 132/3/3
f 134/3/3 126/3/3 133/3/3
f 135/3/3 126/3/3 134/3/3
f 136/4/3 127/4/3 126/4/3
f 136/3/3 126/3/3 135/3/3
f 137/1/3 128/1/3 127/1/3
f 137/4/3 127/4/3 136/4/3
f 138/1/3 128/1/3 137/1/3
f 139/1/3 130/1/3 129/1/3
f 140/4/3 131/4/3 130/4/3
f 140/1/3 130/1/3 139/1/3
f 141/3/3 132/3/3 131/3/3
f 141/4/3 131/4/3 140/4/3
f 142/4/3 133/4/3 132/4/3
f 142/3/3 132/3/3 141/3/3
f 143/3/3 134/3/3 133/3/3
f 143/4/3 133/4/3 142/4/3
f 144/1/3 135/1/3 134/1/3
f 144/3/3 134/3/3 143/3/3
f 145/3/3 136/3/3 135/3/3
f 145/1/3 135/1/3 144/1/3
f 146/3/3 136/3/3 145/3/3
f 149/1/3 148/1/3 147/1/3
f 150/1/3 148/1/3 149/1/3
f 153/1/3 152/1/3 151/1/3
f 154/1/3 152/1/3 153/1/3
f 157/1/3 156/1/3 155/1/3
f 158/1/3 156/1/3 157/1/3
f 159/1/4 160/1/4 161/1/4
f 161/1/4 160/1/4 162/1/4
f 163/1/4 164/1/4 165/1/4
f 165/1/4 164/1/4 166/1/4
f 167/1/4 168/1/4 175/1/4
f 168/2/4 169/2/4 176/2/4
f 175/1/4 168/1/4 176/1/4
f 176/2/4 169/2/4 177/2/4
f 170/1/4 171/1/4 178/1/4
f 171/2/4 172/2/4 179/2/4
f 178/1/4 171/1/4 179/1/4
f 172/1/4 173/1/4 180/1/4
f 179/2/4 172/2/4 180/2/4
f 180/1/4 173/1/4 181/1/4
f 174/2/4 175/2/4 183/2/4
f 183/2/4 175/2/4 184/2/4
f 181/2/4 182/2/4 190/2/4
f 190/2/4 182/2/4 191/2/4
f 184/1/4 185/1/4 192/1/4
f 185/2/4 186/2/4 193/2/4
f 192/1/4 185/1/4 193/1/4
f 193/2/4 186/2/4 194/2/4
f 187/1/4 188/1/4 195/1/4
f 188/2/4 189/2/4 196/2/4
f 195/1/4 188/1/4 196/1/4
f 189/1/4 190/1/4 197/1/4
f 196/2/4 189/2/4 197/2/4
f 197/1/4 190/1/4 198/1/4
f 199/1/4 200/1/4 203/1/4
f 203/1/4 200/1/4 204/1/4
f 201/2/4 202/2/4 207/2/4
f 202/1/4 203/1/4 208/1/4
f 207/2/4 202/2/4 208/2/4
f 203/2/4 204/2/4 209/2/4
f 208/1/4 203/1/4 209/1/4
f 204/2/4 205/2/4 209/2/4
f 209/2/4 205/2/4 210/2/4
f 205/1/4 206/1/4 211/1/4
f 210/2/4 205/2/4 211/2/4
f 211/1/4 206/1/4 212/1/4
f 209/1/4 210/1/4 213/1/4
f 213/1/4 210/1/4 214/1/4
f 215/1/4 216/1/4 217/1/4
f 217/1/4 216/1/4 218/1/4
f 223/1/5 220/1/5 219/1/5
f 224/3/5 221/3/5 220/3/5
f 224/1/5 220/1/5 223/1/5
f 225/1/5 222/1/5 221/1/5
f 225/3/5 221/3/5 224/3/5
f 226/1/5 222/1/5 225/1/5
f 227/2/5 225/2/5 224/2/5
f 228/2/5 225/2/5 227/2/5
f 233/1/5 230/1/5 229/1/5
f 234/1/5 230/1/5 233/1/5
f 235/1/5 232/1/5 231/1/5
f 236/1/5 232/1/5 235/1/5
f 237/2/5 235/2/5 234/2/5
f 238/2/5 235/2/5 237/2/5
f 243/1/5 240/1/5 239/1/5
f 244/1/5 240/1/5 243/1/5
f 245/1/5 242/1/5 241/1/5
f 246/1/5 242/1/5 245/1/5
f 249/1/5 248/1/5 247/1/5
f 250/1/5 248/1/5 249/1/5
f 251/1/6 252/1/6 255/1/6
f 255/1/6 252/1/6 256/1/6
f 253/1/6 254/1/6 257/1/6
f 257/1/6 254/1/6 258/1/6
f 259/3/6 260/3/6 263/3/6
f 263/3/6 260/3/6 264/3/6
f 261/3/6 262/3/6 265/3/6
f 265/3/6 262/3/6 266/3/6
f 267/1/6 268/1/6 271/1/6
f 271/1/6 268/1/6 272/1/6
f 269/1/6 270/1/6 273/1/6
f 273/1/6 270/1/6 274/1/6
f 272/2/6 273/2/6 275/2/6
f 275/2/6 273/2/6 276/2/6
f 277/1/6 278/1/6 279/1/6
f 279/1/6 278/1/6 280/1/6
f 279/2/6 280/2/6 281/2/6
f 281/2/6 280/2/6 282/2/6
f 283/1/6 284/1/6 285/1/6
f 285/1/6 284/1/6 286/1/6
