# MagicaVoxel @ Ephtracy

# group
o 

# material
mtllib SnakeHead.mtl
usemtl palette

# normals
vn -1 0 0
vn 1 0 0
vn 0 0 1
vn 0 0 -1
vn 0 -1 0
vn 0 1 0

# texcoords
vt 0.0449219 0.5
vt 0.876953 0.5
vt 0.892578 0.5
vt 0.900391 0.5
vt 0.974609 0.5

# verts
v -1 -0.2 0.1
v -1 -0.2 -0.2
v -1 -0.1 0.1
v -1 -0.1 -0.2
v -1 0 0.1
v -1 0 -0.2
v -0.5 0 0.1
v -0.5 0 -0.2
v -0.5 0.1 0.1
v -0.5 0.1 -0.2
v 0 0.1 0.1
v 0 0.1 -0.2
v 0 0.2 0.1
v 0 0.2 -0.2
v 0.1 -0.1 0.2
v 0.1 -0.1 0.1
v 0.1 -0.1 -0.2
v 0.1 -0.1 -0.3
v 0.1 0 0.2
v 0.1 0 0.1
v 0.1 0 -0.2
v 0.1 0 -0.3
v 0.2 0 0.2
v 0.2 0 0.1
v 0.2 0 -0.2
v 0.2 0 -0.3
v 0.2 0.1 0.2
v 0.2 0.1 0.1
v 0.2 0.1 -0.2
v 0.2 0.1 -0.3
v 0.5 0.2 0.1
v 0.5 0.2 -0.2
v 0.5 0.3 0.1
v 0.5 0.3 -0.2
v 0.6 0.1 0.2
v 0.6 0.1 0.1
v 0.6 0.1 -0.2
v 0.6 0.1 -0.3
v 0.6 0.2 0.2
v 0.6 0.2 0.1
v 0.6 0.2 -0.2
v 0.6 0.2 -0.3
v 0.8 -0.2 0.1
v 0.8 -0.2 0
v 0.8 -0.2 -0.1
v 0.8 -0.2 -0.2
v 0.8 -0.1 0.2
v 0.8 -0.1 0.1
v 0.8 -0.1 0
v 0.8 -0.1 -0.1
v 0.8 -0.1 -0.2
v 0.8 -0.1 -0.3
v 0.8 0 0.2
v 0.8 0 0.1
v 0.8 0 -0.2
v 0.8 0 -0.3
v 0.8 0.2 0.2
v 0.8 0.2 0.1
v 0.8 0.2 -0.2
v 0.8 0.2 -0.3
v 0.8 0.3 0.1
v 0.8 0.3 -0.2
v 1 -0.1 0.1
v 1 -0.1 -0.2
v 1 0 0.1
v 1 0 -0.2
v 1 0.2 0.1
v 1 0.2 -0.2
v 0.1 -0.1 0.2
v 0.1 0 0.2
v 0.2 0 0.2
v 0.2 0.1 0.2
v 0.6 0.1 0.2
v 0.6 0.2 0.2
v 0.8 -0.1 0.2
v 0.8 0 0.2
v 0.8 0.2 0.2
v -1 -0.2 0.1
v -1 -0.1 0.1
v -1 0 0.1
v -0.8 -0.1 0.1
v -0.8 0 0.1
v -0.7 -0.2 0.1
v -0.7 -0.1 0.1
v -0.5 -0.1 0.1
v -0.5 0 0.1
v -0.5 0.1 0.1
v -0.3 -0.1 0.1
v -0.3 0 0.1
v 0 0.1 0.1
v 0 0.2 0.1
v 0.1 -0.1 0.1
v 0.1 0 0.1
v 0.2 0 0.1
v 0.2 0.1 0.1
v 0.5 0.2 0.1
v 0.5 0.3 0.1
v 0.6 0.1 0.1
v 0.6 0.2 0.1
v 0.8 -0.2 0.1
v 0.8 -0.1 0.1
v 0.8 0 0.1
v 0.8 0.2 0.1
v 0.8 0.3 0.1
v 1 -0.1 0.1
v 1 0 0.1
v 1 0.2 0.1
v -1 -0.2 -0.2
v -1 -0.1 -0.2
v -1 0 -0.2
v -0.8 -0.1 -0.2
v -0.8 0 -0.2
v -0.7 -0.2 -0.2
v -0.7 -0.1 -0.2
v -0.5 -0.1 -0.2
v -0.5 0 -0.2
v -0.5 0.1 -0.2
v -0.3 -0.1 -0.2
v -0.3 0 -0.2
v 0 0.1 -0.2
v 0 0.2 -0.2
v 0.1 -0.1 -0.2
v 0.1 0 -0.2
v 0.2 0 -0.2
v 0.2 0.1 -0.2
v 0.5 0.2 -0.2
v 0.5 0.3 -0.2
v 0.6 0.1 -0.2
v 0.6 0.2 -0.2
v 0.8 -0.2 -0.2
v 0.8 -0.1 -0.2
v 0.8 0 -0.2
v 0.8 0.2 -0.2
v 0.8 0.3 -0.2
v 1 -0.1 -0.2
v 1 0 -0.2
v 1 0.2 -0.2
v 0.1 -0.1 -0.3
v 0.1 0 -0.3
v 0.2 0 -0.3
v 0.2 0.1 -0.3
v 0.6 0.1 -0.3
v 0.6 0.2 -0.3
v 0.8 -0.1 -0.3
v 0.8 0 -0.3
v 0.8 0.2 -0.3
v -1 -0.2 0.1
v -0.7 -0.2 0.1
v 0.8 -0.2 0.1
v -0.9 -0.2 0
v -0.7 -0.2 0
v 0.8 -0.2 0
v -0.9 -0.2 -0.1
v -0.7 -0.2 -0.1
v 0.8 -0.2 -0.1
v -1 -0.2 -0.2
v -0.7 -0.2 -0.2
v 0.8 -0.2 -0.2
v 0.1 -0.1 0.2
v 0.8 -0.1 0.2
v 0.1 -0.1 0.1
v 0.8 -0.1 0.1
v 1 -0.1 0.1
v 0.8 -0.1 0
v 0.8 -0.1 -0.1
v 0.1 -0.1 -0.2
v 0.8 -0.1 -0.2
v 1 -0.1 -0.2
v 0.1 -0.1 -0.3
v 0.8 -0.1 -0.3
v 0.1 0 0.2
v 0.2 0 0.2
v -1 0 0.1
v -0.8 0 0.1
v -0.5 0 0.1
v 0.1 0 0.1
v 0.2 0 0.1
v -1 0 -0.2
v -0.8 0 -0.2
v -0.5 0 -0.2
v 0.1 0 -0.2
v 0.2 0 -0.2
v 0.1 0 -0.3
v 0.2 0 -0.3
v 0.2 0.1 0.2
v 0.6 0.1 0.2
v -0.5 0.1 0.1
v 0 0.1 0.1
v 0.2 0.1 0.1
v 0.6 0.1 0.1
v -0.5 0.1 -0.2
v 0 0.1 -0.2
v 0.2 0.1 -0.2
v 0.6 0.1 -0.2
v 0.2 0.1 -0.3
v 0.6 0.1 -0.3
v 0.6 0.2 0.2
v 0.8 0.2 0.2
v 0 0.2 0.1
v 0.5 0.2 0.1
v 0.6 0.2 0.1
v 0.8 0.2 0.1
v 1 0.2 0.1
v 0 0.2 -0.2
v 0.5 0.2 -0.2
v 0.6 0.2 -0.2
v 0.8 0.2 -0.2
v 1 0.2 -0.2
v 0.6 0.2 -0.3
v 0.8 0.2 -0.3
v 0.5 0.3 0.1
v 0.8 0.3 0.1
v 0.5 0.3 -0.2
v 0.8 0.3 -0.2

# faces
f 3/5/1 2/5/1 1/5/1
f 4/5/1 2/5/1 3/5/1
f 5/4/1 4/4/1 3/4/1
f 6/4/1 4/4/1 5/4/1
f 9/4/1 8/4/1 7/4/1
f 10/4/1 8/4/1 9/4/1
f 13/4/1 12/4/1 11/4/1
f 14/4/1 12/4/1 13/4/1
f 19/5/1 16/5/1 15/5/1
f 20/5/1 16/5/1 19/5/1
f 21/5/1 18/5/1 17/5/1
f 22/5/1 18/5/1 21/5/1
f 27/4/1 24/4/1 23/4/1
f 28/4/1 24/4/1 27/4/1
f 29/4/1 26/4/1 25/4/1
f 30/4/1 26/4/1 29/4/1
f 33/4/1 32/4/1 31/4/1
f 34/4/1 32/4/1 33/4/1
f 39/4/1 36/4/1 35/4/1
f 40/4/1 36/4/1 39/4/1
f 41/4/1 38/4/1 37/4/1
f 42/4/1 38/4/1 41/4/1
f 43/3/2 44/3/2 48/3/2
f 44/1/2 45/1/2 49/1/2
f 48/3/2 44/3/2 49/3/2
f 45/3/2 46/3/2 50/3/2
f 49/1/2 45/1/2 50/1/2
f 50/3/2 46/3/2 51/3/2
f 47/5/2 48/5/2 53/5/2
f 53/5/2 48/5/2 54/5/2
f 51/5/2 52/5/2 55/5/2
f 55/5/2 52/5/2 56/5/2
f 53/4/2 54/4/2 57/4/2
f 57/4/2 54/4/2 58/4/2
f 55/4/2 56/4/2 59/4/2
f 59/4/2 56/4/2 60/4/2
f 58/4/2 59/4/2 61/4/2
f 61/4/2 59/4/2 62/4/2
f 63/5/2 64/5/2 65/5/2
f 65/5/2 64/5/2 66/5/2
f 65/4/2 66/4/2 67/4/2
f 67/4/2 66/4/2 68/4/2
f 71/5/3 70/5/3 69/5/3
f 73/4/3 72/4/3 71/4/3
f 75/5/3 71/5/3 69/5/3
f 76/4/3 74/4/3 73/4/3
f 76/5/3 71/5/3 75/5/3
f 76/4/3 73/4/3 71/4/3
f 77/4/3 74/4/3 76/4/3
f 81/5/3 79/5/3 78/5/3
f 81/4/3 80/4/3 79/4/3
f 82/4/3 80/4/3 81/4/3
f 83/5/3 81/5/3 78/5/3
f 83/5/3 82/5/3 81/5/3
f 84/5/3 82/5/3 83/5/3
f 85/3/3 84/3/3 83/3/3
f 85/5/3 82/5/3 84/5/3
f 86/5/3 82/5/3 85/5/3
f 88/2/3 86/2/3 85/2/3
f 88/3/3 85/3/3 83/3/3
f 89/4/3 87/4/3 86/4/3
f 89/2/3 86/2/3 88/2/3
f 90/4/3 87/4/3 89/4/3
f 92/3/3 88/3/3 83/3/3
f 92/5/3 89/5/3 88/5/3
f 93/4/3 91/4/3 90/4/3
f 93/5/3 89/5/3 92/5/3
f 93/4/3 90/4/3 89/4/3
f 94/4/3 91/4/3 93/4/3
f 95/4/3 91/4/3 94/4/3
f 96/4/3 91/4/3 95/4/3
f 98/4/3 96/4/3 95/4/3
f 98/4/3 97/4/3 96/4/3
f 99/4/3 97/4/3 98/4/3
f 100/3/3 92/3/3 83/3/3
f 101/3/3 92/3/3 100/3/3
f 103/4/3 97/4/3 99/4/3
f 104/4/3 97/4/3 103/4/3
f 105/5/3 102/5/3 101/5/3
f 106/4/3 103/4/3 102/4/3
f 106/5/3 102/5/3 105/5/3
f 107/4/3 103/4/3 106/4/3
f 108/5/4 109/5/4 111/5/4
f 109/4/4 110/4/4 111/4/4
f 111/4/4 110/4/4 112/4/4
f 108/5/4 111/5/4 113/5/4
f 111/5/4 112/5/4 113/5/4
f 113/5/4 112/5/4 114/5/4
f 113/3/4 114/3/4 115/3/4
f 114/5/4 112/5/4 115/5/4
f 115/5/4 112/5/4 116/5/4
f 115/2/4 116/2/4 118/2/4
f 113/3/4 115/3/4 118/3/4
f 116/4/4 117/4/4 119/4/4
f 118/2/4 116/2/4 119/2/4
f 119/4/4 117/4/4 120/4/4
f 113/3/4 118/3/4 122/3/4
f 118/5/4 119/5/4 122/5/4
f 120/4/4 121/4/4 123/4/4
f 122/5/4 119/5/4 123/5/4
f 119/4/4 120/4/4 123/4/4
f 123/4/4 121/4/4 124/4/4
f 124/4/4 121/4/4 125/4/4
f 125/4/4 121/4/4 126/4/4
f 125/4/4 126/4/4 128/4/4
f 126/4/4 127/4/4 128/4/4
f 128/4/4 127/4/4 129/4/4
f 113/3/4 122/3/4 130/3/4
f 130/3/4 122/3/4 131/3/4
f 129/4/4 127/4/4 133/4/4
f 133/4/4 127/4/4 134/4/4
f 131/5/4 132/5/4 135/5/4
f 132/4/4 133/4/4 136/4/4
f 135/5/4 132/5/4 136/5/4
f 136/4/4 133/4/4 137/4/4
f 138/5/4 139/5/4 140/5/4
f 140/4/4 141/4/4 142/4/4
f 138/5/4 140/5/4 144/5/4
f 142/4/4 143/4/4 145/4/4
f 144/5/4 140/5/4 145/5/4
f 140/4/4 142/4/4 145/4/4
f 145/4/4 143/4/4 146/4/4
f 150/5/5 148/5/5 147/5/5
f 151/3/5 149/3/5 148/3/5
f 151/5/5 148/5/5 150/5/5
f 152/3/5 149/3/5 151/3/5
f 153/5/5 150/5/5 147/5/5
f 153/3/5 151/3/5 150/3/5
f 154/1/5 152/1/5 151/1/5
f 154/3/5 151/3/5 153/3/5
f 155/1/5 152/1/5 154/1/5
f 156/5/5 153/5/5 147/5/5
f 156/5/5 154/5/5 153/5/5
f 157/3/5 155/3/5 154/3/5
f 157/5/5 154/5/5 156/5/5
f 158/3/5 155/3/5 157/3/5
f 161/5/5 160/5/5 159/5/5
f 162/5/5 160/5/5 161/5/5
f 164/5/5 163/5/5 162/5/5
f 165/5/5 163/5/5 164/5/5
f 167/5/5 163/5/5 165/5/5
f 168/5/5 163/5/5 167/5/5
f 169/5/5 167/5/5 166/5/5
f 170/5/5 167/5/5 169/5/5
f 171/5/6 172/5/6 176/5/6
f 176/5/6 172/5/6 177/5/6
f 173/4/6 174/4/6 178/4/6
f 174/5/6 175/5/6 179/5/6
f 178/4/6 174/4/6 179/4/6
f 179/5/6 175/5/6 180/5/6
f 181/5/6 182/5/6 183/5/6
f 183/5/6 182/5/6 184/5/6
f 185/4/6 186/4/6 189/4/6
f 189/4/6 186/4/6 190/4/6
f 187/4/6 188/4/6 191/4/6
f 191/4/6 188/4/6 192/4/6
f 193/4/6 194/4/6 195/4/6
f 195/4/6 194/4/6 196/4/6
f 197/4/6 198/4/6 201/4/6
f 201/4/6 198/4/6 202/4/6
f 199/4/6 200/4/6 204/4/6
f 204/4/6 200/4/6 205/4/6
f 202/4/6 203/4/6 207/4/6
f 207/4/6 203/4/6 208/4/6
f 206/4/6 207/4/6 209/4/6
f 209/4/6 207/4/6 210/4/6
f 211/4/6 212/4/6 213/4/6
f 213/4/6 212/4/6 214/4/6
