# Blender 4.2.2 LTS
# www.blender.org
mtllib KnightLeg1.mtl
o Cylinder.003
v -0.000000 -1.159301 -0.450000
v -0.000000 1.159301 -0.450000
v 0.389711 -1.159301 -0.225000
v 0.389711 1.159301 -0.225000
v 0.389711 -1.159301 0.225000
v 0.389711 1.159301 0.225000
v -0.000000 -1.159301 0.450000
v -0.000000 1.159301 0.450000
v -0.389712 -1.159301 0.225000
v -0.389712 1.159301 0.225000
v -0.389712 -1.159301 -0.225000
v -0.389712 1.159301 -0.225000
v -0.000000 0.628789 -0.526513
v 0.455973 0.628789 -0.263256
v 0.455973 0.628789 0.263256
v -0.000000 0.628789 0.526513
v -0.455973 0.628789 0.263256
v -0.455973 0.628789 -0.263256
vn 0.4961 0.1239 -0.8593
vn 0.9923 0.1239 -0.0000
vn 0.4961 0.1239 0.8593
vn -0.4961 0.1239 0.8593
vn -0.0000 1.0000 -0.0000
vn -0.9923 0.1239 -0.0000
vn -0.4961 0.1239 -0.8593
vn -0.0000 -1.0000 -0.0000
vn -0.4997 -0.0370 -0.8654
vn -0.9993 -0.0370 -0.0000
vn -0.4997 -0.0370 0.8654
vn 0.4997 -0.0370 0.8654
vn 0.9993 -0.0370 -0.0000
vn 0.4997 -0.0370 -0.8654
vt 0.018241 0.972146
vt 0.018718 0.970151
vt 0.022999 0.970391
vt 0.023250 0.972427
vt 0.025162 0.970111
vt 0.025780 0.972099
vt 0.025667 0.980921
vt 0.026032 0.978902
vt 0.030319 0.978902
vt 0.030684 0.980921
vt 0.011267 0.980144
vt 0.009316 0.979415
vt 0.009717 0.977271
vt 0.011735 0.977636
vt 0.021954 0.987477
vt 0.018241 0.985334
vt 0.018241 0.981046
vt 0.021954 0.978902
vt 0.025667 0.981046
vt 0.025667 0.985334
vt 0.009717 0.972984
vt 0.011735 0.972619
vt 0.009316 0.970840
vt 0.011267 0.970111
vt 0.009316 0.986575
vt 0.009316 0.982288
vt 0.013029 0.980144
vt 0.016742 0.982288
vt 0.016742 0.986575
vt 0.013029 0.988719
vt 0.018241 0.972984
vt 0.017841 0.970840
vt 0.018241 0.977271
vt 0.017841 0.979415
vt 0.026032 0.987427
vt 0.030319 0.987427
vt 0.022522 0.978902
vt 0.024685 0.978623
vt 0.018241 0.978663
s 0
usemtl Material
f 13/1/1 2/2/1 4/3/1 14/4/1
f 14/4/2 4/3/2 6/5/2 15/6/2
f 15/7/3 6/8/3 8/9/3 16/10/3
f 16/11/4 8/12/4 10/13/4 17/14/4
f 4/15/5 2/16/5 12/17/5 10/18/5 8/19/5 6/20/5
f 17/14/6 10/13/6 12/21/6 18/22/6
f 18/22/7 12/21/7 2/23/7 13/24/7
f 1/25/8 3/26/8 5/27/8 7/28/8 9/29/8 11/30/8
f 11/31/9 18/22/9 13/24/9 1/32/9
f 9/33/10 17/14/10 18/22/10 11/31/10
f 7/34/11 16/11/11 17/14/11 9/33/11
f 5/35/12 15/7/12 16/10/12 7/36/12
f 3/37/13 14/4/13 15/6/13 5/38/13
f 1/39/14 13/1/14 14/4/14 3/37/14
