# Blender 4.2.3 LTS
# www.blender.org
mtllib KnightHandLoot.mtl
o Cylinder.007
v -0.584596 -0.097107 -0.524117
v 0.541989 -0.318340 0.157009
v -0.096392 -0.207032 0.564147
v 0.508287 -0.256378 0.259061
v 0.601284 0.055878 -0.463648
v 0.502864 -0.132451 0.257427
v 0.045039 -0.207091 0.502019
v 0.531142 -0.070488 0.153741
v -0.585522 -0.230089 -0.447338
v 0.564844 -0.132451 0.051690
v 0.570267 -0.256377 0.053323
v 0.128612 -0.077189 0.500100
v 0.439649 -0.307506 0.126179
v 0.601284 0.055878 -0.277471
v 0.070755 0.052773 0.560309
v 0.449706 -0.249301 0.255776
v -0.585522 -0.230089 -0.293780
v 0.445128 -0.144701 0.254397
v -0.070677 0.052832 0.622437
v 0.430175 -0.091027 0.123324
v -0.154250 -0.077070 0.624356
v 0.486947 -0.137159 0.026289
v 0.600162 -0.105351 -0.184383
v 0.491272 -0.260148 0.029526
v -0.584596 -0.097107 -0.217002
v 0.323488 -0.272590 0.091184
v 0.288574 -0.240091 0.201931
v -0.171792 -0.196846 0.430493
v 0.285478 -0.169364 0.200998
v -0.002375 -0.196917 0.356071
v 0.599040 -0.266581 -0.277471
v 0.317548 -0.136864 0.089395
v 0.382228 -0.170664 -0.005597
v -0.583671 0.035875 -0.293780
v 0.097735 -0.041310 0.353773
v 0.384064 -0.236768 -0.003110
v 0.520916 -0.197938 0.013152
v 0.028428 0.114367 0.425896
v 0.599040 -0.266581 -0.463648
v 0.201365 -0.264191 0.054394
v 0.166643 -0.236088 0.165198
v -0.583671 0.035875 -0.447338
v -0.140989 0.114438 0.500318
v 0.164406 -0.184966 0.164525
v 0.196668 -0.156863 0.052979
v 0.600162 -0.105351 -0.556736
v 0.229103 -0.189877 -0.049454
v -0.241099 -0.041168 0.502616
v -0.265512 -0.099327 -0.576116
v 0.230910 -0.231177 -0.048910
v -0.202990 -0.045675 0.505893
v 0.162567 -0.210527 0.174679
v 0.232389 -0.210527 -0.057089
v -0.266751 -0.277340 -0.473337
v -0.121044 0.081698 0.504012
v 0.103759 -0.215074 0.024990
v -0.266751 -0.277340 -0.267781
v 0.159162 -0.213563 -0.044296
v 0.110419 -0.213563 0.117503
v 0.017633 0.081640 0.443093
v 0.462346 -0.166835 0.018878
v -0.265512 -0.099327 -0.165003
v 0.464182 -0.232939 0.021365
v 0.074364 -0.045790 0.384056
v -0.007582 -0.173163 0.385938
v 0.367849 -0.222141 -0.063558
v 0.366990 -0.191216 -0.064721
v -0.264274 0.078686 -0.473337
v 0.451229 -0.219971 -0.037399
v -0.146258 -0.173105 0.446856
v 0.450269 -0.185405 -0.038700
v -0.240712 -0.099500 -0.608629
v 0.334383 -0.179409 -0.046941
v -0.215401 -0.170256 0.331194
v -0.242147 -0.305669 -0.489594
v 0.335922 -0.234806 -0.044857
v 0.249017 -0.220564 -0.092129
v -0.045984 -0.170328 0.256773
v -0.242147 -0.305669 -0.251525
v 0.248546 -0.203589 -0.092768
v 0.054126 -0.014721 0.254474
v 0.246187 -0.224929 -0.077870
v -0.240712 -0.099500 -0.132490
v 0.245447 -0.198297 -0.078872
v 0.244717 -0.212270 -0.093629
v -0.015181 0.140956 0.326598
v -0.184598 0.141028 0.401020
v 0.243919 -0.222922 -0.086069
v 0.243313 -0.201118 -0.086889
v -0.239278 0.106669 -0.489594
v 0.242161 -0.211787 -0.079432
v -0.284708 -0.014579 0.403318
v 0.408825 -0.104020 -0.608629
v 0.232979 -0.212526 -0.089567
v -0.203813 -0.134789 0.312376
v 0.407390 -0.310189 -0.489594
v -0.067657 -0.134846 0.252566
v 0.407390 -0.310189 -0.251525
v 0.012799 -0.009789 0.250719
v 0.408825 -0.104020 -0.132490
v -0.042901 0.115325 0.308683
v -0.179057 0.115382 0.368493
v 0.410260 0.102149 -0.251525
v -0.259514 -0.009675 0.370340
v 0.410260 0.102149 -0.489594
v 0.432745 -0.104186 -0.578324
v -0.272077 -0.093168 0.156940
v 0.431493 -0.284112 -0.474442
v -0.135920 -0.093224 0.097129
v 0.431493 -0.284112 -0.266677
v -0.055464 0.031833 0.095282
v 0.432745 -0.104186 -0.162794
v -0.111164 0.156947 0.153245
v -0.247321 0.157004 0.213057
v 0.433997 0.075739 -0.266677
v 0.433997 0.075739 -0.474442
v -0.327777 0.031947 0.214904
v 0.003635 0.118600 -0.243661
v -0.296585 -0.111437 0.136433
v 0.002106 -0.101190 -0.116762
v -0.134456 -0.111505 0.065213
v 0.000576 -0.320979 -0.243661
v -0.038652 0.037407 0.063014
v 0.000576 -0.320979 -0.497458
v -0.104978 0.186387 0.132034
v -0.267106 0.186456 0.203255
v 0.003635 0.118600 -0.497458
v 0.002106 -0.101190 -0.624356
v -0.362910 0.037543 0.205454
v -0.356287 -0.099666 0.026666
v -0.174897 -0.099742 -0.053016
v -0.067712 0.066862 -0.055476
v -0.141918 0.233541 0.021744
v -0.323307 0.233617 0.101425
v -0.430492 0.067013 0.103886
v -0.228987 0.144152 -0.328895
v -0.289064 0.279097 -0.266376
v -0.435919 0.279159 -0.201865
v -0.522697 0.144275 -0.199873
v -0.259450 0.150714 -0.344708
v -0.311462 0.267543 -0.290583
v -0.438601 0.267596 -0.234733
v -0.513730 0.150820 -0.233008
v -0.549272 0.087375 -0.486495
v -0.422132 0.087321 -0.542345
v -0.347004 0.204097 -0.544069
v -0.399016 0.320926 -0.489944
v -0.526155 0.320979 -0.434094
v -0.601284 0.204203 -0.432370
v -0.239278 0.106669 -0.310503
v -0.264274 0.078686 -0.319113
v -0.271749 0.077684 -0.327913
v -0.470811 0.051002 -0.284593
v -0.309708 0.072596 -0.343555
v -0.486228 0.048936 -0.342943
v -0.382072 0.062896 -0.451128
v -0.265094 -0.039255 -0.199687
v -0.467250 0.046419 -0.281376
v -0.460989 0.007658 -0.257959
v -0.463903 0.012212 -0.261057
v -0.240413 -0.056539 -0.157294
v -0.190798 0.109050 -0.249955
v -0.227345 -0.059156 -0.154989
vn 0.1144 0.4961 -0.8607
vn -1.0000 0.0070 -0.0000
vn -0.7458 0.6662 -0.0000
vn -0.1363 0.4961 -0.8575
vn -0.1328 0.9911 -0.0000
vn -0.1363 0.4961 0.8575
vn -0.1432 -0.4941 0.8575
vn -0.1466 -0.9892 -0.0000
vn -0.1432 -0.4941 -0.8575
vn -0.7527 -0.3253 0.5724
vn -0.7527 -0.3253 -0.5724
vn -0.7481 0.3357 -0.5724
vn -0.7481 0.3357 0.5724
vn -0.7550 -0.6557 -0.0000
vn 0.0369 0.4995 0.8655
vn 0.0265 -0.9996 -0.0000
vn 0.0404 0.9992 -0.0000
vn 0.0300 -0.4999 0.8655
vn 0.0300 -0.4999 -0.8655
vn 0.0369 0.4995 -0.8655
vn 0.7437 0.6685 -0.0000
vn 0.7367 -0.3420 0.5834
vn 0.7367 -0.3420 -0.5834
vn 0.7414 0.3317 -0.5834
vn 0.7414 0.3317 0.5834
vn 0.7344 -0.6788 -0.0000
vn 0.1144 0.4961 0.8607
vn 0.1041 -0.9946 -0.0000
vn 0.1179 0.9930 -0.0000
vn 0.1075 -0.4977 0.8607
vn 0.1075 -0.4977 -0.8607
vn 1.0000 -0.0070 -0.0000
vn -0.0525 0.4996 -0.8647
vn -0.0595 -0.4988 -0.8647
vn -0.0595 -0.4988 0.8647
vn -0.0491 0.9988 -0.0000
vn -0.0630 -0.9980 -0.0000
vn -0.0525 0.4996 0.8647
vn -0.3905 0.2381 -0.8893
vn -0.0779 0.0648 0.9949
vn 0.7854 0.0644 0.6156
vn -0.1302 -0.4639 0.8763
vn 0.2753 -0.7285 0.6273
vn 0.3799 0.3290 0.8645
vn -0.8485 -0.4805 0.2218
vn 0.3905 -0.2381 0.8893
vn 0.7370 -0.4812 -0.4747
vn 0.8331 0.4899 -0.2569
vn 0.0884 0.9758 0.2003
vn -0.7524 0.4906 0.4396
vn -0.1038 -0.9663 -0.2354
vn 0.7331 -0.4643 0.4970
vn -0.7448 0.4859 0.4572
vn 0.8410 0.4853 -0.2394
vn -0.8410 -0.4853 0.2394
vn -0.0961 -0.9712 -0.2179
vn 0.0961 0.9712 0.2179
vn 0.7448 -0.4859 -0.4572
vn -0.7352 0.4657 -0.4925
vn 0.1350 0.4654 -0.8748
vn -0.7880 -0.0673 -0.6120
vn -0.3792 -0.3340 -0.8629
vn -0.2737 0.7321 -0.6238
vn 0.0823 -0.0676 -0.9943
vn -0.8409 -0.4853 0.2394
vn -0.2319 0.1634 0.9589
vn 0.8632 0.1629 0.4779
vn -0.2983 -0.5073 0.8085
vn 0.2161 -0.8429 0.4927
vn 0.3488 0.4985 0.7936
vn 0.7968 -0.5078 0.3274
vn -0.0382 -0.9956 -0.0860
vn 0.1520 0.9262 0.3451
vn 0.7938 -0.5155 -0.3228
vn -0.6800 0.4461 0.5819
vn 0.8889 0.4454 -0.1073
vn -0.7751 -0.5148 0.3664
vn -0.7802 0.5074 0.3659
vn 0.7976 0.5067 -0.3272
vn -0.8758 -0.4590 0.1491
vn -0.1347 -0.9425 -0.3058
vn 0.0565 0.9902 0.1277
vn 0.7020 -0.4597 -0.5440
vn -0.1395 0.9376 -0.3185
vn 0.3975 -0.2687 -0.8774
vn -0.8357 0.5359 -0.1203
vn 0.4771 0.5353 -0.6970
vn -0.9153 -0.2682 -0.3007
vn 0.9565 0.0457 0.2882
vn -0.0976 -0.8902 -0.4451
vn -0.1904 -0.8792 0.4367
vn 0.0996 -0.8896 -0.4457
vn 0.0219 0.8827 -0.4693
vn -0.0547 0.0108 0.9984
vn 0.2842 -0.3684 -0.8851
vn -0.2670 0.8704 0.4136
vn -0.1736 0.8654 -0.4700
vn -0.3170 -0.0014 0.9484
vn 0.2719 0.3461 -0.8980
vn -0.3272 0.8975 0.2956
vn -0.2479 -0.9146 0.3195
vn 0.6440 0.0181 -0.7648
vn 0.0449 -0.9496 -0.3103
vn -0.0362 0.9411 -0.3363
vn -0.2559 0.0015 0.9667
vn -0.2019 0.9583 0.2021
vn -0.1176 -0.9667 0.2274
vn 0.3006 -0.0166 -0.9536
vn -0.1760 0.3166 -0.9321
vn -0.3542 -0.8849 -0.3025
vn -0.5251 0.8498 0.0449
vn -0.6837 -0.3471 0.6420
vn -0.2443 -0.9012 -0.3579
vn -0.4298 0.8423 -0.3253
vn -0.4489 -0.8910 0.0678
vn -0.7121 0.3028 0.6334
vn -0.1466 -0.3552 -0.9232
vn -0.3216 0.8667 -0.3812
vn 0.0646 0.9406 -0.3334
vn 0.1555 0.1161 -0.9810
vn 0.1555 -0.1385 -0.9781
vn 0.5900 -0.0140 -0.8073
vn 0.2999 -0.0275 -0.9536
vn 0.1319 -0.9574 -0.2569
vn 0.4107 0.8391 -0.3568
vn 0.2339 -0.0301 -0.9718
vn 0.4723 -0.8331 -0.2880
vn -0.6549 0.0102 0.7557
vn -0.4130 0.4324 -0.8015
vn -0.3419 0.0258 0.9394
vn 0.0042 0.8824 -0.4705
vn 0.0687 -0.9144 -0.3989
vn -0.3811 -0.5159 -0.7672
vn -0.7890 -0.4017 0.4650
vn -0.8140 0.3892 0.4312
vt 0.023696 0.977182
vt 0.022581 0.977001
vt 0.022581 0.973874
vt 0.023696 0.973693
vt 0.023902 0.983461
vt 0.021975 0.984573
vt 0.020048 0.983461
vt 0.020048 0.981236
vt 0.021975 0.980123
vt 0.023902 0.981236
vt 0.190480 0.200183
vt 0.179271 0.206655
vt 0.179271 0.204305
vt 0.188924 0.198732
vt 0.023851 0.987208
vt 0.021976 0.987551
vt 0.022028 0.984573
vt 0.023890 0.984983
vt 0.022670 0.987516
vt 0.022275 0.988416
vt 0.022057 0.988593
vt 0.022015 0.988669
vt 0.023890 0.988321
vt 0.023232 0.988576
vt 0.023307 0.988127
vt 0.012719 0.986419
vt 0.012740 0.985843
vt 0.012761 0.985762
vt 0.013421 0.985895
vt 0.013421 0.988120
vt 0.011553 0.988497
vt 0.011553 0.987492
vt 0.012702 0.986498
vt 0.021917 0.986439
vt 0.020048 0.986063
vt 0.020127 0.984573
vt 0.021976 0.985327
vt 0.021917 0.988664
vt 0.020048 0.989041
vt 0.021976 0.989777
vt 0.020127 0.990530
vt 0.179271 0.174592
vt 0.179271 0.172242
vt 0.194172 0.180845
vt 0.192137 0.182020
vt 0.166405 0.196877
vt 0.164370 0.198052
vt 0.164370 0.180845
vt 0.166405 0.182020
vt 0.192137 0.187034
vt 0.194172 0.184431
vt 0.235685 0.190582
vt 0.223974 0.189807
vt 0.224278 0.172603
vt 0.236009 0.172242
vt 0.218457 0.224995
vt 0.206746 0.224219
vt 0.207051 0.207016
vt 0.218782 0.206655
vt 0.176405 0.243335
vt 0.164674 0.241991
vt 0.164370 0.233381
vt 0.176080 0.234156
vt 0.236009 0.199761
vt 0.224278 0.198417
vt 0.176405 0.215816
vt 0.164674 0.216177
vt 0.165282 0.207583
vt 0.177053 0.206655
vt 0.209073 0.172242
vt 0.209073 0.174432
vt 0.196069 0.181940
vt 0.223974 0.198052
vt 0.222077 0.196956
vt 0.222077 0.181940
vt 0.223974 0.180845
vt 0.194172 0.198052
vt 0.196069 0.196956
vt 0.209073 0.204465
vt 0.209073 0.206655
vt 0.012006 0.989689
vt 0.010895 0.989488
vt 0.010950 0.986361
vt 0.012068 0.986200
vt 0.013183 0.989690
vt 0.012068 0.989508
vt 0.012068 0.986381
vt 0.013183 0.986200
vt 0.023789 0.978927
vt 0.022664 0.978565
vt 0.012068 0.991435
vt 0.010950 0.991053
vt 0.022664 0.972310
vt 0.023789 0.971948
vt 0.011437 0.986200
vt 0.008729 0.984636
vt 0.008729 0.981509
vt 0.011437 0.979945
vt 0.014145 0.981509
vt 0.014145 0.984636
vt 0.183136 0.233713
vt 0.183440 0.216509
vt 0.225817 0.233161
vt 0.218782 0.234173
vt 0.225513 0.224551
vt 0.243045 0.198748
vt 0.242741 0.190139
vt 0.182036 0.242525
vt 0.183365 0.240189
vt 0.225817 0.207348
vt 0.242420 0.186788
vt 0.242804 0.186554
vt 0.241640 0.172797
vt 0.022837 0.957814
vt 0.038011 0.966574
vt 0.038011 0.984096
vt 0.022837 0.992857
vt 0.007663 0.984096
vt 0.007663 0.966574
vt 0.141555 0.170717
vt 0.145224 0.172835
vt 0.125004 0.184509
vt 0.125004 0.180273
vt 0.125004 0.142050
vt 0.125004 0.137814
vt 0.145224 0.149488
vt 0.141555 0.151606
vt 0.104784 0.172835
vt 0.108453 0.170717
vt 0.104784 0.149488
vt 0.108453 0.151606
vt 0.007554 0.979890
vt 0.009870 0.980034
vt 0.009903 0.983359
vt 0.007589 0.983282
vt 0.033963 0.974512
vt 0.028088 0.977904
vt 0.022213 0.974512
vt 0.022213 0.967729
vt 0.028088 0.964337
vt 0.033963 0.967729
vt 0.036312 0.981737
vt 0.038628 0.981881
vt 0.038661 0.985207
vt 0.036347 0.985129
vt 0.038628 0.991858
vt 0.036312 0.991913
vt 0.033963 0.981737
vt 0.036278 0.981881
vt 0.036312 0.985207
vt 0.033998 0.985129
vt 0.036278 0.991858
vt 0.033963 0.991913
vt 0.009870 0.990011
vt 0.007554 0.990065
vt 0.201431 0.235165
vt 0.207066 0.235165
vt 0.207066 0.258512
vt 0.201431 0.258512
vt 0.225095 0.149488
vt 0.230730 0.149517
vt 0.230611 0.172864
vt 0.224976 0.172836
vt 0.206888 0.270186
vt 0.201253 0.270186
vt 0.225797 0.234504
vt 0.231432 0.234504
vt 0.231432 0.257851
vt 0.225797 0.257851
vt 0.201253 0.223491
vt 0.206888 0.223491
vt 0.224976 0.137814
vt 0.230611 0.137843
vt 0.149193 0.170543
vt 0.165443 0.179925
vt 0.165443 0.184509
vt 0.165443 0.137814
vt 0.165443 0.142398
vt 0.149193 0.151780
vt 0.181693 0.170543
vt 0.185663 0.172835
vt 0.181693 0.151780
vt 0.185663 0.149488
vt 0.018154 0.961196
vt 0.026976 0.961196
vt 0.026976 0.979960
vt 0.018154 0.979960
vt 0.012188 0.957196
vt 0.021009 0.957241
vt 0.021105 0.966623
vt 0.012283 0.966578
vt 0.026832 0.989342
vt 0.018011 0.989342
vt 0.021009 0.985387
vt 0.012188 0.985342
vt 0.021105 0.974717
vt 0.029926 0.974717
vt 0.029926 0.993481
vt 0.021105 0.993481
vt 0.018011 0.951814
vt 0.026832 0.951814
vt 0.140384 0.216234
vt 0.143484 0.218024
vt 0.124134 0.229196
vt 0.124134 0.225616
vt 0.124134 0.188088
vt 0.124134 0.184509
vt 0.143484 0.195681
vt 0.140384 0.197470
vt 0.104784 0.218024
vt 0.107884 0.216234
vt 0.104784 0.195681
vt 0.107884 0.197470
vt 0.178652 0.237286
vt 0.184923 0.235991
vt 0.184796 0.260988
vt 0.178538 0.259629
vt 0.212297 0.187132
vt 0.218555 0.184509
vt 0.218682 0.197009
vt 0.212411 0.198304
vt 0.143484 0.227608
vt 0.149742 0.224986
vt 0.149869 0.237485
vt 0.143598 0.238781
vt 0.218555 0.222006
vt 0.212297 0.220647
vt 0.149742 0.262483
vt 0.143484 0.261124
vt 0.178538 0.226113
vt 0.184796 0.223491
vt 0.235012 0.199471
vt 0.234909 0.219710
vt 0.166199 0.239948
vt 0.166096 0.260186
vt 0.234451 0.229900
vt 0.218301 0.234504
vt 0.234707 0.229612
vt 0.191283 0.258742
vt 0.190885 0.260133
vt 0.201002 0.238416
vt 0.193878 0.258054
vt 0.234909 0.189352
vt 0.165622 0.235145
vt 0.166148 0.234961
vt 0.155831 0.226789
vt 0.161486 0.238276
vt 0.165104 0.237355
vt 0.143484 0.194628
vt 0.145837 0.195987
vt 0.145837 0.213508
vt 0.143484 0.214867
vt 0.161011 0.187226
vt 0.161011 0.184509
vt 0.169648 0.189496
vt 0.171162 0.193087
vt 0.161011 0.222269
vt 0.161011 0.224986
vt 0.178164 0.215083
vt 0.174571 0.214440
vt 0.008874 0.969957
vt 0.020188 0.970014
vt 0.020099 0.987536
vt 0.008784 0.987478
vt 0.029105 0.961196
vt 0.040419 0.961196
vt 0.040419 0.978717
vt 0.029105 0.978717
vt 0.018584 0.964566
vt 0.018318 0.964815
vt 0.018199 0.956986
vt 0.029513 0.956986
vt 0.029647 0.965747
vt 0.021500 0.965747
vt 0.021500 0.965746
vt 0.029647 0.983268
vt 0.024470 0.983268
vt 0.008784 0.961196
vt 0.020099 0.961253
vt 0.029513 0.992029
vt 0.018199 0.992029
vt 0.018288 0.986168
vt 0.435113 0.267317
vt 0.435113 0.244380
vt 0.415249 0.232912
vt 0.395385 0.244380
vt 0.395385 0.267317
vt 0.415249 0.278786
vt 0.377239 0.292928
vt 0.376051 0.272113
vt 0.354914 0.276421
vt 0.355601 0.295469
vt 0.393015 0.309219
vt 0.395385 0.299630
vt 0.377236 0.310864
vt 0.354960 0.309069
vt 0.354582 0.308118
vt 0.354914 0.294710
vt 0.337008 0.293419
vt 0.337575 0.311322
vt 0.416786 0.334597
vt 0.414886 0.328655
vt 0.396822 0.334160
vt 0.395385 0.341118
vt 0.377015 0.328220
vt 0.367334 0.334475
vt 0.377015 0.341448
vt 0.312904 0.300298
vt 0.315743 0.309786
vt 0.353911 0.275567
vt 0.335486 0.272403
vt 0.408365 0.306018
vt 0.396151 0.309740
vt 0.354914 0.343132
vt 0.355177 0.330069
vt 0.313233 0.272061
vt 0.394912 0.271291
vt 0.376294 0.250801
vt 0.355535 0.249810
vt 0.353121 0.249082
vt 0.334986 0.251179
vt 0.400444 0.291516
vt 0.395385 0.291913
vt 0.404213 0.289223
vt 0.312904 0.251005
vt 0.395385 0.250102
vt 0.388758 0.322860
vt 0.385435 0.323245
vt 0.381372 0.322751
vt 0.377015 0.348352
vt 0.388758 0.348341
vt 0.384905 0.310864
vt 0.374254 0.232912
vt 0.359416 0.238304
vt 0.332938 0.232912
vt 0.317260 0.238973
vt 0.396657 0.278786
vt 0.347805 0.237661
vt 0.389345 0.238422
vt 0.435613 0.313492
vt 0.435613 0.299182
vt 0.431321 0.295766
vt 0.426961 0.305694
vt 0.426989 0.319349
vt 0.360249 0.325355
vt 0.360265 0.311940
vt 0.371959 0.310864
vt 0.371943 0.324279
vt 0.390345 0.359088
vt 0.394865 0.347001
vt 0.388758 0.347634
vt 0.388965 0.333649
vt 0.394429 0.333083
vt 0.422278 0.297633
vt 0.416786 0.301687
vt 0.416786 0.316135
vt 0.426756 0.321020
vt 0.426961 0.307199
vt 0.429770 0.326490
vt 0.392586 0.313350
vt 0.391077 0.312825
vt 0.389587 0.313661
vt 0.420567 0.329086
vt 0.324761 0.338313
vt 0.324145 0.327655
vt 0.314209 0.327655
vt 0.312904 0.338313
vt 0.388758 0.312845
vt 0.390658 0.310864
vt 0.323513 0.314185
vt 0.321212 0.313672
vt 0.318736 0.314185
vt 0.433899 0.279141
vt 0.432709 0.278786
vt 0.431540 0.279681
vt 0.420805 0.281643
vt 0.419427 0.280884
vt 0.418012 0.281391
vt 0.418848 0.278786
vt 0.417539 0.280482
vt 0.321213 0.311322
vt 0.319004 0.312816
vt 0.322914 0.312816
s 0
usemtl Material.002
f 116/1/1 5/2/1 46/3/1 106/4/1
f 34/5/2 42/6/2 1/7/2 9/8/2 17/9/2 25/10/2
f 150/11/3 90/12/3 68/13/3 151/14/3
f 42/15/4 68/16/4 49/17/4 1/18/4
f 156/19/5 154/20/5 152/21/5 151/22/5 68/16/5 42/15/5 34/23/5 153/24/5 155/25/5
f 160/26/6 158/27/6 153/28/6 34/29/6 25/30/6 62/31/6 157/32/6 159/33/6
f 17/34/7 57/35/7 62/36/7 25/37/7
f 9/38/8 54/39/8 57/35/8 17/34/8
f 1/40/9 49/41/9 54/39/9 9/38/9
f 57/42/10 79/43/10 83/44/10 62/45/10
f 49/46/11 72/47/11 75/48/11 54/49/11
f 68/13/12 90/12/12 72/47/12 49/46/12
f 157/50/13 62/45/13 83/44/13 161/51/13
f 54/49/14 75/48/14 79/43/14 57/42/14
f 120/52/15 100/53/15 103/54/15 118/55/15
f 124/56/16 96/57/16 98/58/16 122/59/16
f 118/60/17 103/61/17 105/62/17 127/63/17
f 122/64/18 98/65/18 100/53/18 120/52/18
f 128/66/19 93/67/19 96/68/19 124/69/19
f 127/63/20 105/62/20 93/67/20 128/66/20
f 103/70/21 115/71/21 116/72/21 105/44/21
f 98/73/22 110/74/22 112/75/22 100/76/22
f 93/77/23 106/78/23 108/79/23 96/80/23
f 105/44/24 116/72/24 106/78/24 93/77/24
f 100/76/25 112/75/25 115/71/25 103/70/25
f 96/80/26 108/79/26 110/74/26 98/73/26
f 112/81/27 23/82/27 14/83/27 115/84/27
f 108/85/28 39/86/28 31/87/28 110/88/28
f 115/89/29 14/90/29 5/2/29 116/1/29
f 110/91/30 31/92/30 23/82/30 112/81/30
f 106/4/31 46/3/31 39/93/31 108/94/31
f 39/95/32 46/96/32 5/97/32 14/98/32 23/99/32 31/100/32
f 90/101/33 127/63/33 128/66/33 72/102/33
f 72/103/34 128/104/34 124/56/34 75/105/34
f 79/106/35 122/64/35 120/52/35 83/107/35
f 162/108/36 118/60/36 127/63/36 90/101/36 150/109/36
f 75/105/37 124/56/37 122/59/37 79/110/37
f 163/111/38 161/112/38 83/107/38 120/52/38 118/55/38 162/113/38
f 146/114/39 145/115/39 144/116/39 149/117/39 148/118/39 147/119/39
f 55/120/40 43/121/40 48/122/40 51/123/40
f 64/124/41 35/125/41 38/126/41 60/127/41
f 51/123/42 48/122/42 28/128/42 70/129/42
f 70/129/43 28/128/43 30/130/43 65/131/43
f 60/127/44 38/126/44 43/121/44 55/120/44
f 21/132/45 51/133/45 70/134/45 3/135/45
f 19/136/46 21/137/46 3/138/46 7/139/46 12/140/46 15/141/46
f 7/142/47 65/143/47 64/144/47 12/145/47
f 12/145/48 64/144/48 60/146/48 15/147/48
f 15/148/49 60/149/49 55/150/49 19/151/49
f 19/151/50 55/150/50 51/152/50 21/153/50
f 3/135/51 70/134/51 65/154/51 7/155/51
f 65/131/52 30/130/52 35/125/52 64/124/52
f 43/156/53 87/157/53 92/158/53 48/159/53
f 35/160/54 81/161/54 86/162/54 38/163/54
f 48/159/55 92/158/55 74/164/55 28/165/55
f 28/166/56 74/167/56 78/168/56 30/169/56
f 38/170/57 86/171/57 87/157/57 43/156/57
f 30/172/58 78/173/58 81/161/58 35/160/58
f 87/121/59 102/174/59 104/175/59 92/176/59
f 81/177/60 99/178/60 101/179/60 86/126/60
f 92/176/61 104/175/61 95/180/61 74/181/61
f 74/181/62 95/180/62 97/182/62 78/183/62
f 86/126/63 101/179/63 102/174/63 87/121/63
f 78/183/64 97/182/64 99/178/64 81/177/64
f 95/184/56 107/185/56 109/186/56 97/187/56
f 101/188/57 113/189/57 114/190/57 102/191/57
f 97/187/58 109/186/58 111/192/58 99/193/58
f 102/191/53 114/190/53 117/194/53 104/195/53
f 99/196/54 111/197/54 113/198/54 101/199/54
f 104/200/65 117/201/65 107/185/65 95/184/65
f 114/202/66 126/203/66 129/204/66 117/205/66
f 111/206/67 123/207/67 125/208/67 113/209/67
f 117/205/68 129/204/68 119/210/68 107/211/68
f 107/211/69 119/210/69 121/212/69 109/213/69
f 113/209/70 125/208/70 126/203/70 114/202/70
f 109/213/71 121/212/71 123/207/71 111/206/71
f 119/214/72 130/215/72 131/216/72 121/217/72
f 125/218/73 133/219/73 134/220/73 126/221/73
f 121/222/74 131/223/74 132/224/74 123/225/74
f 126/221/75 134/220/75 135/226/75 129/227/75
f 123/225/76 132/224/76 133/228/76 125/229/76
f 129/230/77 135/231/77 130/215/77 119/214/77
f 134/220/78 138/232/78 139/233/78 135/226/78
f 132/224/79 136/234/79 137/235/79 133/228/79
f 159/236/80 130/237/80 135/226/80 139/233/80 160/238/80
f 161/239/81 163/240/81 131/216/81 130/215/81 159/241/81 157/242/81
f 133/219/82 137/243/82 138/232/82 134/220/82
f 151/244/83 152/245/83 136/234/83 132/224/83 131/223/83 163/246/83 162/247/83 150/248/83
f 137/249/84 141/250/84 142/251/84 138/252/84
f 140/253/85 136/254/85 152/255/85 154/256/85
f 138/252/86 142/251/86 143/257/86 139/258/86
f 136/254/87 140/253/87 141/250/87 137/249/87
f 160/259/88 139/258/88 143/257/88 158/260/88
f 142/261/53 148/262/53 149/263/53 143/264/53
f 140/265/54 146/266/54 147/267/54 141/268/54
f 153/269/65 158/270/65 143/271/65 149/272/65 144/273/65 155/274/65
f 155/275/56 144/273/56 145/276/56 156/277/56
f 141/278/57 147/279/57 148/262/57 142/261/57
f 156/277/58 145/276/58 146/280/58 140/281/58 154/282/58
f 10/283/89 8/284/89 6/285/89 4/286/89 2/287/89 11/288/89
f 13/289/90 26/290/90 36/291/90 24/292/90
f 4/293/91 16/294/91 13/289/91 2/295/91
f 2/295/92 13/289/92 24/292/92 11/296/92
f 10/297/93 22/298/93 20/299/93 8/300/93
f 6/301/94 18/302/94 16/303/94 4/304/94
f 24/305/95 37/306/95 11/307/95
f 8/300/96 20/299/96 18/308/96 6/309/96
f 22/298/97 33/310/97 32/311/97 20/299/97
f 18/302/98 29/312/98 27/313/98 16/303/98
f 10/314/99 37/306/99 22/315/99
f 20/299/100 32/311/100 29/316/100 18/308/100
f 16/294/101 27/317/101 26/290/101 13/289/101
f 11/307/102 37/306/102 10/314/102
f 26/290/103 40/318/103 50/319/103 36/291/103
f 33/310/104 47/320/104 45/321/104 32/311/104
f 52/322/105 41/323/105 27/313/105 29/312/105 44/324/105
f 32/311/106 45/321/106 44/325/106 29/316/106
f 27/317/107 41/326/107 40/318/107 26/290/107
f 50/327/108 53/328/108 47/329/108 33/330/108 36/331/108
f 53/328/109 58/332/109 47/329/109
f 56/333/110 58/334/110 40/318/110
f 45/321/111 56/335/111 59/336/111 44/325/111
f 52/322/112 59/337/112 41/323/112
f 40/318/113 58/334/113 50/319/113
f 45/321/114 58/338/114 56/335/114
f 41/326/115 59/339/115 56/333/115 40/318/115
f 44/324/116 59/337/116 52/322/116
f 50/327/117 58/332/117 53/328/117
f 47/320/118 58/338/118 45/321/118
f 71/340/119 67/341/119 73/342/119 33/343/119 61/344/119
f 61/345/120 33/346/120 22/315/120 37/306/120
f 36/347/121 63/348/121 37/306/121 24/305/121
f 37/349/122 69/350/122 71/351/122
f 67/352/123 71/351/123 69/350/123 66/353/123
f 76/354/124 66/355/124 69/356/124 63/357/124 36/358/124
f 61/344/125 37/359/125 71/340/125
f 77/360/126 85/361/126 80/362/126 67/352/126 66/353/126
f 69/356/127 37/363/127 63/357/127
f 33/364/128 73/365/128 76/366/128 36/367/128
f 89/368/129 80/362/129 85/361/129 94/369/129
f 84/370/130 91/371/130 82/372/130 76/366/130 73/365/130
f 80/373/131 89/374/131 84/375/131 73/342/131 67/341/131
f 82/376/132 88/377/132 77/378/132 66/355/132 76/354/132
f 94/379/133 85/380/133 77/378/133 88/377/133
f 91/371/134 94/381/134 88/382/134 82/372/134
f 84/370/135 89/383/135 94/381/135 91/371/135
