# Blender 4.2.2 LTS
# www.blender.org
mtllib KnightLeg3.mtl
o Cube.007
v 0.325331 -0.191197 -0.343057
v -0.193875 -0.191198 0.614505
v -0.325331 -0.191197 -0.343057
v -0.193002 -0.191197 -0.784214
v 0.336598 -0.191197 0.098099
v 0.193875 -0.191198 0.614505
v -0.336598 -0.191197 0.098099
v 0.193002 -0.191197 -0.784214
v -0.000000 -0.191198 0.784214
v 0.294345 0.030295 -0.343057
v -0.193875 -0.082371 0.614505
v -0.294345 0.030295 -0.343057
v -0.159237 -0.004705 -0.740470
v 0.336598 -0.000011 0.098099
v 0.193875 -0.082371 0.614505
v -0.336598 -0.000011 0.098099
v 0.159237 -0.004705 -0.740470
v -0.000000 -0.082371 0.784214
v 0.000000 0.037452 0.298073
v -0.241004 0.033873 0.067422
v 0.241004 0.033873 0.067421
v 0.218295 0.184986 -0.487802
v -0.218296 0.184986 -0.487802
v -0.000000 0.191198 0.079023
v -0.209186 0.188092 0.012776
v 0.209186 0.188092 0.012776
vn -0.0000 -1.0000 -0.0000
vn 0.9321 0.1494 -0.3300
vn -0.4374 0.6222 0.6493
vn -0.2050 0.9503 0.2342
vn -0.6587 -0.0000 0.7524
vn 0.9639 -0.0000 0.2664
vn -0.0000 0.2284 -0.9736
vn 0.6587 -0.0000 0.7524
vn -0.9348 0.1811 -0.3057
vn 0.9955 0.0748 -0.0578
vn -0.9639 -0.0000 0.2664
vn 0.9348 0.1811 -0.3057
vn -0.9955 0.0748 -0.0578
vn 0.2050 0.9503 0.2342
vn 0.2337 0.9481 0.2158
vn -0.2337 0.9481 0.2158
vn -0.2518 0.9353 0.2486
vn 0.3242 0.9454 0.0339
vn -0.9294 0.3639 0.0610
vn 0.2518 0.9353 0.2486
vn -0.3242 0.9454 0.0339
vn 0.9294 0.3639 0.0610
vn 0.4374 0.6222 0.6493
vn -0.9321 0.1494 -0.3300
vn -0.0000 1.0000 -0.0087
vn -0.0000 0.7997 -0.6004
vt 0.625000 0.500000
vt 0.625000 0.562500
vt 0.875000 0.562500
vt 0.875000 0.500000
vt 0.625000 0.625000
vt 0.875000 0.625000
vt 0.625000 0.750000
vt 0.750000 0.750000
vt 0.875000 0.750000
vt 0.750000 0.625000
vt 0.812500 0.593750
vt 0.687500 0.593750
s 0
f 8/1/1 1/2/1 3/3/1 4/4/1
f 1/2/1 5/5/1 7/6/1 3/3/1
f 5/5/1 6/7/1 9/8/1 2/9/1 7/6/1
f 10/2/2 17/1/2 22/2/2
f 19/10/3 24/10/3 25/11/3 20/11/3
f 19/10/4 11/9/4 18/8/4
f 9/8/5 18/8/5 11/9/5 2/9/5
f 5/5/6 14/5/6 15/7/6 6/7/6
f 4/4/7 13/4/7 17/1/7 8/1/7
f 6/7/8 15/7/8 18/8/8 9/8/8
f 3/3/9 12/3/9 13/4/9 4/4/9
f 1/2/10 10/2/10 14/5/10 5/5/10
f 2/9/11 11/9/11 16/6/11 7/6/11
f 8/1/12 17/1/12 10/2/12 1/2/12
f 7/6/13 16/6/13 12/3/13 3/3/13
f 15/7/14 19/10/14 18/8/14
f 14/5/15 19/10/15 15/7/15
f 16/6/16 11/9/16 19/10/16
f 20/11/17 16/6/17 19/10/17
f 21/12/18 14/5/18 10/2/18
f 20/11/19 25/11/19 23/3/19 12/3/19
f 19/10/20 14/5/20 21/12/20
f 12/3/21 16/6/21 20/11/21
f 10/2/22 22/2/22 26/12/22 21/12/22
f 21/12/23 26/12/23 24/10/23 19/10/23
f 13/4/24 12/3/24 23/3/24
f 23/3/25 25/11/25 24/10/25 26/12/25 22/2/25
f 17/1/26 13/4/26 23/3/26 22/2/26
