# Blender 4.2.2 LTS
# www.blender.org
mtllib KnightHand3.mtl
o Cylinder.002
v -0.213934 0.390162 -0.030579
v -0.106967 0.390162 -0.215852
v 0.106967 0.390162 -0.215852
v 0.213934 0.390162 -0.030579
v 0.106967 0.390162 0.154693
v -0.106967 0.390162 0.154693
v -0.186855 0.206886 -0.030579
v -0.090285 0.292457 -0.239568
v 0.090285 0.292457 -0.239568
v 0.186855 0.206886 -0.030579
v 0.105307 0.248679 0.157887
v -0.106967 0.247738 0.154693
v -0.117152 0.000641 -0.030579
v -0.061048 0.000641 -0.230812
v 0.061048 0.000641 -0.230812
v 0.117152 0.000641 -0.030579
v 0.056206 0.057466 0.158447
v -0.057867 0.056525 0.155253
v -0.001660 0.293397 0.196476
v -0.092641 -0.218418 -0.030579
v -0.044126 -0.218418 -0.230812
v 0.044126 -0.218418 -0.230812
v 0.092641 -0.218418 -0.030579
v 0.035648 -0.218418 0.154693
v -0.035648 -0.218418 0.154693
v -0.000000 -0.218418 -0.248493
v 0.000000 -0.218418 0.168935
v -0.000000 -0.390162 -0.030579
v 0.000000 -0.333087 0.111386
v -0.000000 -0.333087 -0.180025
v 0.056206 0.202082 0.157887
v -0.057866 0.201141 0.154693
v -0.030073 0.000891 0.246999
v 0.023292 0.001332 0.248493
v -0.033214 0.151595 0.245281
v 0.026433 0.152087 0.246951
v 0.045688 -0.042687 0.202913
v -0.049908 -0.043476 0.200237
v -0.017749 -0.209192 0.235065
v 0.011545 -0.208950 0.235885
v -0.025377 -0.207118 0.210111
v 0.020579 -0.206739 0.211397
v -0.003102 -0.216378 0.235402
v -0.021563 -0.214777 0.222522
v 0.016062 -0.214466 0.223575
v -0.002399 -0.213500 0.210688
v -0.002750 -0.233742 0.222857
vn -0.0000 1.0000 -0.0000
vn -0.8791 -0.2622 0.3980
vn -0.8757 -0.0965 -0.4730
vn -0.8872 -0.0738 0.4555
vn 0.8870 -0.0740 0.4557
vn -0.0000 0.2359 -0.9718
vn -0.3688 -0.0000 0.9295
vn 0.8757 -0.0965 -0.4730
vn 0.8783 -0.2620 0.4000
vn -0.0000 -0.0300 -0.9996
vn 0.3456 0.0171 0.9382
vn 0.9070 -0.1868 -0.3774
vn -0.9070 -0.1868 -0.3774
vn -0.0000 0.3964 0.9181
vn -0.9465 -0.0899 0.3101
vn 0.9461 -0.0885 0.3115
vn -0.0000 0.0338 -0.9994
vn 0.9635 -0.0911 -0.2517
vn -0.9635 -0.0911 -0.2517
vn -0.0172 0.0120 0.9998
vn 0.3363 -0.4224 0.8417
vn -0.8645 -0.4663 0.1875
vn 0.8713 -0.4506 -0.1944
vn -0.3253 -0.4848 -0.8119
vn -0.8849 -0.3779 0.2722
vn 0.8645 -0.4663 0.1875
vn -0.8713 -0.4506 -0.1944
vn 0.3253 -0.4848 -0.8119
vn -0.3363 -0.4224 0.8417
vn 0.8849 -0.3779 0.2722
vn 0.9412 0.0086 0.3379
vn 0.1221 -0.1287 0.9841
vn -0.1323 -0.1394 0.9814
vn -0.0291 0.3311 0.9431
vn -0.0281 0.0108 0.9995
vn -0.9588 0.0084 0.2840
vn 0.8249 0.3283 0.4601
vn -0.0275 -0.0577 0.9980
vn -0.8491 0.3307 0.4119
vn 0.0289 -0.4082 -0.9125
vn 0.4606 -0.6063 0.6483
vn 0.0284 -0.0551 -0.9981
vn 0.8875 -0.0913 0.4517
vn -0.9112 -0.0910 0.4017
vn -0.4886 -0.6092 0.6246
vn -0.3729 -0.6390 -0.6728
vn 0.4187 -0.6366 -0.6476
vt 0.395385 0.267317
vt 0.395385 0.244380
vt 0.415249 0.232912
vt 0.435113 0.244380
vt 0.435113 0.267317
vt 0.415249 0.278786
vt 0.355601 0.295469
vt 0.354914 0.276421
vt 0.376051 0.272113
vt 0.377239 0.292928
vt 0.377236 0.310864
vt 0.395385 0.299630
vt 0.393015 0.309219
vt 0.354960 0.309069
vt 0.337575 0.311322
vt 0.337008 0.293419
vt 0.354914 0.294710
vt 0.354582 0.308118
vt 0.395385 0.341118
vt 0.396822 0.334160
vt 0.414886 0.328655
vt 0.416786 0.334597
vt 0.377015 0.341448
vt 0.367334 0.334475
vt 0.377015 0.328220
vt 0.315743 0.309786
vt 0.312904 0.300298
vt 0.335486 0.272403
vt 0.353911 0.275567
vt 0.396151 0.309740
vt 0.408365 0.306018
vt 0.355177 0.330069
vt 0.354914 0.343132
vt 0.313233 0.272061
vt 0.394912 0.271291
vt 0.355535 0.249810
vt 0.376294 0.250801
vt 0.334986 0.251179
vt 0.353121 0.249082
vt 0.395385 0.291913
vt 0.400444 0.291516
vt 0.404213 0.289223
vt 0.312904 0.251005
vt 0.395385 0.250102
vt 0.388758 0.322860
vt 0.388758 0.348341
vt 0.377015 0.348352
vt 0.381372 0.322751
vt 0.385435 0.323245
vt 0.384905 0.310864
vt 0.359416 0.238304
vt 0.374254 0.232912
vt 0.317260 0.238973
vt 0.332938 0.232912
vt 0.396657 0.278786
vt 0.347805 0.237661
vt 0.389345 0.238422
vt 0.426961 0.305694
vt 0.431321 0.295766
vt 0.435613 0.299182
vt 0.435613 0.313492
vt 0.426989 0.319349
vt 0.360265 0.311940
vt 0.360249 0.325355
vt 0.371943 0.324279
vt 0.371959 0.310864
vt 0.388758 0.347634
vt 0.394865 0.347001
vt 0.390345 0.359088
vt 0.394429 0.333083
vt 0.388965 0.333649
vt 0.426756 0.321020
vt 0.416786 0.316135
vt 0.416786 0.301687
vt 0.422278 0.297633
vt 0.426961 0.307199
vt 0.429770 0.326490
vt 0.389587 0.313661
vt 0.391077 0.312825
vt 0.392586 0.313350
vt 0.420567 0.329086
vt 0.312904 0.338313
vt 0.314209 0.327655
vt 0.324145 0.327655
vt 0.324761 0.338313
vt 0.390658 0.310864
vt 0.388758 0.312845
vt 0.318736 0.314185
vt 0.321212 0.313672
vt 0.323513 0.314185
vt 0.431540 0.279681
vt 0.432709 0.278786
vt 0.433899 0.279141
vt 0.418012 0.281391
vt 0.419427 0.280884
vt 0.420805 0.281643
vt 0.417539 0.280482
vt 0.418848 0.278786
vt 0.319004 0.312816
vt 0.321213 0.311322
vt 0.322914 0.312816
s 0
usemtl Material
f 1/1/1 6/6/1 5/5/1 4/4/1 3/3/1 2/2/1
f 12/7/2 7/10/2 13/9/2 18/8/2
f 1/11/3 2/13/3 8/12/3 7/10/3
f 6/14/4 1/11/4 7/10/4 12/7/4
f 4/15/5 5/18/5 11/17/5 10/16/5
f 2/19/6 3/22/6 9/21/6 8/20/6
f 6/23/7 12/25/7 19/24/7
f 3/26/8 4/15/8 10/16/8 9/27/8
f 10/16/9 11/17/9 17/29/9 16/28/9
f 8/20/10 9/21/10 15/31/10 14/30/10
f 11/32/11 5/33/11 19/24/11
f 9/27/12 10/16/12 16/28/12 15/34/12
f 7/10/13 8/12/13 14/35/13 13/9/13
f 5/33/14 6/23/14 19/24/14
f 18/8/15 13/9/15 20/37/15 25/36/15
f 16/28/16 17/29/16 24/39/16 23/38/16
f 14/30/17 15/31/17 22/42/17 26/41/17 21/40/17
f 15/34/18 16/28/18 23/38/18 22/43/18
f 13/9/19 14/35/19 21/44/19 20/37/19
f 25/45/20 27/49/20 24/48/20 17/47/20 18/46/20
f 24/48/21 27/49/21 29/50/21
f 20/37/22 28/52/22 29/51/22
f 22/43/23 23/38/23 28/54/23 30/53/23
f 21/40/24 26/41/24 30/55/24
f 25/36/25 20/37/25 29/51/25
f 28/54/26 23/38/26 29/56/26
f 20/37/27 21/44/27 30/57/27 28/52/27
f 26/41/28 22/42/28 30/55/28
f 27/49/29 25/45/29 29/50/29
f 23/38/30 24/39/30 29/56/30
f 17/58/31 31/62/31 36/61/31 34/60/31 37/59/31
f 19/24/32 31/64/32 17/63/32 11/32/32
f 12/25/33 18/66/33 32/65/33 19/24/33
f 36/67/34 19/69/34 35/68/34
f 33/70/35 34/71/35 36/67/35 35/68/35
f 32/72/36 18/76/36 38/75/36 33/74/36 35/73/36
f 36/61/37 31/62/37 19/77/37
f 34/71/38 33/70/38 39/80/38 43/79/38 40/78/38
f 32/72/39 35/73/39 19/81/39
f 18/82/40 17/85/40 37/84/40 38/83/40
f 47/86/41 45/87/41 40/78/41 43/79/41
f 38/83/42 37/84/42 42/90/42 46/89/42 41/88/42
f 37/59/43 34/60/43 40/93/43 45/92/43 42/91/43
f 33/74/44 38/75/44 41/96/44 44/95/44 39/94/44
f 44/95/45 47/98/45 43/97/45 39/94/45
f 41/88/46 46/89/46 47/100/46 44/99/46
f 46/89/47 42/90/47 45/101/47 47/100/47
