# Blender 4.2.3 LTS
# www.blender.org
mtllib KnightLegLoot.mtl
o Cylinder.008
v -0.260671 -0.195872 0.383480
v 0.348981 0.003753 -0.655540
v 0.571563 0.004816 -0.354371
v 0.017704 0.009946 0.641658
v -0.570258 0.011517 -0.655540
v -0.263857 0.062057 0.386984
v 0.499279 0.159322 -0.406664
v -0.392630 0.009600 0.268614
v 0.350286 0.158259 -0.566333
v -0.131195 -0.200339 0.501076
v 0.019602 -0.143762 0.639570
v 0.356258 0.159322 -0.513327
v -0.568953 0.166024 -0.566333
v -0.134491 0.066523 0.504701
v -0.390740 -0.143415 0.266535
v 0.357807 -0.149690 -0.515403
v 0.068440 -0.066908 0.685876
v -0.568953 0.166023 -0.387918
v -0.201761 -0.181977 0.318679
v 0.500828 -0.149690 -0.408741
v 0.440189 -0.150540 -0.327433
v 0.046723 0.010738 0.609737
v -0.204643 0.051385 0.321849
v -0.570258 0.011517 -0.298711
v -0.571563 -0.142989 -0.387918
v -0.329903 -0.002427 0.225397
v -0.080215 -0.198947 0.444998
v 0.438640 0.158472 -0.325356
v 0.048622 -0.142970 0.607649
v 0.347676 -0.150753 -0.566333
v -0.083510 0.067914 0.448623
v -0.571563 -0.142989 -0.566333
v -0.328343 -0.128674 0.223682
v 0.510925 0.003966 -0.273063
v 0.097460 -0.066116 0.653955
v -0.359930 0.009741 -0.685876
v -0.013206 -0.065244 0.489155
v 0.440941 -0.181421 -0.298802
v -0.358403 0.190518 -0.581501
v -0.083007 0.030266 0.429987
v -0.080647 -0.160806 0.427392
v 0.269512 -0.181421 -0.426651
v -0.358403 0.190518 -0.372751
v -0.203348 -0.150705 0.235111
v -0.359930 0.009741 -0.268375
v -0.205485 0.022364 0.237462
v -0.036472 -0.064125 0.385637
v 0.267656 0.188971 -0.424162
v -0.361457 -0.171036 -0.372751
v -0.057759 0.018776 0.370006
v -0.055711 -0.147071 0.367754
v 0.439084 0.188971 -0.296312
v 0.525727 0.003775 -0.233633
v -0.361457 -0.171036 -0.581501
v 0.301753 -0.183373 -0.112170
v 0.130324 -0.183373 -0.240019
v 0.128468 0.187019 -0.237530
v 0.299897 0.187019 -0.109681
v 0.386539 0.001823 -0.047000
v 0.296869 -0.197007 -0.092605
v 0.112965 -0.197007 -0.229758
v 0.110974 0.200339 -0.227088
v 0.294877 0.200339 -0.089935
v 0.387825 0.001666 -0.022694
v 0.282427 -0.197209 -0.073240
v 0.098523 -0.197209 -0.210394
v 0.005575 0.001464 -0.277635
v 0.096532 0.200136 -0.207723
v 0.280435 0.200136 -0.070570
v 0.373383 0.001464 -0.003329
v 0.260092 -0.182046 -0.058141
v 0.090421 -0.182046 -0.184680
v 0.004666 0.001251 -0.246718
v 0.088583 0.184549 -0.182216
v 0.258254 0.184549 -0.055678
v 0.344009 0.001251 0.006360
v 0.201154 -0.182873 0.020886
v 0.031483 -0.182873 -0.105652
v -0.054272 0.000424 -0.167690
v 0.029645 0.183722 -0.103189
v 0.199317 0.183722 0.023350
v 0.285071 0.000424 0.085388
v 0.161471 -0.152960 0.044861
v 0.019820 -0.152960 -0.060780
v -0.051773 0.000067 -0.112572
v 0.018286 0.153093 -0.058723
v 0.159937 0.153093 0.046918
v 0.231530 0.000067 0.098711
v -0.000291 -0.133784 0.241187
v -0.122221 -0.133784 0.150254
v -0.183846 -0.002062 0.105672
v -0.123541 0.129659 0.152024
v -0.001612 0.129659 0.242957
v 0.060013 -0.002062 0.287539
v -0.063929 -0.118011 0.310527
v -0.170532 -0.118011 0.231023
v -0.224412 -0.002846 0.192045
v -0.171687 0.112319 0.232571
v -0.065083 0.112319 0.312075
v -0.011205 -0.002846 0.351052
v 0.350286 0.158259 -0.506271
v 0.350183 0.146053 -0.517996
v 0.347676 -0.150753 -0.396235
v 0.347678 -0.150540 -0.396427
v 0.347865 -0.128438 -0.522596
v 0.347684 -0.149832 -0.501830
v 0.218753 -0.154440 -0.385161
v 0.256386 -0.153364 -0.436147
v 0.295646 -0.152241 -0.433686
v 0.050920 -0.013648 -0.297463
v 0.014232 0.006581 -0.284387
v 0.012730 0.001564 -0.287228
v 0.024804 -0.008565 -0.293537
v 0.221038 0.164142 -0.385152
v 0.027324 0.017626 -0.291383
v 0.053146 0.022496 -0.295424
v 0.345613 0.158472 -0.394735
v 0.293443 0.160846 -0.431407
v 0.333838 0.159008 -0.483264
v 0.255569 0.162570 -0.433452
vn -0.1197 0.4972 -0.8593
vn -0.1156 0.9933 -0.0000
vn -0.1197 0.4972 0.8593
vn -0.1281 -0.4951 0.8593
vn -1.0000 0.0084 -0.0000
vn -0.1323 -0.9912 -0.0000
vn -0.1281 -0.4951 -0.8593
vn 1.0000 -0.0084 -0.0000
vn 0.0328 -0.5000 -0.8654
vn 0.0286 -0.9996 -0.0000
vn 0.0328 -0.5000 0.8654
vn 0.0413 0.4993 0.8654
vn 0.0455 0.9990 -0.0000
vn 0.0413 0.4993 -0.8654
vn 0.4772 0.6024 -0.6399
vn -0.6917 -0.5000 -0.5211
vn -0.6967 0.5000 -0.5144
vn 0.0050 -1.0000 -0.0067
vn 0.5978 0.0084 -0.8016
vn 0.0652 0.3046 -0.9503
vn 0.0681 -0.2911 -0.9543
vn 0.8922 0.3046 -0.3335
vn -0.0050 1.0000 0.0067
vn 0.6917 0.5000 0.5211
vn 0.6967 -0.5000 0.5144
vn 0.4832 -0.5889 -0.6479
vn 0.8952 -0.2911 -0.3375
vn 0.9107 0.4106 -0.0455
vn -0.2161 0.4106 -0.8858
vn 0.9147 -0.4008 -0.0510
vn -0.2120 -0.4008 -0.8913
vn 0.3534 -0.8066 -0.4739
vn 0.3453 0.8164 -0.4629
vn 0.2811 0.4230 0.8614
vn -0.9058 0.4230 -0.0237
vn 0.2854 -0.4317 0.8557
vn -0.9015 -0.4317 -0.0295
vn -0.3059 -0.8591 0.4102
vn -0.3145 0.8504 0.4217
vn -0.9141 0.4030 0.0441
vn 0.2225 -0.4127 0.8833
vn -0.9100 -0.4127 0.0386
vn -0.3417 -0.8206 0.4582
vn -0.3499 0.8109 0.4691
vn 0.2185 0.4030 0.8887
vn -0.0550 0.9958 0.0737
vn 0.6393 0.4975 0.5863
vn -0.7443 0.4975 -0.4456
vn 0.6443 -0.4989 0.5796
vn -0.7393 -0.4989 -0.4523
vn -0.0450 -0.9972 0.0603
vn 0.5818 -0.4938 0.6463
vn -0.7854 -0.4938 -0.3733
vn -0.0993 -0.9861 0.1332
vn -0.1092 0.9832 0.1464
vn 0.5769 0.4909 0.6529
vn -0.7903 0.4909 -0.3667
vn -0.5978 -0.0084 0.8016
vn -0.6726 -0.0184 0.7398
vn -0.1322 -0.9292 -0.3452
vn 0.8935 0.4488 -0.0176
vn 0.8099 0.2224 -0.5427
vn 0.5486 0.6585 0.5151
vn 0.2090 -0.9637 0.1661
vn -0.5668 0.0042 -0.8238
vn 0.5649 -0.6585 0.4972
vn -0.1159 0.9379 -0.3269
vn 0.0198 -0.9940 -0.1077
vn 0.1852 0.9637 0.1923
vn -0.0928 -0.9313 -0.3523
vn -0.0048 0.9967 -0.0807
vn 0.8150 -0.1876 -0.5483
vn 0.8002 -0.2163 -0.5594
vn 0.7944 0.2511 -0.5530
vn 0.8099 0.2689 -0.5214
vn 0.6649 -0.3068 -0.6810
vn 0.2785 0.9359 -0.2156
vn 0.8161 -0.2346 -0.5282
vn 0.6569 0.3415 -0.6722
vn 0.3014 -0.9226 -0.2408
vn 0.9043 -0.4259 -0.0295
vn -0.1552 0.9347 -0.3199
vn 0.6661 0.0184 -0.7456
vn 0.0936 0.0147 -0.9955
vt 0.018241 0.972146
vt 0.018718 0.970151
vt 0.022999 0.970391
vt 0.023250 0.972427
vt 0.025162 0.970111
vt 0.025780 0.972099
vt 0.025667 0.980921
vt 0.026032 0.978902
vt 0.030319 0.978902
vt 0.030684 0.980921
vt 0.011267 0.980144
vt 0.009316 0.979415
vt 0.009717 0.977271
vt 0.011735 0.977636
vt 0.018241 0.981046
vt 0.021954 0.978902
vt 0.025667 0.981046
vt 0.025667 0.985334
vt 0.021954 0.987477
vt 0.018241 0.985334
vt 0.009717 0.972984
vt 0.011735 0.972619
vt 0.009316 0.970840
vt 0.011267 0.970111
vt 0.014360 0.987924
vt 0.016563 0.986673
vt 0.016569 0.986675
vt 0.013029 0.988719
vt 0.009316 0.986575
vt 0.009316 0.982288
vt 0.010566 0.981566
vt 0.010469 0.981961
vt 0.013671 0.987729
vt 0.018241 0.972984
vt 0.017841 0.970840
vt 0.017059 0.977337
vt 0.018241 0.977071
vt 0.017764 0.976171
vt 0.017404 0.976112
vt 0.014736 0.979691
vt 0.014737 0.979759
vt 0.015130 0.979445
vt 0.014875 0.979539
vt 0.030021 0.984711
vt 0.025965 0.986241
vt 0.030491 0.984355
vt 0.030175 0.984474
vt 0.024255 0.977825
vt 0.024231 0.978170
vt 0.024608 0.978590
vt 0.023550 0.978621
vt 0.023250 0.978808
vt 0.022522 0.978902
vt 0.024885 0.977433
vt 0.018241 0.978663
vt 0.237223 0.206974
vt 0.242266 0.204062
vt 0.242266 0.242171
vt 0.236797 0.239013
vt 0.236797 0.218333
vt 0.023012 0.979483
vt 0.023112 0.979483
vt 0.022977 0.979671
vt 0.022816 0.983565
vt 0.022983 0.983582
vt 0.022761 0.983582
vt 0.022761 0.983347
vt 0.021127 0.979262
vt 0.021027 0.979262
vt 0.021027 0.976529
vt 0.021627 0.976529
vt 0.021627 0.978297
vt 0.020395 0.984948
vt 0.018028 0.983582
vt 0.018028 0.980849
vt 0.020395 0.979483
vt 0.020720 0.979671
vt 0.237562 0.201346
vt 0.181260 0.201175
vt 0.181428 0.207046
vt 0.176260 0.204062
vt 0.209263 0.261225
vt 0.209263 0.254910
vt 0.023448 0.984060
vt 0.023611 0.984948
vt 0.023012 0.984948
vt 0.013956 0.985967
vt 0.014555 0.986003
vt 0.014388 0.988731
vt 0.013790 0.988694
vt 0.014555 0.990110
vt 0.013956 0.990073
vt 0.181691 0.218468
vt 0.181729 0.218448
vt 0.181729 0.239013
vt 0.176260 0.242171
vt 0.359455 0.163293
vt 0.358926 0.160407
vt 0.374941 0.160407
vt 0.378141 0.177869
vt 0.363804 0.163237
vt 0.365004 0.281884
vt 0.378673 0.253818
vt 0.376609 0.287609
vt 0.360624 0.286633
vt 0.360955 0.281211
vt 0.378932 0.306841
vt 0.362947 0.305865
vt 0.358926 0.122298
vt 0.374941 0.122298
vt 0.242266 0.260444
vt 0.258281 0.260444
vt 0.258281 0.298553
vt 0.242266 0.298553
vt 0.362418 0.103243
vt 0.378432 0.103243
vt 0.009783 0.979245
vt 0.009783 0.979483
vt 0.006740 0.977726
vt 0.006946 0.977607
vt 0.012826 0.974495
vt 0.012826 0.977726
vt 0.012620 0.977607
vt 0.012620 0.974697
vt 0.006740 0.974212
vt 0.006946 0.974332
vt 0.009783 0.972694
vt 0.009783 0.972456
vt 0.012669 0.974122
vt 0.012383 0.974195
vt 0.024463 0.981240
vt 0.024407 0.981149
vt 0.024713 0.979483
vt 0.024855 0.979483
vt 0.024533 0.981240
vt 0.015138 0.985967
vt 0.015280 0.985967
vt 0.015280 0.989480
vt 0.015138 0.989480
vt 0.024391 0.984754
vt 0.024533 0.984754
vt 0.024855 0.986511
vt 0.024713 0.986511
vt 0.024975 0.979483
vt 0.025117 0.979488
vt 0.024998 0.983000
vt 0.024855 0.982995
vt 0.024471 0.981329
vt 0.024391 0.981522
vt 0.025260 0.984766
vt 0.025117 0.984762
vt 0.012826 0.974212
vt 0.013061 0.974348
vt 0.013061 0.977590
vt 0.018912 0.974212
vt 0.018676 0.974348
vt 0.015869 0.972728
vt 0.015869 0.972456
vt 0.015869 0.979211
vt 0.015869 0.979483
vt 0.018912 0.977726
vt 0.018676 0.977590
vt 0.378432 0.122102
vt 0.385214 0.122102
vt 0.385214 0.159821
vt 0.378432 0.159821
vt 0.372555 0.222656
vt 0.379323 0.223069
vt 0.381623 0.242104
vt 0.374854 0.241690
vt 0.267183 0.260444
vt 0.273965 0.260444
vt 0.273965 0.298162
vt 0.267183 0.298162
vt 0.374854 0.185008
vt 0.381623 0.185421
vt 0.381888 0.103243
vt 0.388670 0.103243
vt 0.388670 0.178680
vt 0.381888 0.178680
vt 0.274931 0.185008
vt 0.274931 0.191237
vt 0.247661 0.206981
vt 0.242266 0.203867
vt 0.274931 0.260444
vt 0.274931 0.254215
vt 0.302202 0.238471
vt 0.307596 0.241585
vt 0.307596 0.203867
vt 0.302202 0.206981
vt 0.247661 0.238471
vt 0.242266 0.241585
vt 0.020330 0.987650
vt 0.021874 0.987555
vt 0.022016 0.988731
vt 0.020495 0.989016
vt 0.018912 0.976529
vt 0.020448 0.976718
vt 0.020448 0.979047
vt 0.018912 0.979236
vt 0.020495 0.984948
vt 0.022016 0.985230
vt 0.018276 0.984948
vt 0.019777 0.985325
vt 0.019564 0.986490
vt 0.018028 0.986302
vt 0.018028 0.989008
vt 0.019564 0.988820
vt 0.019777 0.989984
vt 0.018276 0.990361
vt 0.020330 0.985618
vt 0.020143 0.986636
vt 0.020143 0.988673
vt 0.020330 0.989691
vt 0.022462 0.987444
vt 0.022586 0.988472
vt 0.021027 0.976864
vt 0.021027 0.978901
vt 0.022586 0.985411
vt 0.020676 0.972456
vt 0.022440 0.973474
vt 0.022440 0.975511
vt 0.020676 0.976529
vt 0.018912 0.975511
vt 0.018912 0.973474
vt 0.625000 0.500000
vt 0.625000 0.562500
vt 0.875000 0.562500
vt 0.875000 0.500000
vt 0.625000 0.625000
vt 0.875000 0.625000
vt 0.625000 0.750000
vt 0.750000 0.750000
vt 0.875000 0.750000
vt 0.750000 0.625000
vt 0.812500 0.593750
vt 0.687500 0.593750
s 0
usemtl Material.003
f 36/1/1 5/2/1 13/3/1 39/4/1
f 39/4/2 13/3/2 18/5/2 43/6/2
f 43/7/3 18/8/3 24/9/3 45/10/3
f 45/11/4 24/12/4 25/13/4 49/14/4
f 32/15/5 25/16/5 24/17/5 18/18/5 13/19/5 5/20/5
f 49/14/6 25/13/6 32/21/6 54/22/6
f 54/22/7 32/21/7 5/23/7 36/24/7
f 106/25/8 104/26/8 103/27/8 30/28/8 2/29/8 9/30/8 101/31/8 102/32/8 105/33/8
f 30/34/9 54/22/9 36/24/9 2/35/9
f 107/36/10 49/14/10 54/22/10 30/34/10 103/37/10 109/38/10 108/39/10
f 112/40/11 111/41/11 45/11/11 49/14/11 107/36/11 110/42/11 113/43/11
f 116/44/12 114/45/12 43/7/12 45/10/12 111/46/12 115/47/12
f 120/48/13 118/49/13 117/50/13 119/51/13 101/52/13 9/53/13 39/4/13 43/6/13 114/54/13
f 2/55/14 36/1/14 39/4/14 9/53/14
f 118/56/15 48/57/15 52/58/15 28/59/15 117/60/15
f 16/61/16 106/62/16 105/63/16
f 101/64/17 119/65/17 12/66/17 102/67/17
f 106/68/18 16/69/18 20/70/18 21/71/18 104/72/18
f 102/67/19 12/66/19 7/73/19 3/74/19 20/75/19 16/76/19 105/77/19
f 120/78/20 48/57/20 118/56/20
f 108/79/21 109/80/21 42/81/21
f 28/59/22 52/58/22 53/82/22 34/83/22
f 119/65/23 117/84/23 28/85/23 7/86/23 12/66/23
f 7/87/24 28/88/24 34/89/24 3/90/24
f 3/90/25 34/89/25 21/91/25 20/92/25
f 103/93/26 104/94/26 21/95/26 38/96/26 42/81/26 109/80/26
f 34/83/27 53/82/27 38/96/27 21/95/27
f 108/97/16 42/98/16 56/99/16 110/100/16 107/101/16
f 114/102/17 116/103/17 57/104/17 48/105/17 120/106/17
f 48/105/23 57/104/23 58/107/23 52/108/23
f 38/109/18 55/110/18 56/99/18 42/98/18
f 52/111/24 58/112/24 59/113/24 53/114/24
f 53/115/25 59/116/25 55/110/25 38/109/25
f 58/117/28 63/118/28 64/119/28 59/120/28
f 115/121/29 62/122/29 57/123/29 116/124/29
f 59/120/30 64/119/30 60/125/30 55/126/30
f 56/127/31 61/128/31 113/129/31 110/130/31
f 55/126/32 60/125/32 61/128/32 56/127/32
f 57/123/33 62/122/33 63/118/33 58/117/33
f 112/131/16 113/132/16 61/133/16 66/134/16 67/135/16
f 60/136/18 65/137/18 66/138/18 61/139/18
f 62/140/23 68/141/23 69/142/23 63/143/23
f 63/144/24 69/145/24 70/146/24 64/147/24
f 111/148/17 112/131/17 67/135/17 68/141/17 62/140/17 115/149/17
f 64/147/25 70/146/25 65/150/25 60/151/25
f 69/152/34 75/153/34 76/154/34 70/122/34
f 67/155/35 73/156/35 74/157/35 68/158/35
f 70/122/36 76/154/36 71/159/36 65/160/36
f 66/161/37 72/162/37 73/156/37 67/155/37
f 65/160/38 71/159/38 72/162/38 66/161/38
f 68/158/39 74/157/39 75/153/39 69/152/39
f 71/163/18 77/164/18 78/165/18 72/166/18
f 74/167/23 80/168/23 81/169/23 75/170/23
f 75/171/24 81/172/24 82/173/24 76/174/24
f 73/175/17 79/176/17 80/168/17 74/167/17
f 76/177/25 82/178/25 77/164/25 71/163/25
f 72/166/16 78/165/16 79/179/16 73/180/16
f 79/181/40 85/182/40 86/183/40 80/184/40
f 82/185/41 88/186/41 83/187/41 77/188/41
f 78/189/42 84/190/42 85/182/42 79/181/42
f 77/188/43 83/187/43 84/190/43 78/189/43
f 80/184/44 86/183/44 87/191/44 81/192/44
f 81/192/45 87/191/45 88/186/45 82/185/45
f 86/193/46 92/194/46 93/195/46 87/196/46
f 87/197/47 93/198/47 94/199/47 88/200/47
f 85/201/48 91/202/48 92/194/48 86/193/48
f 88/203/49 94/204/49 89/205/49 83/206/49
f 84/207/50 90/208/50 91/209/50 85/210/50
f 83/206/51 89/205/51 90/208/51 84/207/51
f 94/204/52 100/211/52 95/212/52 89/205/52
f 90/208/53 96/213/53 97/214/53 91/209/53
f 89/205/54 95/212/54 96/213/54 90/208/54
f 92/194/55 98/215/55 99/216/55 93/195/55
f 93/198/56 99/217/56 100/218/56 94/199/56
f 91/202/57 97/219/57 98/215/57 92/194/57
f 98/220/58 97/221/58 96/222/58 95/223/58 100/224/58 99/225/58
f 15/226/59 1/227/59 6/228/59 8/229/59
f 1/227/59 10/230/59 14/231/59 6/228/59
f 11/232/59 17/233/59 4/234/59 14/231/59 10/230/59
f 19/227/60 33/226/60 44/227/60
f 37/235/61 47/235/61 50/236/61 40/236/61
f 37/235/62 22/234/62 35/233/62
f 17/233/63 35/233/63 22/234/63 4/234/63
f 10/230/64 27/230/64 29/232/64 11/232/64
f 8/229/65 26/229/65 33/226/65 15/226/65
f 11/232/66 29/232/66 35/233/66 17/233/66
f 6/228/67 23/228/67 26/229/67 8/229/67
f 1/227/68 19/227/68 27/230/68 10/230/68
f 4/234/69 22/234/69 31/231/69 14/231/69
f 15/226/70 33/226/70 19/227/70 1/227/70
f 14/231/71 31/231/71 23/228/71 6/228/71
f 29/232/72 37/235/72 35/233/72
f 27/230/73 37/235/73 29/232/73
f 31/231/74 22/234/74 37/235/74
f 40/236/75 31/231/75 37/235/75
f 41/237/76 27/230/76 19/227/76
f 40/236/77 50/236/77 46/228/77 23/228/77
f 37/235/78 27/230/78 41/237/78
f 23/228/79 31/231/79 40/236/79
f 19/227/80 44/227/80 51/237/80 41/237/80
f 41/237/81 51/237/81 47/235/81 37/235/81
f 23/228/82 46/228/82 26/229/82
f 44/227/83 46/228/83 50/236/83 47/235/83 51/237/83
f 33/226/84 26/229/84 46/228/84 44/227/84
