# Blender 4.2.3 LTS
# www.blender.org
mtllib DefaultLeg3.mtl
o Cube.001
v 0.325331 -0.191197 -0.343057
v -0.193875 -0.191198 0.614505
v -0.325331 -0.191197 -0.343057
v -0.193002 -0.191197 -0.784214
v 0.336598 -0.191197 0.098099
v 0.193875 -0.191198 0.614505
v -0.336598 -0.191197 0.098099
v 0.193002 -0.191197 -0.784214
v -0.000000 -0.191198 0.784214
v 0.294345 0.030295 -0.343057
v -0.193875 -0.082371 0.614505
v -0.294345 0.030295 -0.343057
v -0.159237 -0.004705 -0.740470
v 0.336598 -0.000011 0.098099
v 0.193875 -0.082371 0.614505
v -0.336598 -0.000011 0.098099
v 0.159237 -0.004705 -0.740470
v -0.000000 -0.082371 0.784214
v 0.000000 0.037452 0.298073
v -0.241004 0.033873 0.067422
v 0.241004 0.033873 0.067421
v 0.218295 0.184986 -0.487802
v -0.218296 0.184986 -0.487802
v -0.000000 0.191198 0.079023
v -0.209186 0.188092 0.012776
v 0.209186 0.188092 0.012776
vn -0.0000 -1.0000 -0.0000
vn 0.9321 0.1494 -0.3300
vn -0.4374 0.6222 0.6493
vn -0.2050 0.9503 0.2342
vn -0.6587 -0.0000 0.7524
vn 0.9639 -0.0000 0.2664
vn -0.0000 0.2284 -0.9736
vn 0.6587 -0.0000 0.7524
vn -0.9348 0.1811 -0.3057
vn 0.9955 0.0748 -0.0578
vn -0.9639 -0.0000 0.2664
vn 0.9348 0.1811 -0.3057
vn -0.9955 0.0748 -0.0578
vn 0.2050 0.9503 0.2342
vn 0.2337 0.9481 0.2158
vn -0.2337 0.9481 0.2158
vn -0.2518 0.9353 0.2486
vn 0.3242 0.9454 0.0339
vn -0.9294 0.3639 0.0610
vn 0.2518 0.9353 0.2486
vn -0.3242 0.9454 0.0339
vn 0.9294 0.3639 0.0610
vn 0.4374 0.6222 0.6493
vn -0.9321 0.1494 -0.3300
vn -0.0000 1.0000 -0.0087
vn -0.0000 0.7997 -0.6004
vt 0.297891 0.965789
vt 0.294101 0.958388
vt 0.312734 0.958388
vt 0.308944 0.965789
vt 0.293779 0.950988
vt 0.313056 0.950988
vt 0.297866 0.942325
vt 0.303418 0.939478
vt 0.308969 0.942325
vt 0.337655 0.946189
vt 0.337493 0.940189
vt 0.341636 0.943977
vt 0.322695 0.953112
vt 0.322695 0.948693
vt 0.328685 0.947629
vt 0.329596 0.949368
vt 0.328247 0.958934
vt 0.322695 0.961703
vt 0.320694 0.988522
vt 0.318159 0.988432
vt 0.319196 0.984810
vt 0.321730 0.984900
vt 0.332334 0.953515
vt 0.336787 0.953356
vt 0.335684 0.962584
vt 0.333149 0.962674
vt 0.332152 0.973481
vt 0.327673 0.972514
vt 0.327673 0.963395
vt 0.332152 0.962428
vt 0.336720 0.966206
vt 0.334185 0.966296
vt 0.322546 0.968470
vt 0.317224 0.968415
vt 0.317386 0.962415
vt 0.321913 0.961703
vt 0.332334 0.946244
vt 0.318092 0.975582
vt 0.322546 0.975740
vt 0.332967 0.939478
vt 0.317143 0.958934
vt 0.313056 0.950055
vt 0.332334 0.950055
vt 0.315794 0.949368
vt 0.314266 0.942689
vt 0.316807 0.975443
vt 0.313056 0.974541
vt 0.313243 0.966203
vt 0.331124 0.942689
vt 0.341823 0.952315
vt 0.338072 0.953217
vt 0.316705 0.947629
vt 0.328946 0.939478
vt 0.316444 0.939478
vt 0.322546 0.974205
vt 0.322546 0.961703
s 0
usemtl Material
f 8/1/1 1/2/1 3/3/1 4/4/1
f 1/2/1 5/5/1 7/6/1 3/3/1
f 5/5/1 6/7/1 9/8/1 2/9/1 7/6/1
f 10/10/2 17/11/2 22/12/2
f 19/13/3 24/14/3 25/15/3 20/16/3
f 19/13/4 11/17/4 18/18/4
f 9/19/5 18/20/5 11/21/5 2/22/5
f 5/23/6 14/24/6 15/25/6 6/26/6
f 4/27/7 13/28/7 17/29/7 8/30/7
f 6/26/8 15/25/8 18/31/8 9/32/8
f 3/33/9 12/34/9 13/35/9 4/36/9
f 1/37/10 10/10/10 14/24/10 5/23/10
f 2/22/11 11/21/11 16/38/11 7/39/11
f 8/40/12 17/11/12 10/10/12 1/37/12
f 7/39/13 16/38/13 12/34/13 3/33/13
f 15/41/14 19/13/14 18/18/14
f 14/42/15 19/13/15 15/41/15
f 16/43/16 11/17/16 19/13/16
f 20/16/17 16/43/17 19/13/17
f 21/44/18 14/42/18 10/45/18
f 20/46/19 25/47/19 23/48/19 12/34/19
f 19/13/20 14/42/20 21/44/20
f 12/49/21 16/43/21 20/16/21
f 10/10/22 22/12/22 26/50/22 21/51/22
f 21/44/23 26/52/23 24/14/23 19/13/23
f 13/35/24 12/34/24 23/48/24
f 23/53/25 25/15/25 24/14/25 26/52/25 22/54/25
f 17/29/26 13/28/26 23/55/26 22/56/26
