# Blender 4.2.3 LTS
# www.blender.org
mtllib SnakeSkinLoot.mtl
o Cylinder.001
v 0.102708 -0.002026 -0.301449
v 0.426081 -0.053788 -0.180646
v 0.467673 -0.053788 0.188285
v -0.005942 -0.002026 0.301449
v -0.467673 -0.053788 0.171309
v -0.404860 -0.053788 -0.147541
v 0.051779 0.053788 -0.233947
v 0.385316 0.001886 -0.151988
v 0.407385 0.001886 0.141802
v 0.049232 0.053788 0.260261
v -0.429455 0.001886 0.146895
v -0.312316 0.001886 -0.156232
vn 0.1067 -0.9941 0.0198
vn -0.1287 -0.9916 -0.0089
vn -0.1215 0.9924 -0.0182
vn 0.1482 0.9889 -0.0037
vn -0.2578 0.6412 0.7227
vn 0.7443 0.6640 -0.0715
vn -0.2762 0.5271 -0.8037
vn -0.6640 0.7226 -0.1921
vn 0.2831 0.6008 0.7476
vn 0.2998 0.7524 -0.5865
vt 0.343230 0.570356
vt 0.341403 0.601089
vt 0.374012 0.586796
vt 0.360403 0.562494
vt 0.352596 0.617769
vt 0.374012 0.615132
vt 0.404029 0.550461
vt 0.388485 0.539735
vt 0.375567 0.565204
vt 0.403464 0.572042
vt 0.377431 0.587096
vt 0.394334 0.589828
vt 0.374012 0.561580
vt 0.387647 0.537296
vt 0.395426 0.617769
vt 0.394334 0.615027
vt 0.377431 0.612295
vt 0.374012 0.615123
vt 0.404816 0.570363
vt 0.404029 0.575659
vt 0.403464 0.597240
vt 0.406613 0.601084
vt 0.387647 0.562494
vt 0.388485 0.564934
vt 0.375567 0.590403
vt 0.374012 0.586778
vt 0.406613 0.575885
vt 0.395426 0.592571
s 0
usemtl Material
f 6/1/1 1/2/1 4/3/1 5/4/1
f 1/2/2 2/5/2 3/6/2 4/3/2
f 12/7/3 11/8/3 10/9/3 7/10/3
f 7/10/4 10/9/4 9/11/4 8/12/4
f 4/13/5 10/9/5 11/8/5 5/14/5
f 2/15/6 8/16/6 9/17/6 3/18/6
f 6/19/7 12/20/7 7/21/7 1/22/7
f 5/23/8 11/24/8 12/20/8 6/19/8
f 3/18/9 9/17/9 10/25/9 4/26/9
f 1/27/10 7/10/10 8/12/10 2/28/10
