# Blender 4.2.3 LTS
# www.blender.org
mtllib StoneLoot.mtl
o Cylinder.002
v 0.373583 -0.099235 -0.171409
v 0.323090 -0.099235 0.207959
v -0.134420 -0.124290 0.268592
v -0.424409 -0.099235 0.155390
v -0.297075 -0.099235 -0.250034
v 0.120087 -0.124290 -0.298034
v 0.531110 0.042862 -0.094616
v 0.441705 -0.015031 0.213860
v -0.207854 -0.044990 0.402396
v -0.512151 0.013379 0.165375
v -0.400726 0.024092 -0.262444
v 0.199928 -0.040786 -0.368995
v 0.467036 0.106632 -0.151696
v 0.385964 0.072506 0.142610
v -0.213077 0.072506 0.334610
v -0.475765 0.063458 0.100270
v -0.342856 0.072506 -0.188901
v 0.132860 0.130705 -0.292752
v 0.426500 0.106632 -0.004543
v 0.132215 0.106632 0.271690
v -0.341280 0.106632 0.218239
v -0.406170 0.106632 -0.043517
v -0.087133 0.106632 -0.280413
v 0.299948 0.106632 -0.222224
v 0.003574 0.183651 0.033785
v -0.223139 0.166175 -0.011294
v 0.193196 0.166175 0.008193
v 0.348337 -0.124290 0.018275
v 0.055139 -0.124290 0.273032
v -0.279415 -0.124290 0.211991
v -0.360742 -0.124290 -0.047322
v -0.022592 -0.124290 -0.307510
v 0.246835 -0.124290 -0.234722
v -0.061435 -0.183651 -0.029348
v 0.170585 -0.157973 0.001777
v -0.183954 -0.157973 -0.031021
v 0.132532 -0.030011 0.354563
v -0.106359 -0.008347 -0.361576
vn -0.1925 -0.9794 0.0604
vn 0.0451 -0.9834 0.1757
vn 0.5395 -0.5324 -0.6523
vn -0.7824 -0.5774 -0.2336
vn 0.0731 -0.7771 0.6251
vn -0.0345 -0.5313 -0.8465
vn -0.4181 -0.7232 0.5497
vn 0.6636 -0.7451 0.0673
vn -0.0254 0.4781 -0.8779
vn -0.5215 0.5247 0.6728
vn 0.6590 0.6933 0.2917
vn 0.4804 0.3466 -0.8057
vn -0.7640 0.5878 -0.2659
vn 0.1016 0.5089 0.8548
vn 0.0197 0.9543 0.2983
vn -0.2391 0.9161 -0.3220
vn -0.0746 0.9733 -0.2170
vn -0.0744 0.9620 0.2627
vn -0.3429 0.9355 0.0850
vn 0.1322 0.9810 -0.1421
vn 0.1595 0.9828 -0.0928
vn 0.2582 0.9261 0.2751
vn 0.1469 -0.9746 0.1690
vn 0.2100 -0.9741 -0.0842
vn 0.1044 -0.9862 -0.1284
vn -0.1229 -0.9837 0.1309
vn -0.0849 -0.9720 -0.2193
vn -0.1435 -0.9719 -0.1865
vn 0.3659 0.5876 0.7217
vn 0.2925 -0.6601 0.6919
vn -0.2279 0.7240 -0.6511
vn -0.2789 -0.4536 -0.8464
vt 0.698038 0.160000
vt 0.853923 0.070000
vt 0.750000 0.010000
vt 0.646077 0.070000
vt 0.801962 0.340000
vt 0.957846 0.250000
vt 0.957846 0.130000
vt 0.750000 0.250000
vt 0.542154 0.370000
vt 0.750000 0.490000
vt 0.646077 0.430000
vt 0.542154 0.130000
vt 0.542154 0.250000
vt 0.787396 0.704061
vt 0.709683 0.659193
vt 0.748539 0.681627
vt 0.957846 0.370000
vt 0.853923 0.430000
vt 0.709683 0.838664
vt 0.748539 0.816231
vt 0.787396 0.793797
vt 0.729111 0.782580
vt 0.709683 0.748929
vt 0.787396 0.748929
vt 0.631969 0.793797
vt 0.631969 0.748929
vt 0.690254 0.715278
vt 0.670826 0.816231
vt 0.631969 0.704061
s 0
usemtl Material.001
f 36/1/1 30/2/1 4/3/1 31/4/1
f 35/5/2 29/6/2 3/7/2 34/8/2
f 6/9/3 12/9/3 7/10/3 1/10/3 33/11/3
f 4/3/4 10/3/4 11/12/4 5/12/4 31/4/4
f 29/6/5 37/6/5 9/7/5 3/7/5
f 32/13/6 38/13/6 12/9/6 6/9/6
f 3/14/7 9/14/7 10/15/7 4/15/7 30/16/7
f 1/10/8 7/10/8 8/17/8 2/17/8 28/18/8
f 38/13/9 23/13/9 18/9/9 12/9/9
f 9/7/10 15/7/10 21/2/10 16/3/10 10/3/10
f 7/19/11 13/19/11 19/20/11 14/21/11 8/21/11
f 12/9/12 18/9/12 24/11/12 13/10/12 7/10/12
f 10/3/13 16/3/13 22/4/13 17/12/13 11/12/13
f 37/6/14 20/6/14 15/7/14 9/7/14
f 27/22/15 25/23/15 15/14/15 20/24/15
f 26/1/16 23/13/16 17/12/16 22/4/16
f 25/23/17 18/25/17 23/26/17 26/27/17
f 15/7/18 25/8/18 26/1/18 21/2/18
f 21/2/19 26/1/19 22/4/19 16/3/19
f 24/28/20 18/25/20 25/23/20 27/22/20
f 13/10/21 24/11/21 27/5/21 19/18/21
f 19/18/22 27/5/22 20/6/22 14/17/22
f 28/20/23 2/21/23 29/24/23 35/22/23
f 1/10/24 28/18/24 35/5/24 33/11/24
f 33/28/25 35/22/25 34/23/25 6/25/25
f 34/8/26 3/7/26 30/2/26 36/1/26
f 6/9/27 34/8/27 36/1/27 32/13/27
f 32/13/28 36/1/28 31/4/28 5/12/28
f 8/17/29 14/17/29 20/6/29 37/6/29
f 2/17/30 8/17/30 37/6/30 29/6/30
f 11/29/31 17/29/31 23/26/31 38/26/31
f 5/29/32 11/29/32 38/26/32 32/26/32
