# MagicaVoxel @ Ephtracy

# group
o 

# material
mtllib Spear.mtl
usemtl palette

# normals
vn -1 0 0
vn 1 0 0
vn 0 0 1
vn 0 0 -1
vn 0 -1 0
vn 0 1 0

# texcoords
vt 0.939453 0.5
vt 0.943359 0.5

# verts
v -2.8 -0.1 0
v -2.8 -0.1 -0.1
v -2.8 0 0
v -2.8 0 -0.1
v -2.4 0 0
v -2.4 0 -0.1
v -2.4 0.1 0
v -2.4 0.1 -0.1
v -2 -0.1 0.1
v -2 -0.1 0
v -2 0 0.1
v -2 0 0
v -1.8 0 0
v -1.8 0 -0.1
v -1.8 0.1 0
v -1.8 0.1 -0.1
v -0.6 0 0
v -0.6 0 -0.1
v -0.6 0.1 0
v -0.6 0.1 -0.1
v 0.6 -0.1 0
v 0.6 -0.1 -0.1
v 0.6 0 0
v 0.6 0 -0.1
v -2.3 0 0
v -2.3 0 -0.1
v -2.3 0.1 0
v -2.3 0.1 -0.1
v -1.1 0 0
v -1.1 0 -0.1
v -1.1 0.1 0
v -1.1 0.1 -0.1
v -0.8 -0.1 0
v -0.8 -0.1 -0.1
v -0.8 0 0
v -0.8 0 -0.1
v 1.1 -0.1 0.1
v 1.1 -0.1 0
v 1.1 0 0.1
v 1.1 0 0
v 1.2 -0.1 0
v 1.2 -0.1 -0.1
v 1.2 0 0
v 1.2 0 -0.1
v 1.2 0.1 0
v 1.2 0.1 -0.1
v -2 -0.1 0.1
v -2 0 0.1
v -1.6 -0.1 0.1
v -1.6 0 0.1
v -1.4 -0.1 0.1
v -1.4 0 0.1
v -1.2 -0.1 0.1
v -1.2 0 0.1
v -0.2 -0.1 0.1
v -0.2 0 0.1
v 1 -0.1 0.1
v 1 0 0.1
v 1.1 -0.1 0.1
v 1.1 0 0.1
v -2.8 -0.1 0
v -2.8 0 0
v -2.7 -0.1 0
v -2.7 0 0
v -2.6 -0.1 0
v -2.6 0 0
v -2.4 0 0
v -2.4 0.1 0
v -2.3 0 0
v -2.3 0.1 0
v -2.2 -0.1 0
v -2.2 0 0
v -2 -0.1 0
v -2 0 0
v -1.8 0 0
v -1.8 0.1 0
v -1.7 0 0
v -1.7 0.1 0
v -1.6 0 0
v -1.5 0 0
v -1.5 0.1 0
v -1.4 0 0
v -1.2 0 0
v -1.1 0 0
v -1.1 0.1 0
v -0.6 0 0
v -0.6 0.1 0
v -0.5 0 0
v -0.5 0.1 0
v -0.2 0 0
v -0.0999999 0 0
v -0.0999999 0.1 0
v 0.9 0 0
v 0.9 0.1 0
v 1 0 0
v 1.1 -0.1 0
v 1.1 0 0
v 1.1 0.1 0
v 1.2 -0.1 0
v 1.2 0 0
v 1.2 0.1 0
v -0.8 -0.1 0
v -0.8 0 0
v -0.6 0 0
v -0.5 0 0
v -0.2 -0.1 0
v -0.2 0 0
v -0.0999999 0 0
v 0.6 -0.1 0
v 0.6 0 0
v -2.8 -0.1 -0.1
v -2.8 0 -0.1
v -2.7 -0.1 -0.1
v -2.7 0 -0.1
v -2.6 -0.1 -0.1
v -2.6 0 -0.1
v -2.4 0 -0.1
v -2.4 0.1 -0.1
v -2.3 0 -0.1
v -2.3 0.1 -0.1
v -2.2 -0.1 -0.1
v -2.2 0 -0.1
v -1.9 -0.1 -0.1
v -1.9 0 -0.1
v -1.8 0 -0.1
v -1.8 0.1 -0.1
v -1.7 0 -0.1
v -1.7 0.1 -0.1
v -1.5 -0.1 -0.1
v -1.5 0 -0.1
v -1.5 0.1 -0.1
v -1.1 -0.1 -0.1
v -1.1 0 -0.1
v -1.1 0.1 -0.1
v -0.8 -0.1 -0.1
v -0.8 0 -0.1
v -0.6 0 -0.1
v -0.6 0.1 -0.1
v -0.5 0 -0.1
v -0.5 0.1 -0.1
v -0.0999999 0 -0.1
v -0.0999999 0.1 -0.1
v 0.6 -0.1 -0.1
v 0.6 0 -0.1
v 0.8 -0.1 -0.1
v 0.8 0 -0.1
v 0.9 0 -0.1
v 0.9 0.1 -0.1
v 1 -0.1 -0.1
v 1 0 -0.1
v 1.1 0 -0.1
v 1.1 0.1 -0.1
v 1.2 -0.1 -0.1
v 1.2 0 -0.1
v 1.2 0.1 -0.1
v -2 -0.1 0.1
v -1.6 -0.1 0.1
v -1.4 -0.1 0.1
v -1.2 -0.1 0.1
v -0.2 -0.1 0.1
v 1 -0.1 0.1
v 1.1 -0.1 0.1
v -2.8 -0.1 0
v -2.7 -0.1 0
v -2.6 -0.1 0
v -2.2 -0.1 0
v -2 -0.1 0
v -1.9 -0.1 0
v -1.6 -0.1 0
v -1.5 -0.1 0
v -1.4 -0.1 0
v -1.2 -0.1 0
v -1.1 -0.1 0
v -0.8 -0.1 0
v -0.2 -0.1 0
v 0.6 -0.1 0
v 0.8 -0.1 0
v 1 -0.1 0
v 1.1 -0.1 0
v 1.2 -0.1 0
v -2.8 -0.1 -0.1
v -2.7 -0.1 -0.1
v -2.6 -0.1 -0.1
v -2.2 -0.1 -0.1
v -1.9 -0.1 -0.1
v -1.5 -0.1 -0.1
v -1.1 -0.1 -0.1
v -0.8 -0.1 -0.1
v 0.6 -0.1 -0.1
v 0.8 -0.1 -0.1
v 1 -0.1 -0.1
v 1.2 -0.1 -0.1
v -0.6 0 0
v -0.5 0 0
v -0.2 0 0
v -0.0999999 0 0
v 0.6 0 0
v -0.6 0 -0.1
v -0.5 0 -0.1
v -0.0999999 0 -0.1
v 0.6 0 -0.1
v -2 0 0.1
v -1.6 0 0.1
v -1.4 0 0.1
v -1.2 0 0.1
v -0.2 0 0.1
v 1 0 0.1
v 1.1 0 0.1
v -2.8 0 0
v -2.7 0 0
v -2.6 0 0
v -2.4 0 0
v -2.3 0 0
v -2.2 0 0
v -2 0 0
v -1.9 0 0
v -1.8 0 0
v -1.7 0 0
v -1.6 0 0
v -1.5 0 0
v -1.4 0 0
v -1.2 0 0
v -1.1 0 0
v -0.8 0 0
v -0.6 0 0
v -0.5 0 0
v -0.2 0 0
v -0.0999999 0 0
v 0.9 0 0
v 1 0 0
v 1.1 0 0
v -2.8 0 -0.1
v -2.7 0 -0.1
v -2.6 0 -0.1
v -2.4 0 -0.1
v -2.3 0 -0.1
v -2.2 0 -0.1
v -1.9 0 -0.1
v -1.8 0 -0.1
v -1.1 0 -0.1
v -0.8 0 -0.1
v -2.4 0.1 0
v -2.3 0.1 0
v -1.8 0.1 0
v -1.7 0.1 0
v -1.5 0.1 0
v -1.1 0.1 0
v -0.6 0.1 0
v -0.5 0.1 0
v -0.0999999 0.1 0
v 0.9 0.1 0
v 1.1 0.1 0
v 1.2 0.1 0
v -2.4 0.1 -0.1
v -2.3 0.1 -0.1
v -1.8 0.1 -0.1
v -1.7 0.1 -0.1
v -1.5 0.1 -0.1
v -1.1 0.1 -0.1
v -0.6 0.1 -0.1
v -0.5 0.1 -0.1
v -0.0999999 0.1 -0.1
v 0.9 0.1 -0.1
v 1.1 0.1 -0.1
v 1.2 0.1 -0.1

# faces
f 3/1/1 2/1/1 1/1/1
f 4/1/1 2/1/1 3/1/1
f 7/2/1 6/2/1 5/2/1
f 8/2/1 6/2/1 7/2/1
f 11/1/1 10/1/1 9/1/1
f 12/1/1 10/1/1 11/1/1
f 15/1/1 14/1/1 13/1/1
f 16/1/1 14/1/1 15/1/1
f 19/2/1 18/2/1 17/2/1
f 20/2/1 18/2/1 19/2/1
f 23/1/1 22/1/1 21/1/1
f 24/1/1 22/1/1 23/1/1
f 25/2/2 26/2/2 27/2/2
f 27/2/2 26/2/2 28/2/2
f 29/1/2 30/1/2 31/1/2
f 31/1/2 30/1/2 32/1/2
f 33/1/2 34/1/2 35/1/2
f 35/1/2 34/1/2 36/1/2
f 37/2/2 38/2/2 39/2/2
f 39/2/2 38/2/2 40/2/2
f 41/1/2 42/1/2 43/1/2
f 43/1/2 42/1/2 44/1/2
f 43/2/2 44/2/2 45/2/2
f 45/2/2 44/2/2 46/2/2
f 49/1/3 48/1/3 47/1/3
f 50/1/3 48/1/3 49/1/3
f 51/2/3 50/2/3 49/2/3
f 52/2/3 50/2/3 51/2/3
f 53/1/3 52/1/3 51/1/3
f 54/1/3 52/1/3 53/1/3
f 55/2/3 54/2/3 53/2/3
f 56/2/3 54/2/3 55/2/3
f 57/1/3 56/1/3 55/1/3
f 58/1/3 56/1/3 57/1/3
f 59/2/3 58/2/3 57/2/3
f 60/2/3 58/2/3 59/2/3
f 63/1/3 62/1/3 61/1/3
f 64/1/3 62/1/3 63/1/3
f 65/2/3 64/2/3 63/2/3
f 66/2/3 64/2/3 65/2/3
f 67/1/3 66/1/3 65/1/3
f 69/1/3 67/1/3 65/1/3
f 69/2/3 68/2/3 67/2/3
f 70/2/3 68/2/3 69/2/3
f 71/1/3 69/1/3 65/1/3
f 72/1/3 69/1/3 71/1/3
f 73/2/3 72/2/3 71/2/3
f 74/2/3 72/2/3 73/2/3
f 77/1/3 76/1/3 75/1/3
f 78/1/3 76/1/3 77/1/3
f 79/2/3 78/2/3 77/2/3
f 80/2/3 78/2/3 79/2/3
f 81/2/3 78/2/3 80/2/3
f 82/1/3 81/1/3 80/1/3
f 83/1/3 81/1/3 82/1/3
f 84/1/3 81/1/3 83/1/3
f 85/1/3 81/1/3 84/1/3
f 88/2/3 87/2/3 86/2/3
f 89/2/3 87/2/3 88/2/3
f 90/1/3 89/1/3 88/1/3
f 91/1/3 89/1/3 90/1/3
f 92/1/3 89/1/3 91/1/3
f 93/2/3 92/2/3 91/2/3
f 94/2/3 92/2/3 93/2/3
f 95/1/3 94/1/3 93/1/3
f 97/1/3 94/1/3 95/1/3
f 98/1/3 94/1/3 97/1/3
f 99/1/3 97/1/3 96/1/3
f 100/2/3 98/2/3 97/2/3
f 100/1/3 97/1/3 99/1/3
f 101/2/3 98/2/3 100/2/3
f 102/2/4 103/2/4 104/2/4
f 102/2/4 104/2/4 105/2/4
f 102/2/4 105/2/4 106/2/4
f 106/2/4 105/2/4 107/2/4
f 106/1/4 107/1/4 108/1/4
f 106/1/4 108/1/4 109/1/4
f 109/1/4 108/1/4 110/1/4
f 111/1/4 112/1/4 113/1/4
f 113/1/4 112/1/4 114/1/4
f 113/2/4 114/2/4 115/2/4
f 115/2/4 114/2/4 116/2/4
f 115/1/4 116/1/4 117/1/4
f 115/1/4 117/1/4 119/1/4
f 117/2/4 118/2/4 119/2/4
f 119/2/4 118/2/4 120/2/4
f 115/1/4 119/1/4 121/1/4
f 121/1/4 119/1/4 122/1/4
f 121/2/4 122/2/4 123/2/4
f 123/2/4 122/2/4 124/2/4
f 123/1/4 124/1/4 125/1/4
f 123/1/4 125/1/4 127/1/4
f 125/1/4 126/1/4 127/1/4
f 127/1/4 126/1/4 128/1/4
f 123/1/4 127/1/4 129/1/4
f 127/2/4 128/2/4 130/2/4
f 129/1/4 127/1/4 130/1/4
f 130/2/4 128/2/4 131/2/4
f 129/2/4 130/2/4 132/2/4
f 130/1/4 131/1/4 133/1/4
f 132/2/4 130/2/4 133/2/4
f 133/1/4 131/1/4 134/1/4
f 132/1/4 133/1/4 135/1/4
f 135/1/4 133/1/4 136/1/4
f 137/2/4 138/2/4 139/2/4
f 139/2/4 138/2/4 140/2/4
f 139/1/4 140/1/4 141/1/4
f 141/1/4 140/1/4 142/1/4
f 141/2/4 142/2/4 144/2/4
f 143/1/4 144/1/4 145/1/4
f 144/2/4 142/2/4 146/2/4
f 145/1/4 144/1/4 146/1/4
f 145/2/4 146/2/4 147/2/4
f 146/2/4 142/2/4 147/2/4
f 147/2/4 142/2/4 148/2/4
f 145/2/4 147/2/4 149/2/4
f 147/1/4 148/1/4 150/1/4
f 149/2/4 147/2/4 150/2/4
f 149/1/4 150/1/4 151/1/4
f 150/1/4 148/1/4 151/1/4
f 151/1/4 148/1/4 152/1/4
f 149/1/4 151/1/4 153/1/4
f 151/2/4 152/2/4 154/2/4
f 153/1/4 151/1/4 154/1/4
f 154/2/4 152/2/4 155/2/4
f 167/1/5 157/1/5 156/1/5
f 168/1/5 157/1/5 167/1/5
f 169/2/5 158/2/5 157/2/5
f 169/1/5 157/1/5 168/1/5
f 170/2/5 158/2/5 169/2/5
f 171/1/5 159/1/5 158/1/5
f 171/2/5 158/2/5 170/2/5
f 172/2/5 160/2/5 159/2/5
f 172/1/5 159/1/5 171/1/5
f 173/2/5 160/2/5 172/2/5
f 174/2/5 160/2/5 173/2/5
f 175/1/5 161/1/5 160/1/5
f 175/2/5 160/2/5 174/2/5
f 176/1/5 161/1/5 175/1/5
f 177/1/5 161/1/5 176/1/5
f 178/2/5 162/2/5 161/2/5
f 178/1/5 161/1/5 177/1/5
f 179/2/5 162/2/5 178/2/5
f 181/1/5 164/1/5 163/1/5
f 182/2/5 165/2/5 164/2/5
f 182/1/5 164/1/5 181/1/5
f 183/1/5 166/1/5 165/1/5
f 183/2/5 165/2/5 182/2/5
f 184/2/5 168/2/5 167/2/5
f 184/1/5 166/1/5 183/1/5
f 184/2/5 167/2/5 166/2/5
f 185/1/5 170/1/5 169/1/5
f 185/2/5 168/2/5 184/2/5
f 185/1/5 169/1/5 168/1/5
f 186/2/5 171/2/5 170/2/5
f 186/1/5 170/1/5 185/1/5
f 186/2/5 172/2/5 171/2/5
f 186/2/5 173/2/5 172/2/5
f 187/1/5 174/1/5 173/1/5
f 187/2/5 173/2/5 186/2/5
f 188/1/5 174/1/5 187/1/5
f 189/1/5 177/1/5 176/1/5
f 190/2/5 178/2/5 177/2/5
f 190/1/5 177/1/5 189/1/5
f 191/1/5 180/1/5 179/1/5
f 191/2/5 178/2/5 190/2/5
f 191/1/5 179/1/5 178/1/5
f 192/1/5 180/1/5 191/1/5
f 198/2/5 194/2/5 193/2/5
f 199/1/5 195/1/5 194/1/5
f 199/2/5 194/2/5 198/2/5
f 199/1/5 196/1/5 195/1/5
f 200/2/5 197/2/5 196/2/5
f 200/1/5 196/1/5 199/1/5
f 201/2/5 197/2/5 200/2/5
f 202/1/6 203/1/6 215/1/6
f 215/1/6 203/1/6 216/1/6
f 216/1/6 203/1/6 217/1/6
f 217/1/6 203/1/6 218/1/6
f 203/2/6 204/2/6 219/2/6
f 218/1/6 203/1/6 219/1/6
f 219/2/6 204/2/6 220/2/6
f 204/1/6 205/1/6 221/1/6
f 220/2/6 204/2/6 221/2/6
f 205/2/6 206/2/6 222/2/6
f 221/1/6 205/1/6 222/1/6
f 222/2/6 206/2/6 223/2/6
f 223/2/6 206/2/6 224/2/6
f 224/2/6 206/2/6 225/2/6
f 225/2/6 206/2/6 226/2/6
f 206/1/6 207/1/6 227/1/6
f 226/2/6 206/2/6 227/2/6
f 227/1/6 207/1/6 228/1/6
f 228/1/6 207/1/6 229/1/6
f 207/2/6 208/2/6 230/2/6
f 229/1/6 207/1/6 230/1/6
f 230/2/6 208/2/6 231/2/6
f 209/1/6 210/1/6 232/1/6
f 210/2/6 211/2/6 233/2/6
f 232/1/6 210/1/6 233/1/6
f 211/1/6 212/1/6 234/1/6
f 233/2/6 211/2/6 234/2/6
f 234/1/6 212/1/6 235/1/6
f 213/1/6 214/1/6 236/1/6
f 215/2/6 216/2/6 237/2/6
f 236/1/6 214/1/6 237/1/6
f 214/2/6 215/2/6 237/2/6
f 216/1/6 217/1/6 238/1/6
f 237/2/6 216/2/6 238/2/6
f 238/1/6 217/1/6 239/1/6
f 223/1/6 224/1/6 240/1/6
f 240/1/6 224/1/6 241/1/6
f 242/2/6 243/2/6 254/2/6
f 254/2/6 243/2/6 255/2/6
f 244/1/6 245/1/6 256/1/6
f 245/2/6 246/2/6 257/2/6
f 256/1/6 245/1/6 257/1/6
f 246/1/6 247/1/6 258/1/6
f 257/2/6 246/2/6 258/2/6
f 258/1/6 247/1/6 259/1/6
f 248/2/6 249/2/6 260/2/6
f 249/1/6 250/1/6 261/1/6
f 260/2/6 249/2/6 261/2/6
f 250/2/6 251/2/6 262/2/6
f 261/1/6 250/1/6 262/1/6
f 251/1/6 252/1/6 263/1/6
f 262/2/6 251/2/6 263/2/6
f 252/2/6 253/2/6 264/2/6
f 263/1/6 252/1/6 264/1/6
f 264/2/6 253/2/6 265/2/6
