# MagicaVoxel @ Ephtracy

# group
o 

# material
mtllib SnakeTail.mtl
usemtl palette

# normals
vn -1 0 0
vn 1 0 0
vn 0 0 1
vn 0 0 -1
vn 0 -1 0
vn 0 1 0

# texcoords
vt 0.0449219 0.5
vt 0.892578 0.5
vt 0.900391 0.5
vt 0.974609 0.5

# verts
v -1 -0.2 0
v -1 -0.2 -0.1
v -1 -0.1 0
v -1 -0.1 -0.1
v -1 0 0
v -1 0 -0.1
v -0.9 -0.2 0.1
v -0.9 -0.2 0
v -0.9 -0.2 -0.1
v -0.9 -0.2 -0.2
v -0.9 -0.1 0.1
v -0.9 -0.1 0
v -0.9 -0.1 -0.1
v -0.9 -0.1 -0.2
v -0.7 -0.1 0.1
v -0.7 -0.1 0
v -0.7 -0.1 -0.1
v -0.7 -0.1 -0.2
v -0.7 0 0.1
v -0.7 0 0
v -0.7 0 -0.1
v -0.7 0 -0.2
v -0.6 0 0.1
v -0.6 0 -0.2
v -0.6 0.1 0.1
v -0.6 0.1 -0.2
v -0.5 -0.1 0.2
v -0.5 -0.1 0.1
v -0.5 -0.1 -0.2
v -0.5 -0.1 -0.3
v -0.5 0 0.2
v -0.5 0 0.1
v -0.5 0 -0.2
v -0.5 0 -0.3
v -0.2 0 0.2
v -0.2 0 0.1
v -0.2 0 -0.2
v -0.2 0 -0.3
v -0.2 0.1 0.2
v -0.2 0.1 0.1
v -0.2 0.1 -0.2
v -0.2 0.1 -0.3
v 0 0.1 0.1
v 0 0.1 -0.2
v 0 0.2 0.1
v 0 0.2 -0.2
v 0.1 0.1 0.2
v 0.1 0.1 0.1
v 0.1 0.1 -0.2
v 0.1 0.1 -0.3
v 0.1 0.2 0.2
v 0.1 0.2 0.1
v 0.1 0.2 -0.2
v 0.1 0.2 -0.3
v 0.4 0.2 0.1
v 0.4 0.2 -0.2
v 0.4 0.3 0.1
v 0.4 0.3 -0.2
v 0.8 -0.2 0.1
v 0.8 -0.2 0
v 0.8 -0.2 -0.1
v 0.8 -0.2 -0.2
v 0.8 -0.1 0.2
v 0.8 -0.1 0.1
v 0.8 -0.1 0
v 0.8 -0.1 -0.1
v 0.8 -0.1 -0.2
v 0.8 -0.1 -0.3
v 0.8 0 0.2
v 0.8 0 0.1
v 0.8 0 -0.2
v 0.8 0 -0.3
v 0.8 0.2 0.2
v 0.8 0.2 0.1
v 0.8 0.2 -0.2
v 0.8 0.2 -0.3
v 0.8 0.3 0.1
v 0.8 0.3 -0.2
v 1 -0.1 0.1
v 1 -0.1 -0.2
v 1 0 0.1
v 1 0 -0.2
v 1 0.2 0.1
v 1 0.2 -0.2
v -0.5 -0.1 0.2
v -0.5 0 0.2
v -0.2 0 0.2
v -0.2 0.1 0.2
v 0.1 0.1 0.2
v 0.1 0.2 0.2
v 0.8 -0.1 0.2
v 0.8 0 0.2
v 0.8 0.2 0.2
v -0.9 -0.2 0.1
v -0.9 -0.1 0.1
v -0.7 -0.1 0.1
v -0.7 0 0.1
v -0.6 -0.2 0.1
v -0.6 -0.1 0.1
v -0.6 0 0.1
v -0.6 0.1 0.1
v -0.5 -0.1 0.1
v -0.5 0 0.1
v -0.2 0 0.1
v -0.2 0.1 0.1
v 0 0.1 0.1
v 0 0.2 0.1
v 0.1 0.1 0.1
v 0.1 0.2 0.1
v 0.4 0.2 0.1
v 0.4 0.3 0.1
v 0.8 -0.2 0.1
v 0.8 -0.1 0.1
v 0.8 0 0.1
v 0.8 0.2 0.1
v 0.8 0.3 0.1
v 1 -0.1 0.1
v 1 0 0.1
v 1 0.2 0.1
v -1 -0.2 0
v -1 -0.1 0
v -1 0 0
v -0.9 -0.2 0
v -0.9 -0.1 0
v -0.7 -0.1 0
v -0.7 0 0
v -1 -0.2 -0.1
v -1 -0.1 -0.1
v -1 0 -0.1
v -0.9 -0.2 -0.1
v -0.9 -0.1 -0.1
v -0.7 -0.1 -0.1
v -0.7 0 -0.1
v -0.9 -0.2 -0.2
v -0.9 -0.1 -0.2
v -0.7 -0.1 -0.2
v -0.7 0 -0.2
v -0.6 -0.2 -0.2
v -0.6 -0.1 -0.2
v -0.6 0 -0.2
v -0.6 0.1 -0.2
v -0.5 -0.1 -0.2
v -0.5 0 -0.2
v -0.2 0 -0.2
v -0.2 0.1 -0.2
v 0 0.1 -0.2
v 0 0.2 -0.2
v 0.1 0.1 -0.2
v 0.1 0.2 -0.2
v 0.4 0.2 -0.2
v 0.4 0.3 -0.2
v 0.8 -0.2 -0.2
v 0.8 -0.1 -0.2
v 0.8 0 -0.2
v 0.8 0.2 -0.2
v 0.8 0.3 -0.2
v 1 -0.1 -0.2
v 1 0 -0.2
v 1 0.2 -0.2
v -0.5 -0.1 -0.3
v -0.5 0 -0.3
v -0.2 0 -0.3
v -0.2 0.1 -0.3
v 0.1 0.1 -0.3
v 0.1 0.2 -0.3
v 0.8 -0.1 -0.3
v 0.8 0 -0.3
v 0.8 0.2 -0.3
v -0.9 -0.2 0.1
v -0.6 -0.2 0.1
v 0.8 -0.2 0.1
v -1 -0.2 0
v -0.9 -0.2 0
v -0.6 -0.2 0
v 0.8 -0.2 0
v -1 -0.2 -0.1
v -0.9 -0.2 -0.1
v -0.6 -0.2 -0.1
v 0.8 -0.2 -0.1
v -0.9 -0.2 -0.2
v -0.6 -0.2 -0.2
v 0.8 -0.2 -0.2
v -0.5 -0.1 0.2
v 0.8 -0.1 0.2
v -0.5 -0.1 0.1
v 0.8 -0.1 0.1
v 1 -0.1 0.1
v 0.8 -0.1 0
v 0.8 -0.1 -0.1
v -0.5 -0.1 -0.2
v 0.8 -0.1 -0.2
v 1 -0.1 -0.2
v -0.5 -0.1 -0.3
v 0.8 -0.1 -0.3
v -0.9 -0.1 0.1
v -0.7 -0.1 0.1
v -0.9 -0.1 0
v -0.7 -0.1 0
v -0.9 -0.1 -0.1
v -0.7 -0.1 -0.1
v -0.9 -0.1 -0.2
v -0.7 -0.1 -0.2
v -0.5 0 0.2
v -0.2 0 0.2
v -0.7 0 0.1
v -0.6 0 0.1
v -0.5 0 0.1
v -0.2 0 0.1
v -1 0 0
v -0.7 0 0
v -1 0 -0.1
v -0.7 0 -0.1
v -0.7 0 -0.2
v -0.6 0 -0.2
v -0.5 0 -0.2
v -0.2 0 -0.2
v -0.5 0 -0.3
v -0.2 0 -0.3
v -0.2 0.1 0.2
v 0.1 0.1 0.2
v -0.6 0.1 0.1
v -0.2 0.1 0.1
v 0 0.1 0.1
v 0.1 0.1 0.1
v -0.6 0.1 -0.2
v -0.2 0.1 -0.2
v 0 0.1 -0.2
v 0.1 0.1 -0.2
v -0.2 0.1 -0.3
v 0.1 0.1 -0.3
v 0.1 0.2 0.2
v 0.8 0.2 0.2
v 0 0.2 0.1
v 0.1 0.2 0.1
v 0.4 0.2 0.1
v 0.8 0.2 0.1
v 1 0.2 0.1
v 0 0.2 -0.2
v 0.1 0.2 -0.2
v 0.4 0.2 -0.2
v 0.8 0.2 -0.2
v 1 0.2 -0.2
v 0.1 0.2 -0.3
v 0.8 0.2 -0.3
v 0.4 0.3 0.1
v 0.8 0.3 0.1
v 0.4 0.3 -0.2
v 0.8 0.3 -0.2

# faces
f 3/4/1 2/4/1 1/4/1
f 4/4/1 2/4/1 3/4/1
f 5/3/1 4/3/1 3/3/1
f 6/3/1 4/3/1 5/3/1
f 11/4/1 8/4/1 7/4/1
f 12/4/1 8/4/1 11/4/1
f 13/4/1 10/4/1 9/4/1
f 14/4/1 10/4/1 13/4/1
f 19/3/1 16/3/1 15/3/1
f 20/3/1 16/3/1 19/3/1
f 21/3/1 18/3/1 17/3/1
f 22/3/1 18/3/1 21/3/1
f 25/3/1 24/3/1 23/3/1
f 26/3/1 24/3/1 25/3/1
f 31/4/1 28/4/1 27/4/1
f 32/4/1 28/4/1 31/4/1
f 33/4/1 30/4/1 29/4/1
f 34/4/1 30/4/1 33/4/1
f 39/3/1 36/3/1 35/3/1
f 40/3/1 36/3/1 39/3/1
f 41/3/1 38/3/1 37/3/1
f 42/3/1 38/3/1 41/3/1
f 45/3/1 44/3/1 43/3/1
f 46/3/1 44/3/1 45/3/1
f 51/3/1 48/3/1 47/3/1
f 52/3/1 48/3/1 51/3/1
f 53/3/1 50/3/1 49/3/1
f 54/3/1 50/3/1 53/3/1
f 57/3/1 56/3/1 55/3/1
f 58/3/1 56/3/1 57/3/1
f 59/2/2 60/2/2 64/2/2
f 60/1/2 61/1/2 65/1/2
f 64/2/2 60/2/2 65/2/2
f 61/2/2 62/2/2 66/2/2
f 65/1/2 61/1/2 66/1/2
f 66/2/2 62/2/2 67/2/2
f 63/4/2 64/4/2 69/4/2
f 69/4/2 64/4/2 70/4/2
f 67/4/2 68/4/2 71/4/2
f 71/4/2 68/4/2 72/4/2
f 69/3/2 70/3/2 73/3/2
f 73/3/2 70/3/2 74/3/2
f 71/3/2 72/3/2 75/3/2
f 75/3/2 72/3/2 76/3/2
f 74/3/2 75/3/2 77/3/2
f 77/3/2 75/3/2 78/3/2
f 79/4/2 80/4/2 81/4/2
f 81/4/2 80/4/2 82/4/2
f 81/3/2 82/3/2 83/3/2
f 83/3/2 82/3/2 84/3/2
f 87/4/3 86/4/3 85/4/3
f 89/3/3 88/3/3 87/3/3
f 91/4/3 87/4/3 85/4/3
f 92/3/3 90/3/3 89/3/3
f 92/4/3 87/4/3 91/4/3
f 92/3/3 89/3/3 87/3/3
f 93/3/3 90/3/3 92/3/3
f 96/4/3 95/4/3 94/4/3
f 98/4/3 96/4/3 94/4/3
f 99/3/3 97/3/3 96/3/3
f 99/4/3 96/4/3 98/4/3
f 100/3/3 97/3/3 99/3/3
f 102/2/3 99/2/3 98/2/3
f 102/4/3 100/4/3 99/4/3
f 103/3/3 101/3/3 100/3/3
f 103/4/3 100/4/3 102/4/3
f 104/3/3 101/3/3 103/3/3
f 105/3/3 101/3/3 104/3/3
f 108/3/3 107/3/3 106/3/3
f 109/3/3 107/3/3 108/3/3
f 112/2/3 102/2/3 98/2/3
f 113/2/3 102/2/3 112/2/3
f 115/3/3 111/3/3 110/3/3
f 116/3/3 111/3/3 115/3/3
f 117/4/3 114/4/3 113/4/3
f 118/3/3 115/3/3 114/3/3
f 118/4/3 114/4/3 117/4/3
f 119/3/3 115/3/3 118/3/3
f 123/4/3 121/4/3 120/4/3
f 124/3/3 122/3/3 121/3/3
f 124/4/3 121/4/3 123/4/3
f 125/3/3 122/3/3 124/3/3
f 126/3/3 122/3/3 125/3/3
f 127/4/4 128/4/4 130/4/4
f 128/3/4 129/3/4 131/3/4
f 130/4/4 128/4/4 131/4/4
f 131/3/4 129/3/4 132/3/4
f 132/3/4 129/3/4 133/3/4
f 134/4/4 135/4/4 136/4/4
f 134/4/4 136/4/4 138/4/4
f 136/3/4 137/3/4 139/3/4
f 138/4/4 136/4/4 139/4/4
f 139/3/4 137/3/4 140/3/4
f 138/2/4 139/2/4 142/2/4
f 139/4/4 140/4/4 142/4/4
f 140/3/4 141/3/4 143/3/4
f 142/4/4 140/4/4 143/4/4
f 143/3/4 141/3/4 144/3/4
f 144/3/4 141/3/4 145/3/4
f 146/3/4 147/3/4 148/3/4
f 148/3/4 147/3/4 149/3/4
f 138/2/4 142/2/4 152/2/4
f 152/2/4 142/2/4 153/2/4
f 150/3/4 151/3/4 155/3/4
f 155/3/4 151/3/4 156/3/4
f 153/4/4 154/4/4 157/4/4
f 154/3/4 155/3/4 158/3/4
f 157/4/4 154/4/4 158/4/4
f 158/3/4 155/3/4 159/3/4
f 160/4/4 161/4/4 162/4/4
f 162/3/4 163/3/4 164/3/4
f 160/4/4 162/4/4 166/4/4
f 164/3/4 165/3/4 167/3/4
f 166/4/4 162/4/4 167/4/4
f 162/3/4 164/3/4 167/3/4
f 167/3/4 165/3/4 168/3/4
f 173/4/5 170/4/5 169/4/5
f 174/2/5 171/2/5 170/2/5
f 174/4/5 170/4/5 173/4/5
f 175/2/5 171/2/5 174/2/5
f 176/4/5 173/4/5 172/4/5
f 177/2/5 174/2/5 173/2/5
f 177/4/5 173/4/5 176/4/5
f 178/1/5 175/1/5 174/1/5
f 178/2/5 174/2/5 177/2/5
f 179/1/5 175/1/5 178/1/5
f 180/4/5 178/4/5 177/4/5
f 181/2/5 179/2/5 178/2/5
f 181/4/5 178/4/5 180/4/5
f 182/2/5 179/2/5 181/2/5
f 185/4/5 184/4/5 183/4/5
f 186/4/5 184/4/5 185/4/5
f 188/4/5 187/4/5 186/4/5
f 189/4/5 187/4/5 188/4/5
f 191/4/5 187/4/5 189/4/5
f 192/4/5 187/4/5 191/4/5
f 193/4/5 191/4/5 190/4/5
f 194/4/5 191/4/5 193/4/5
f 195/4/6 196/4/6 197/4/6
f 197/4/6 196/4/6 198/4/6
f 199/4/6 200/4/6 201/4/6
f 201/4/6 200/4/6 202/4/6
f 203/4/6 204/4/6 207/4/6
f 207/4/6 204/4/6 208/4/6
f 205/3/6 206/3/6 210/3/6
f 209/3/6 210/3/6 211/3/6
f 210/3/6 206/3/6 212/3/6
f 211/3/6 210/3/6 212/3/6
f 212/3/6 206/3/6 213/3/6
f 213/3/6 206/3/6 214/3/6
f 215/4/6 216/4/6 217/4/6
f 217/4/6 216/4/6 218/4/6
f 219/3/6 220/3/6 222/3/6
f 222/3/6 220/3/6 223/3/6
f 223/3/6 220/3/6 224/3/6
f 221/3/6 222/3/6 225/3/6
f 222/3/6 223/3/6 225/3/6
f 225/3/6 223/3/6 226/3/6
f 226/3/6 223/3/6 227/3/6
f 227/3/6 228/3/6 229/3/6
f 226/3/6 227/3/6 229/3/6
f 229/3/6 228/3/6 230/3/6
f 231/3/6 232/3/6 234/3/6
f 234/3/6 232/3/6 235/3/6
f 235/3/6 232/3/6 236/3/6
f 233/3/6 234/3/6 238/3/6
f 234/3/6 235/3/6 238/3/6
f 238/3/6 235/3/6 239/3/6
f 239/3/6 235/3/6 240/3/6
f 236/3/6 237/3/6 241/3/6
f 241/3/6 237/3/6 242/3/6
f 239/3/6 240/3/6 243/3/6
f 240/3/6 241/3/6 243/3/6
f 243/3/6 241/3/6 244/3/6
f 245/3/6 246/3/6 247/3/6
f 247/3/6 246/3/6 248/3/6
