# MagicaVoxel @ Ephtracy

# group
o 

# material
mtllib DefaultLeg.mtl
usemtl palette

# normals
vn -1 0 0
vn 1 0 0
vn 0 0 1
vn 0 0 -1
vn 0 -1 0
vn 0 1 0

# texcoords
vt 0.876953 0.5
vt 0.880859 0.5
vt 0.908203 0.5
vt 0.912109 0.5
vt 0.939453 0.5
vt 0.943359 0.5
vt 0.978516 0.5
vt 0.986328 0.5

# verts
v -0.2 -0.2 0.3
v -0.2 -0.2 -0.3
v -0.2 -0.1 0.3
v -0.2 -0.1 0.2
v -0.2 -0.1 -0.1
v -0.2 -0.1 -0.2
v -0.2 -0.1 -0.3
v -0.2 0 0.3
v -0.2 0 0.2
v -0.2 0 0.1
v -0.2 0 0
v -0.2 0 -0.1
v -0.2 0 -0.2
v -0.2 0.1 0.2
v -0.2 0.1 0.1
v -0.2 0.1 0
v -0.1 -0.2 0.4
v -0.1 -0.2 0.3
v -0.1 -0.2 -0.3
v -0.1 -0.2 -0.5
v -0.1 -0.1 0.4
v -0.1 -0.1 0.3
v -0.1 -0.1 -0.2
v -0.1 -0.1 -0.3
v -0.1 -0.1 -0.4
v -0.1 -0.1 -0.5
v -0.1 0 0.4
v -0.1 0 0.3
v -0.1 0 0.2
v -0.1 0 0
v -0.1 0 -0.1
v -0.1 0 -0.2
v -0.1 0 -0.3
v -0.1 0 -0.4
v -0.1 0.1 0.4
v -0.1 0.1 0.3
v -0.1 0.1 0.2
v -0.1 0.1 0.1
v -0.1 0.1 0
v -0.1 0.1 -0.3
v -0.1 0.2 0.3
v -0.1 0.2 0.2
v -0.1 0.2 0
v 0.1 -0.2 0.4
v 0.1 -0.2 0.3
v 0.1 -0.2 -0.3
v 0.1 -0.2 -0.5
v 0.1 -0.1 0.4
v 0.1 -0.1 0.3
v 0.1 -0.1 -0.2
v 0.1 -0.1 -0.3
v 0.1 -0.1 -0.4
v 0.1 -0.1 -0.5
v 0.1 0 0.4
v 0.1 0 0.3
v 0.1 0 0.2
v 0.1 0 0
v 0.1 0 -0.1
v 0.1 0 -0.2
v 0.1 0 -0.3
v 0.1 0 -0.4
v 0.1 0.1 0.4
v 0.1 0.1 0.3
v 0.1 0.1 0.2
v 0.1 0.1 0.1
v 0.1 0.1 0
v 0.1 0.1 -0.1
v 0.1 0.1 -0.3
v 0.1 0.2 0.3
v 0.1 0.2 0.1
v 0.1 0.2 0
v 0.2 -0.2 0.3
v 0.2 -0.2 -0.3
v 0.2 -0.1 0.3
v 0.2 -0.1 0.2
v 0.2 -0.1 0.1
v 0.2 -0.1 -0.2
v 0.2 -0.1 -0.3
v 0.2 0 0.3
v 0.2 0 0.2
v 0.2 0 0.1
v 0.2 0 0
v 0.2 0 -0.2
v 0.2 0.1 0.2
v 0.2 0.1 0.1
v 0.2 0.1 0
v -0.1 -0.2 0.4
v -0.1 -0.1 0.4
v -0.1 0 0.4
v -0.1 0.1 0.4
v 0 0 0.4
v 0 0.1 0.4
v 0.1 -0.2 0.4
v 0.1 -0.1 0.4
v 0.1 0 0.4
v 0.1 0.1 0.4
v -0.2 -0.2 0.3
v -0.2 -0.1 0.3
v -0.2 0 0.3
v -0.1 -0.2 0.3
v -0.1 -0.1 0.3
v -0.1 0 0.3
v -0.1 0.1 0.3
v -0.1 0.2 0.3
v 0 0.1 0.3
v 0.1 -0.2 0.3
v 0.1 -0.1 0.3
v 0.1 0 0.3
v 0.1 0.1 0.3
v 0.1 0.2 0.3
v 0.2 -0.2 0.3
v 0.2 -0.1 0.3
v 0.2 0 0.3
v -0.2 0 0.2
v -0.2 0.1 0.2
v -0.1 0 0.2
v -0.1 0.1 0.2
v 0.1 0 0.2
v 0.1 0.1 0.2
v 0.2 0 0.2
v 0.2 0.1 0.2
v -0.2 0 0
v -0.2 0.1 0
v -0.1 0 0
v -0.1 0.1 0
v -0.1 0.2 0
v 0 0.1 0
v 0.1 0 0
v 0.1 0.1 0
v 0.1 0.2 0
v 0.2 0 0
v 0.2 0.1 0
v -0.2 -0.1 -0.2
v -0.2 0 -0.2
v -0.1 -0.1 -0.2
v -0.1 0 -0.2
v 0.1 -0.1 -0.2
v 0.1 0 -0.2
v 0.2 -0.1 -0.2
v 0.2 0 -0.2
v -0.2 -0.2 -0.3
v -0.2 -0.1 -0.3
v -0.1 -0.2 -0.3
v -0.1 -0.1 -0.3
v -0.1 0 -0.3
v -0.1 0.1 -0.3
v 0 0 -0.3
v 0 0.1 -0.3
v 0.1 -0.2 -0.3
v 0.1 -0.1 -0.3
v 0.1 0 -0.3
v 0.1 0.1 -0.3
v 0.2 -0.2 -0.3
v 0.2 -0.1 -0.3
v -0.1 -0.1 -0.4
v -0.1 0 -0.4
v 0 -0.1 -0.4
v 0 0 -0.4
v 0.1 -0.1 -0.4
v 0.1 0 -0.4
v -0.1 -0.2 -0.5
v -0.1 -0.1 -0.5
v 0.1 -0.2 -0.5
v 0.1 -0.1 -0.5
v -0.1 -0.2 0.4
v 0.1 -0.2 0.4
v -0.2 -0.2 0.3
v -0.1 -0.2 0.3
v 0.1 -0.2 0.3
v 0.2 -0.2 0.3
v -0.2 -0.2 -0.3
v -0.1 -0.2 -0.3
v 0.1 -0.2 -0.3
v 0.2 -0.2 -0.3
v -0.1 -0.2 -0.5
v 0.1 -0.2 -0.5
v -0.2 -0.1 -0.2
v -0.1 -0.1 -0.2
v 0.1 -0.1 -0.2
v 0.2 -0.1 -0.2
v -0.2 -0.1 -0.3
v -0.1 -0.1 -0.3
v 0.1 -0.1 -0.3
v 0.2 -0.1 -0.3
v -0.1 -0.1 -0.4
v 0 -0.1 -0.4
v 0.1 -0.1 -0.4
v -0.1 -0.1 -0.5
v 0.1 -0.1 -0.5
v -0.2 0 0.3
v -0.1 0 0.3
v 0.1 0 0.3
v 0.2 0 0.3
v -0.2 0 0.2
v -0.1 0 0.2
v 0.1 0 0.2
v 0.2 0 0.2
v -0.2 0 0
v -0.1 0 0
v 0.1 0 0
v 0.2 0 0
v -0.2 0 -0.1
v -0.1 0 -0.1
v 0.1 0 -0.1
v -0.2 0 -0.2
v -0.1 0 -0.2
v 0.1 0 -0.2
v 0.2 0 -0.2
v -0.1 0 -0.3
v 0 0 -0.3
v 0.1 0 -0.3
v -0.1 0 -0.4
v 0 0 -0.4
v 0.1 0 -0.4
v -0.1 0.1 0.4
v 0 0.1 0.4
v 0.1 0.1 0.4
v -0.1 0.1 0.3
v 0 0.1 0.3
v 0.1 0.1 0.3
v -0.2 0.1 0.2
v -0.1 0.1 0.2
v 0.1 0.1 0.2
v 0.2 0.1 0.2
v -0.2 0.1 0.1
v -0.1 0.1 0.1
v 0.1 0.1 0.1
v 0.2 0.1 0.1
v -0.2 0.1 0
v -0.1 0.1 0
v 0 0.1 0
v 0.1 0.1 0
v 0.2 0.1 0
v 0 0.1 -0.1
v 0.1 0.1 -0.1
v -0.1 0.1 -0.3
v 0 0.1 -0.3
v 0.1 0.1 -0.3
v -0.1 0.2 0.3
v 0.1 0.2 0.3
v -0.1 0.2 0.2
v 0 0.2 0.2
v 0 0.2 0.1
v 0.1 0.2 0.1
v -0.1 0.2 0
v 0.1 0.2 0

# faces
f 3/6/1 2/6/1 1/6/1
f 4/6/1 2/6/1 3/6/1
f 5/6/1 2/6/1 4/6/1
f 6/6/1 2/6/1 5/6/1
f 7/6/1 2/6/1 6/6/1
f 8/2/1 4/2/1 3/2/1
f 9/5/1 5/5/1 4/5/1
f 9/2/1 4/2/1 8/2/1
f 10/5/1 5/5/1 9/5/1
f 11/5/1 5/5/1 10/5/1
f 12/2/1 6/2/1 5/2/1
f 12/5/1 5/5/1 11/5/1
f 13/2/1 6/2/1 12/2/1
f 14/4/1 10/4/1 9/4/1
f 15/1/1 11/1/1 10/1/1
f 15/4/1 10/4/1 14/4/1
f 16/1/1 11/1/1 15/1/1
f 21/6/1 18/6/1 17/6/1
f 22/6/1 18/6/1 21/6/1
f 24/6/1 20/6/1 19/6/1
f 25/6/1 20/6/1 24/6/1
f 26/6/1 20/6/1 25/6/1
f 27/5/1 22/5/1 21/5/1
f 28/5/1 22/5/1 27/5/1
f 32/2/1 24/2/1 23/2/1
f 33/5/1 25/5/1 24/5/1
f 33/2/1 24/2/1 32/2/1
f 34/5/1 25/5/1 33/5/1
f 35/4/1 28/4/1 27/4/1
f 36/3/1 29/3/1 28/3/1
f 36/4/1 28/4/1 35/4/1
f 37/3/1 29/3/1 36/3/1
f 39/1/1 31/1/1 30/1/1
f 39/1/1 32/1/1 31/1/1
f 39/1/1 33/1/1 32/1/1
f 40/1/1 33/1/1 39/1/1
f 41/4/1 37/4/1 36/4/1
f 42/3/1 38/3/1 37/3/1
f 42/4/1 37/4/1 41/4/1
f 42/3/1 39/3/1 38/3/1
f 43/3/1 39/3/1 42/3/1
f 44/6/2 45/6/2 48/6/2
f 48/6/2 45/6/2 49/6/2
f 46/6/2 47/6/2 51/6/2
f 51/6/2 47/6/2 52/6/2
f 52/6/2 47/6/2 53/6/2
f 48/5/2 49/5/2 54/5/2
f 54/5/2 49/5/2 55/5/2
f 50/2/2 51/2/2 59/2/2
f 51/2/2 52/2/2 59/2/2
f 59/2/2 52/2/2 60/2/2
f 60/2/2 52/2/2 61/2/2
f 54/2/2 55/2/2 62/2/2
f 55/4/2 56/4/2 63/4/2
f 62/2/2 55/2/2 63/2/2
f 63/4/2 56/4/2 64/4/2
f 57/3/2 58/3/2 66/3/2
f 58/2/2 59/2/2 67/2/2
f 59/2/2 60/2/2 67/2/2
f 66/3/2 58/3/2 67/3/2
f 67/2/2 60/2/2 68/2/2
f 64/4/2 65/4/2 69/4/2
f 63/4/2 64/4/2 69/4/2
f 65/3/2 66/3/2 70/3/2
f 69/4/2 65/4/2 70/4/2
f 70/3/2 66/3/2 71/3/2
f 72/6/2 73/6/2 74/6/2
f 74/6/2 73/6/2 75/6/2
f 75/6/2 73/6/2 76/6/2
f 76/6/2 73/6/2 77/6/2
f 77/6/2 73/6/2 78/6/2
f 74/5/2 75/5/2 79/5/2
f 75/2/2 76/2/2 80/2/2
f 79/5/2 75/5/2 80/5/2
f 76/5/2 77/5/2 81/5/2
f 80/2/2 76/2/2 81/2/2
f 81/5/2 77/5/2 82/5/2
f 82/5/2 77/5/2 83/5/2
f 80/2/2 81/2/2 84/2/2
f 81/1/2 82/1/2 85/1/2
f 84/2/2 81/2/2 85/2/2
f 85/1/2 82/1/2 86/1/2
f 91/5/3 89/5/3 88/5/3
f 91/4/3 90/4/3 89/4/3
f 92/4/3 90/4/3 91/4/3
f 93/6/3 88/6/3 87/6/3
f 94/5/3 91/5/3 88/5/3
f 94/6/3 88/6/3 93/6/3
f 95/2/3 92/2/3 91/2/3
f 95/5/3 91/5/3 94/5/3
f 96/2/3 92/2/3 95/2/3
f 100/6/3 98/6/3 97/6/3
f 101/2/3 99/2/3 98/2/3
f 101/6/3 98/6/3 100/6/3
f 102/2/3 99/2/3 101/2/3
f 105/4/3 104/4/3 103/4/3
f 109/4/3 104/4/3 105/4/3
f 110/4/3 104/4/3 109/4/3
f 111/6/3 107/6/3 106/6/3
f 112/5/3 108/5/3 107/5/3
f 112/6/3 107/6/3 111/6/3
f 113/5/3 108/5/3 112/5/3
f 116/4/3 115/4/3 114/4/3
f 117/4/3 115/4/3 116/4/3
f 120/2/3 119/2/3 118/2/3
f 121/2/3 119/2/3 120/2/3
f 122/1/4 123/1/4 124/1/4
f 124/1/4 123/1/4 125/1/4
f 125/3/4 126/3/4 127/3/4
f 127/3/4 126/3/4 129/3/4
f 129/3/4 126/3/4 130/3/4
f 128/1/4 129/1/4 131/1/4
f 131/1/4 129/1/4 132/1/4
f 133/2/4 134/2/4 135/2/4
f 135/2/4 134/2/4 136/2/4
f 137/5/4 138/5/4 139/5/4
f 139/5/4 138/5/4 140/5/4
f 141/6/4 142/6/4 143/6/4
f 143/6/4 142/6/4 144/6/4
f 145/1/4 146/1/4 147/1/4
f 147/1/4 146/1/4 148/1/4
f 147/2/4 148/2/4 151/2/4
f 151/2/4 148/2/4 152/2/4
f 149/6/4 150/6/4 153/6/4
f 153/6/4 150/6/4 154/6/4
f 155/5/4 156/5/4 157/5/4
f 157/5/4 156/5/4 158/5/4
f 157/2/4 158/2/4 159/2/4
f 159/2/4 158/2/4 160/2/4
f 161/6/4 162/6/4 163/6/4
f 163/6/4 162/6/4 164/6/4
f 168/6/5 166/6/5 165/6/5
f 169/6/5 166/6/5 168/6/5
f 171/6/5 168/6/5 167/6/5
f 171/6/5 170/6/5 169/6/5
f 171/6/5 169/6/5 168/6/5
f 172/6/5 170/6/5 171/6/5
f 173/6/5 170/6/5 172/6/5
f 174/6/5 170/6/5 173/6/5
f 175/6/5 173/6/5 172/6/5
f 176/6/5 173/6/5 175/6/5
f 177/6/6 178/6/6 181/6/6
f 181/6/6 178/6/6 182/6/6
f 179/6/6 180/6/6 183/6/6
f 183/6/6 180/6/6 184/6/6
f 185/6/6 186/6/6 188/6/6
f 186/6/6 187/6/6 188/6/6
f 188/6/6 187/6/6 189/6/6
f 190/2/6 191/2/6 194/2/6
f 194/2/6 191/2/6 195/2/6
f 192/5/6 193/5/6 196/5/6
f 196/5/6 193/5/6 197/5/6
f 198/5/6 199/5/6 202/5/6
f 202/5/6 199/5/6 203/5/6
f 200/5/6 201/5/6 204/5/6
f 202/2/6 203/2/6 205/2/6
f 205/2/6 203/2/6 206/2/6
f 204/5/6 201/5/6 207/5/6
f 207/5/6 201/5/6 208/5/6
f 209/5/6 210/5/6 212/5/6
f 210/2/6 211/2/6 213/2/6
f 212/5/6 210/5/6 213/5/6
f 213/2/6 211/2/6 214/2/6
f 215/4/6 216/4/6 218/4/6
f 216/2/6 217/2/6 219/2/6
f 218/4/6 216/4/6 219/4/6
f 219/2/6 217/2/6 220/2/6
f 221/4/6 222/4/6 225/4/6
f 225/4/6 222/4/6 226/4/6
f 223/2/6 224/2/6 227/2/6
f 227/2/6 224/2/6 228/2/6
f 225/1/6 226/1/6 229/1/6
f 229/1/6 226/1/6 230/1/6
f 227/1/6 228/1/6 232/1/6
f 232/1/6 228/1/6 233/1/6
f 230/1/6 231/1/6 234/1/6
f 231/3/6 232/3/6 234/3/6
f 234/3/6 232/3/6 235/3/6
f 230/1/6 234/1/6 236/1/6
f 234/2/6 235/2/6 237/2/6
f 236/1/6 234/1/6 237/1/6
f 237/2/6 235/2/6 238/2/6
f 239/4/6 240/4/6 241/4/6
f 241/4/6 240/4/6 242/4/6
f 241/3/6 242/3/6 243/3/6
f 242/4/6 240/4/6 243/4/6
f 243/4/6 240/4/6 244/4/6
f 241/3/6 243/3/6 245/3/6
f 243/3/6 244/3/6 245/3/6
f 245/3/6 244/3/6 246/3/6
