# MagicaVoxel @ Ephtracy

# group
o 

# material
mtllib SnakeBody.mtl
usemtl palette

# normals
vn -1 0 0
vn 1 0 0
vn 0 0 1
vn 0 0 -1
vn 0 -1 0
vn 0 1 0

# texcoords
vt 0.0449219 0.5
vt 0.892578 0.5
vt 0.900391 0.5
vt 0.974609 0.5

# verts
v -1 -0.1 0.1
v -1 -0.1 -0.2
v -1 0 0.1
v -1 0 -0.2
v -1 0.2 0.1
v -1 0.2 -0.2
v -0.8 -0.2 0.1
v -0.8 -0.2 0
v -0.8 -0.2 -0.1
v -0.8 -0.2 -0.2
v -0.8 -0.1 0.2
v -0.8 -0.1 0.1
v -0.8 -0.1 0
v -0.8 -0.1 -0.1
v -0.8 -0.1 -0.2
v -0.8 -0.1 -0.3
v -0.8 0 0.2
v -0.8 0 0.1
v -0.8 0 -0.2
v -0.8 0 -0.3
v -0.8 0.2 0.2
v -0.8 0.2 0.1
v -0.8 0.2 -0.2
v -0.8 0.2 -0.3
v -0.8 0.3 0.1
v -0.8 0.3 -0.2
v 0.8 -0.2 0.1
v 0.8 -0.2 0
v 0.8 -0.2 -0.1
v 0.8 -0.2 -0.2
v 0.8 -0.1 0.2
v 0.8 -0.1 0.1
v 0.8 -0.1 0
v 0.8 -0.1 -0.1
v 0.8 -0.1 -0.2
v 0.8 -0.1 -0.3
v 0.8 0 0.2
v 0.8 0 0.1
v 0.8 0 -0.2
v 0.8 0 -0.3
v 0.8 0.2 0.2
v 0.8 0.2 0.1
v 0.8 0.2 -0.2
v 0.8 0.2 -0.3
v 0.8 0.3 0.1
v 0.8 0.3 -0.2
v 1 -0.1 0.1
v 1 -0.1 -0.2
v 1 0 0.1
v 1 0 -0.2
v 1 0.2 0.1
v 1 0.2 -0.2
v -0.8 -0.1 0.2
v -0.8 0 0.2
v -0.8 0.2 0.2
v 0.8 -0.1 0.2
v 0.8 0 0.2
v 0.8 0.2 0.2
v -1 -0.1 0.1
v -1 0 0.1
v -1 0.2 0.1
v -0.8 -0.2 0.1
v -0.8 -0.1 0.1
v -0.8 0 0.1
v -0.8 0.2 0.1
v -0.8 0.3 0.1
v 0.8 -0.2 0.1
v 0.8 -0.1 0.1
v 0.8 0 0.1
v 0.8 0.2 0.1
v 0.8 0.3 0.1
v 1 -0.1 0.1
v 1 0 0.1
v 1 0.2 0.1
v -1 -0.1 -0.2
v -1 0 -0.2
v -1 0.2 -0.2
v -0.8 -0.2 -0.2
v -0.8 -0.1 -0.2
v -0.8 0 -0.2
v -0.8 0.2 -0.2
v -0.8 0.3 -0.2
v 0.8 -0.2 -0.2
v 0.8 -0.1 -0.2
v 0.8 0 -0.2
v 0.8 0.2 -0.2
v 0.8 0.3 -0.2
v 1 -0.1 -0.2
v 1 0 -0.2
v 1 0.2 -0.2
v -0.8 -0.1 -0.3
v -0.8 0 -0.3
v -0.8 0.2 -0.3
v 0.8 -0.1 -0.3
v 0.8 0 -0.3
v 0.8 0.2 -0.3
v -0.8 -0.2 0.1
v 0.8 -0.2 0.1
v -0.8 -0.2 0
v 0.8 -0.2 0
v -0.8 -0.2 -0.1
v 0.8 -0.2 -0.1
v -0.8 -0.2 -0.2
v 0.8 -0.2 -0.2
v -0.8 -0.1 0.2
v 0.8 -0.1 0.2
v -1 -0.1 0.1
v -0.8 -0.1 0.1
v 0.8 -0.1 0.1
v 1 -0.1 0.1
v -0.8 -0.1 0
v 0.8 -0.1 0
v -0.8 -0.1 -0.1
v 0.8 -0.1 -0.1
v -1 -0.1 -0.2
v -0.8 -0.1 -0.2
v 0.8 -0.1 -0.2
v 1 -0.1 -0.2
v -0.8 -0.1 -0.3
v 0.8 -0.1 -0.3
v -0.8 0.2 0.2
v 0.8 0.2 0.2
v -1 0.2 0.1
v -0.8 0.2 0.1
v 0.8 0.2 0.1
v 1 0.2 0.1
v -1 0.2 -0.2
v -0.8 0.2 -0.2
v 0.8 0.2 -0.2
v 1 0.2 -0.2
v -0.8 0.2 -0.3
v 0.8 0.2 -0.3
v -0.8 0.3 0.1
v 0.8 0.3 0.1
v -0.8 0.3 -0.2
v 0.8 0.3 -0.2

# faces
f 3/4/1 2/4/1 1/4/1
f 4/4/1 2/4/1 3/4/1
f 5/3/1 4/3/1 3/3/1
f 6/3/1 4/3/1 5/3/1
f 12/2/1 8/2/1 7/2/1
f 13/1/1 9/1/1 8/1/1
f 13/2/1 8/2/1 12/2/1
f 14/2/1 10/2/1 9/2/1
f 14/1/1 9/1/1 13/1/1
f 15/2/1 10/2/1 14/2/1
f 17/4/1 12/4/1 11/4/1
f 18/4/1 12/4/1 17/4/1
f 19/4/1 16/4/1 15/4/1
f 20/4/1 16/4/1 19/4/1
f 21/3/1 18/3/1 17/3/1
f 22/3/1 18/3/1 21/3/1
f 23/3/1 20/3/1 19/3/1
f 24/3/1 20/3/1 23/3/1
f 25/3/1 23/3/1 22/3/1
f 26/3/1 23/3/1 25/3/1
f 27/2/2 28/2/2 32/2/2
f 28/1/2 29/1/2 33/1/2
f 32/2/2 28/2/2 33/2/2
f 29/2/2 30/2/2 34/2/2
f 33/1/2 29/1/2 34/1/2
f 34/2/2 30/2/2 35/2/2
f 31/4/2 32/4/2 37/4/2
f 37/4/2 32/4/2 38/4/2
f 35/4/2 36/4/2 39/4/2
f 39/4/2 36/4/2 40/4/2
f 37/3/2 38/3/2 41/3/2
f 41/3/2 38/3/2 42/3/2
f 39/3/2 40/3/2 43/3/2
f 43/3/2 40/3/2 44/3/2
f 42/3/2 43/3/2 45/3/2
f 45/3/2 43/3/2 46/3/2
f 47/4/2 48/4/2 49/4/2
f 49/4/2 48/4/2 50/4/2
f 49/3/2 50/3/2 51/3/2
f 51/3/2 50/3/2 52/3/2
f 56/4/3 54/4/3 53/4/3
f 57/3/3 55/3/3 54/3/3
f 57/4/3 54/4/3 56/4/3
f 58/3/3 55/3/3 57/3/3
f 63/4/3 60/4/3 59/4/3
f 64/3/3 61/3/3 60/3/3
f 64/4/3 60/4/3 63/4/3
f 65/3/3 61/3/3 64/3/3
f 67/2/3 63/2/3 62/2/3
f 68/2/3 63/2/3 67/2/3
f 70/3/3 66/3/3 65/3/3
f 71/3/3 66/3/3 70/3/3
f 72/4/3 69/4/3 68/4/3
f 73/3/3 70/3/3 69/3/3
f 73/4/3 69/4/3 72/4/3
f 74/3/3 70/3/3 73/3/3
f 75/4/4 76/4/4 79/4/4
f 76/3/4 77/3/4 80/3/4
f 79/4/4 76/4/4 80/4/4
f 80/3/4 77/3/4 81/3/4
f 78/2/4 79/2/4 83/2/4
f 83/2/4 79/2/4 84/2/4
f 81/3/4 82/3/4 86/3/4
f 86/3/4 82/3/4 87/3/4
f 84/4/4 85/4/4 88/4/4
f 85/3/4 86/3/4 89/3/4
f 88/4/4 85/4/4 89/4/4
f 89/3/4 86/3/4 90/3/4
f 91/4/4 92/4/4 94/4/4
f 92/3/4 93/3/4 95/3/4
f 94/4/4 92/4/4 95/4/4
f 95/3/4 93/3/4 96/3/4
f 99/2/5 98/2/5 97/2/5
f 100/2/5 98/2/5 99/2/5
f 101/1/5 100/1/5 99/1/5
f 102/1/5 100/1/5 101/1/5
f 103/2/5 102/2/5 101/2/5
f 104/2/5 102/2/5 103/2/5
f 108/4/5 106/4/5 105/4/5
f 109/4/5 106/4/5 108/4/5
f 111/4/5 108/4/5 107/4/5
f 112/4/5 110/4/5 109/4/5
f 113/4/5 111/4/5 107/4/5
f 114/4/5 110/4/5 112/4/5
f 115/4/5 113/4/5 107/4/5
f 116/4/5 113/4/5 115/4/5
f 117/4/5 110/4/5 114/4/5
f 118/4/5 110/4/5 117/4/5
f 119/4/5 117/4/5 116/4/5
f 120/4/5 117/4/5 119/4/5
f 121/3/6 122/3/6 124/3/6
f 124/3/6 122/3/6 125/3/6
f 123/3/6 124/3/6 127/3/6
f 127/3/6 124/3/6 128/3/6
f 125/3/6 126/3/6 129/3/6
f 129/3/6 126/3/6 130/3/6
f 128/3/6 129/3/6 131/3/6
f 131/3/6 129/3/6 132/3/6
f 133/3/6 134/3/6 135/3/6
f 135/3/6 134/3/6 136/3/6
